<?xml version="1.0" encoding="UTF-8" standalone="no"?>
<!DOCTYPE svg  PUBLIC '-//W3C//DTD SVG 1.1//EN'  'http://www.w3.org/Graphics/SVG/1.1/DTD/svg11.dtd'>
<svg xmlns="http://www.w3.org/2000/svg">
<defs>
<font id="Essays1743-Regular" horiz-adv-x="765">
<font-face underline-position="-100" font-weight="500" descent="-205" panose-1="2 0 6 2 0 0 0 0 0 0" units-per-em="1024" unicode-range="U+000D-232A" bbox="-100 -270 1191 946" x-height="477" underline-thickness="50" font-family="Essays1743" ascent="819" cap-height="745"/>
<missing-glyph horiz-adv-x="1024"/>
<glyph glyph-name="AE" horiz-adv-x="1055" unicode="AE" d="M793 429l-1 27q0 49 43 49q19 0 34 -16q0 -53 4 -290q-29 -12 -41 -12t-31 21q-2 8 -2 22t7 27q7 12 7 18t-4 12q-3 6 -11 10l-14 7q-16 6 -22 6q-38 12 -58 12q-50 0 -65 -29q-13 -60 -15 -93t-2 -103q4 -11 14 -19t46 -15t69 -7q34 0 152 5q32 17 41 47q11 43 45 83 q18 -20 22 -37t4 -73t-32 -81h-489q23 247 23 251h-10l-164 5q-34 0 -67 -3q-23 -19 -27 -37t-5 -26t-1 -28t-1 -28q9 -5 18 -5l30 5q9 0 17 -9q1 -19 1 -55t-9 -47q-17 -18 -46 -18l-81 9h-10t-26 -2q-20 0 -51 -1q-3 -1 -9 -4t-15 -3q-8 0 -27 14q-3 5 -10 12 q-14 16 -14 25q0 37 26 61t48 24l36 -5q11 0 17 5q27 46 45 116l6 23l38 121q22 68 40 107t48 93l46 89q13 6 36 23q55 38 79 38q11 0 19 -5h100l211 1q66 0 167 -18q2 -17 2 -34v-26t1 -17t1 -13v-9q0 -4 2 -8q2 -3 4 -7t4 -11t5 -15t15 -18q12 -12 12 -18v-2l-1 -2 q-49 -16 -65 -16t-27 1q-28 3 -61 5q-3 4 -3 6q1 2 11 12t10 21t-1 15l-7 29q-2 4 -8 8t-14 15q-38 7 -67 7q-29 -1 -51 -3t-36 -4t-17 -3l-15 1q-12 0 -19 -8q-1 -46 -1 -114t1 -125q77 -14 89 -14t39 6q18 12 18 42zM521 339q4 95 4 159t-3 144q-8 -22 -30 -38t-42 -22 l-18 -6q-4 -11 -40 -83t-45 -97q2 0 2 -8t-25 -52q78 -2 105 -2t92 5z"/>
<glyph glyph-name="ae" horiz-adv-x="604" unicode="ae" d="M259 178l-1 10q-2 28 -23 40q-6 4 -29 -2q-20 -5 -48 -22q-49 -32 -49 -60q0 -56 32 -70q4 -2 8 -2t14 6t14 6l14 6q28 11 41 26q27 31 27 62zM486 343l3 35q0 18 -13 28q-14 10 -30 9q-16 0 -38 -15q-46 -31 -46 -54q0 -4 3 -9q5 -5 62 -5t59 11zM397 8q-40 -2 -73 -6 q-4 1 -12 1q-24 0 -36 15t-14 18q-2 2 -6 8q-7 12 -14 12h-4q-11 0 -30 -16q-18 -15 -23 -18t-13 -8q-25 -19 -60 -19q-35 1 -58 15t-31 47t-8 55t11 50q25 64 137 109q9 3 33 5t34 10t14 28q4 18 5 30q0 12 -2 23t-3 19t-2 12t-3 10q-9 23 -31 23q-6 1 -30 -5t-37 -22 q-12 -16 -12 -46v-19q-1 -17 -17 -29t-31 -12q-52 0 -52 51q0 7 1 13q14 80 73 104q17 7 57 15q5 1 46 6q17 2 31 2q15 0 61 -2h82q56 1 82 -7t46 -12q18 -4 25 -6q22 -8 35 -33q21 -40 21 -64q0 -22 -12 -58q-11 -26 -28 -28q-121 -11 -161 -11t-40 1q-2 -20 -2 -38t4 -46 t13 -47q12 -28 34 -42q8 -5 16 -7t10 -3q10 -2 15 -2l15 -1l33 -3q33 0 44 28q4 10 8 26t18 15q14 0 24 -8t9 -19v-1q-3 -43 -5 -49q-1 -8 -14 -30t-40 -33q-13 -6 -31 -6l-37 2z"/>
<glyph glyph-name=".notdef" horiz-adv-x="1024"/>
<glyph glyph-name=".null" horiz-adv-x="0"/>
<glyph glyph-name="uni000D" horiz-adv-x="1024" unicode=""/>
<glyph glyph-name="space" horiz-adv-x="474" unicode=" "/>
<glyph glyph-name="exclam" horiz-adv-x="301" unicode="!" d="M117 319l1 42q0 23 -6 121t-6 132.5t2 90.5q25 31 56 31t56 -22q1 -32 1 -99t-11 -180l-5 -47q-2 -18 -5 -30q-10 -54 -20 -121q-21 -23 -39 -23q-7 0 -15 5q-9 60 -9 100zM135 111q18 8 38 8t33 -16t13 -38.5t-20 -42.5t-43 -20q-57 0 -57 46v9q5 39 36 54z"/>
<glyph glyph-name="quotedbl" horiz-adv-x="538" unicode='&quot;' d="M366 328l2 111q0 35 -1 53q-32 19 -42 32.5t-19 38.5t-9 48t6 40.5t9.5 30.5t5.5 18l7 15q5 11 11 15l13 12q14 11 48.5 11t69.5 -35.5t35 -84.5q0 -19 -10 -71q-3 -18 -28.5 -53.5t-25.5 -83.5l4 -80q0 -34 -14 -52.5t-52 -19.5q-10 10 -10 55zM116 328l2 111 q0 35 -1 53q-32 19 -42 32.5t-19 38.5t-9 48t6 40.5t9.5 30.5t5.5 18l7 15q5 11 11 15l13 12q14 11 48.5 11t69.5 -35.5t35 -84.5q0 -19 -10 -71q-3 -18 -28.5 -53.5t-25.5 -83.5l4 -80q0 -34 -14 -52.5t-52 -19.5q-10 10 -10 55z"/>
<glyph glyph-name="numbersign" horiz-adv-x="512" unicode="#" d="M208 302l8 -61l58 8q-2 40 -2 59q-44 -2 -64 -3v-3zM201 432l22 2l29 4q21 3 31 4q9 26 25 42t32 16t31 -20t21 -42q34 -6 54 -24t20 -37t-16 -35t-51 -26q0 -9 1 -16l4 -27q3 -21 4 -30q22 -7 40 -23t18 -35t-16 -35q-17 -17 -48 -25q-5 -26 -23 -47q-19 -20 -37 -20 t-34 16q-15 16 -23 42h-8l-69 -3q-7 -20 -18 -31q-22 -24 -40 -24t-34 17t-25 48q-30 9 -48 25t-18 33q-1 17 19 32t38 19v16l-3 71q-22 9 -38 23t-16 31t21 33q21 15 40 19q10 37 28 56t34 19t32 -20t21 -48z"/>
<glyph glyph-name="dollar" horiz-adv-x="314" unicode="$" d="M176 110l2 -58q0 -10 -1 -10l-19 -4q-9 -1 -17 -1q-33 0 -45 20q-4 20 -4 38l1 26v1q-3 1 -13 3t-12 3q-4 1 -11 4t-11 6q-10 7 -16 16q-21 32 -21 55t16 54q4 10 12 10q9 1 25 -25t37 -51t41 -25h4q28 3 45 24t18 50v2q0 16 -8 26t-11 13t-14 11t-13 11q-17 15 -64 21 t-61 32q-20 38 -20 64v12t1 15q1 41 23 67t64 52q4 2 6 37t4 52q33 11 42 11q23 0 30 -20v-13l-3 -44q0 -10 7 -11q60 -16 79 -63q7 -17 7 -31t-10 -34q-10 -21 -15 -21q-4 0 -11 13q-21 43 -33 51q-36 24 -47 24q-12 0 -24 -4q-12 -5 -25 -19t-13 -26t1 -16q5 -24 45 -36 t50 -20t31 -23t30 -23q27 -24 37 -54t10 -60t-19 -58t-35 -38t-30 -14q-13 -4 -40 -10q-2 0 -2 -12z"/>
<glyph glyph-name="percent" horiz-adv-x="793" unicode="%" d="M184 540q34 17 45 53q3 11 3 25t-13 38q-21 41 -68 41q-18 0 -35 -10q-25 -13 -36 -49q-5 -18 -5 -32t10 -31q17 -30 55 -39q10 -3 20 -3t24 7zM109 506q-50 26 -67 67q-10 28 -10 51t18 57q18 35 48 47t48 12t53 -9q55 -18 73 -49q18 -32 19 -58q0 -26 -9 -51 q-18 -57 -65 -76q-24 -10 -49 -10t-59 19zM619 102q34 17 45 53q3 11 3 25t-13 38q-21 41 -68 41q-18 0 -35 -10q-25 -13 -36 -49q-5 -18 -5 -32t10 -31q17 -30 55 -39q11 -3 21 -3t23 7zM544 68q-50 26 -67 67q-10 28 -10 51q-1 23 17 57q18 35 48 47t50 12q18 0 52 -9 q56 -18 74 -49q18 -32 18 -58t-9 -51q-18 -57 -65 -76q-24 -10 -49 -10t-59 19zM282 28l-137 -6q-37 0 -77 6q-6 7 -18 16q-24 18 -24 36t20 32q20 12 34 12l48 -10q10 0 17 8l188 226q31 36 57 64l63 65q49 53 83 108t76 101q-3 10 -28 12t-25 20q0 17 18 27q42 1 72 3 t37 2t79 -25q7 -8 7 -20q0 -11 -8 -23t-18 -12l-31 6q-7 0 -10 -2q-75 -82 -127 -155t-74 -101l-92 -114q-69 -86 -122 -165q0 -5 -8 -15t-8 -17q0 -14 16 -14l21 2q15 0 15 -16q0 -13 -20 -29t-24 -22z"/>
<glyph glyph-name="ampersand" horiz-adv-x="943" unicode="&amp;" d="M711 360l11 -119q0 -52 -37 -100l-23 -32q-46 -61 -79 -77q-15 -7 -77 -20t-114 -13q-52 1 -113 15t-97 32t-64 57q-62 85 -62 157q0 32 17 80t31 74t23 26q26 3 42 28q-5 22 -25 46t-20 44q2 50 18 84t64 64q48 29 86 29t56 -18q18 -17 18 -35t-12 -36t-32 -17l-49 8 q-21 0 -46 -24t-25 -48q0 -39 55 -39h11q16 0 26 -2t22 -12t11 -34q0 -24 -37 -58q-14 -13 -42 -13l-30 1q-32 0 -40 -21q-26 -66 -26 -102t34 -90q13 -22 30 -33l16 -10q6 -4 20 -8t19 -6q4 -2 23 -6q20 -4 48 -12t66 -7q38 -1 88 13q49 14 79 30t53 51q36 53 36 108 q0 30 -9 63q-24 90 -110 90q-33 0 -55 -19t-22 -37t10 -29q10 -12 24 -12q12 0 36 9t36 9t18 -11t7 -22q-1 -26 -31 -51t-68 -25t-66 31q-27 31 -27 73q0 50 31 97q4 6 10 11q6 4 10 8t12 8l11 6q12 6 21 7q28 6 38 10t34 4q24 1 82 -19t76 -20q20 0 32 10q18 15 18 32 q0 14 -34 26t-39 30q-2 14 -2 22q0 38 22 60t61 22q20 0 38 -6t36 -27q18 -22 17 -58q0 -86 -55 -136q-15 -14 -41 -14l-43 3q-24 0 -36 -12t-12 -23t8 -31t9 -34z"/>
<glyph glyph-name="quotesingle" horiz-adv-x="288" unicode="&apos;" d="M116 328l2 111q0 35 -1 53q-32 19 -42 32.5t-19 38.5t-9 48t6 40.5t9.5 30.5t5.5 18l7 15q5 11 11 15l13 12q14 11 48.5 11t69.5 -35.5t35 -84.5q0 -19 -10 -71q-3 -18 -28.5 -53.5t-25.5 -83.5l4 -80q0 -34 -14 -52.5t-52 -19.5q-10 10 -10 55z"/>
<glyph glyph-name="parenleft" horiz-adv-x="256" unicode="(" d="M138 -234q-38 82 -55.5 130.5t-33.5 152t-16 176t23 167t53 156t89 124.5q3 3 9 3t14.5 -8.5t8.5 -14t-1 -7.5q-52 -110 -70 -158t-33.5 -141.5t-15.5 -154.5t15 -127.5t26 -91.5t39 -73q58 -99 58 -114.5t-21.5 -26.5t-50.5 -11t-38 19z"/>
<glyph glyph-name="parenright" horiz-adv-x="256" unicode=")" d="M143 656q38 -82 55.5 -130.5t33.5 -152t16 -176t-23 -167t-53 -156t-89 -124.5q-3 -3 -9 -3t-14.5 8.5t-8.5 14t1 7.5q52 110 70 158t33.5 141.5t15.5 154.5t-15 127.5t-26 91.5t-39 73q-58 99 -58 114.5t21.5 26.5t50.5 11t38 -19z"/>
<glyph glyph-name="asterisk" horiz-adv-x="534" unicode="*" d="M310 681l-2 -53q0 -33 9 -61q3 5 16 25t24 36q11 15 29 30t32 15q14 -1 28 -11t14 -23q0 -32 -89 -90q19 -4 60 -4q41 1 59 -7t19 -30q0 -22 -10 -30t-30 -8l-57 2q-24 0 -47 -4q12 -21 35 -45q24 -24 38 -42t14 -31q0 -14 -12 -24t-23 -10q-10 0 -20 16q-9 16 -27 40 q-18 25 -41 42q-5 -36 -7 -76t-4 -54q-6 -23 -34 -23t-36 8t-9 27l3 70q0 21 -3 48q-16 -12 -32 -42q-17 -32 -31 -52q-15 -22 -34 -22q-18 0 -38 14t-19 29q0 15 25 34l58 41q33 23 44 43q-12 -1 -56 -9t-67 -8q-58 0 -58 45q0 23 17 31t50 7l50 -1q29 0 49 4 q-17 20 -45 38t-46 32q-17 14 -17 26q1 12 13 26t24 13q13 0 22 -5q15 -8 42 -37l52 -57v19l-4 97q0 20 8 28t32 9h1q19 0 25 -9t6 -27z"/>
<glyph glyph-name="plus" horiz-adv-x="346" unicode="+" d="M100 270q2 36 17 58q23 33 46.5 33t38.5 -15q23 -20 25 -63q47 0 69.5 -22t22.5 -48q0 -27 -24 -45t-57 -20l-2 -20q-3 -24 -9.5 -32t-21.5 -18.5t-30 -10.5t-27 4t-26.5 23t-16.5 51q-39 3 -60 24t-21 35.5t4 26t22.5 25.5t49.5 14z"/>
<glyph glyph-name="comma" horiz-adv-x="322" unicode="," d="M72 76q0 51 26 75.5t51 24.5t59 -14t50 -54q12 -28 12 -54t-7.5 -64t-21 -69.5t-39.5 -59.5t-41 -36t-41 -8q-55 0 -55 37q0 25 44 41q17 6 30.5 21.5t13.5 38t-11.5 34.5t-25.5 15q-38 8 -41 30.5t-3 41.5z"/>
<glyph glyph-name="hyphen" horiz-adv-x="346" unicode="-" d="M192 147l-69 -3q-62 0 -90 39q-9 13 -9 29q0 17 14 32q23 27 71 27q3 0 5 -1h8q31 2 34 3q30 10 74.5 10t66.5 -21.5t22 -43t-9 -34.5t-17.5 -20t-23.5 -10.5t-21 -4.5q-14 -2 -56 -2z"/>
<glyph glyph-name="period" horiz-adv-x="303" unicode="." d="M203 42q-25 -32 -69 -32t-56.5 30t-12.5 55t12 46q23 45 63 45t63 -45q15 -27 15 -53t-15 -46z"/>
<glyph glyph-name="slash" horiz-adv-x="793" unicode="/" d="M282 28l-137 -6q-37 0 -77 6q-6 7 -18 16q-24 18 -24 36.5t20.5 31t33.5 12.5l48 -10q10 0 17 8l188 226q31 36 57 64l63 65q48 53 82.5 108t76.5 101q-3 10 -28 12.5t-25 19.5t18 27q42 0 72 2.5t37 2.5t79 -25q7 -8 7 -20t-7.5 -23.5t-18.5 -11.5l-31 6q-7 0 -10 -2 q-76 -82 -127.5 -155t-73.5 -101l-92 -114q-69 -86 -122 -165q-1 -4 -8.5 -14.5t-7.5 -17.5q0 -14 16 -14l21 2q15 0 15 -16q0 -12 -20 -28.5t-24 -22.5z"/>
<glyph glyph-name="zero" horiz-adv-x="560" unicode="0" d="M326 101q70 36 90 106q6 23 6 51t-19 64q-19 38 -33 53t-46 27q-30 12 -63 13q-33 0 -70 -19q-52 -27 -72 -99q-10 -35 -10 -63q1 -28 19 -62t44 -51t56 -25t50 -9q20 0 48 14zM474 74q-30 -36 -82 -58t-100 -21q-49 0 -108 33t-91 63q-32 29 -51 79t-19 99t25 99t51 74 t69 42q42 18 84 17q42 1 102 -17t94 -38t62 -71q30 -50 30 -102q0 -51 -18 -107t-48 -92z"/>
<glyph glyph-name="one" horiz-adv-x="560" unicode="1" d="M199 418l-19 -3q-11 0 -17 19t-6 33q0 35 23 52h198q28 -24 28 -59q0 -18 -10 -40q-3 -6 -8 -4q-15 8 -17 -12l1 -178v-130q2 -6 11 -6t13 -3q8 -10 15.5 -33t7.5 -35q-216 -4 -258 -4q-16 0 -16 19.5t8.5 39t21.5 19.5l22 -3q11 0 16 12q3 129 3 142v161q-6 13 -17 13z "/>
<glyph glyph-name="two" horiz-adv-x="560" unicode="2" d="M238 17l-146 5q-10 0 -10 13t10 29q39 63 107 126t100 125q17 34 17 59t-17 44t-40 19t-47.5 -8.5t-36.5 -21t-28 -34t-37 -39.5q-18 30 -18 39t24 45t43 51.5t74 33.5t94 18t71.5 -31.5t32.5 -81.5q0 -28 -13 -76t-59 -91t-60 -65q-7 -24 -7 -26v-1q0 -3 -11 -29h96 q3 3 3 8l-3 26q0 10 6 16q30 13 51 13t45 -17q-16 -76 -27 -89q-2 -3 -15 -16.5t-30 -35.5q-161 -8 -169 -8z"/>
<glyph glyph-name="three" horiz-adv-x="560" unicode="3" d="M215 -121v-3q0 -28 30.5 -28t68.5 47q39 47 39 136q0 33 -20 53t-62 20t-67 -17.5t-60 -20.5q-16 11 -16 31.5t16 58.5q32 35 78 78t68.5 66.5t22.5 39t-18 35t-43.5 19.5t-42.5 -11.5t-25 -26.5q-22 -42 -58 -56q-3 -1 -5 -1q-9 0 -9 16.5t3 33t12 43.5q20 58 90 103 q45 29 85 29t94 -26q28 -27 28 -71q0 -22 -8.5 -63t-41.5 -83t-41 -62q6 -12 23 -12l25 1q40 0 58 -58.5t18 -117.5t-21.5 -112t-42 -80t-57.5 -47q-88 -46 -135.5 -46t-79 27t-31.5 65t27 65q17 2 34 2l35 -3l21 1q8 -6 8 -25z"/>
<glyph glyph-name="four" horiz-adv-x="560" unicode="4" d="M201 286l-6 -1l-90 -144q-5 -20 -5 -25.5t5 -10.5l64 2q-8 0 -8 1q16 2 79 6v135q-18 37 -39 37zM239 -129l1 82q0 28 -3 77q-13 1 -38.5 1t-56.5 -6.5t-51.5 -6.5t-72.5 12q-15 4 -15 19t6 35l83 137q38 64 46 79.5t33.5 51.5t46.5 62l85 102q8 4 21.5 4t23.5 -13 q9 -87 9 -112.5t-18 -280.5q9 -1 29 -1t50 10t60 10t70 -2q9 -14 9 -29q0 -32 -33.5 -62.5t-61.5 -30.5q-8 0 -40 8t-66 8l-20 -1l3 -155q0 -32 -2 -64q-24 -27 -50 -27t-47 18q-1 31 -1 75z"/>
<glyph glyph-name="five" horiz-adv-x="560" unicode="5" d="M193 162q125 20 159 20t74 -12t55 -44q20 -40 20 -88t-35 -116t-79 -104q-43 -34 -97 -56t-80 -22t-64 10t-62 22q-24 13 -41 42q-9 15 -9 34t20 40t42 21q23 0 34 -9t15 -20q11 -33 34 -38q25 -5 43 -5q50 0 86 32q64 57 64 139q0 54 -37 98q-17 20 -39 20t-52 -7 t-63 -41t-62 -38h-6q-19 0 -24 12l25 113q32 149 47 189t71 135l27 45q3 1 9 1q18 -1 38 -31t40 -36t25 -7q35 0 35 46v18q0 44 29 44q22 1 62 -29t40 -79q-1 -23 -11 -53t-20 -46l-11 -18q-62 5 -93 5l-37 -2q-16 0 -56 5q-6 6 -6 16l7 36q0 16 -16 16l-30 -2h-5 q-7 -31 -13 -59t-8 -39l-4 -23q-6 -23 -10 -33t-6 -20z"/>
<glyph glyph-name="six" horiz-adv-x="560" unicode="6" d="M411 241q0 62 -12 95q-12 32 -44 52q-31 20 -69 20t-80 -22q-71 -38 -71 -148q0 -66 47 -120q31 -36 106 -36q40 0 68 25q55 49 55 134zM346 19q-58 -11 -92 -11t-84 22t-82 50q-32 29 -44 78q-25 100 -25 158t19 124t47 110t81 89q68 55 120 81t126 27q24 -1 38 -5 t28 -24q-38 -29 -80 -48t-66 -40l-29 -24q-23 -19 -29 -24l-21 -22q-16 -15 -23 -26l-18 -30q-23 -38 -23 -52t15 -22q23 8 44 17l30 13q20 8 38 8q111 0 166 -75q52 -74 52 -141q0 -46 -19 -87t-37 -61t-53 -48q-36 -28 -79 -37z"/>
<glyph glyph-name="seven" horiz-adv-x="560" unicode="7" d="M90 -18q52 156 89 228t51 107t38 78t36 79t12 82q-15 42 -72 42q-43 0 -64 -19l-32 -27q-23 -20 -48 -38q-44 0 -54 30q20 102 32 126t64 75q18 10 36 10t36 -14q4 -3 4 -13t8 -16h306l-166 -340q-19 -40 -54 -121l-88 -215q-4 -4 -14 -17q-18 -26 -36 -28q-18 -1 -28 -3 t-13 -3q-6 -3 -17 -3h-26z"/>
<glyph glyph-name="eight" horiz-adv-x="560" unicode="8" d="M319 98q26 15 38 60q8 26 8 46t-10 40q-14 29 -48 41q-33 12 -55 12t-47 -11q-29 -14 -39 -42t-10 -53q0 -24 15 -54t45 -42t52 -12q24 0 51 15zM326 610q-36 26 -72 26t-61 -20q-39 -31 -39 -78q0 -22 14 -52t42 -42t56 -12t59 18q17 10 27 38t10 46q0 50 -36 76z M193 358q-34 21 -47 30q-33 25 -51 68q-21 57 -21 102t29 96q15 26 37 38t63 23t82 11t86 -19t65 -37t36 -47q14 -30 14 -53q0 -24 -2 -36t-4 -22t-8 -18q-4 -10 -7 -16t-9 -12l-23 -22q-14 -14 -37 -28l-38 -24q-14 -8 -14 -12t4 -9q4 -3 10 -9q7 -6 9 -8q14 -16 52 -32 t51 -40q18 -35 18 -68q0 -34 -14 -82t-24 -68t-35 -34q-55 -32 -107 -32t-114 22t-87 76q-15 34 -15 70t21 92q9 24 41 52t39 48z"/>
<glyph glyph-name="nine" horiz-adv-x="560" unicode="9" d="M396 132q18 44 18 86t-30 106q-18 36 -52 49t-60 13t-56 -14q-28 -14 -44 -54q-21 -58 -21 -100q-1 -42 17 -82t50 -54t60 -13q28 0 66 16t52 47zM362 32q-4 0 -50 -13t-74 -13t-69 16q-40 16 -65 56q-51 76 -51 149q0 31 11 79q24 102 116 144q58 26 112 26t118 -37 q35 -20 50 -48t31 -84t16 -111q-3 -12 -23 -160q-4 -36 -28 -82t-61 -88q-38 -42 -73 -66t-77 -40q-43 -16 -61 -18t-66 -2q-19 8 -19 27q0 6 1 8q40 39 90 63t62 35l30 25q16 13 19 16l15 15q12 11 14 15t11 16q8 12 10 22t8 26t7 24h-4z"/>
<glyph glyph-name="colon" horiz-adv-x="385" unicode=":" d="M220 42q-25 -32 -69 -32t-56.5 30t-12.5 55t12 46q23 45 63 45t63 -45q15 -27 15 -53t-15 -46zM220 352q-25 -32 -69 -32t-56.5 30t-12.5 55t12 46q23 45 63 45t63 -45q15 -27 15 -53t-15 -46z"/>
<glyph glyph-name="semicolon" horiz-adv-x="385" unicode=";" d="M72.7559 172.52q0 43.2959 26.2734 64.0947q26.2725 20.7988 51.5352 20.7988q25.2617 0 59.6191 -11.8848q34.3574 -11.8857 50.5254 -45.8428q12.125 -23.7705 12.125 -45.8428t-7.57812 -54.332q-7.5791 -32.2598 -21.2207 -59.001 q-13.6416 -26.7422 -39.9141 -50.5117q-26.2734 -23.7705 -41.4307 -30.5625q-15.1572 -6.79102 -41.4307 -6.79102q-55.5771 0 -55.5771 31.4102q0 21.2236 44.4619 34.8066q17.1777 5.09375 30.8203 18.252q13.6416 13.1592 13.6416 32.2598q0 19.1016 -11.6211 29.2891 q-11.6201 10.1865 -25.7676 12.7334q-38.3994 6.79199 -41.4307 25.8926q-3.03125 19.1016 -3.03125 35.2314zM232 361q-25 -32 -69 -32t-56.5 30t-12.5 55t12 46q23 45 63 45t63 -45q15 -27 15 -53t-15 -46z"/>
<glyph glyph-name="less" horiz-adv-x="372" unicode="&lt;" d="M309 372l-20 1q-8 0 -11 -2l-104 -65q-28 -18 -58 -43q18 -27 45.5 -48t69.5 -46t70 -47q13 -23 13 -28t-7 -11q-39 -14 -109 -14q-29 0 -55.5 24t-39.5 53q-1 4 -44 48t-43 62q0 8 7 12q29 35 103 92q3 2 28.5 28t51 36.5t58.5 10.5t52.5 -8.5t19.5 -20t-7 -23 t-20 -11.5z"/>
<glyph glyph-name="equal" horiz-adv-x="346" unicode="=" d="M192 51l-69 -3q-62 0 -90 39q-9 13 -9 29q0 17 14 32q23 27 71 27q3 0 5 -1h8q31 2 34 3q30 10 74.5 10t66.5 -21.5t22 -43t-9 -34.5t-17.5 -20t-23.5 -10.5t-21 -4.5q-14 -2 -56 -2zM192 243l-69 -3q-62 0 -90 39q-9 13 -9 29q0 17 14 32q23 27 71 27q3 0 5 -1h8 q31 2 34 3q30 10 74.5 10t66.5 -21.5t22 -43t-9 -34.5t-17.5 -20t-23.5 -10.5t-21 -4.5q-14 -2 -56 -2z"/>
<glyph glyph-name="greater" horiz-adv-x="372" unicode="&gt;" d="M53 133l20 -1q8 0 11 2l104 65q28 18 58 43q-18 27 -45.5 48t-69.5 46t-70 47q-13 23 -13 28t7 11q39 14 109 14q29 0 55.5 -24t39.5 -53q1 -4 44 -48t43 -62q0 -8 -7 -12q-29 -35 -103 -92q-3 -2 -28.5 -28t-51 -36.5t-58.5 -10.5t-52.5 8.5t-19.5 20t7 23t20 11.5z"/>
<glyph glyph-name="question" horiz-adv-x="474" unicode="?" d="M217 355l-3 -82q0 -28 3 -45q-8 -7 -25.5 -7t-37.5 25q-23 92 -23 136t5 107q46 15 75 15l39 -2q19 0 39 5q14 14 14 28t-7 30t-24 25.5t-42 17t-37.5 15t-30 13t-28.5 12.5q-20 12 -20 48t31 54q24 2 41.5 2t37 -8t56.5 -30q4 -7 19 -29.5t19 -29.5l12 -23 q13 -27 17 -63l5 -31q4 -25 4 -37q0 -38 -31 -69q-15 -15 -53.5 -25.5t-54.5 -34.5v-17zM120 163.5q25 14.5 58.5 14.5t53.5 -26.5t20 -52.5q0 -66 -74 -66q-26 0 -45 18q-38 33 -38 65.5t25 47z"/>
<glyph glyph-name="at" horiz-adv-x="527" unicode="@" d="M340 308q0 16 -7 26t-23 10t-50 -22q-32 -22 -32 -42q0 -43 24 -53q9 -1 16 3t12 6q6 2 16 5q10 5 27 23t17 42v2zM406 173l-19 -1q-28 0 -47 32q-8 10 -16 10t-20 -12q-37 -35 -80 -35q-42 0 -56 36q-10 27 -10 49q0 80 111 123q5 1 26 3t30 13t9 49q-1 36 -18 50 q-5 4 -17 4q-46 0 -53 -35q-2 -10 -2 -19q0 -27 -12 -36t-29 -9q-15 0 -25 11t-10 27q0 47 27 69t50 28t64 6h2q12 0 24 -2q13 -2 31 -20q18 -16 22 -40t5 -88q1 -159 17 -159t35 41t19 72q0 32 -8 64t-8 46q-2 14 -32 64t-46 60t-56 11q-101 0 -146 -54q-19 -23 -50 -105 q-30 -83 -30 -152q0 -86 56 -120t146 -34q35 0 81 6t53 5q7 0 7 -3q0 -18 -65 -42q-66 -25 -120 -25t-76 2q-22 1 -49 15t-50 42q-54 67 -54 144q1 20 13 118t37 146q63 123 254 123q78 0 97 -11q34 -22 62 -100t28 -165q0 -120 -56 -193q-8 -10 -22 -10l-20 1h-4z"/>
<glyph glyph-name="A" d="M398 566q-5 -13 -24.5 -86.5t-49.5 -143.5q31 -17 59.5 -17t112.5 8v8q0 29 -15 61t-20 44t-14 45.5t-19.5 52t-29.5 28.5zM84 140l36 -5q11 0 17 5q15 22 42 110l9 29l41 111q56 153 131 299q52 27 72 27t40 -11q30 -45 38.5 -69.5t16.5 -50.5l13 -42q25 -71 58 -210 q31 -131 53 -191q12 -17 47 -28q36 -12 47.5 -32.5t11.5 -37.5q0 -16 -12 -30q-3 -3 -8.5 -2t-8.5 -1q-51 -11 -200 -11h-84q-25 0 -25 35.5t25 64.5q10 11 15.5 11t18 -3.5t27 -3.5t31.5 4q4 7 6.5 8t3.5 2q2 2 2 17t-2 42t-2.5 30.5t-3.5 12.5q-4 10 -8 15q-15 19 -46 23 q-20 -2 -54 -2l-73 1q-39 0 -83 -4q-23 -19 -27 -36.5t-5 -26t-1 -28t-1 -28.5q9 -5 18 -5l30 5q9 0 17 -9q2 -42 2 -67q0 -24 -10 -35q-17 -19 -46 -19q-11 0 -38 5t-43 5h-7q-35 0 -80 -3q-3 -1 -9.5 -4t-14.5 -3t-27 14q-3 5 -10 12q-14 16 -14 27q0 45 55 78q10 5 19 5z " unicode="A"/>
<glyph glyph-name="B" horiz-adv-x="631" unicode="B" d="M349 76q61 0 93 44t33 94q0 48 -23 82t-65 38l-35 6q-28 4 -40 4q-35 0 -36 -27q-9 -122 -9 -145v-27q1 -29 25 -49t57 -20zM301 666q-8 -90 -8 -128t8 -108q16 -13 29 -13q22 0 46 13t34 18q44 20 56 48q14 28 14 56t-12 53t-30 37q-16 12 -44 23q-28 10 -46 10t-47 -9z M141 255l27 408q-12 13 -20 13t-28 -7t-38 -7t-34 4q-10 11 -10 31t19 37q69 18 117 18t94 -6q48 -6 87 -10t59 -6q20 -3 48 -10q28 -6 52 -20t46 -34q23 -20 32 -44q12 -34 12 -80q0 -58 -44 -102q-6 -6 -11 -12t-17 -10t-18 -8q-7 -3 -31 -11t-42 -15q27 -18 55 -28 t48 -18q18 -8 33 -31q28 -38 28 -90q0 -11 -3 -45q-2 -34 -6 -52q-4 -20 -17 -44t-36 -42q-52 -39 -124 -39l-120 6q-19 0 -29 -1l-126 -9q-46 0 -113 9q-13 16 -13 35q0 34 30 59q10 4 22 4t34 -8t34 -7q12 0 21 11v18q0 46 -9 84t-9 59z"/>
<glyph glyph-name="C" horiz-adv-x="691" unicode="C" d="M391 755l39 -1q55 -1 102 -20q86 -29 110 -57q10 -11 22 -37t12 -64q0 -39 -42 -121q-25 17 -33 53t-16 46l-29 40q-21 30 -29 39t-29 23q-38 28 -95 28t-119 -50q-58 -44 -84 -98t-35 -132q-3 -24 -3 -45q0 -91 63 -168q36 -45 77 -66t102 -28q16 -2 24 -2q40 1 102 25 t87 28h3q13 0 13 -23t-16 -44q-17 -21 -31 -34t-33 -21t-32 -13t-39 -7l-38 -4q-20 -2 -86 -2h-15q-67 0 -127 32t-97 67q-35 33 -73 99t-38 133q0 83 24 139t68 115t82 91q39 32 93 56t116 23z"/>
<glyph glyph-name="D" horiz-adv-x="750" unicode="D" d="M259 669q-11 -238 -12 -347t-5 -211v-1q0 -12 8 -17q16 -11 32 -13t26 -4q9 -2 29 -2q21 0 69 20t78 42t59 64t43 82t14 95v7q-1 60 -16 104t-48 88q-34 44 -64 64t-83 36t-79 15q-26 0 -51 -22zM33 93l65 -8q24 0 36 15q4 123 4 252t7 334q-9 8 -19 8t-25 -4t-25 -13 q-10 -10 -20 -10h-6q-41 0 -45 21v3q0 26 55 49q21 10 47 10l47 -2l97 1q129 0 255 -42q54 -19 100 -59t71 -77t37 -85t13 -84q0 -36 -18 -106t-34 -108t-51 -76t-68 -58q-34 -20 -88 -37q-54 -18 -121 -18l-71 1h-62q-101 0 -214 14q-8 9 -8 29t8 39q14 11 33 11z"/>
<glyph glyph-name="E" horiz-adv-x="648" unicode="E" d="M392 456q0 49 46 49q16 0 31 -16q0 -53 4 -290q-29 -12 -41.5 -12t-30.5 21q-2 8 -2 22.5t7 26.5t7 15.5t-3.5 11t-9.5 12t-9.5 6t-15 4.5t-31.5 9.5t-36 6.5q-54 0 -69 -29q-12 -60 -14.5 -93t-2.5 -103q10 -22 34 -28q56 -14 109.5 -14t137.5 6q32 17 42 53.5t44 76.5 q19 -22 22 -34l3 -15v-12v-13q1 -13 1 -36q0 -56 -32 -81h-546q-37 12 -37 31q0 13 6.5 16t8 4t5.5 2.5t5.5 2.5t6 2t6.5 2t8 1l43 -9q10 0 11 10q25 250 25 363t-3 217q-36 0 -43 -4t-10 -5.5t-6 -1.5t-12 3q-34 17 -34 40v3q2 27 21.5 41.5t55.5 26.5h100l211 1 q66 0 167 -18q1 -17 1.5 -34t1 -25.5t0.5 -17.5t0.5 -13.5t1 -8.5t2 -8t3 -7.5l4.5 -10.5l4 -15q3 -7 15.5 -19t12.5 -15v-4l-1 -2q-49 -16 -65.5 -16t-35.5 2t-52 4q-3 4 -3 6.5t10.5 12t10.5 20.5t-4 25l-4 19q-1 4 -7.5 8t-14.5 15q-38 7 -74.5 7t-63.5 -5t-33 -5l-15 1 q-12 0 -19 -8q-1 -46 -1 -114t1 -125q76 -14 88.5 -14t39.5 6q18 12 18 42z"/>
<glyph glyph-name="F" horiz-adv-x="648" unicode="F" d="M393 429l-1 27q0 31 18 42q12 7 28 7t31 -16q0 -53 4 -290q-29 -12 -41 -12t-31 21q-2 8 -2 22t7 27q7 11 7 15q1 4 -3 12t-10 12t-10 6t-14 4q-12 4 -32 10t-36 6t-38 -6t-31 -23q-13 -60 -15 -93t-2 -103q10 -22 34 -28q45 -11 51 -11q7 0 23 5t52 7q9 5 16 5 q11 0 11 -13q0 -22 -12 -52l-4 -10h-356q-37 12 -37 31q0 13 6 16l8 4l6 3t6 2q2 1 6 2t6 2t8 1l43 -9q10 0 11 10q25 250 25 363t-3 217q-36 0 -43 -4t-10 -6t-6 -1q-3 0 -12 3q-34 17 -34 40v3q1 27 21 41t56 27h100l211 1q66 0 167 -18q2 -17 2 -34v-26t1 -17t1 -13v-9 q0 -4 2 -8q2 -3 4 -7t4 -11t4 -15t16 -19q12 -12 12 -18v-1l-1 -2q-49 -16 -65 -16t-27 1q-28 3 -61 5q-3 4 -3 6q1 2 11 12t10 21t-1 15l-7 29q-2 4 -8 8t-14 15q-38 7 -74 7t-64 -5q-27 -5 -33 -5l-15 1q-12 0 -19 -8q-1 -46 -1 -114t1 -125q77 -14 89 -14t39 6 q18 12 18 42z"/>
<glyph glyph-name="G" horiz-adv-x="776" unicode="G" d="M704 292l7 -129q0 -32 -8 -44q-52 -73 -149 -95q-79 -19 -196 -24l-19 -1q-60 0 -122 33t-98 67q-35 33 -73 99t-38 133q0 83 24 139t68 115t82 91q39 32 100 58q43 20 116 20h51q66 0 114 -12q49 -12 73 -25q24 -14 73 -48q15 -47 15 -81t-39 -114q-25 16 -32 52t-20 50 q-44 47 -83 70q-58 34 -132 34t-134 -46q-58 -46 -84 -98q-37 -74 -37 -171t62 -174q36 -45 77 -65q40 -20 88 -27q48 -6 63 -6q71 0 122 44l2 99q0 1 -8 46q-4 20 -26 24t-48 8q-27 4 -37 18q-10 16 0 26q36 4 123 6t167 11q9 -9 9 -23t-12 -28q-4 -4 -11 -4l-21 3 q-7 1 -8 -7t-1 -24z"/>
<glyph glyph-name="H" horiz-adv-x="810" unicode="H" d="M104 682l-29 -2q-21 0 -31 13t-10 27t12 25q144 -2 175 -5h11q20 -2 138 -6q8 -8 8 -21t-10 -23t-25 -10l-55 8q-16 0 -25 -9q-5 -76 -5 -118l1 -126h350q2 38 2 93v40q0 49 6 89q-11 15 -43 17t-42 16t-9 29q0 15 9 23q88 9 124 9t130 -15q6 -8 6 -15t-7 -21t-37 -25 t-37 -26v-530q5 -11 21 -25t22 -24q4 -10 5 -20t1 -22t1 -19q-120 -11 -126 -11h-19q-39 2 -118 2q2 9 3 24q3 32 13 44t32 15t37 7t17 26q2 20 4 38t2 23q2 10 2 15l-2 178q-77 6 -82 8q-4 2 -28 2t-243 -5q9 -139 9 -149t-1 -11q-1 5 -2 5t-1 -32t2 -77q12 -19 52 -21 t50 -22q5 -12 5 -25t-17 -26q-104 -2 -135 -4t-42 -2t-147 15q-16 13 -16 28t7 24t22 9l58 -11q14 0 22 9q-1 35 -1 97t8 175q8 114 11 311q-10 14 -33 14z"/>
<glyph glyph-name="I" horiz-adv-x="389" unicode="I" d="M104 682l-29 -2q-22 0 -31.5 13t-9.5 27t12 25q144 -2 175 -5h11q20 -2 138 -6q4 -4 4 -15l-7 -35q-9 -15 -23.5 -15t-39.5 6.5t-37.5 6.5t-21.5 -4q12 -184 12 -330v-63q0 -108 3 -191q10 -15 33 -15l40 3q20 0 27.5 -11.5t7.5 -26t-18 -27.5q-104 -2 -135 -4t-42 -2 t-147 15q-16 13 -16 28q0 35 34 35q11 0 35 -6.5t35.5 -6.5t20.5 9q-4 155 -4 213l6 370q-10 14 -33 14z"/>
<glyph glyph-name="J" horiz-adv-x="379" unicode="J" d="M133 -172q21 3 39 23t20 53q4 158 4 230t-1 225l-2 312q-9 14 -38 17q-47 5 -47 42q0 7 2 19q44 14 84 14t70 -3l17 -1l22 1q40 0 57 -22q5 -6 5 -13q-1 -7 -5 -15q-8 -18 -36 -32t-38 -31q7 -218 7 -370l-1 -331q0 -41 -9 -58q-14 -27 -25 -40l-12 -12q-4 -4 -14 -12 l-15 -13q-20 -18 -31 -26t-39 -19t-61 -11t-50 12q-29 21 -29 46t18 47q19 22 31 21q12 0 26 -19q25 -34 51 -34z"/>
<glyph glyph-name="K" horiz-adv-x="725" unicode="K" d="M47 92l68 -8q11 0 16 1q-13 216 -20 572q0 11 -12 11l-45 -8q-23 0 -23 30t32 52l83 -1l28 -1h6l139 2q16 -15 16 -38t-16 -38q-7 -7 -17 -7t-26 7q-18 7 -27 7t-16 -7l1 -69q0 -46 -4 -82t-5 -114q10 -26 24 -26h1q38 53 47 67q22 33 47 64l111 143q-4 18 -43 21 q-43 3 -43 28q-1 18 13 28t39 21l92 2h1q0 -1 -2 -1t-2 -2t73 -7q3 -1 12 -5t13 -6t8 -6q10 -7 10 -19v-3q0 -14 -12 -20t-30 -10t-26 -13l-48 -41q-37 -34 -56 -59l-121 -153l63 -56q44 -40 80 -86l141 -171q7 -3 13 -3l44 10q10 0 17 -7q20 -20 20 -41t-17 -40h-344 q-13 13 -13 29q1 17 11 27t20 10t28 -7t28 -7t21 9t11 24t-4 33l-86 104q-7 9 -26 30l-64 68h-6q-32 0 -54 -43q-6 -56 -6 -91t6 -114q8 -9 23 -9l40 4q26 0 26 -26q0 -21 -21 -34q-70 1 -113 5t-160 4q-10 10 -10 25t12 28t34 13z"/>
<glyph glyph-name="L" horiz-adv-x="708" unicode="L" d="M192 125l9 355q0 61 -1 97q-12 29 -32 47t-63 39q-6 17 -6 35t15 33q94 4 116 6t26 2t16 -1q39 -3 146 -7q27 -22 27 -47q0 -51 -37 -51l-26 2q-14 0 -24 -6q-25 -18 -32 -43q2 -83 2 -183l-1 -176q0 -97 2 -179h65q42 0 74 7t90 33v8q0 24 -6 54t-6 46q0 14 4 34t29 19 l57 -5q10 0 15 1q19 -96 19 -124t-10 -121q-36 11 -60 14q-51 -3 -116 -8q-124 -8 -203 -8t-240 16q-15 16 -15 24t23 47h8q25 -1 53 -9t46 -8t36 6v51z"/>
<glyph glyph-name="M" horiz-adv-x="861" unicode="M" d="M84 286l4 371q-8 11 -35.5 11.5t-32.5 14.5q-1 3 -1 8q0 23 41 43q48 12 82.5 12t107.5 -20q46 -113 71 -190.5t46 -130.5t80 -166l261 506q28 16 46.5 16t73.5 -19q18 -21 18 -37.5t-13 -25.5v-1q0 -13 -18 -13l-28 2q-25 0 -25 -19q-10 -343 -10 -388t2 -125 q6 -8 26 -10q33 -3 33 -38l-8 -59q-51 -7 -85 -7l-111 7v9l-2 36q0 39 38 39h20q18 0 26 10q9 73 9 142l-6 288v57q-68 -149 -124 -306.5t-78 -207t-25 -55t-5 -8.5q-5 -8 -15 -8h-5q-21 0 -47 34q-38 98 -71.5 199.5t-65 179t-96.5 203.5q15 -152 15 -254l-3 -192v-49 q8 -15 38 -25q41 -12 41 -41q0 -8 -5 -22.5t-6 -22.5q-36 -1 -76.5 -5t-80.5 -4l-48 1q-1 8 -7 23t-6 22t5 15.5t21 8.5l18 -1q14 0 20 8q-4 105 -4 184z"/>
<glyph glyph-name="N" horiz-adv-x="793" unicode="N" d="M110 665l-48 -3q-35 0 -42 21q-2 6 -2 9q0 23 42 42q48 12 82.5 12t107.5 -20l230 -276l68 -88l83 -112l18 438q-18 0 -41 -6t-33.5 -6t-19.5 9t-9 17l9 35q0 5 -3 11q62 4 96 4t129 -6q12 0 12 -19.5t-21 -40.5q-10 -9 -20 -9l-40 3q-5 -99 -5 -187l5 -235 q0 -77 -5 -161q-1 -1 -6.5 -11t-9.5 -15q-12 -15 -27 -17h-4q-22 0 -47 34l-407 495q9 -108 9 -163.5t-6 -136.5t-6 -141v-28q4 -12 22 -12h10q23 0 23 -23q0 -7 -5.5 -22t-6.5 -23q-35 -1 -87 -4.5t-88 -3.5h-30q-1 8 -7 23t-6 22t7.5 18t34.5 11l50 -4q12 0 18 6 q-4 105 -4 184l4 371q-5 8 -24 8z"/>
<glyph glyph-name="O" d="M205 376l-3 -66q0 -64 25.5 -110t52.5 -68.5t68.5 -36.5t76.5 -14t77.5 23.5t65 57t50.5 104t28 135.5q0 31 -7.5 77t-23.5 80.5t-52 65.5q-62 54 -122 54q-90 0 -151 -72q-28 -32 -45 -60.5t-25.5 -57.5t-10.5 -48.5t-4 -63.5zM430 743q88 0 153 -31.5t117 -105.5 t52 -169q0 -53 -11.5 -112t-24.5 -88.5t-24 -46.5t-34 -48l-32 -47q-69 -104 -207 -104q-89 0 -154 33q-119 61 -163 116q-44 52 -55 120q-10 68 -10 113q0 117 67 205.5t142.5 126.5t179.5 38h4z" unicode="O"/>
<glyph glyph-name="P" horiz-adv-x="631" unicode="P" d="M236 662q-8 -90 -8 -128t8 -107q14 -13 29 -13t27 4t29 14q17 9 24 12q43 19 57 49t14 55q0 26 -12 52t-30 39t-47 23t-43 10t-48 -10zM320 333l-54 1q-20 0 -30 -1q1 -117 8 -223q14 -5 37 -6t39 -6q16 -6 23 -20q8 -14 8 -29q0 -29 -25 -49l-184 -8q-49 0 -108 8 q-13 16 -13 35q0 34 30 59q9 4 19 4t18 -8q9 -8 14 -7q5 0 16 11l2 179q5 83 5 235l-1 155q-5 -5 -29 -5t-64 8q-10 11 -10 31t19 37q50 1 120 4t119 4h26q71 0 121 -16t97 -60q38 -36 43 -103l1 -18q1 -43 -27 -85t-60 -68q-32 -25 -74 -42t-86 -17z"/>
<glyph glyph-name="Q" d="M355 704l-14 -1q-56 -5 -90 -31q-36 -27 -69 -72t-42 -82q-12 -48 -12 -142t47 -172q25 -40 51 -63t64 -36t74 -13q34 0 64 17t47 32q30 28 49 76l19 49q31 84 31 142q0 26 -8 75t-22 83q-15 34 -50 68q-34 34 -66 52t-73 18zM1186 -163l2 -19q0 -8 -10 -18t-24 -18 q-16 -8 -28 -10t-36 -4t-46 -6t-45 -4q-24 0 -62 7q-82 15 -154 47l-79 35q-52 23 -92 41t-110 55l-119 63q-49 27 -64 31q-67 18 -105 39q-29 17 -66 42q-28 19 -60 48q-61 55 -73 143q-9 66 -9 102q0 43 14 80q13 38 45 83q63 89 134 132q71 45 170 47h7q153 0 245 -134 q53 -77 53 -171q0 -44 -17 -142q-11 -57 -41 -106q-13 -21 -31 -48l-31 -48q-30 -46 -51 -53q-3 -1 -3 -5q0 -10 46 -31l140 -58q37 -16 95 -43l91 -42q88 -39 192 -43h1q22 0 67 25t52 25t7 -8z" unicode="Q"/>
<glyph glyph-name="R" horiz-adv-x="759" unicode="R" d="M290 668q-8 -90 -8 -132t8 -111q15 -14 30 -14q22 0 41 8l19 9q13 5 28 11q35 15 48 44q16 31 16 63t-18 68t-72 54q-30 10 -46 10t-46 -10zM612 572l1 -18q0 -44 -27 -85q-45 -65 -117 -97l-1 -1q0 -5 40 -47t110 -122t124 -162q-39 -29 -73 -29t-89 20q-35 43 -92 125 l-96 134q-39 52 -51 52l-41 1q-11 0 -35 -2q1 -67 8 -222q13 -5 37 -6t40 -7t24 -21q6 -11 6 -25t-24 -34q-21 -2 -53 -6q-69 -7 -113 -7t-126 13q-13 14 -13 32t30 44q9 4 18 4t18 -8t15 -7q6 0 15 11l3 180q5 88 5 247l-1 142q-5 -5 -29 -5t-64 8q-11 13 -11 32t19 36 q44 1 115 5t143 4q71 0 129 -14t113 -63q37 -33 43 -102z"/>
<glyph glyph-name="S" horiz-adv-x="460" unicode="S" d="M5 159l3 93q10 11 21 11t31 -10q26 -15 37.5 -46.5t22 -64.5t40.5 -55.5t78 -22.5q55 0 75.5 11t27.5 25q18 30 18 70.5t-35 91.5q-18 26 -43 39t-61 23.5t-54 20.5t-41.5 18t-39.5 17t-27 27q-39 61 -39 116.5t17 101t37.5 65t55 33t62 13.5t77 -10.5t67.5 -13t27 -4.5 q26 -6 39 -28q0 -66 -2.5 -91.5t-14.5 -87.5q-10 -2 -13 -2q-36 0 -47 71q-5 28 -17.5 58t-33.5 43q-37 23 -61 23t-41 -14q-49 -40 -49 -106q0 -46 23 -90q10 -20 26.5 -29.5t43 -16.5t44 -15.5t49.5 -16.5t55 -19t38 -34q37 -55 37 -111t-20.5 -110.5t-44 -78.5t-62 -40.5 t-75.5 -16.5t-105 16l-17 5q-7 2 -13 3.5t-12.5 5t-10.5 5t-12.5 7.5t-13 8.5t-18.5 11.5l-23 16q-6 57 -6 85z"/>
<glyph glyph-name="T" horiz-adv-x="853" unicode="T" d="M507 85l33 3q15 0 23.5 -12t8.5 -35.5t-20 -40.5q-129 0 -195.5 7.5t-140.5 20.5q-16 16 -16 32.5t8 27.5q15 21 45 21l59 -5q10 0 15 1l-1 52q0 96 12 224t12 182.5t-3 104.5q-18 1 -57 5.5t-73 4.5l-32 -1q-34 -20 -41.5 -47t-17.5 -72.5t-44 -93.5q-6 -5 -14 -5 q-23 0 -43 62q21 94 21 106q0 20 21 90q13 13 22.5 15t20 3t31 4.5t61 3.5t112.5 -7.5t117 -7.5t111.5 9t101.5 9q85 0 113 -26l23 -24q2 -2 7.5 -13t6.5 -20q0 -18 48 -131q-5 -19 -18.5 -31.5t-26 -12.5t-15.5 1q-33 46 -48.5 92t-27 69t-43.5 37q-76 -18 -188 -25 q0 -112 8 -297.5t9 -267.5q0 -12 15 -12z"/>
<glyph glyph-name="U" horiz-adv-x="802" unicode="U" d="M708 511l2 -156q0 -111 -11 -244q-17 -34 -43 -52t-70 -33q-108 -40 -183 -40t-153 25q-27 9 -46.5 25t-41.5 40t-40 38q-8 77 -8 160.5t7 205t7 164.5v19q-3 -2 -17.5 -12.5t-34.5 -16.5t-30.5 -6t-20 9.5t-9.5 24.5t10.5 36.5t41.5 32.5q105 4 134.5 6.5t37.5 2.5 t135 -18q26 -21 26 -46q0 -11 -8 -22q-9 -10 -22 -10t-42 14t-41 14t-23 -9q-2 -64 -7.5 -145.5t-5.5 -132t18 -175.5q22 -52 50 -82q36 -40 104 -40q103 0 182 108q15 141 15 202v68q0 71 5 191q-7 10 -24 10l-47 -6q-26 0 -26 27.5t37 48.5l96 2q7 0 12 -0.5t26.5 -1.5 t53.5 -3q30 -21 30 -44q0 -8 -5 -16t-15 -8l-36 6q-10 0 -15 -6q-5 -79 -5 -155z"/>
<glyph glyph-name="V" horiz-adv-x="682" unicode="V" d="M506 707q-45 0 -45 28q0 13 11 22q92 -2 179 -9q4 -5 4 -14t-17 -27t-21 -27q-53 -119 -124 -303t-143 -337q-12 -24 -46 -24t-39 24l-53 220q-37 148 -118 400q-5 14 -31 19t-32 18q-4 10 -4 21t13 22q124 15 138 15t118 -7q17 -14 9 -26t-29 -12l-71 11q-13 0 -13 -10 q0 -4 1 -6q28 -103 70 -201t84 -248q5 -15 18 -15t16 6q78 184 128 315t50 135q0 11 -23 11z"/>
<glyph glyph-name="W" horiz-adv-x="1041" unicode="W" d="M463 739l119 3q43 0 118 -5q17 -13 8 -26q-4 -5 -22 -15t-30 -11t-26 -17t-21 -32l-6 -16q52 -151 111 -364q5 -15 18 -15t16 6l86 208l24 61q7 16 30 78l36 97q1 3 1 7q0 10 -23 10l-29 -1q-45 0 -45 28q0 13 11 22q92 -2 179 -9q4 -5 4 -14t-17 -27t-21 -27 q-56 -124 -126 -307t-141 -333q-6 -12 -24 -12t-21 12q-40 158 -82 296t-47 156q-78 -205 -193 -452q-6 -12 -22 -12t-19 12l-53 220q-37 148 -118 400q-6 20 -39 20h-26q-46 0 -46 33q0 16 13 27q124 15 138 15t118 -7q17 -14 9 -26t-29 -12l-71 11q-13 0 -13 -10 q0 -4 1 -6q28 -103 70 -201t84 -248q5 -15 18 -15t16 6q66 156 120 296l-40 117q-8 10 -33 16q-34 10 -34 37q0 16 13 27z"/>
<glyph glyph-name="X" horiz-adv-x="793" unicode="X" d="M506 31l-6 50q0 9 3 19q1 5 15 8t14 15v5l-48 92q-17 33 -46 73q-6 9 -21 9t-22 -9q-37 -50 -41 -57t-20 -30l-44 -67q0 -5 -8 -15t-8 -15q0 -16 16 -16l21 2q15 0 15 -16q0 -11 -20 -27t-24 -24l-137 -6q-37 0 -77 6q-6 7 -18 16q-24 18 -24 32t7 24q9 10 25 18t24 7 q8 1 24 -5t24 -6t15 8l91 109q18 21 50 51t72 71q10 11 10 23t-10 36l-61 74q-27 32 -27 36t-26 40l-72 96q-8 4 -20 4l-74 -11q-21 0 -35 9q-27 16 -27 35q0 25 30 35q5 2 16 4t15 3q139 8 181 8t120 -17q11 -9 11 -19t-6 -18t-16 -8q-9 1 -29 7t-30 6t-15 -10 q31 -54 79 -110t69 -87q49 51 89 101t82 96q-3 11 -26 13t-26 12q-1 2 -1 7q0 17 18 27q42 1 72 3t37 2t79 -25q7 -8 7 -23q0 -16 -10 -24t-17 -8l-30 6q-7 0 -10 -2q-88 -94 -141 -164l-63 -80l117 -202q23 -39 59 -89q22 -7 42 -7l21 1q23 1 37 -15t14 -39l-5 -56 q-112 0 -158 4t-122 4z"/>
<glyph glyph-name="Y" horiz-adv-x="759" unicode="Y" d="M425 57l47 9q10 0 20.5 -10t10.5 -20.5t-5 -18.5q-131 -13 -159 -13t-148 10q-8 10 -8 23.5t12.5 24.5t25.5 11l50 -8q14 0 22 9q9 94 9 213q-37 77 -106.5 175t-101.5 152q-6 3 -12 3l-36 -8q-5 0 -12 5q-20 18 -20 40t12 37q103 8 122 8l56 -2q26 0 106 3 q21 -16 21 -36q0 -26 -26 -26l-41 4q-16 0 -22 -11q25 -67 66 -154t62 -153l179 290q-12 5 -32.5 7t-34.5 7q-20 9 -20 31.5t27 40.5l48 4q21 1 29 2q16 2 23.5 2t17 -0.5t42 -3t71.5 -4.5q15 -13 15 -28t-7 -23q-10 -15 -31 -15l-50 5q-18 0 -30 -8q-19 -33 -49 -91 l-48 -89q-50 -88 -105 -161q-2 -26 -5 -52l-4 -42q-1 -15 -1 -38.5t7 -89.5q1 -11 13 -11z"/>
<glyph glyph-name="Z" horiz-adv-x="768" unicode="Z" d="M89 48l2 37q0 10 -1 15l212 290q14 18 56 70t68 80l106 117q4 11 4 21t-4 13h-282q-32 -10 -68 -51q-18 -20 -28 -38t-22 -47q-12 -28 -27 -52q-21 -10 -43 -10t-34 19l12 46l8 36q10 37 18 54l39 77q271 1 285 -1t20 -3t14 -2q14 -2 279 -2q2 -4 2 -8t-9 -14t-78 -93 l-128 -164l-225 -310q-7 -20 -7 -28t7 -15h307q32 13 51 33t37 48q18 29 24 61q5 32 24 72q4 2 12 2q19 0 31 -19q0 -52 -5 -78t-21 -67l-9 -27q-18 -53 -32 -65t-27 -19q-121 0 -219 6t-233 7q-15 -3 -41 -17t-38 -14t-24 8q-13 8 -13 32z"/>
<glyph glyph-name="bracketleft" horiz-adv-x="262" unicode="[" d="M47 103l-5 330l2 288q11 4 27 12l2 2h1q7 -7 44 -10h5q10 0 27.5 6.5t25.5 6.5t16 -5q12 -8 12 -19q0 -5 -3 -11q-6 -12 -30.5 -14.5t-32.5 -12.5q-24 -31 -24 -75l3 -69q0 -10 -3 -42t-6 -133.5t-7.5 -147.5t-4.5 -58q0 -46 13 -66t53 -51q5 -4 14 -4l29 4q9 1 16 -7 q3 -3 3 -7q0 -6 -8 -13q-12 -12 -34 -12l-53 6h-5l-64 -6q-21 0 -21 12q0 7 7 18q1 27 1 78z"/>
<glyph glyph-name="backslash" horiz-adv-x="793" unicode="\" d="M670 114l48 10q14 0 34 -12t20 -28t-6 -24t-18 -16t-18 -16q-40 -6 -67 -6t-68 3t-79 3q-4 6 -24 22t-20 29q0 16 15 16l21 -2q16 0 16 14q0 7 -8 17t-8 15q-53 79 -122 165q-70 86 -92 114t-74 101t-127 155q-3 2 -10 2l-31 -6q-10 0 -18 12t-8 23q0 12 7 20 q73 25 79 25t37 -2q30 -2 72 -3q18 -10 18 -27q0 -18 -25 -20t-28 -12q42 -46 76 -101t83 -108l63 -65q26 -28 57 -64l188 -226q7 -8 17 -8z"/>
<glyph glyph-name="bracketright" horiz-adv-x="262" unicode="]" d="M215 630l5 -330l-2 -288q-11 -4 -27 -12l-2 -2h-1q-7 7 -44 10h-5q-10 0 -27.5 -6.5t-25.5 -6.5t-16 5q-12 8 -12 19q0 5 3 11q6 12 30.5 14.5t32.5 12.5q24 31 24 75l-3 69q0 10 3 42t6 133.5t7.5 147.5t4.5 58q0 46 -13 66t-53 51q-5 4 -14 4l-29 -4q-9 -1 -16 7 q-3 3 -3 7q0 6 8 13q12 12 34 12l53 -6h5l64 6q21 0 21 -12q0 -7 -7 -18q-1 -27 -1 -78z"/>
<glyph glyph-name="asciicircum" horiz-adv-x="346" unicode="^" d="M134 453q-2 -11 -58 -11t-56 13v1q30 80 106 227q50 25 70 25t36 -10q20 -29 30 -50t20 -55t22 -69t22 -74v-1q0 -14 -48 -14t-55 10q-1 3 -19 55t-42 66q-18 -52 -28 -113z"/>
<glyph glyph-name="underscore" horiz-adv-x="560" unicode="_" d="M403.625 141.787q65.7773 -3.44434 129.486 10.2412q13.3037 -0.696289 11.6318 -32.6494t-10.1299 -59.0449q-8.45801 -27.0928 -16.5879 -26.667l-0.686523 1.03711l-30.3018 1.58691q-66.5176 3.48242 -180.174 5.42871q-113.657 1.94531 -269.602 10.1104 q-2.32227 -1.88086 -6.01758 -1.6875q-11.8252 0.619141 -10.4668 26.5811t6.41992 37.7119q13.4443 30.3359 66.0459 37.0938q52.6006 6.75781 133.16 2.54004l33.9971 -1.78027z"/>
<glyph glyph-name="grave" horiz-adv-x="288" unicode="`" d="M44 683q50 25 70 25t36 -10q20 -29 30 -50t20 -55t22 -69t22 -74v-1q0 -14 -48 -14t-54 9t-22 65q-47 158 -76 174z"/>
<glyph glyph-name="a" horiz-adv-x="417" unicode="a" d="M251 178l-1 10q-2 28 -23 40q-8 4 -28.5 -1.5t-48.5 -22.5q-49 -32 -49 -60q0 -56 32 -70q4 -2 8 -2t14 5.5t14 6.5l14 6q28 11 41 26q27 31 27 62zM358 3l-20 -1q-18 -2 -29.5 -2t-22.5 5.5t-15 9.5t-8 10t-7.5 9.5t-6.5 9.5q-7 12 -15 12h-4q-13 0 -29.5 -15 t-22.5 -18.5t-14 -8.5q-25 -19 -60 -19t-58 15t-31 47.5t-8 54.5q0 59 57 108q35 28 91 51q10 4 33.5 5.5t34 10.5t14.5 27t4 30t-2 23t-3 19t-2 12t-3 10q-4 10 -13 16.5t-16.5 6.5t-32 -5.5t-36.5 -21t-12 -46.5v-19q-1 -18 -16.5 -29.5t-30.5 -11.5q-53 0 -53 51 q0 9 1 13q10 58 39.5 83t56.5 32t72 9l21 1q32 0 58 -18q37 -25 45 -68t8 -111v-26l1 -44l1 -22l-1 -41q0 -19 3 -45v-13q0 -11 12 -11t28 21.5t27 21.5q1 0 8.5 -3t7.5 -15l-3 -24l-1 -20q0 -11 -1.5 -15.5t-2.5 -9.5t-2.5 -8.5t-4.5 -7.5q-13 -21 -23 -23t-13 -2z"/>
<glyph glyph-name="b" horiz-adv-x="508" unicode="b" d="M259 426q-51 -6 -79 -51t-27 -100q0 -120 37 -182q15 -27 26 -36q22 -17 40 -17t44 14t46 38q18 24 38 64q20 41 20 73q0 50 -17 82q-42 80 -90 102q-26 13 -38 13zM105 788q5 3 9 3q13 0 31 -39l4 -8q3 -96 3 -174t-1 -108q1 -11 9 -11t28 10t30 12q9 3 33 9t35 8 q12 2 26 4t24 2t29 -8t37 -28q18 -18 28 -34t28 -50q18 -36 23 -68q6 -32 7 -81v-15q0 -42 -12 -76t-43 -70q-7 -7 -15 -19t-14 -19q-15 -18 -36 -20q-84 -11 -154 -11q-114 0 -140 30q-6 103 -6 338t3 293q-6 9 -22 12t-29 5t-13 9q0 1 9 18q19 37 89 86z"/>
<glyph glyph-name="c" horiz-adv-x="432" unicode="c" d="M258 4l-32 1q-13 -1 -33 -1q-57 0 -105 43q-52 51 -64 103q-10 38 -10 74t13 82t29 74q16 29 49 54q56 44 129 44h14q26 -1 36 -2q30 -6 60 -36t31 -60q0 -9 -1 -14q-7 -27 -29 -28h-3q-12 0 -26 16t-18 21q-6 4 -14 12q-20 18 -34 21t-34 3t-44 -16t-44 -66 q-18 -50 -18 -83q0 -107 49 -153q17 -16 63 -23l30 -3q30 0 51 25q9 10 20 41q5 16 19 16q14 1 24 -7q9 -8 9 -19v-2q0 -40 -3 -49q-6 -16 -15 -26q-15 -21 -37 -28l-26 -9q-18 -5 -36 -5z"/>
<glyph glyph-name="d" horiz-adv-x="444" unicode="d" d="M240 425q-4 1 -12 1t-32 -12q-26 -12 -50 -42q-24 -29 -36 -53t-16 -53t-4 -37q0 -37 18 -65t38 -42t47 -24q29 -10 39 -10t17 2t11 4t6 4q4 2 6 4l6 6q2 4 4 4q2 2 5 7t4 6t5 7t4 7q36 58 36 137q0 52 -27 96t-69 53zM316 467q-1 27 -1 121t4 106q1 3 -3 3t-21 -6 t-26 -6q-11 0 -11 18t17 43t34 36q5 4 21 4t36 -10t21 -22q0 -2 -2 -6q9 -210 9 -599v-41q0 -8 16 -24t17 -22v-5q0 -40 -20 -49q-2 -1 -8 -1l-33 3h-4q-15 0 -35 24q-19 24 -27 25t-21 -9t-57 -27t-67 -17t-33 2q-20 3 -42 34l-16 23q-54 65 -54 144v12q3 89 27 138t44 73 q19 24 53 46t68 23h4q19 0 68 -17q8 -2 20 -14t16 -12t6 9z"/>
<glyph glyph-name="e" horiz-adv-x="364" unicode="e" d="M263 3l-37 2q-13 -1 -33 -1q-57 0 -105 43q-52 51 -64 103q-10 39 -10 74.5t13 81t29 74.5t49 54q55 42 115 42t89 -20q14 -9 29 -39t15 -55t-10.5 -53.5t-29.5 -29.5q-121 -11 -160.5 -11t-40.5 1q-2 -20 -2 -38t4.5 -46t12.5 -47.5t28 -36.5q10 -10 20.5 -12t17.5 -4 t24 -2l33 -3q17 0 27 7t13 13t6 17t5 16q5 16 19 16t23.5 -8t9.5 -19v-1q-3 -43 -4.5 -49.5t-14 -28t-33 -31t-38.5 -9.5zM250 343l3 35q0 18 -13 28q-14 9 -30 9t-38 -15q-46 -31 -46 -54q0 -4 3 -9q5 -5 62 -5t59 11z"/>
<glyph glyph-name="f" horiz-adv-x="322" unicode="f" d="M164 507l1 -56v-13h5q14 0 34 4t33 4q12 0 22 -13t10 -32q-1 -19 -17 -33t-36 -15l-46 4h-2q-6 -79 -6 -167t1 -116q0 -10 15 -10h10q15 0 21 -7q11 -17 11 -29t-11 -28h-188q-14 12 -14 27t7 27q6 12 26 13q20 2 26 11q2 58 2 138t2 109q-4 11 -18 21t-22 19 q-7 11 -7 21t3 22t21 28t23 27q4 25 4 49v30q0 71 50 122q20 19 49 38t79 27q16 3 26 3t16 -2t18 -4q10 -2 13 -4l11 -4q24 -8 30 -15q20 -23 20 -41t-14 -31q-8 -5 -14 -5q-32 0 -51 15q-24 19 -52 19t-43 -10q-25 -19 -31 -43l-7 -28q-10 -36 -10 -72z"/>
<glyph glyph-name="g" horiz-adv-x="515" unicode="g" d="M329 -32q-24 27 -60 27q-45 0 -111 -47q-9 -7 -19 -21t-10 -30v-3q1 -16 12 -30t23 -20q45 -26 72 -26q28 0 44 4t26 7t14 3t12 3t12 5q12 8 18 20t6 24t-12 40t-27 44zM271 394q-5 8 -17 22t-34 14t-55 -32t-36 -76v-9q-1 -35 25 -70t38 -41t22 -6h6q18 2 31 16t19 26 q22 50 22 76t-8 49t-13 31zM452 490l30 4q14 0 15 -10q4 -30 4 -50q-1 -20 -9 -36q-8 -18 -11 -24q-8 -15 -26 -17h-6q-12 0 -29 17t-34 21q-2 -7 -2 -19t8 -35t7 -39v-21q0 -38 -6 -50q-7 -11 -17 -25t-29 -24t-46 -18t-41 -16t-34 -12q-20 -5 -33 -12q-12 -7 -15 -23v-4 q0 -22 34 -36q20 -9 36 -9t42 6t40 5q14 0 34 -5q21 -5 33 -8q38 -12 64 -42t26 -74v-8q-1 -40 -28 -74t-55 -52t-83 -42q-64 -28 -159 -28q-30 0 -50 10t-30 22q-10 10 -20 24l-18 26q-26 32 -30 48t-4 26t2 18t7 15q5 8 11 12t17 11t19 13t27 9q21 2 33 8t13 20v1 q1 7 -5 10t-14 5t-14 8q-6 4 -20 13t-22 17q-7 8 -7 20q12 22 32 42t30 32q1 2 1 10t-12 30t-37 48q-34 35 -34 68q1 8 7 34t24 56t17 51v5q-1 10 -15 22t-14 19t1 10h6q11 -1 30 -11t37 -10t48 15t42 17t24 1q12 0 31 -5q19 -6 47 -22t50 -17h2q17 0 40 14t38 15z"/>
<glyph glyph-name="h" horiz-adv-x="485" unicode="h" d="M186 294l2 -145q0 -34 -1 -51q5 -12 23 -12t22 -7q17 -23 17 -38t-10 -26q-127 -2 -212 -2q-18 15 -18 27t5 22q8 18 46 18t47 15q-5 139 -5 314v236q-8 11 -28 16t-25 9t-11 10q-6 4 -8 6q-8 8 -8 16q4 18 14 22t14 6t16 4t43 7q32 6 33 6q26 0 42 -17q4 -75 4 -170 v-109q14 16 24 22l12 6q3 3 13 5t13 3t17 3q15 2 19 3t14 1q32 0 81 -38q28 -22 44 -72t16 -114l-9 -169v-16q5 -13 20 -19q26 -9 26 -36q0 -10 -6 -18q-15 1 -31 1l-59 -1q-49 0 -92 1q-10 10 -10 24t8 25q8 12 28 12t25 8q19 118 19 155t-7 81t-63 73q-18 8 -29 8t-21 -3 q-10 -2 -17 -4t-11 -3t-8 -3q-6 -2 -8 -4q-8 -8 -9 -24t-1 -64z"/>
<glyph glyph-name="i" horiz-adv-x="250" unicode="i" d="M92 587q11 24 32 24t31.5 -19.5t10.5 -32.5t-11 -26.5t-34.5 -13.5t-28.5 17q-7 14 -7 26.5t7 24.5zM182 278l-5 -206q5 -13 26 -17.5t26 -14.5t5 -20.5t-10 -19.5h-199q-10 9 -10 18q0 30 43 33q30 2 39 15v106q0 56 -6 154q-9 22 -35 42.5t-41 37.5q25 11 43 18l36 14 q20 7 31 7q45 -6 58 -28t13 -40t-7 -49t-7 -50z"/>
<glyph glyph-name="j" horiz-adv-x="286" unicode="j" d="M178 583q11 24 32 24t31.5 -19.5t10.5 -32.5t-11 -26.5t-34.5 -13.5t-28.5 17q-7 14 -7 26.5t7 24.5zM149 380l-25 -2q-11 0 -16 7q-13 18 -13 35t13 33q88 22 117 22t37 -1v-570q-12 -44 -35.5 -71.5t-69.5 -56.5t-68 -29h-5q-17 0 -40 12q-35 19 -35 52q0 12 8 31.5 t27.5 27.5t31.5 8t22 -4.5t14.5 -15.5t10.5 -14q20 -11 26.5 -11t17.5 6q-1 147 -2 147t-1 122.5t1 265.5q-5 6 -16 6z"/>
<glyph glyph-name="k" horiz-adv-x="537" unicode="k" d="M80 218l1 258q0 112 -1 173q-6 8 -29 9q-38 2 -38 31q0 9 3 16l23 15q3 2 4 3t3 2t4 1t18 8q18 6 47 6h9q40 0 50 -5q24 -11 24 -34q0 -25 -19 -33q-9 -3 -11 -8q4 -124 4 -247l-1 -139q1 -7 9 -14t14 -9q20 16 44 32q50 34 82 68q7 19 7 26q1 7 -5 13t-13 5l-27 -6 q-2 0 -8 2q-22 7 -23 22v2q0 22 29 38q89 4 205 12q19 -13 19 -32q0 -7 -1 -10l-88 -60q-44 -29 -72 -49l-80 -62q69 -65 140 -119t122 -100l-2 -24q-45 -8 -73 -8t-72 2t-79 2q-5 5 -5 13t16 26q7 7 21 7l24 -2q15 0 18 12q-71 37 -95 55t-93 81v-44q0 -50 -3 -104 q5 -7 21 -8t22 -9q10 -15 0 -25q-43 -8 -86 -8q-43 1 -66 1h-34q-6 5 -6 15q-1 10 5 19t22 12t21 11q-1 55 -1 161z"/>
<glyph glyph-name="l" horiz-adv-x="281" unicode="l" d="M215 716v-627q1 0 15 -7q14 -8 20 -14t14 -16q6 -10 6 -14q0 -6 -5 -29l-226 -5q-10 14 -10 26t4 31q18 19 41 23t27 5l-1 529h-19q-25 0 -39 5t-27 24l6 39q7 20 18 28t26 17q21 10 51 10t99 -25z"/>
<glyph glyph-name="m" horiz-adv-x="711" unicode="m" d="M659 250l-3 -113q3 -10 15 -18t15 -15q15 -30 15 -44q0 -39 -26 -53q-23 -1 -47 -1t-85 1q-11 5 -18 23t-7 30t4 22t20 25q17 15 17 16v100q0 59 -1 125q-6 21 -28 37t-50 17h-5q-17 0 -41 -13q-28 -17 -38 -40q3 -62 3 -100l-1 -98v-32q4 -7 20 -8t20 -7q16 -19 16 -36 q0 -16 -4 -34t-23 -27q-23 -1 -59 -1t-95 1q-11 5 -19 26t-8 30t5 19t27 18t26 19l-2 108q0 31 2 105q-3 23 -12 34q-15 16 -38 19h-8q-24 0 -52 -16t-37 -39q-1 -23 -1 -61l1 -150q5 -7 15 -11t14 -9q14 -23 14 -35t-4 -28t-12 -20q-7 -4 -19 -7h-127q-20 7 -30 21t-11 24 q1 28 25 41t30 24v114q0 72 -1 152q-5 9 -27 13t-24 15q61 55 97 91q9 0 14 -2t7 -2t5 -2t4 -3q7 -7 11 -9t9 -14q7 -15 23 -15q16 -1 36 11q22 12 28 14t15 6q17 6 30 6t33 -10t25 -12q6 -2 15 -6q18 -6 31 -6h6q9 1 21 9q30 21 79 21q59 0 105 -29q46 -31 62 -74 q3 -105 3 -137z"/>
<glyph glyph-name="n" horiz-adv-x="470" unicode="n" d="M156 269l1 -150q4 -6 14.5 -10.5t14.5 -9.5q14 -23 14 -35.5t-4.5 -27.5t-11.5 -19.5t-19 -7.5h-127q-20 6 -30.5 20.5t-10.5 24.5q0 28 24.5 41t30.5 24v114q0 72 -1 152q-6 10 -27.5 13.5t-23.5 14.5q61 55 97 91q9 0 14 -1.5t7 -2t5 -2.5t4 -3q6 -6 10.5 -8.5 t9.5 -14.5q7 -15 22.5 -15t37 11.5t28 13.5t14.5 6q17 7 28.5 7t20 -3t22 -10.5t18.5 -9.5t16 -6q20 -6 29 -18q18 -26 18 -56.5t-5 -42.5q3 -62 3 -100l-1 -98v-32q4 -7 19.5 -8t20.5 -7q16 -19 16 -36t-4.5 -34.5t-22.5 -26.5q-23 -1 -58.5 -1t-95.5 1q-11 5 -19 26t-8 30 t5 19t26.5 18t26.5 19l-2 108q0 31 2 105q-3 23 -12 34q-15 16 -38 19h-8q-24 0 -51.5 -16t-37.5 -39q-1 -23 -1 -61z"/>
<glyph glyph-name="o" horiz-adv-x="432" unicode="o" d="M222 70l30 -3q30 0 51 25q9 10 24 51t15 75q0 100 -43 156q-24 29 -43.5 33t-39.5 4t-44.5 -16t-43 -66t-18.5 -83q0 -107 49 -153q17 -16 63 -23zM258 4l-32 1q-13 -1 -33 -1q-57 0 -105 43q-52 51 -64 103q-10 39 -10 74.5t13 81t29 74.5t49 54q56 44 129 44h14 q26 -1 36 -2q30 -5 65 -40t51 -70q20 -43 20 -140q0 -41 -16 -94.5t-42.5 -81t-67.5 -41.5q-18 -5 -36 -5z"/>
<glyph glyph-name="p" horiz-adv-x="474" unicode="p" d="M256 -9l-49 5h-8q-1 -28 -1 -60l2 -114q4 -10 23 -20t23 -19t5 -23q0 -14 -10 -24h-111q-58 0 -92 2q-18 11 -18 28l1 6q2 16 24 28t27 24v114l-1 401q-10 18 -19 22q-9 5 -21 9t-21 9q6 32 37 51q16 10 42 24l23 11h7q7 -1 11 -3t14 -14t25 -23q11 5 23 13t16 10 q8 5 32 11t43 6t57 -9q71 -17 89 -90q1 -4 3 -16t10 -40q6 -28 6 -72v-18q0 -22 -1 -34l-2 -23q-2 -23 -10 -43q-10 -24 -21 -38l-7 -10q-2 -2 -11 -10l-11 -11q-41 -39 -65 -49t-60 -11h-4zM168 334v-205q0 -21 26 -37t44 -16q56 0 94 50q22 29 30 92q2 14 2 24t-5 23 q-12 41 -41 73q-35 35 -76 35q-16 0 -26 -4l-15 -6q-29 -10 -32 -21q-1 -4 -1 -8z"/>
<glyph glyph-name="q" horiz-adv-x="474" unicode="q" d="M20 190l-1 41v19q0 50 6 75l9 39q10 38 17 48t14 18q23 26 61 36t58 10t38 -4t25 -8q7 -2 11 -4t17 -10q12 -8 23 -14q21 18 28 27q10 13 22 13h7q4 -2 10 -6t28 -12q2 -276 2 -299l-1 -324q6 -12 28 -24t24 -27v-5q0 -18 -17 -29q-30 -2 -81 -2h-122q-11 10 -11 22t5 23 q6 12 24 21t22 19l2 115q0 32 -1 60h-7l-49 -6h-4q-68 4 -103 39l-22 22q-2 1 -6 5l-6 6t-5 4q-5 4 -9 8t-6 8q-2 2 -5 8l-5 10l-5 10q-3 8 -7 18t-4 16q-4 14 -4 34zM299 345q0 16 -17 23q-10 4 -16 6t-16 6t-23 4q-44 0 -75 -32t-45 -76q-4 -12 -4 -26t1 -21q8 -61 34 -97 q34 -45 86 -45q20 0 47 16t28 37v205z"/>
<glyph glyph-name="r" horiz-adv-x="367" unicode="r" d="M187 166l-1 -56q3 -8 18 -16t15 -30t-10 -34q-22 -6 -78 -15t-82 -15q-10 4 -16 20q-7 16 -1 26t23 20q17 8 23 19q2 29 2 75l-1 101q0 41 1 67q-6 12 -32 26t-25 31q5 7 15 23t12 20l9 14q7 9 12 12l13 8q20 12 37 12t33 -9q14 -13 17 -15t9 -4t19 -8q9 6 29 24t45 18h4 q50 -4 68 -74q3 -11 3 -24q0 -14 -17 -38t-38 -24h-5q-12 3 -20 26t-20 26q-33 -22 -61 -44q-1 -48 -1 -96z"/>
<glyph glyph-name="s" horiz-adv-x="314" unicode="s" d="M25 146q4 10 12 10t24.5 -25t37.5 -50.5t41 -25.5h4q28 3 44.5 24t18.5 50v2q0 17 -8 26.5t-11 12.5t-14 11.5t-13 10.5q-17 14 -64 20.5t-61 32.5q-20 37 -20 64q0 4 0.5 12.5t0.5 14.5q1 40 23 66.5t57.5 48t55 21.5t37.5 -5q61 -16 79 -63q7 -17 7 -30.5t-10.5 -34.5 t-14.5 -21t-11 13q-21 43 -29 48t-16.5 11t-12.5 8q-14 8 -21 8t-17 -2q-46 -15 -46 -52q0 -28 18.5 -36.5t42 -14.5t34.5 -15t32.5 -24t30.5 -22q26 -24 36 -54.5t10 -60.5t-19 -57q-28 -41 -65 -52q-54 -17 -77.5 -17t-36.5 3l-18 4q-7 2 -8.5 2.5t-7 2t-11.5 3.5t-8 3.5 t-5.5 3.5t-5.5 5q-6 5 -10 11q-21 32 -21 55t16 54z"/>
<glyph glyph-name="t" horiz-adv-x="316" unicode="t" d="M164 494l-2 -34v-9q34 3 52 3t38 -2l31 -4q15 -14 15 -36t-15 -38q-17 -1 -38 -1l-36 1q-19 0 -35 -1q-15 -5 -22 -16q1 -35 1 -61t-2 -139l3 -27t4 -28q2 -8 10 -18t24 -15q10 1 32 10t31 9h3l2 -1q12 -3 12 -11t-9 -24t-13 -18l-24 -21q-27 -9 -47 -9t-39 4 q-46 7 -76 56v291q-3 2 -10 6t-10 7l-10 6q-8 6 -12 15t-5 15q0 6 9 30l42 44q15 16 17 18t5 4q8 8 32 36q4 1 14 1t19 -15t9 -28z"/>
<glyph glyph-name="u" horiz-adv-x="438" unicode="u" d="M248 403q-34 0 -34 27q0 20 15 30.5t31.5 11.5t29 3t34.5 2t35.5 -6t17.5 -7t12 -5q11 -5 11 -15v-3q0 -7 -10.5 -16t-12.5 -15v-283l19 -27q3 -3 12.5 -9t20.5 -15l-33 -42q-22 -24 -81 -43q-11 0 -17 4.5t-13.5 17t-15.5 21.5q-9 1 -17 -2t-15 -5t-37 -14.5t-51 -12.5 h-5q-33 1 -59.5 25t-37.5 70v82q0 -6 -1 -6v204q-5 9 -23 14q-17 5 -23 17q-3 6 -3 11t2 9q9 15 21 22l10 8q7 5 17 7t24.5 6t22.5 4t12 -1q26 -6 34 -23q1 -72 1 -130l-1 -177q27 -46 76 -46q33 0 49 17.5t27 45.5l-1 234q-8 10 -28 10h-15z"/>
<glyph glyph-name="v" horiz-adv-x="428" unicode="v" d="M287 395q0 26 -20 26h-12q-10 1 -16 9t-6 24q-1 16 17 26q18 9 37 9t35 -1q16 -2 28 -2h17t13 -3q17 -3 27 -17t10 -27q0 -29 -19 -33q-8 -2 -11 -4q-37 -56 -76 -138t-68 -131q-11 -25 -13 -61t-12 -57q-12 -8 -32 -8t-36 18q-14 27 -16 64t-9 63q-14 51 -34 105 l-51 139q-5 4 -10 4t-7 3q-27 27 -27 41t4 21q12 24 56 24h31q10 1 30 1q75 0 75 -36q0 -21 -19 -44q-5 -6 -16 -4t-13 -2q-1 -8 -1 -18q1 -10 5 -36t6 -52t4 -40q3 -35 36 -87l13 1q0 1 8 14q23 35 33 66l9 28q3 8 9 32t8 35l6 16q7 21 7 32z"/>
<glyph glyph-name="w" horiz-adv-x="659" unicode="w" d="M601 487l15 -1q10 0 13 -1t7 -3t11 -10q10 -12 10 -26t-4 -26q-3 -12 -11 -20t-12 -13q-14 -45 -34 -129t-40 -134q-22 -52 -69 -113q-17 -14 -25 -14t-14 3q-34 47 -44 75t-29 117q-2 3 -7 12q-11 20 -21 20h-1q-14 0 -26 -16t-13 -16q-14 -42 -23 -64t-10 -26 q0 -4 -8 -18t-10 -17q-2 -2 -13 -22l-17 -28q-22 -20 -31 -20t-15 3q-39 73 -66 184q-27 116 -55 171q-1 2 -7 17l-6 15q-8 15 -31 36v9q0 33 23 48q48 8 70 8q34 0 61 -18q3 -2 4 -2t3 -4q2 -2 2 -3q1 -3 1 -14v-13q-3 -4 -15 -2t-14 -4q18 -43 30 -87t22 -67t33 -50 q13 9 27 18t20 12q13 9 17 22q17 52 17 80q0 22 -7 32t-27 24q-34 20 -34 50q0 12 6 18q30 17 48 17q18 -1 32 -5t16 -6t2 -6q2 -4 2 -9q0 -4 2 -12t2 -15q4 6 7 14t8 18t7 11t16 5t26 5q12 0 26 -8q10 -9 10 -19t-6 -22q-6 -10 -23 -22q-18 -12 -22 -22t-4 -24l7 -84 l10 -26q5 -14 5 -16t5 -9q5 -6 6 -7q8 -3 38 -27q34 7 44 23t13 23t9 26t8 28t8 25q9 26 9 40t-4 27q-4 12 -13 21q-20 20 -20 35q0 7 4 13q14 17 40 17q9 0 29 -2z"/>
<glyph glyph-name="x" horiz-adv-x="494" unicode="x" d="M44 105l32 -3q11 0 19 4q54 54 69 72t39 60l-15 32q-9 20 -13 30q-9 22 -31 54l-26 37q-16 11 -41 11h-7q-22 0 -36 4q-6 8 -6 30t8 32q21 5 38 10l22 8q15 5 48 5h18q56 0 71 -23q7 -10 7 -22t-5 -20t-17 -8t-13 -7q6 -13 10 -29q5 -16 9 -24t15 -15t21 -7t23 4 q12 4 17 8t8 8q12 20 29 40q5 18 -1 27q-4 4 -16 7t-12 8q-2 5 -2 11q0 17 30 36l24 3l24 3h9l13 -1l25 1q29 0 41 -19q4 -5 4 -20t-10 -33q-3 -7 -11 -7l-16 2q-7 0 -13 -7t-32 -33q-53 -53 -94 -107q14 -35 36 -63t56 -62t56 -62q11 -28 11 -36t-6 -17q-33 -13 -55 -15 t-45 -4t-46 -3q-23 0 -42 4q-6 5 -6 21l1 19q0 8 15 8l14 -1q20 0 20 16q0 6 -4 18l-5 16q-5 21 -20 30q-5 3 -20 9q-8 1 -18 1t-24 -1q-8 -8 -16 -13q-17 -9 -29 -31q-1 -3 -3 -7l-3 -6q0 -2 2 -16q4 -4 10 -4l19 3q14 0 14 -15q0 -6 -6 -18t-11 -16t-9 -6t-12 -4t-14 -3 t-20 -2t-23 -2t-25 -1t-32 4t-22 8q-10 6 -18 24t-8 32t9 24t23 9z"/>
<glyph glyph-name="y" horiz-adv-x="491" unicode="y" d="M391 495l20 1q28 0 46 -11q21 -23 21 -40t-4 -25t-4 -8.5t-2 -1t-3.5 0t-8.5 -1.5l-15 -5l-145 -307l-70 -139l-109 -203q-18 -7 -40 -7t-68 34q-9 13 -9 28t9 40q3 23 10.5 33t19 15.5t18.5 5.5t21 -5.5t21 -5.5t13 3q29 16 41 41t17 50.5t7 35t2 24.5t-12.5 78.5 t-32 121.5t-60.5 141q-26 4 -38.5 12t-19 22t-6.5 21.5t11 19.5l18 11q24 13 38 14.5t16 1.5q6 2 32 3t38 1q33 0 49 -17t16 -34t-6 -23.5t-12 -6.5l-20 2q-6 0 -11 -5.5t-5 -13.5l6 -30q10 -66 51 -159q11 -6 23.5 -6t28.5 11q29 56 40 85t16 75l3 24q0 12 -6 18.5t-12 6.5 l-15 -2q-6 0 -12.5 8t-6.5 21t10 26q34 18 91 21z"/>
<glyph glyph-name="z" horiz-adv-x="466" unicode="z" d="M193 9l-77 -2q-41 0 -116 10q-2 3 -2 13t17 38l161 191q29 36 67 88q13 33 13 43t-8 20q-16 20 -42 20t-55 -12t-42 -28q-13 -14 -19 -28q-18 -39 -55 -61q-9 3 -12 9t-3 21l-4 68q0 35 9 71q28 4 45 4l51 -4l180 7q46 0 99 -7q12 -11 12 -22t-12 -52l-199 -261l-1 -9 q0 -17 12 -25q44 -9 52 -9t43 9q31 14 56 61t41 60q23 -7 30 -28q12 -36 12 -96t-36 -87h-46l-134 -2h-37z"/>
<glyph glyph-name="braceleft" horiz-adv-x="256" unicode="{" d="M171 35l31 6q6 1 14 -7q3 -3 4 -8q0 -4 -5 -9q-21 -23 -46 -23t-44 14q-42 35 -42 86.5t22 87.5l13 18q23 35 23 59q0 40 -25 67q-17 17 -39.5 34t-29.5 23q12 4 29 8.5t22 6.5l14 6q8 3 11 8q7 14 11.5 29.5t4.5 19.5q0 18 -21 47t-23 34q-26 52 -26 91t30.5 76t64.5 37 q12 0 24 -6t12 -17q0 -6 -3 -13q-5 -12 -31 -13.5t-32 -13.5q-9 -19 -9 -40t27 -67q43 -70 43 -114q0 -53 -70 -85q73 -28 73 -88l-1 -11q-5 -48 -32 -106t-27 -81.5t20 -49.5q5 -6 13 -6z"/>
<glyph glyph-name="bar" horiz-adv-x="255" unicode="|" d="M179 208q0 -89 17 -174q0 -18 -32 -18t-59.5 9.5t-27.5 20.5l1 1v41q0 90 -4 243.5t-4 364.5q-2 3 -2 8q0 16 26 16t38 -6q31 -16 40.5 -86.5t9.5 -179.5v-46z"/>
<glyph glyph-name="braceright" horiz-adv-x="256" unicode="}" d="M95 705l-31 -6q-6 -1 -14 7q-3 3 -4 8q0 4 5 9q21 23 46 23t44 -14q42 -35 42 -86.5t-22 -87.5l-13 -18q-23 -35 -23 -59q0 -40 25 -67q17 -17 39.5 -34t29.5 -23q-12 -4 -29 -8.5t-22 -6.5l-14 -6q-8 -3 -11 -8q-7 -14 -11.5 -29.5t-4.5 -19.5q0 -18 21 -47t23 -34 q26 -52 26 -91t-30.5 -76t-64.5 -37q-12 0 -24 6t-12 17q0 6 3 13q5 12 31 13.5t32 13.5q9 19 9 40t-27 67q-43 70 -43 114q0 53 70 85q-73 28 -73 88l1 11q5 48 32 106t27 81.5t-20 49.5q-5 6 -13 6z"/>
<glyph glyph-name="asciitilde" horiz-adv-x="346" unicode="~" d="M122 404q17 0 35 -12t24 -14t21 -10t24 -8h5q13 0 27 20t29 20q40 -2 43 -32v-1q0 -11 -12 -17t-16 -9q-6 -3 -18 -15t-18 -17q-20 -15 -44 -15h-4q-21 0 -50 25t-51 25h-2q-15 0 -31 -18t-28 -18h-5q-15 2 -25 13t-10 22t4 17t7 8q9 8 25 16q34 20 61 20h9z"/>
<glyph glyph-name="nonbreakingspace" horiz-adv-x="474" unicode=""/>
<glyph glyph-name="exclamdown" horiz-adv-x="301" unicode="" d="M203 419l-1 -42q0 -23 6 -121t6 -132.5t-2 -90.5q-25 -31 -56 -31t-56 22q-1 32 -1 99t11 180l5 47q2 18 5 30q10 54 20 121q21 23 39 23q7 0 15 -5q9 -60 9 -100zM185 627q-18 -8 -38 -8t-33 16t-13 38.5t20 42.5t43 20q57 0 57 -46v-9q-5 -39 -36 -54z"/>
<glyph glyph-name="cent" horiz-adv-x="314" unicode="" d="M140 222q-50 6 -80 52t-31 103q0 33 13 71q25 78 90 102q0 57 1 90q20 34 41 34t39 -24q1 -36 1 -93q28 -3 50 -25t22 -48q0 -25 -22 -25h-3q-9 0 -17 11t-12 14q-4 2 -7 5t-7 6t-5 5q-4 -141 -14 -235q34 0 50 47q5 12 15 12t16 -6t6 -13v-1q-2 -38 -4 -42t-11 -15 q-8 -11 -29 -19t-37 -7h-12l-8 -81q-15 -24 -25 -24t-14 5q-6 61 -6 101zM133 493q-13 -13 -25 -45t-11 -59t5 -47t10 -32t12 -19q11 -13 16 -13v26q-2 36 -4 97t-3 92z"/>
<glyph glyph-name="sterling" horiz-adv-x="708" unicode="" d="M328 460l17 1q7 1 21 -1t33 -3t28 -2q27 -3 43 -23q20 -22 20 -42q0 -37 -55 -54q-27 -9 -47 -10t-60 -2q0 -26 -28 -93t-32 -136q90 -22 146 -22t144 39v8q0 24 -6 54t-6 50t5 32t11 14t17 3l58 -5q9 0 14 1q19 -96 19 -124t-10 -121q-36 14 -60 14q-80 0 -172 -8 t-159 -8t-228 16q-15 16 -15 24t23 47l21 1l35 -2q11 0 29 16t33 38q14 22 20 56q7 37 10 103q-59 0 -101 18t-41 44q0 26 19 40q32 24 101 24h26l6 79q0 34 -9 55t-20 28q-28 19 -28 43q0 46 46 66t102 21q98 0 170 -62t72 -112q0 -14 -10 -14q-48 9 -76 31t-42 36t-34 14 q-18 0 -30 -8t-16 -16t-6 -22q2 -102 2 -126z"/>
<glyph glyph-name="currency" horiz-adv-x="314" unicode="" d="M232 248l-14 16q-17 -14 -52 -14q-8 0 -24 4t-23 12q-7 -12 -5 -14t10 -1t7 -3q0 -4 -2 -8q-3 -4 -7 -6q-4 -4 -6 -7l-48 -2q-15 0 -27 2q-2 2 -6 5q-9 7 -9 13q0 9 15 15q5 2 15 -2t12 2l26 32q-13 22 -13 53t17 65l-30 36q-2 6 -12 2t-15 -2q-15 6 -15 15q0 6 6 11t9 7 q12 2 27 2l48 -2q2 -3 6 -7q9 -6 9 -14q-1 -4 -8 -2t-9 -2l-1 -6l8 -12q21 17 51 17t45 -12l15 18q0 5 -8 5t-12 5t8 10q14 0 25 1l11 1q4 0 30 -9q2 -2 2 -5q0 -4 -4 -9l-1 -4q-12 3 -18 0q-9 -9 -30 -33q17 -22 17 -67t-16 -70l29 -32q3 -1 9 1t9 -1q5 -5 5 -11 q0 -4 -2 -7q-26 -9 -30 -9l-11 1q-11 1 -25 1q-10 7 -7 11t11 5t8 5zM121 352l2 -20q0 -6 8 -22t11 -19q11 -11 28 -11t22 2t10 11q17 25 17 55t-6 42q-20 35 -40 35h-3q-12 0 -23 -7q-5 -4 -15 -26t-11 -40z"/>
<glyph glyph-name="yen" horiz-adv-x="759" unicode="" d="M305 638l-41 4q-16 0 -22 -11q25 -66 65 -151t60 -148l9 1l173 281q-13 5 -33 7t-34 7q-20 10 -20 32t27 40l48 4q21 1 29 2q16 2 24 2h16q10 0 42 -4q32 -2 72 -4q15 -14 15 -28t-9 -26t-29 -12l-50 5q-18 0 -30 -8l-113 -207q-26 -45 -55 -87h5q17 1 26 -1t19 -4l15 -3 l10 -5q7 -3 12 -7q19 -16 19 -30q0 -13 -8 -21q-7 -8 -13 -12t-14 -6t-12 -4t-14 -4t-15 -2h-17t-16 -2h-18h-18q-2 -17 -4 -43q8 1 40 1t62 -10t38 -20q9 -11 9 -23t-8 -19q-13 -12 -27 -18l-12 -4q-15 -5 -37 -6q-22 -2 -26 -2h-18h-18q4 -31 7 -33t9 -2l47 9q14 0 22 -12 t9 -20q0 -9 -5 -17q-131 -13 -159 -13t-148 10q-8 10 -8 22t11 24t27 13l50 -8q14 0 22 9l1 16q-40 1 -74 15t-33 33q0 14 23 30t91 16l1 50q-50 0 -82 15t-33 34q0 19 27 32t67 13q-29 56 -91 142t-96 144q-6 3 -12 3l-36 -8q-12 -1 -22 15t-10 34t12 33q103 8 122 8l56 -2 q26 0 106 3q21 -16 21 -36q0 -26 -26 -26z"/>
<glyph glyph-name="brokenbar" horiz-adv-x="255" unicode="" d="M182 442q-8 -1 -24 -4q-25 -6 -86 -10q-2 128 -2 268q-2 3 -2 8q0 16 27 16t39 -8t25 -34q23 -51 23 -236zM104 304l67 3h10q-2 -72 -2 -103q0 -57 7 -106l4 -34q2 -14 4 -22l2 -8q0 -18 -32 -18t-60 10t-27 20l1 1v2q0 147 -3 257q9 -2 29 -2z"/>
<glyph glyph-name="section" horiz-adv-x="643" unicode="" d="M298 351q-6 6 -11 6q-10 0 -10 -29q0 -59 21 -103q10 -19 36 -33t33 -24t11 -23t13 -21q11 -8 31 -17t32 -9t12 8q0 3 -1 5l-5 19q-4 12 -6 16t-4 12t-4 11t-4 9q-6 14 -14 22t-12 13l-10 12q-44 26 -64 51t-44 75zM352 604q-16 19 -24 19q-8 -1 -16 -5t-17 -19t-9 -47 t14 -60q14 -30 30 -45l42 -37q24 -21 38 -42t39 -52l39 -48q14 -19 26 -50t12 -63t-12 -62q-12 -29 -22 -43t-38 -50q33 -59 33 -102q0 -38 -25 -80q-16 -23 -48 -38t-72 -15t-63 9q-24 9 -35 22q-19 26 -19 42t16 34q16 16 37 16t38 -4q16 -4 32 -26t25 -22t16 6t7 16 t-5 43q-4 42 -16 71q-13 28 -29 56t-31 56t-22 38l-21 28q-23 28 -76 60q-80 46 -80 128q0 52 40 74l32 20q40 22 40 77q0 17 -6 49t-7 48q1 40 33 72t84 31q58 0 92 -29q21 -18 21 -44t-24 -38q-25 -12 -39 -13q-14 0 -30 19z"/>
<glyph glyph-name="dieresis" horiz-adv-x="365" unicode="" d="M327 453q15 -27 15 -48.5t-17 -39t-37 -17.5t-29.5 2t-14.5 8q-18 22 -18 49.5t15.5 50t43 22.5t42.5 -27zM177 453q15 -27 15 -48.5t-17 -39t-37 -17.5t-29.5 2t-14.5 8q-18 22 -18 49.5t15.5 50t43 22.5t42.5 -27z"/>
<glyph glyph-name="copyright" horiz-adv-x="432" unicode="" d="M221 70l30 -3q37 0 53 29q12 20 18 37q19 54 19 94q0 94 -43 147q-30 37 -75 37q-66 0 -91 -72q-23 -60 -23 -104q0 -135 83 -160q12 -4 27 -5h2zM257 4l-32 1q-13 -1 -33 -1q-59 0 -108 45q-71 66 -71 174q0 37 13 83t29 74q16 29 49 54q56 44 129 44q46 0 67 -8t44 -30 q45 -46 60 -86t15 -126q1 -86 -41 -154q-42 -70 -121 -70zM270 354q10 -4 23 -18q14 -14 14 -32t-16 -17q-8 0 -14 8t-9 10l-8 8q-10 10 -23 10t-19 -2t-12 -5q-4 -3 -8 -7q-4 -3 -6 -7l-4 -8q-14 -33 -14 -53t2 -33t6 -21q4 -9 9 -15t9 -10q6 -4 10 -5q12 -3 16 -3 q10 -3 18 -3q10 0 16 4q13 7 20 29q4 12 16 8t10 -20t-2 -18q0 -4 -7 -13q-13 -21 -51 -21h-31q-33 0 -61 30t-28 80t30 91q11 15 32 25q20 10 46 11t36 -3z"/>
<glyph glyph-name="ordfeminine" horiz-adv-x="280" unicode="" d="M155 203l-51 -3q-29 0 -47 11q-27 17 -27 35t10 30t24 16q13 3 33 3q24 0 47 5l18 4q7 1 15 1q41 0 57 -16q16 -17 16 -33t-6 -24t-12 -14q-6 -5 -12 -8q-5 -3 -16 -4q-17 -3 -32 -3h-17zM140 386q20 12 20 32q0 25 -16 25q-12 1 -32 -13t-20 -26q0 -25 15 -31h1 q12 1 32 13zM231 389q-4 -39 -10 -43t-7 -4q-3 -2 -15 -2h-8q-22 0 -27 12q-5 11 -12 13h-2q-4 0 -20 -14t-40 -14q-22 0 -31 17t-9 34q0 47 67 73q4 3 11 3h12q15 2 15 31t-10 36q-2 2 -10 2q-34 0 -34 -33v-8q-2 -19 -23 -19t-21 24q0 61 85 61q39 0 47 -40q3 -14 3 -39 v-65q0 -14 1 -20t1 -8v-4q2 -4 6 -4t12 10t13 10q6 0 6 -9z"/>
<glyph glyph-name="guillemotleft" horiz-adv-x="512" unicode="" d="M309 372l-20 1q-8 0 -11 -2l-104 -65q-28 -18 -58 -43q18 -27 45.5 -48t69.5 -46t70 -47q13 -23 13 -28t-7 -11q-39 -14 -109 -14q-29 0 -55.5 24t-39.5 53q-1 4 -44 48t-43 62q0 8 7 12q29 35 103 92q3 2 28.5 28t51 36.5t58.5 10.5t52.5 -8.5t19.5 -20t-7 -23 t-20 -11.5zM509 372l-20 1q-8 0 -11 -2l-104 -65q-28 -18 -58 -43q18 -27 45.5 -48t69.5 -46t70 -47q13 -23 13 -28t-7 -11q-39 -14 -109 -14q-29 0 -55.5 24t-39.5 53q-1 4 -44 48t-43 62q0 8 7 12q29 35 103 92q3 2 28.5 28t51 36.5t58.5 10.5t52.5 -8.5t19.5 -20t-7 -23 t-20 -11.5z"/>
<glyph glyph-name="logicalnot" horiz-adv-x="346" unicode="" d="M192 190l-69 -3q-62 0 -90 39q-9 13 -9 29q0 17 15 34t31 21t39 4h5q1 -1 20 0q23 1 36 6q16 6 39 6q25 0 39 -2l12 -2q4 -1 9 -2q7 -1 15 -5q14 -8 19 -17q23 -41 23 -73q0 -17 -6 -53t-6 -54q-2 -32 -53 -32q-30 0 -41 16t-15 40q-5 24 -5 36t-7 12h-1z"/>
<glyph glyph-name="softhyphen" horiz-adv-x="346" unicode="" d="M192 147l-69 -3q-62 0 -90 39q-9 13 -9 29q0 17 14 32q23 27 71 27q3 0 5 -1h8q31 2 34 3q30 10 74.5 10t66.5 -21.5t22 -43t-9 -34.5t-17.5 -20t-23.5 -10.5t-21 -4.5q-14 -2 -56 -2z"/>
<glyph glyph-name="registered" horiz-adv-x="432" unicode="" d="M166 112q-6 2 -8 10t0 12q2 6 10 10t12 10q1 17 1 42v80q-3 6 -16 12t-13 16q3 4 7 10l9 16q6 9 20 15t30 -1q8 -8 12 -10t10 -4q6 3 12 9q15 13 28 13q24 0 34 -38q4 -12 -6 -28q-12 -16 -23 -14q-7 0 -11 12t-9 14l-31 -22v-110q2 -4 8 -7t6 -7q7 -15 -2 -26 q-12 -3 -40 -7t-40 -7zM222 70l30 -3q37 0 54 29q11 19 17 37q19 51 19 94q0 92 -43 147q-30 37 -75 37q-28 0 -52 -16t-44 -66q-18 -50 -18 -94q0 -135 83 -160q12 -4 27 -5h2zM258 4l-32 1q-13 -1 -33 -1q-59 0 -107 45q-72 66 -72 174q0 37 13 83t29 74q16 29 49 54 q56 44 129 44q44 0 65 -8t47 -30q26 -24 52 -70q8 -13 12 -24q10 -29 10 -116q0 -86 -42 -156t-120 -70z"/>
<glyph glyph-name="macron" horiz-adv-x="346" unicode="" d="M192 374l-69 -3q-60 0 -90 30q-9 9 -9 22t14 24q24 20 71 20l5 -1h17q17 0 37 5t36 5h17q56 0 77 -16t21 -36t-27 -38q-9 -6 -16 -7l-21 -3q-14 -2 -32 -2h-31z"/>
<glyph glyph-name="degree" horiz-adv-x="264" unicode="" d="M103 367q15 -12 43 -12t39 32q9 22 9 53t-13 56q-16 30 -44 30t-43 -26t-15 -68t24 -65zM137 323l-17 -1q-7 0 -16 3q-26 6 -44 27q-29 32 -29 81q0 70 45 105q27 22 65 22h7q22 -2 30 -6t24 -18q14 -14 23 -35q9 -20 9 -54t-6 -55q-22 -69 -77 -69h-14z"/>
<glyph glyph-name="plusminus" horiz-adv-x="346" unicode="" d="M100 420q2 36 17 58q23 33 46.5 33t38.5 -15q23 -20 25 -63q47 0 69.5 -22t22.5 -48q0 -27 -24 -45t-57 -20l-2 -20q-3 -24 -9.5 -32t-21.5 -18.5t-30 -10.5t-27 4t-26.5 23t-16.5 51q-39 3 -60 24t-21 35.5t4 26t22.5 25.5t49.5 14zM192 66l-69 -3q-62 0 -90 39 q-9 13 -9 29q0 17 14 32q23 27 71 27q3 0 5 -1h8q31 2 34 3q30 10 74.5 10t66.5 -21.5t22 -43t-9 -34.5t-17.5 -20t-23.5 -10.5t-21 -4.5q-14 -2 -56 -2z"/>
<glyph glyph-name="twosuperior" horiz-adv-x="280" unicode="" d="M119 343.5l-73 2.5q-5 0 -5 6.5t5 14.5q19.5 31.5 53.5 63t50 62.5q8.5 17 8.5 29.5t-8.5 22t-20 9.5t-23.75 -4.25t-18.25 -10.5t-14 -17t-18.5 -19.75q-9 15 -9 19.5t12 22.5t21.5 25.75t37 16.75t47 9t35.75 -15.75t16.25 -40.75q0 -14 -6.5 -38t-29.5 -45.5 t-30 -32.5q-3.5 -12 -3.5 -13v-0.5q0 -1.5 -5.5 -14.5h48q1.5 1.5 1.5 4l-1.5 13q0 5 3 8q15 6.5 25.5 6.5t22.5 -8.5q-8 -38 -13.5 -44.5q-1 -1.5 -7.5 -8.25t-15 -17.75q-80.5 -4 -84.5 -4z"/>
<glyph glyph-name="threesuperior" horiz-adv-x="280" unicode="" d="M110.5 272.5v-1.5q0 -14 15.25 -14t34.25 23.5q19.5 23.5 19.5 68q0 16.5 -10 26.5t-31 10t-33.5 -8.75t-30 -10.25q-8 5.5 -8 15.75t8 29.25q16 17.5 39 39t34.25 33.25t11.25 19.5t-9 17.5t-21.75 9.75t-21.25 -5.75t-12.5 -13.25q-11 -21 -29 -28q-1.5 -0.5 -2.5 -0.5 q-4.5 0 -4.5 8.25t1.5 16.5t6 21.75q10 29 45 51.5q22.5 14.5 42.5 14.5t47 -13q14 -13.5 14 -35.5q0 -11 -4.25 -31.5t-20.75 -41.5t-20.5 -31q3 -6 11.5 -6l12.5 0.5q20 0 29 -29.25t9 -58.75t-10.75 -56t-21 -40t-28.75 -23.5q-44 -23 -67.75 -23t-39.5 13.5t-15.75 32.5 t13.5 32.5q8.5 1 17 1l17.5 -1.5l10.5 0.5q4 -3 4 -12.5z"/>
<glyph glyph-name="acute" horiz-adv-x="288" unicode="" d="M244 683q-29 -16 -76 -175q-16 -56 -22 -64t-54 -9q-48 0 -48 14v1q10 38 23 76t19 60t12 35q12 37 40 77q16 10 36 10t70 -25z"/>
<glyph glyph-name="mu" horiz-adv-x="438" unicode="" d="M292 159l-1 234q-8 10 -28 10h-15q-34 0 -34 27q0 12 8 22t15 13q8 4 11 5q14 4 33 4q21 3 40 3q19 1 49 -9t30 -26q0 -8 -10 -17t-13 -15v-283l19 -27q2 -3 12 -9t21 -15q-25 -32 -33 -42q-22 -24 -81 -43q-11 1 -17 5t-14 16t-15 22q-9 1 -17 -2t-16 -5t-30 -3 q-43 -4 -62 -24q-26 -30 -26 -76l9 -103q0 -29 -11 -49q-17 -30 -37 -30q-37 0 -37 158l6 181v46t-2 44v204q-5 9 -23 14q-17 5 -23 17q-3 6 -4 11q0 4 2 8q4 8 10 13l8 8t10 7t9 5t11 4t11 4q2 0 13 3q15 4 24 4q33 0 46 -24q1 -72 1 -130l-1 -177q27 -46 76 -46 q30 0 47 17t29 46z"/>
<glyph glyph-name="paragraph" horiz-adv-x="697" unicode="" d="M361 662q-33 10 -47 10t-44 -10q-28 -10 -46 -23t-30 -39t-13 -52q-1 -25 13 -55t58 -49q7 -3 24 -12q34 -18 52 -18t33 13q7 59 7 107t-7 128zM331 334l-54 -1q-45 0 -87 17t-74 42q-32 24 -58 68q-28 44 -28 86q0 80 46 122t98 58q51 16 124 16q8 0 235 -8q17 27 35 27 t37 -29q40 -2 58 -2q18 -18 18 -37t-9 -31q-26 -5 -64 -7q0 -298 -21 -557q25 5 40 5t25 -3q30 -25 30 -59q0 -19 -13 -35q-15 -2 -137 -6l-4 85l2 122l-8 401v50l-49 5q-1 -69 -1 -155l6 -295v-45q0 -41 1 -74q-3 0 -3 -16l3 -66q0 -15 -3 -15l-205 3q-25 20 -25 49 q0 15 8 29t24 20q16 5 38 6q23 1 37 6q7 106 8 223q-10 1 -30 1z"/>
<glyph glyph-name="periodcentered" horiz-adv-x="304" unicode="" d="M203 212q-25 -32 -69 -32t-56.5 30t-12.5 55t12 46q23 45 63 45t63 -45q15 -27 15 -53t-15 -46z"/>
<glyph glyph-name="cedilla" horiz-adv-x="201" unicode="" d="M51 26q0 33 17 49q16 15 32 15t38 -9q21 -9 31 -31q9 -21 9 -38t-5 -41q-11 -53 -41 -85q-13 -14 -24 -20q-9 -5 -26 -5q-36 0 -36 22v1q1 19 29 27q10 3 19 13t9 25q0 14 -8 22q-7 7 -16 9q-24 8 -26 20t-2 26z"/>
<glyph glyph-name="onesuperior" horiz-adv-x="280" unicode="" d="M98.5 542l-9.5 -1.5q-5.5 0 -8.5 9.5t-3 16.5q0 17.5 11.5 26h99q14 -12 14 -29.5q0 -9 -5 -20q-1.5 -3 -4 -2q-7.5 4 -8.5 -6l0.5 -89v-65q1 -3 5.5 -3t6.5 -1.5q4 -5 7.75 -16.5t3.75 -17.5q-108 -2 -129 -2q-8 0 -8 9.75t4.25 19.5t10.75 9.75l11 -1.5q5.5 0 8 6 q1.5 64.5 1.5 71v80.5q-3 6.5 -8.5 6.5z"/>
<glyph glyph-name="ordmasculine" horiz-adv-x="280" unicode="" d="M109 389q13 -13 35 -13t27 4q28 16 28 75q0 33 -12 59q-15 33 -43 33t-44 -26t-16 -68t25 -64zM142 345q-6 -1 -16 -1q-34 0 -56 25t-28 45q-5 20 -5 40q0 72 45 105q27 22 64 22h7q32 -1 50 -19t27 -38q9 -18 9 -54t-6 -57q-21 -68 -77 -68h-14zM155 220l-51 -3 q-46 0 -68 30q-6 9 -6 21t10 26q10 12 24 15q13 3 33 3q21 0 39 4t53 5q35 0 48 -18t13 -32q0 -15 -6 -23t-12 -13t-12 -8q-5 -3 -16 -5q-17 -2 -32 -2h-17z"/>
<glyph glyph-name="guillemotright" horiz-adv-x="512" unicode="" d="M207 132l20 -1q8 0 11 2l104 65q28 18 58 43q-18 27 -45.5 48t-69.5 46t-70 47q-13 23 -13 28t7 11q39 14 109 14q29 0 55.5 -24t39.5 -53q1 -4 44 -48t43 -62q0 -8 -7 -12q-29 -35 -103 -92q-3 -2 -28.5 -28t-51 -36.5t-58.5 -10.5t-52.5 8.5t-19.5 20t7 23t20 11.5z M7 132l20 -1q8 0 11 2l104 65q28 18 58 43q-18 27 -45.5 48t-69.5 46t-70 47q-13 23 -13 28t7 11q39 14 109 14q29 0 55.5 -24t39.5 -53q1 -4 44 -48t43 -62q0 -8 -7 -12q-29 -35 -103 -92q-3 -2 -28.5 -28t-51 -36.5t-58.5 -10.5t-52.5 8.5t-19.5 20t7 23t20 11.5z"/>
<glyph glyph-name="onequarter" horiz-adv-x="560" unicode="" d="M169 129l-68.5 -3q-18.5 0 -38.5 3q-3 3.5 -9 8q-12 9 -12 18.25t10.25 15.5t16.75 6.25l24 -5q5 0 8.5 4l94 113q15.5 18 28.5 32l31.5 32.5q24 26.5 41.25 54t38.25 50.5q-1.5 5 -14 6.25t-12.5 9.75t9 13.5q21 0 36 1.25t18.5 1.25t39.5 -12.5q3.5 -4 3.5 -10 t-3.75 -11.75t-9.25 -5.75l-15.5 3q-3.5 0 -5 -1q-38 -41 -63.75 -77.5t-36.75 -50.5l-46 -57q-34.5 -43 -61 -82.5q-0.5 -2 -4.25 -7.25t-3.75 -8.75q0 -7 8 -7l10.5 1q7.5 0 7.5 -8q0 -6 -10 -14.25t-12 -11.25zM328.5 261l-3 -0.5l-45 -72q-2.5 -10 -2.5 -12.75 t2.5 -5.25l32 1q-4 0 -4 0.5q8 1 39.5 3v67.5q-9 18.5 -19.5 18.5zM347.5 53.5l0.5 41q0 14 -1.5 38.5q-6.5 0.5 -19.25 0.5t-28.25 -3.25t-25.75 -3.25t-36.25 6q-7.5 2 -7.5 9.5t3 17.5l41.5 68.5q19 32 23 39.75t16.75 25.75t23.25 31l42.5 51q4 2 10.75 2t11.75 -6.5 q4.5 -43.5 4.5 -56.25t-9 -140.25q4.5 -0.5 14.5 -0.5t25 5t30 5t35 -1q4.5 -7 4.5 -14.5q0 -16 -16.75 -31.25t-30.75 -15.25q-4 0 -20 4t-33 4l-10 -0.5l1.5 -77.5q0 -16 -1 -32q-12 -13.5 -25 -13.5t-23.5 9q-0.5 15.5 -0.5 37.5zM100.5 523l-9.5 -1.5q-5.5 0 -8.5 9.5 t-3 16.5q0 17.5 11.5 26h99q14 -12 14 -29.5q0 -9 -5 -20q-1.5 -3 -4 -2q-7.5 4 -8.5 -6l0.5 -89v-65q1 -3 5.5 -3t6.5 -1.5q4 -5 7.75 -16.5t3.75 -17.5q-108 -2 -129 -2q-8 0 -8 9.75t4.25 19.5t10.75 9.75l11 -1.5q5.5 0 8 6q1.5 64.5 1.5 71v80.5q-3 6.5 -8.5 6.5z"/>
<glyph glyph-name="onehalf" horiz-adv-x="560" unicode="" d="M373 40.5l-73 2.5q-5 0 -5 6.5t5 14.5q19.5 31.5 53.5 63t50 62.5q8.5 17 8.5 29.5t-8.5 22t-20 9.5t-23.75 -4.25t-18.25 -10.5t-14 -17t-18.5 -19.75q-9 15 -9 19.5t12 22.5t21.5 25.75t37 16.75t47 9t35.75 -15.75t16.25 -40.75q0 -14 -6.5 -38t-29.5 -45.5t-30 -32.5 q-3.5 -12 -3.5 -13v-0.5q0 -1.5 -5.5 -14.5h48q1.5 1.5 1.5 4l-1.5 13q0 5 3 8q15 6.5 25.5 6.5t22.5 -8.5q-8 -38 -13.5 -44.5q-1 -1.5 -7.5 -8.25t-15 -17.75q-80.5 -4 -84.5 -4zM199 129l-68.5 -3q-18.5 0 -38.5 3q-3 3.5 -9 8q-12 9 -12 18.25t10.25 15.5t16.75 6.25 l24 -5q5 0 8.5 4l94 113q15.5 18 28.5 32l31.5 32.5q24 26.5 41.25 54t38.25 50.5q-1.5 5 -14 6.25t-12.5 9.75t9 13.5q21 0 36 1.25t18.5 1.25t39.5 -12.5q3.5 -4 3.5 -10t-3.75 -11.75t-9.25 -5.75l-15.5 3q-3.5 0 -5 -1q-38 -41 -63.75 -77.5t-36.75 -50.5l-46 -57 q-34.5 -43 -61 -82.5q-0.5 -2 -4.25 -7.25t-3.75 -8.75q0 -7 8 -7l10.5 1q7.5 0 7.5 -8q0 -6 -10 -14.25t-12 -11.25zM100.5 523l-9.5 -1.5q-5.5 0 -8.5 9.5t-3 16.5q0 17.5 11.5 26h99q14 -12 14 -29.5q0 -9 -5 -20q-1.5 -3 -4 -2q-7.5 4 -8.5 -6l0.5 -89v-65q1 -3 5.5 -3 t6.5 -1.5q4 -5 7.75 -16.5t3.75 -17.5q-108 -2 -129 -2q-8 0 -8 9.75t4.25 19.5t10.75 9.75l11 -1.5q5.5 0 8 6q1.5 64.5 1.5 71v80.5q-3 6.5 -8.5 6.5z"/>
<glyph glyph-name="threequarters" horiz-adv-x="560" unicode="" d="M114.5 349.5v-1.5q0 -14 15.25 -14t34.25 23.5q19.5 23.5 19.5 68q0 16.5 -10 26.5t-31 10t-33.5 -8.75t-30 -10.25q-8 5.5 -8 15.75t8 29.25q16 17.5 39 39t34.25 33.25t11.25 19.5t-9 17.5t-21.75 9.75t-21.25 -5.75t-12.5 -13.25q-11 -21 -29 -28q-1.5 -0.5 -2.5 -0.5 q-4.5 0 -4.5 8.25t1.5 16.5t6 21.75q10 29 45 51.5q22.5 14.5 42.5 14.5t47 -13q14 -13.5 14 -35.5q0 -11 -4.25 -31.5t-20.75 -41.5t-20.5 -31q3 -6 11.5 -6l12.5 0.5q20 0 29 -29.25t9 -58.75t-10.75 -56t-21 -40t-28.75 -23.5q-44 -23 -67.75 -23t-39.5 13.5t-15.75 32.5 t13.5 32.5q8.5 1 17 1l17.5 -1.5l10.5 0.5q4 -3 4 -12.5zM169 129l-68.5 -3q-18.5 0 -38.5 3q-3 3.5 -9 8q-12 9 -12 18.25t10.25 15.5t16.75 6.25l24 -5q5 0 8.5 4l94 113q15.5 18 28.5 32l31.5 32.5q24 26.5 41.25 54t38.25 50.5q-1.5 5 -14 6.25t-12.5 9.75t9 13.5 q21 0 36 1.25t18.5 1.25t39.5 -12.5q3.5 -4 3.5 -10t-3.75 -11.75t-9.25 -5.75l-15.5 3q-3.5 0 -5 -1q-38 -41 -63.75 -77.5t-36.75 -50.5l-46 -57q-34.5 -43 -61 -82.5q-0.5 -2 -4.25 -7.25t-3.75 -8.75q0 -7 8 -7l10.5 1q7.5 0 7.5 -8q0 -6 -10 -14.25t-12 -11.25z M328.5 261l-3 -0.5l-45 -72q-2.5 -10 -2.5 -12.75t2.5 -5.25l32 1q-4 0 -4 0.5q8 1 39.5 3v67.5q-9 18.5 -19.5 18.5zM347.5 53.5l0.5 41q0 14 -1.5 38.5q-6.5 0.5 -19.25 0.5t-28.25 -3.25t-25.75 -3.25t-36.25 6q-7.5 2 -7.5 9.5t3 17.5l41.5 68.5q19 32 23 39.75 t16.75 25.75t23.25 31l42.5 51q4 2 10.75 2t11.75 -6.5q4.5 -43.5 4.5 -56.25t-9 -140.25q4.5 -0.5 14.5 -0.5t25 5t30 5t35 -1q4.5 -7 4.5 -14.5q0 -16 -16.75 -31.25t-30.75 -15.25q-4 0 -20 4t-33 4l-10 -0.5l1.5 -77.5q0 -16 -1 -32q-12 -13.5 -25 -13.5t-23.5 9 q-0.5 15.5 -0.5 37.5z"/>
<glyph glyph-name="questiondown" horiz-adv-x="474" unicode="" d="M233 429l3 82q0 28 -3 45q8 7 25.5 7t37.5 -25q23 -92 23 -136t-5 -107q-46 -15 -75 -15l-39 2q-19 0 -39 -5q-14 -14 -14 -28t7 -30t24 -25.5t42 -17t37.5 -15t30 -13t28.5 -12.5q20 -12 20 -48t-31 -54q-24 -2 -41.5 -2t-37 8t-56.5 30q-4 7 -19 29.5t-19 29.5l-12 23 q-13 27 -17 63l-5 31q-4 25 -4 37q0 38 31 69q15 15 53.5 25.5t54.5 34.5v17zM330 620.5q-25 -14.5 -58.5 -14.5t-53.5 26.5t-20 52.5q0 66 74 66q26 0 45 -18q38 -33 38 -65.5t-25 -47z"/>
<glyph glyph-name="Agrave" d="M198 802q14 34 28 47q15 13 36 17q58 -8 107 -28t75 -29t60 -25l-23 -31q-20 -27 -35.5 -27t-109.5 38.5t-131 38.5q-4 0 -7 -1zM398 566q-5 -13 -24.5 -86.5t-49.5 -143.5q31 -17 59.5 -17t112.5 8v8q0 29 -15 61t-20 44t-14 45.5t-19.5 52t-29.5 28.5zM84 140l36 -5 q11 0 17 5q15 22 42 110l9 29l41 111q56 153 131 299q52 27 72 27t40 -11q30 -45 38.5 -69.5t16.5 -50.5l13 -42q25 -71 58 -210q31 -131 53 -191q12 -17 47 -28q36 -12 47.5 -32.5t11.5 -37.5q0 -16 -12 -30q-3 -3 -8.5 -2t-8.5 -1q-51 -11 -200 -11h-84q-25 0 -25 35.5 t25 64.5q10 11 15.5 11t18 -3.5t27 -3.5t31.5 4q4 7 6.5 8t3.5 2q2 2 2 17t-2 42t-2.5 30.5t-3.5 12.5q-4 10 -8 15q-15 19 -46 23q-20 -2 -54 -2l-73 1q-39 0 -83 -4q-23 -19 -27 -36.5t-5 -26t-1 -28t-1 -28.5q9 -5 18 -5l30 5q9 0 17 -9q2 -42 2 -67q0 -24 -10 -35 q-17 -19 -46 -19q-11 0 -38 5t-43 5h-7q-35 0 -80 -3q-3 -1 -9.5 -4t-14.5 -3t-27 14q-3 5 -10 12q-14 16 -14 27q0 45 55 78q10 5 19 5z" unicode=""/>
<glyph glyph-name="Aacute" d="M671 802q-3 1 -8 1q-35 0 -129 -38t-103 -38t-38.5 21.5t-29.5 30.5q0 3 2 5q26 12 65 26l93 36q33 13 84 20q19 -4 33 -14t31 -50zM398 566q-5 -13 -24.5 -86.5t-49.5 -143.5q31 -17 59.5 -17t112.5 8v8q0 29 -15 61t-20 44t-14 45.5t-19.5 52t-29.5 28.5zM84 140l36 -5 q11 0 17 5q15 22 42 110l9 29l41 111q56 153 131 299q52 27 72 27t40 -11q30 -45 38.5 -69.5t16.5 -50.5l13 -42q25 -71 58 -210q31 -131 53 -191q12 -17 47 -28q36 -12 47.5 -32.5t11.5 -37.5q0 -16 -12 -30q-3 -3 -8.5 -2t-8.5 -1q-51 -11 -200 -11h-84q-25 0 -25 35.5 t25 64.5q10 11 15.5 11t18 -3.5t27 -3.5t31.5 4q4 7 6.5 8t3.5 2q2 2 2 17t-2 42t-2.5 30.5t-3.5 12.5q-4 10 -8 15q-15 19 -46 23q-20 -2 -54 -2l-73 1q-39 0 -83 -4q-23 -19 -27 -36.5t-5 -26t-1 -28t-1 -28.5q9 -5 18 -5l30 5q9 0 17 -9q2 -42 2 -67q0 -24 -10 -35 q-17 -19 -46 -19q-11 0 -38 5t-43 5h-7q-35 0 -80 -3q-3 -1 -9.5 -4t-14.5 -3t-27 14q-3 5 -10 12q-14 16 -14 27q0 45 55 78q10 5 19 5z" unicode=""/>
<glyph glyph-name="Acircumflex" d="M415 743q0 -4 -23 -4t-23 5q12 32 43 91q20 10 27.5 10t14.5 -4q13 -19 18.5 -37.5t10.5 -32.5t9 -29v-1q0 -5 -19.5 -5t-21 2.5t-8.5 23.5t-17 26q-7 -21 -11 -45zM398 566q-5 -13 -24.5 -86.5t-49.5 -143.5q31 -17 59.5 -17t112.5 8v8q0 29 -15 61t-20 44t-14 45.5 t-19.5 52t-29.5 28.5zM84 140l36 -5q11 0 17 5q15 22 42 110l9 29l41 111q56 153 131 299q52 27 72 27t40 -11q30 -45 38.5 -69.5t16.5 -50.5l13 -42q25 -71 58 -210q31 -131 53 -191q12 -17 47 -28q36 -12 47.5 -32.5t11.5 -37.5q0 -16 -12 -30q-3 -3 -8.5 -2t-8.5 -1 q-51 -11 -200 -11h-84q-25 0 -25 35.5t25 64.5q10 11 15.5 11t18 -3.5t27 -3.5t31.5 4q4 7 6.5 8t3.5 2q2 2 2 17t-2 42t-2.5 30.5t-3.5 12.5q-4 10 -8 15q-15 19 -46 23q-20 -2 -54 -2l-73 1q-39 0 -83 -4q-23 -19 -27 -36.5t-5 -26t-1 -28t-1 -28.5q9 -5 18 -5l30 5 q9 0 17 -9q2 -42 2 -67q0 -24 -10 -35q-17 -19 -46 -19q-11 0 -38 5t-43 5h-7q-35 0 -80 -3q-3 -1 -9.5 -4t-14.5 -3t-27 14q-3 5 -10 12q-14 16 -14 27q0 45 55 78q10 5 19 5z" unicode=""/>
<glyph glyph-name="Atilde" d="M397 808q15 -2 27.5 -10t17 -10t15.5 -8t18 -6h4q10 1 21 15.5t21 14.5q29 0 32 -24q0 -8 -9 -13t-13 -7.5t-12.5 -10.5t-17.5 -15.5t-29 -9.5h-1q-17 0 -39 19t-39 19h-2q-10 0 -22.5 -13.5t-22.5 -13.5h-3q-11 2 -18.5 10t-7.5 15.5t1.5 11t5 6.5t5.5 4.5t8 5t7 4.5 q27 16 48 16h5zM398 566q-5 -13 -24.5 -86.5t-49.5 -143.5q31 -17 59.5 -17t112.5 8v8q0 29 -15 61t-20 44t-14 45.5t-19.5 52t-29.5 28.5zM84 140l36 -5q11 0 17 5q15 22 42 110l9 29l41 111q56 153 131 299q52 27 72 27t40 -11q30 -45 38.5 -69.5t16.5 -50.5l13 -42 q25 -71 58 -210q31 -131 53 -191q12 -17 47 -28q36 -12 47.5 -32.5t11.5 -37.5q0 -16 -12 -30q-3 -3 -8.5 -2t-8.5 -1q-51 -11 -200 -11h-84q-25 0 -25 35.5t25 64.5q10 11 15.5 11t18 -3.5t27 -3.5t31.5 4q4 7 6.5 8t3.5 2q2 2 2 17t-2 42t-2.5 30.5t-3.5 12.5q-4 10 -8 15 q-15 19 -46 23q-20 -2 -54 -2l-73 1q-39 0 -83 -4q-23 -19 -27 -36.5t-5 -26t-1 -28t-1 -28.5q9 -5 18 -5l30 5q9 0 17 -9q2 -42 2 -67q0 -24 -10 -35q-17 -19 -46 -19q-11 0 -38 5t-43 5h-7q-35 0 -80 -3q-3 -1 -9.5 -4t-14.5 -3t-27 14q-3 5 -10 12q-14 16 -14 27 q0 45 55 78q10 5 19 5z" unicode=""/>
<glyph glyph-name="Adieresis" d="M553 831q15 -27 15 -48.5t-17 -39t-37 -17.5t-29.5 2t-14.5 8q-18 22 -18 49.5t15.5 50t43 22.5t42.5 -27zM403 831q15 -27 15 -48.5t-17 -39t-37 -17.5t-29.5 2t-14.5 8q-18 22 -18 49.5t15.5 50t43 22.5t42.5 -27zM398 566q-5 -13 -24.5 -86.5t-49.5 -143.5 q31 -17 59.5 -17t112.5 8v8q0 29 -15 61t-20 44t-14 45.5t-19.5 52t-29.5 28.5zM84 140l36 -5q11 0 17 5q15 22 42 110l9 29l41 111q56 153 131 299q52 27 72 27t40 -11q30 -45 38.5 -69.5t16.5 -50.5l13 -42q25 -71 58 -210q31 -131 53 -191q12 -17 47 -28 q36 -12 47.5 -32.5t11.5 -37.5q0 -16 -12 -30q-3 -3 -8.5 -2t-8.5 -1q-51 -11 -200 -11h-84q-25 0 -25 35.5t25 64.5q10 11 15.5 11t18 -3.5t27 -3.5t31.5 4q4 7 6.5 8t3.5 2q2 2 2 17t-2 42t-2.5 30.5t-3.5 12.5q-4 10 -8 15q-15 19 -46 23q-20 -2 -54 -2l-73 1 q-39 0 -83 -4q-23 -19 -27 -36.5t-5 -26t-1 -28t-1 -28.5q9 -5 18 -5l30 5q9 0 17 -9q2 -42 2 -67q0 -24 -10 -35q-17 -19 -46 -19q-11 0 -38 5t-43 5h-7q-35 0 -80 -3q-3 -1 -9.5 -4t-14.5 -3t-27 14q-3 5 -10 12q-14 16 -14 27q0 45 55 78q10 5 19 5z" unicode=""/>
<glyph glyph-name="Aring" d="M437 725h-8q-15 0 -29 14q-15 15 -15 46q0 32 22 48q14 10 32 10h4q40 -3 42 -54v-9q0 -9 -4 -24q-8 -31 -36 -31h-8zM437 827q-16 0 -22 -17t-6 -31q0 -20 12 -32q2 -2 15 -5q4 -1 8 -1q5 0 9 2q5 2 9 15t5 19v8q0 42 -30 42zM398 566q-5 -13 -24.5 -86.5t-49.5 -143.5 q31 -17 59.5 -17t112.5 8v8q0 29 -15 61t-20 44t-14 45.5t-19.5 52t-29.5 28.5zM84 140l36 -5q11 0 17 5q15 22 42 110l9 29l41 111q56 153 131 299q52 27 72 27t40 -11q30 -45 38.5 -69.5t16.5 -50.5l13 -42q25 -71 58 -210q31 -131 53 -191q12 -17 47 -28 q36 -12 47.5 -32.5t11.5 -37.5q0 -16 -12 -30q-3 -3 -8.5 -2t-8.5 -1q-51 -11 -200 -11h-84q-25 0 -25 35.5t25 64.5q10 11 15.5 11t18 -3.5t27 -3.5t31.5 4q4 7 6.5 8t3.5 2q2 2 2 17t-2 42t-2.5 30.5t-3.5 12.5q-4 10 -8 15q-15 19 -46 23q-20 -2 -54 -2l-73 1 q-39 0 -83 -4q-23 -19 -27 -36.5t-5 -26t-1 -28t-1 -28.5q9 -5 18 -5l30 5q9 0 17 -9q2 -42 2 -67q0 -24 -10 -35q-17 -19 -46 -19q-11 0 -38 5t-43 5h-7q-35 0 -80 -3q-3 -1 -9.5 -4t-14.5 -3t-27 14q-3 5 -10 12q-14 16 -14 27q0 45 55 78q10 5 19 5z" unicode=""/>
<glyph glyph-name="Ccedilla" horiz-adv-x="691" unicode="" d="M297 -236l-1 7q0 16 17 25l37 22q33 18 33 51q1 11 -3 23t-8 30t-8 24q-2 6 -8 19t-11 19q-19 17 -36 18q-45 4 -99 34t-90 62q-36 34 -74 100t-38 133q0 83 24 139t68 116q44 58 82 90q39 32 94 56t113 23q91 0 143 -21q7 -2 37 -14q29 -12 39 -17t26 -19t29 -42 q13 -27 13 -66t-42 -121q-25 17 -33 53t-18 50l-22 31q-42 59 -72 75q-37 20 -89 20t-114 -48q-60 -48 -87 -102q-36 -74 -36 -170t62 -173q35 -44 77 -65t102 -29q16 -2 24 -2q40 1 102 25t87 28h3q13 0 13 -23t-19 -48q-39 -52 -107 -67q-17 -4 -17 -23l7 -55q0 -5 -2 -12 l-13 -50q-8 -28 -13 -38l-11 -21q-11 -20 -29 -38q-33 -38 -66 -39h-12q-49 0 -54 30z"/>
<glyph glyph-name="Egrave" horiz-adv-x="648" unicode="" d="M168 882q14 34 28 47q15 13 36 17q58 -8 107 -28t75 -29t60 -25l-23 -31q-20 -27 -35.5 -27t-109.5 38.5t-131 38.5q-4 0 -7 -1zM392 456q0 49 46 49q16 0 31 -16q0 -53 4 -290q-29 -12 -41.5 -12t-30.5 21q-2 8 -2 22.5t7 26.5t7 15.5t-3.5 11t-9.5 12t-9.5 6t-15 4.5 t-31.5 9.5t-36 6.5q-54 0 -69 -29q-12 -60 -14.5 -93t-2.5 -103q10 -22 34 -28q56 -14 109.5 -14t137.5 6q32 17 42 53.5t44 76.5q19 -22 22 -34l3 -15v-12v-13q1 -13 1 -36q0 -56 -32 -81h-546q-37 12 -37 31q0 13 6.5 16t8 4t5.5 2.5t5.5 2.5t6 2t6.5 2t8 1l43 -9 q10 0 11 10q25 250 25 363t-3 217q-36 0 -43 -4t-10 -5.5t-6 -1.5t-12 3q-34 17 -34 40v3q2 27 21.5 41.5t55.5 26.5h100l211 1q66 0 167 -18q1 -17 1.5 -34t1 -25.5t0.5 -17.5t0.5 -13.5t1 -8.5t2 -8t3 -7.5l4.5 -10.5l4 -15q3 -7 15.5 -19t12.5 -15v-4l-1 -2 q-49 -16 -65.5 -16t-35.5 2t-52 4q-3 4 -3 6.5t10.5 12t10.5 20.5t-4 25l-4 19q-1 4 -7.5 8t-14.5 15q-38 7 -74.5 7t-63.5 -5t-33 -5l-15 1q-12 0 -19 -8q-1 -46 -1 -114t1 -125q76 -14 88.5 -14t39.5 6q18 12 18 42z"/>
<glyph glyph-name="Eacute" horiz-adv-x="648" unicode="" d="M641 882q-3 1 -8 1q-35 0 -129 -38t-103 -38t-38.5 21.5t-29.5 30.5q0 3 2 5q26 12 65 26l93 36q33 13 84 20q19 -4 33 -14t31 -50zM392 456q0 49 46 49q16 0 31 -16q0 -53 4 -290q-29 -12 -41.5 -12t-30.5 21q-2 8 -2 22.5t7 26.5t7 15.5t-3.5 11t-9.5 12t-9.5 6 t-15 4.5t-31.5 9.5t-36 6.5q-54 0 -69 -29q-12 -60 -14.5 -93t-2.5 -103q10 -22 34 -28q56 -14 109.5 -14t137.5 6q32 17 42 53.5t44 76.5q19 -22 22 -34l3 -15v-12v-13q1 -13 1 -36q0 -56 -32 -81h-546q-37 12 -37 31q0 13 6.5 16t8 4t5.5 2.5t5.5 2.5t6 2t6.5 2t8 1l43 -9 q10 0 11 10q25 250 25 363t-3 217q-36 0 -43 -4t-10 -5.5t-6 -1.5t-12 3q-34 17 -34 40v3q2 27 21.5 41.5t55.5 26.5h100l211 1q66 0 167 -18q1 -17 1.5 -34t1 -25.5t0.5 -17.5t0.5 -13.5t1 -8.5t2 -8t3 -7.5l4.5 -10.5l4 -15q3 -7 15.5 -19t12.5 -15v-4l-1 -2 q-49 -16 -65.5 -16t-35.5 2t-52 4q-3 4 -3 6.5t10.5 12t10.5 20.5t-4 25l-4 19q-1 4 -7.5 8t-14.5 15q-38 7 -74.5 7t-63.5 -5t-33 -5l-15 1q-12 0 -19 -8q-1 -46 -1 -114t1 -125q76 -14 88.5 -14t39.5 6q18 12 18 42z"/>
<glyph glyph-name="Ecircumflex" horiz-adv-x="648" unicode="" d="M319 756q0 -4 -23 -4t-23 5q12 32 43 91q20 10 27.5 10t14.5 -4q13 -19 18.5 -37.5t10.5 -32.5t9 -29v-1q0 -5 -19.5 -5t-21 2.5t-8.5 23.5t-17 26q-7 -21 -11 -45zM392 456q0 49 46 49q16 0 31 -16q0 -53 4 -290q-29 -12 -41.5 -12t-30.5 21q-2 8 -2 22.5t7 26.5t7 15.5 t-3.5 11t-9.5 12t-9.5 6t-15 4.5t-31.5 9.5t-36 6.5q-54 0 -69 -29q-12 -60 -14.5 -93t-2.5 -103q10 -22 34 -28q56 -14 109.5 -14t137.5 6q32 17 42 53.5t44 76.5q19 -22 22 -34l3 -15v-12v-13q1 -13 1 -36q0 -56 -32 -81h-546q-37 12 -37 31q0 13 6.5 16t8 4t5.5 2.5 t5.5 2.5t6 2t6.5 2t8 1l43 -9q10 0 11 10q25 250 25 363t-3 217q-36 0 -43 -4t-10 -5.5t-6 -1.5t-12 3q-34 17 -34 40v3q2 27 21.5 41.5t55.5 26.5h100l211 1q66 0 167 -18q1 -17 1.5 -34t1 -25.5t0.5 -17.5t0.5 -13.5t1 -8.5t2 -8t3 -7.5l4.5 -10.5l4 -15q3 -7 15.5 -19 t12.5 -15v-4l-1 -2q-49 -16 -65.5 -16t-35.5 2t-52 4q-3 4 -3 6.5t10.5 12t10.5 20.5t-4 25l-4 19q-1 4 -7.5 8t-14.5 15q-38 7 -74.5 7t-63.5 -5t-33 -5l-15 1q-12 0 -19 -8q-1 -46 -1 -114t1 -125q76 -14 88.5 -14t39.5 6q18 12 18 42z"/>
<glyph glyph-name="Edieresis" horiz-adv-x="648" unicode="" d="M436 897q15 -27 15 -48.5t-17 -39t-37 -17.5t-29.5 2t-14.5 8q-18 22 -18 49.5t15.5 50t43 22.5t42.5 -27zM286 897q15 -27 15 -48.5t-17 -39t-37 -17.5t-29.5 2t-14.5 8q-18 22 -18 49.5t15.5 50t43 22.5t42.5 -27zM392 456q0 49 46 49q16 0 31 -16q0 -53 4 -290 q-29 -12 -41.5 -12t-30.5 21q-2 8 -2 22.5t7 26.5t7 15.5t-3.5 11t-9.5 12t-9.5 6t-15 4.5t-31.5 9.5t-36 6.5q-54 0 -69 -29q-12 -60 -14.5 -93t-2.5 -103q10 -22 34 -28q56 -14 109.5 -14t137.5 6q32 17 42 53.5t44 76.5q19 -22 22 -34l3 -15v-12v-13q1 -13 1 -36 q0 -56 -32 -81h-546q-37 12 -37 31q0 13 6.5 16t8 4t5.5 2.5t5.5 2.5t6 2t6.5 2t8 1l43 -9q10 0 11 10q25 250 25 363t-3 217q-36 0 -43 -4t-10 -5.5t-6 -1.5t-12 3q-34 17 -34 40v3q2 27 21.5 41.5t55.5 26.5h100l211 1q66 0 167 -18q1 -17 1.5 -34t1 -25.5t0.5 -17.5 t0.5 -13.5t1 -8.5t2 -8t3 -7.5l4.5 -10.5l4 -15q3 -7 15.5 -19t12.5 -15v-4l-1 -2q-49 -16 -65.5 -16t-35.5 2t-52 4q-3 4 -3 6.5t10.5 12t10.5 20.5t-4 25l-4 19q-1 4 -7.5 8t-14.5 15q-38 7 -74.5 7t-63.5 -5t-33 -5l-15 1q-12 0 -19 -8q-1 -46 -1 -114t1 -125 q76 -14 88.5 -14t39.5 6q18 12 18 42z"/>
<glyph glyph-name="Igrave" horiz-adv-x="389" unicode="" d="M40 845q14 34 28 47q15 13 36 17q58 -8 107 -28t75 -29t60 -25l-23 -31q-20 -27 -35.5 -27t-109.5 38.5t-131 38.5q-4 0 -7 -1zM104 682l-29 -2q-22 0 -31.5 13t-9.5 27t12 25q144 -2 175 -5h11q20 -2 138 -6q4 -4 4 -15l-7 -35q-9 -15 -23.5 -15t-39.5 6.5t-37.5 6.5 t-21.5 -4q12 -184 12 -330v-63q0 -108 3 -191q10 -15 33 -15l40 3q20 0 27.5 -11.5t7.5 -26t-18 -27.5q-104 -2 -135 -4t-42 -2t-147 15q-16 13 -16 28q0 35 34 35q11 0 35 -6.5t35.5 -6.5t20.5 9q-4 155 -4 213l6 370q-10 14 -33 14z"/>
<glyph glyph-name="Iacute" horiz-adv-x="389" unicode="" d="M435 863q-3 1 -8 1q-35 0 -129 -38t-103 -38t-38.5 21.5t-29.5 30.5q0 3 2 5q26 12 65 26l93 36q33 13 84 20q19 -4 33 -14t31 -50zM104 682l-29 -2q-22 0 -31.5 13t-9.5 27t12 25q144 -2 175 -5h11q20 -2 138 -6q4 -4 4 -15l-7 -35q-9 -15 -23.5 -15t-39.5 6.5 t-37.5 6.5t-21.5 -4q12 -184 12 -330v-63q0 -108 3 -191q10 -15 33 -15l40 3q20 0 27.5 -11.5t7.5 -26t-18 -27.5q-104 -2 -135 -4t-42 -2t-147 15q-16 13 -16 28q0 35 34 35q11 0 35 -6.5t35.5 -6.5t20.5 9q-4 155 -4 213l6 370q-10 14 -33 14z"/>
<glyph glyph-name="Icircumflex" horiz-adv-x="389" unicode="" d="M176 776q0 -4 -23 -4t-23 5q12 32 43 91q20 10 27.5 10t14.5 -4q13 -19 18.5 -37.5t10.5 -32.5t9 -29v-1q0 -5 -19.5 -5t-21 2.5t-8.5 23.5t-17 26q-7 -21 -11 -45zM104 682l-29 -2q-22 0 -31.5 13t-9.5 27t12 25q144 -2 175 -5h11q20 -2 138 -6q4 -4 4 -15l-7 -35 q-9 -15 -23.5 -15t-39.5 6.5t-37.5 6.5t-21.5 -4q12 -184 12 -330v-63q0 -108 3 -191q10 -15 33 -15l40 3q20 0 27.5 -11.5t7.5 -26t-18 -27.5q-104 -2 -135 -4t-42 -2t-147 15q-16 13 -16 28q0 35 34 35q11 0 35 -6.5t35.5 -6.5t20.5 9q-4 155 -4 213l6 370q-10 14 -33 14z "/>
<glyph glyph-name="Idieresis" horiz-adv-x="389" unicode="" d="M320 854q15 -27 15 -48.5t-17 -39t-37 -17.5t-29.5 2t-14.5 8q-18 22 -18 49.5t15.5 50t43 22.5t42.5 -27zM170 854q15 -27 15 -48.5t-17 -39t-37 -17.5t-29.5 2t-14.5 8q-18 22 -18 49.5t15.5 50t43 22.5t42.5 -27zM104 682l-29 -2q-22 0 -31.5 13t-9.5 27t12 25 q144 -2 175 -5h11q20 -2 138 -6q4 -4 4 -15l-7 -35q-9 -15 -23.5 -15t-39.5 6.5t-37.5 6.5t-21.5 -4q12 -184 12 -330v-63q0 -108 3 -191q10 -15 33 -15l40 3q20 0 27.5 -11.5t7.5 -26t-18 -27.5q-104 -2 -135 -4t-42 -2t-147 15q-16 13 -16 28q0 35 34 35q11 0 35 -6.5 t35.5 -6.5t20.5 9q-4 155 -4 213l6 370q-10 14 -33 14z"/>
<glyph glyph-name="Eth" horiz-adv-x="750" unicode="" d="M347 -1l-71 1h-62q-101 0 -214 14q-8 9 -8 29t8 39q14 11 33 11l65 -8q24 0 36 15q4 118 4 227q-38 1 -64 20t-25 42q0 23 14 40q21 24 76 24q1 56 6 233q-8 8 -20 8l-31 -6q-8 -2 -18 -12t-20 -9h-6q-45 0 -45 24q1 17 33 38t69 21l47 -2l97 1q129 0 255 -42 q54 -19 100 -59t71 -77t37 -85t13 -84q0 -36 -18 -106t-34 -108t-52 -77q-103 -112 -276 -112zM247 292q-1 -60 -3 -118t-2 -64q0 -12 8 -17q16 -11 32 -13t26 -4q9 -2 29 -2q21 0 69 20t78 42t59 64t43 82t14 100t-16 104t-48 88q-34 44 -64 66q-30 20 -83 36t-79 15 q-26 0 -51 -22q-8 -173 -9 -203q53 0 73 -23t20 -43t-12 -38t-32 -24t-52 -7v-39z"/>
<glyph glyph-name="Ntilde" horiz-adv-x="793" unicode="" d="M353 855q15 -2 27.5 -10t17 -10t15.5 -8t18 -6h4q10 1 21 15.5t21 14.5q29 0 32 -24q0 -8 -9 -13t-13 -7.5t-12.5 -10.5t-17.5 -15.5t-29 -9.5h-1q-17 0 -39 19t-39 19h-2q-10 0 -22.5 -13.5t-22.5 -13.5h-3q-11 2 -18.5 10t-7.5 15.5t1.5 11t5 6.5t5.5 4.5t8 5t7 4.5 q27 16 48 16h5zM110 665l-48 -3q-35 0 -42 21q-2 6 -2 9q0 23 42 42q48 12 82.5 12t107.5 -20l230 -276l68 -88l83 -112l18 438q-18 0 -41 -6t-33.5 -6t-19.5 9t-9 17l9 35q0 5 -3 11q62 4 96 4t129 -6q12 0 12 -19.5t-21 -40.5q-10 -9 -20 -9l-40 3q-5 -99 -5 -187l5 -235 q0 -77 -5 -161q-1 -1 -6.5 -11t-9.5 -15q-12 -15 -27 -17h-4q-22 0 -47 34l-407 495q9 -108 9 -163.5t-6 -136.5t-6 -141v-28q4 -12 22 -12h10q23 0 23 -23q0 -7 -5.5 -22t-6.5 -23q-35 -1 -87 -4.5t-88 -3.5h-30q-1 8 -7 23t-6 22t7.5 18t34.5 11l50 -4q12 0 18 6 q-4 105 -4 184l4 371q-5 8 -24 8z"/>
<glyph glyph-name="Ograve" d="M254 828q14 34 28 47q15 13 36 17q58 -8 107 -28t75 -29t60 -25l-23 -31q-20 -27 -35.5 -27t-109.5 38.5t-131 38.5q-4 0 -7 -1zM205 376l-3 -66q0 -64 25.5 -110t52.5 -68.5t68.5 -36.5t76.5 -14t77.5 23.5t65 57t50.5 104t28 135.5q0 31 -7.5 77t-23.5 80.5t-52 65.5 q-62 54 -122 54q-90 0 -151 -72q-28 -32 -45 -60.5t-25.5 -57.5t-10.5 -48.5t-4 -63.5zM430 743q88 0 153 -31.5t117 -105.5t52 -169q0 -53 -11.5 -112t-24.5 -88.5t-24 -46.5t-34 -48l-32 -47q-69 -104 -207 -104q-89 0 -154 33q-119 61 -163 116q-44 52 -55 120 q-10 68 -10 113q0 117 67 205.5t142.5 126.5t179.5 38h4z" unicode=""/>
<glyph glyph-name="Oacute" d="M619 843q-3 1 -8 1q-35 0 -129 -38t-103 -38t-38.5 21.5t-29.5 30.5q0 3 2 5q26 12 65 26l93 36q33 13 84 20q19 -4 33 -14t31 -50zM205 376l-3 -66q0 -64 25.5 -110t52.5 -68.5t68.5 -36.5t76.5 -14t77.5 23.5t65 57t50.5 104t28 135.5q0 31 -7.5 77t-23.5 80.5 t-52 65.5q-62 54 -122 54q-90 0 -151 -72q-28 -32 -45 -60.5t-25.5 -57.5t-10.5 -48.5t-4 -63.5zM430 743q88 0 153 -31.5t117 -105.5t52 -169q0 -53 -11.5 -112t-24.5 -88.5t-24 -46.5t-34 -48l-32 -47q-69 -104 -207 -104q-89 0 -154 33q-119 61 -163 116q-44 52 -55 120 q-10 68 -10 113q0 117 67 205.5t142.5 126.5t179.5 38h4z" unicode=""/>
<glyph glyph-name="Ocircumflex" d="M409 753q0 -4 -23 -4t-23 5q12 32 43 91q20 10 27.5 10t14.5 -4q13 -19 18.5 -37.5t10.5 -32.5t9 -29v-1q0 -5 -19.5 -5t-21 2.5t-8.5 23.5t-17 26q-7 -21 -11 -45zM193 376l-3 -66q0 -64 25.5 -110t52.5 -68.5t68.5 -36.5t76.5 -14t77.5 23.5t65 57t50.5 104t28 135.5 q0 31 -7.5 77t-23.5 80.5t-52 65.5q-62 54 -122 54q-90 0 -151 -72q-28 -32 -45 -60.5t-25.5 -57.5t-10.5 -48.5t-4 -63.5zM418 743q88 0 153 -31.5t117 -105.5t52 -169q0 -53 -11.5 -112t-24.5 -88.5t-24 -46.5t-34 -48l-32 -47q-69 -104 -207 -104q-89 0 -154 33 q-119 61 -163 116q-44 52 -55 120q-10 68 -10 113q0 117 67 205.5t142.5 126.5t179.5 38h4z" unicode=""/>
<glyph glyph-name="Otilde" d="M411 846q15 -2 27.5 -10t17 -10t15.5 -8t18 -6h4q10 1 21 15.5t21 14.5q29 0 32 -24q0 -8 -9 -13t-13 -7.5t-12.5 -10.5t-17.5 -15.5t-29 -9.5h-1q-17 0 -39 19t-39 19h-2q-10 0 -22.5 -13.5t-22.5 -13.5h-3q-11 2 -18.5 10t-7.5 15.5t1.5 11t5 6.5t5.5 4.5t8 5t7 4.5 q27 16 48 16h5zM205 376l-3 -66q0 -64 25.5 -110t52.5 -68.5t68.5 -36.5t76.5 -14t77.5 23.5t65 57t50.5 104t28 135.5q0 31 -7.5 77t-23.5 80.5t-52 65.5q-62 54 -122 54q-90 0 -151 -72q-28 -32 -45 -60.5t-25.5 -57.5t-10.5 -48.5t-4 -63.5zM430 743q88 0 153 -31.5 t117 -105.5t52 -169q0 -53 -11.5 -112t-24.5 -88.5t-24 -46.5t-34 -48l-32 -47q-69 -104 -207 -104q-89 0 -154 33q-119 61 -163 116q-44 52 -55 120q-10 68 -10 113q0 117 67 205.5t142.5 126.5t179.5 38h4z" unicode=""/>
<glyph glyph-name="Odieresis" d="M573 853q15 -27 15 -48.5t-17 -39t-37 -17.5t-29.5 2t-14.5 8q-18 22 -18 49.5t15.5 50t43 22.5t42.5 -27zM423 853q15 -27 15 -48.5t-17 -39t-37 -17.5t-29.5 2t-14.5 8q-18 22 -18 49.5t15.5 50t43 22.5t42.5 -27zM205 376l-3 -66q0 -64 25.5 -110t52.5 -68.5 t68.5 -36.5t76.5 -14t77.5 23.5t65 57t50.5 104t28 135.5q0 31 -7.5 77t-23.5 80.5t-52 65.5q-62 54 -122 54q-90 0 -151 -72q-28 -32 -45 -60.5t-25.5 -57.5t-10.5 -48.5t-4 -63.5zM430 743q88 0 153 -31.5t117 -105.5t52 -169q0 -53 -11.5 -112t-24.5 -88.5t-24 -46.5 t-34 -48l-32 -47q-69 -104 -207 -104q-89 0 -154 33q-119 61 -163 116q-44 52 -55 120q-10 68 -10 113q0 117 67 205.5t142.5 126.5t179.5 38h4z" unicode=""/>
<glyph glyph-name="multiply" horiz-adv-x="430" unicode="" d="M258 286q13 -34 44 -66l52 -57q23 -24 23 -45q0 -7 -4 -12q-23 -11 -41 -12t-23 -2v1q0 7 -25 37q-24 30 -26 38q-2 6 -6 12q-7 8 -24 14h-14h-18q-8 -8 -14 -11q-12 -6 -19 -22q-29 -51 -29 -70v-4q-11 -1 -20 -1t-40 6q-3 0 -3 6q1 6 17 30q16 26 16 34v3q41 41 52 55 t29 44q-60 131 -97 181q7 1 13 3l9 3t5 2l3 1v1h2l2 -1h19q46 -95 71 -111q8 -5 18 -5t20 4t14 10q4 5 11 15t11 15q2 4 22 34t20 37v1h27q23 0 32 -14q-64 -69 -129 -154z"/>
<glyph glyph-name="Oslash" d="M81 125l47 -11h1q-69 60 -81 137t-11 122q0 117 67 205q66 88 142 127q76 38 180 38h4q72 0 129 -21q1 14 18 23q42 1 72 3t37 2t79 -25q7 -8 7 -23q0 -16 -10 -24t-16 -8l-31 6q-7 0 -10 -2l-31 -34q78 -91 78 -204q0 -48 -12 -109t-24 -91q-13 -30 -24 -46 q-11 -17 -34 -48l-32 -47q-69 -104 -208 -104q-93 0 -160 37l-113 -6q-37 0 -77 6q-6 7 -18 16q-24 18 -24 35v1q0 21 22 32q24 13 33 13zM562 625q-63 53 -121 53q-15 0 -31 -3q-56 -10 -92 -41t-63 -74t-35 -72q-8 -28 -11 -48t-5 -60t-2 -82t19 -85l83 101q22 26 62 70 l87 93q51 55 75 95t34 53zM611 566q-10 -13 -44 -62t-60 -82l-95 -118q-69 -86 -122 -165q-5 -10 -6 -11q26 -19 66 -33t75 -14q35 -1 77 23t66 58q22 34 50 104t28 135q0 30 -8 79t-27 86z" unicode=""/>
<glyph glyph-name="Ugrave" horiz-adv-x="802" unicode="" d="M235 834q14 34 28 47q15 13 36 17q58 -8 107 -28t75 -29t60 -25l-23 -31q-20 -27 -35.5 -27t-109.5 38.5t-131 38.5q-4 0 -7 -1zM708 511l2 -156q0 -111 -11 -244q-17 -34 -43 -52t-70 -33q-108 -40 -183 -40t-153 25q-27 9 -46.5 25t-41.5 40t-40 38q-8 77 -8 160.5 t7 205t7 164.5v19q-3 -2 -17.5 -12.5t-34.5 -16.5t-30.5 -6t-20 9.5t-9.5 24.5t10.5 36.5t41.5 32.5q105 4 134.5 6.5t37.5 2.5t135 -18q26 -21 26 -46q0 -11 -8 -22q-9 -10 -22 -10t-42 14t-41 14t-23 -9q-2 -64 -7.5 -145.5t-5.5 -132t18 -175.5q22 -52 50 -82 q36 -40 104 -40q103 0 182 108q15 141 15 202v68q0 71 5 191q-7 10 -24 10l-47 -6q-26 0 -26 27.5t37 48.5l96 2q7 0 12 -0.5t26.5 -1.5t53.5 -3q30 -21 30 -44q0 -8 -5 -16t-15 -8l-36 6q-10 0 -15 -6q-5 -79 -5 -155z"/>
<glyph glyph-name="Uacute" horiz-adv-x="802" unicode="" d="M684 834q-3 1 -8 1q-35 0 -129 -38t-103 -38t-38.5 21.5t-29.5 30.5q0 3 2 5q26 12 65 26l93 36q33 13 84 20q19 -4 33 -14t31 -50zM708 511l2 -156q0 -111 -11 -244q-17 -34 -43 -52t-70 -33q-108 -40 -183 -40t-153 25q-27 9 -46.5 25t-41.5 40t-40 38q-8 77 -8 160.5 t7 205t7 164.5v19q-3 -2 -17.5 -12.5t-34.5 -16.5t-30.5 -6t-20 9.5t-9.5 24.5t10.5 36.5t41.5 32.5q105 4 134.5 6.5t37.5 2.5t135 -18q26 -21 26 -46q0 -11 -8 -22q-9 -10 -22 -10t-42 14t-41 14t-23 -9q-2 -64 -7.5 -145.5t-5.5 -132t18 -175.5q22 -52 50 -82 q36 -40 104 -40q103 0 182 108q15 141 15 202v68q0 71 5 191q-7 10 -24 10l-47 -6q-26 0 -26 27.5t37 48.5l96 2q7 0 12 -0.5t26.5 -1.5t53.5 -3q30 -21 30 -44q0 -8 -5 -16t-15 -8l-36 6q-10 0 -15 -6q-5 -79 -5 -155z"/>
<glyph glyph-name="Ucircumflex" horiz-adv-x="802" unicode="" d="M440 750q0 -4 -23 -4t-23 5q12 32 43 91q20 10 27.5 10t14.5 -4q13 -19 18.5 -37.5t10.5 -32.5t9 -29v-1q0 -5 -19.5 -5t-21 2.5t-8.5 23.5t-17 26q-7 -21 -11 -45zM708 511l2 -156q0 -111 -11 -244q-17 -34 -43 -52t-70 -33q-108 -40 -183 -40t-153 25q-27 9 -46.5 25 t-41.5 40t-40 38q-8 77 -8 160.5t7 205t7 164.5v19q-3 -2 -17.5 -12.5t-34.5 -16.5t-30.5 -6t-20 9.5t-9.5 24.5t10.5 36.5t41.5 32.5q105 4 134.5 6.5t37.5 2.5t135 -18q26 -21 26 -46q0 -11 -8 -22q-9 -10 -22 -10t-42 14t-41 14t-23 -9q-2 -64 -7.5 -145.5t-5.5 -132 t18 -175.5q22 -52 50 -82q36 -40 104 -40q103 0 182 108q15 141 15 202v68q0 71 5 191q-7 10 -24 10l-47 -6q-26 0 -26 27.5t37 48.5l96 2q7 0 12 -0.5t26.5 -1.5t53.5 -3q30 -21 30 -44q0 -8 -5 -16t-15 -8l-36 6q-10 0 -15 -6q-5 -79 -5 -155z"/>
<glyph glyph-name="Udieresis" horiz-adv-x="802" unicode="" d="M562 836q15 -27 15 -48.5t-17 -39t-37 -17.5t-29.5 2t-14.5 8q-18 22 -18 49.5t15.5 50t43 22.5t42.5 -27zM412 836q15 -27 15 -48.5t-17 -39t-37 -17.5t-29.5 2t-14.5 8q-18 22 -18 49.5t15.5 50t43 22.5t42.5 -27zM708 511l2 -156q0 -111 -11 -244q-17 -34 -43 -52 t-70 -33q-108 -40 -183 -40t-153 25q-27 9 -46.5 25t-41.5 40t-40 38q-8 77 -8 160.5t7 205t7 164.5v19q-3 -2 -17.5 -12.5t-34.5 -16.5t-30.5 -6t-20 9.5t-9.5 24.5t10.5 36.5t41.5 32.5q105 4 134.5 6.5t37.5 2.5t135 -18q26 -21 26 -46q0 -11 -8 -22q-9 -10 -22 -10 t-42 14t-41 14t-23 -9q-2 -64 -7.5 -145.5t-5.5 -132t18 -175.5q22 -52 50 -82q36 -40 104 -40q103 0 182 108q15 141 15 202v68q0 71 5 191q-7 10 -24 10l-47 -6q-26 0 -26 27.5t37 48.5l96 2q7 0 12 -0.5t26.5 -1.5t53.5 -3q30 -21 30 -44q0 -8 -5 -16t-15 -8l-36 6 q-10 0 -15 -6q-5 -79 -5 -155z"/>
<glyph glyph-name="Yacute" horiz-adv-x="759" unicode="" d="M653 804q-3 1 -8 1q-35 0 -129 -38t-103 -38t-38.5 21.5t-29.5 30.5q0 3 2 5q26 12 65 26l93 36q33 13 84 20q19 -4 33 -14t31 -50zM425 57l47 9q10 0 20.5 -10t10.5 -20.5t-5 -18.5q-131 -13 -159 -13t-148 10q-8 10 -8 23.5t12.5 24.5t25.5 11l50 -8q14 0 22 9 q9 94 9 213q-37 77 -106.5 175t-101.5 152q-6 3 -12 3l-36 -8q-5 0 -12 5q-20 18 -20 40t12 37q103 8 122 8l56 -2q26 0 106 3q21 -16 21 -36q0 -26 -26 -26l-41 4q-16 0 -22 -11q25 -67 66 -154t62 -153l179 290q-12 5 -32.5 7t-34.5 7q-20 9 -20 31.5t27 40.5l48 4 q21 1 29 2q16 2 23.5 2t17 -0.5t42 -3t71.5 -4.5q15 -13 15 -28t-7 -23q-10 -15 -31 -15l-50 5q-18 0 -30 -8q-19 -33 -49 -91l-48 -89q-50 -88 -105 -161q-2 -26 -5 -52l-4 -42q-1 -15 -1 -38.5t7 -89.5q1 -11 13 -11z"/>
<glyph glyph-name="Thorn" horiz-adv-x="559" unicode="" d="M236 542q-8 -90 -8 -128t8 -107q14 -13 29 -13t27 4t29 14q17 9 24 12q43 19 57 49t14 55q0 26 -12 52t-30 39t-47 23t-43 10t-48 -10zM277 77l50 2q46 0 62 -28q6 -11 6 -21t-23 -29l-222 -8q-57 0 -116 7q-13 16 -13 28t30 36q9 4 19 4t18 -8q9 -8 14 -7q5 0 16 11 l2 209q5 83 5 235l-1 155q-5 -5 -29 -5t-64 8q-10 11 -10 31t19 37h41l231 -2h36q4 0 9 -10t5 -24t-11 -29q-3 -5 -53 -7t-58 -7t-8 -14t4 -15t7 -7h22q71 0 121 -15t96 -56t45 -119q0 -52 -51 -130q-38 -58 -84 -76q-29 -12 -66 -12l-67 3q-15 0 -23 -1q0 -43 4 -76t4 -57 q16 -3 33 -3z"/>
<glyph glyph-name="germandbls" horiz-adv-x="576" unicode="" d="M267 146q4 10 12 10t24.5 -25t37.5 -50.5t41 -25.5h4q28 3 44.5 24t18.5 50v2q0 17 -8 26.5t-11 12.5t-14 11.5t-13 10.5q-17 14 -64 20.5t-61 32.5q-20 37 -20 64q0 4 0.5 12.5t0.5 14.5q1 40 23 66.5t57.5 48t55 21.5t37.5 -5q61 -16 79 -63q7 -17 7 -30.5t-10.5 -34.5 t-14.5 -21t-11 13q-21 43 -29 48t-16.5 11t-12.5 8q-14 8 -21 8t-17 -2q-46 -15 -46 -52q0 -28 18.5 -36.5t42 -14.5t34.5 -15t32.5 -24t30.5 -22q26 -24 36 -54.5t10 -60.5t-19 -57q-28 -41 -65 -52q-54 -17 -77.5 -17t-36.5 3l-18 4q-7 2 -8.5 2.5t-7 2t-11.5 3.5t-8 3.5 t-5.5 3.5t-5.5 5q-6 5 -10 11q-21 32 -21 55t16 54zM46 0q-24 0 -30 39q0 21 24 40q5 4 14 4l22 -2q9 0 15 5q1 50 1 77v11l-2 148q-7 12 -31 18.5t-31 17.5q-12 21 -12 34t7.5 24t30.5 13t31 13q4 21 4 37v32q0 31 2 56q23 75 67 125q60 68 115 68q83 0 121 -45 q24 -28 24 -63q0 -60 -40 -60q-18 0 -52 26l-32 28q-14 13 -26 13t-17.5 -1.5t-11.5 -4t-11 -7t-8.5 -7t-7.5 -10t-6 -10.5t-5.5 -12.5t-4.5 -12.5q-3 -17 -8 -27v-81l1 -249q0 -89 -1 -147q5 -11 22 -16q29 -8 29 -34q0 -10 -6 -21q-9 -19 -28 -19h-159z"/>
<glyph glyph-name="agrave" horiz-adv-x="417" unicode="" d="M13 602q14 34 28 47q15 13 36 17q58 -8 107 -28t75 -29t60 -25l-23 -31q-20 -27 -35.5 -27t-109.5 38.5t-131 38.5q-4 0 -7 -1zM251 178l-1 10q-2 28 -23 40q-8 4 -28.5 -1.5t-48.5 -22.5q-49 -32 -49 -60q0 -56 32 -70q4 -2 8 -2t14 5.5t14 6.5l14 6q28 11 41 26 q27 31 27 62zM358 3l-20 -1q-18 -2 -29.5 -2t-22.5 5.5t-15 9.5t-8 10t-7.5 9.5t-6.5 9.5q-7 12 -15 12h-4q-13 0 -29.5 -15t-22.5 -18.5t-14 -8.5q-25 -19 -60 -19t-58 15t-31 47.5t-8 54.5q0 59 57 108q35 28 91 51q10 4 33.5 5.5t34 10.5t14.5 27t4 30t-2 23t-3 19t-2 12 t-3 10q-4 10 -13 16.5t-16.5 6.5t-32 -5.5t-36.5 -21t-12 -46.5v-19q-1 -18 -16.5 -29.5t-30.5 -11.5q-53 0 -53 51q0 9 1 13q10 58 39.5 83t56.5 32t72 9l21 1q32 0 58 -18q37 -25 45 -68t8 -111v-26l1 -44l1 -22l-1 -41q0 -19 3 -45v-13q0 -11 12 -11t28 21.5t27 21.5 q1 0 8.5 -3t7.5 -15l-3 -24l-1 -20q0 -11 -1.5 -15.5t-2.5 -9.5t-2.5 -8.5t-4.5 -7.5q-13 -21 -23 -23t-13 -2z"/>
<glyph glyph-name="aacute" horiz-adv-x="417" unicode="" d="M354 596q-3 1 -8 1q-35 0 -129 -38t-103 -38t-38.5 21.5t-29.5 30.5q0 3 2 5q26 12 65 26l93 36q33 13 84 20q19 -4 33 -14t31 -50zM251 178l-1 10q-2 28 -23 40q-8 4 -28.5 -1.5t-48.5 -22.5q-49 -32 -49 -60q0 -56 32 -70q4 -2 8 -2t14 5.5t14 6.5l14 6q28 11 41 26 q27 31 27 62zM358 3l-20 -1q-18 -2 -29.5 -2t-22.5 5.5t-15 9.5t-8 10t-7.5 9.5t-6.5 9.5q-7 12 -15 12h-4q-13 0 -29.5 -15t-22.5 -18.5t-14 -8.5q-25 -19 -60 -19t-58 15t-31 47.5t-8 54.5q0 59 57 108q35 28 91 51q10 4 33.5 5.5t34 10.5t14.5 27t4 30t-2 23t-3 19t-2 12 t-3 10q-4 10 -13 16.5t-16.5 6.5t-32 -5.5t-36.5 -21t-12 -46.5v-19q-1 -18 -16.5 -29.5t-30.5 -11.5q-53 0 -53 51q0 9 1 13q10 58 39.5 83t56.5 32t72 9l21 1q32 0 58 -18q37 -25 45 -68t8 -111v-26l1 -44l1 -22l-1 -41q0 -19 3 -45v-13q0 -11 12 -11t28 21.5t27 21.5 q1 0 8.5 -3t7.5 -15l-3 -24l-1 -20q0 -11 -1.5 -15.5t-2.5 -9.5t-2.5 -8.5t-4.5 -7.5q-13 -21 -23 -23t-13 -2z"/>
<glyph glyph-name="acircumflex" horiz-adv-x="417" unicode="" d="M190 502q0 -4 -23 -4t-23 5q12 32 43 91q20 10 27.5 10t14.5 -4q13 -19 18.5 -37.5t10.5 -32.5t9 -29v-1q0 -5 -19.5 -5t-21 2.5t-8.5 23.5t-17 26q-7 -21 -11 -45zM251 178l-1 10q-2 28 -23 40q-8 4 -28.5 -1.5t-48.5 -22.5q-49 -32 -49 -60q0 -56 32 -70q4 -2 8 -2 t14 5.5t14 6.5l14 6q28 11 41 26q27 31 27 62zM358 3l-20 -1q-18 -2 -29.5 -2t-22.5 5.5t-15 9.5t-8 10t-7.5 9.5t-6.5 9.5q-7 12 -15 12h-4q-13 0 -29.5 -15t-22.5 -18.5t-14 -8.5q-25 -19 -60 -19t-58 15t-31 47.5t-8 54.5q0 59 57 108q35 28 91 51q10 4 33.5 5.5t34 10.5 t14.5 27t4 30t-2 23t-3 19t-2 12t-3 10q-4 10 -13 16.5t-16.5 6.5t-32 -5.5t-36.5 -21t-12 -46.5v-19q-1 -18 -16.5 -29.5t-30.5 -11.5q-53 0 -53 51q0 9 1 13q10 58 39.5 83t56.5 32t72 9l21 1q32 0 58 -18q37 -25 45 -68t8 -111v-26l1 -44l1 -22l-1 -41q0 -19 3 -45v-13 q0 -11 12 -11t28 21.5t27 21.5q1 0 8.5 -3t7.5 -15l-3 -24l-1 -20q0 -11 -1.5 -15.5t-2.5 -9.5t-2.5 -8.5t-4.5 -7.5q-13 -21 -23 -23t-13 -2z"/>
<glyph glyph-name="atilde" horiz-adv-x="417" unicode="" d="M155 599q15 -2 27.5 -10t17 -10t15.5 -8t18 -6h4q10 1 21 15.5t21 14.5q29 0 32 -24q0 -8 -9 -13t-13 -7.5t-12.5 -10.5t-17.5 -15.5t-29 -9.5h-1q-17 0 -39 19t-39 19h-2q-10 0 -22.5 -13.5t-22.5 -13.5h-3q-11 2 -18.5 10t-7.5 15.5t1.5 11t5 6.5t5.5 4.5t8 5t7 4.5 q27 16 48 16h5zM251 178l-1 10q-2 28 -23 40q-8 4 -28.5 -1.5t-48.5 -22.5q-49 -32 -49 -60q0 -56 32 -70q4 -2 8 -2t14 5.5t14 6.5l14 6q28 11 41 26q27 31 27 62zM358 3l-20 -1q-18 -2 -29.5 -2t-22.5 5.5t-15 9.5t-8 10t-7.5 9.5t-6.5 9.5q-7 12 -15 12h-4 q-13 0 -29.5 -15t-22.5 -18.5t-14 -8.5q-25 -19 -60 -19t-58 15t-31 47.5t-8 54.5q0 59 57 108q35 28 91 51q10 4 33.5 5.5t34 10.5t14.5 27t4 30t-2 23t-3 19t-2 12t-3 10q-4 10 -13 16.5t-16.5 6.5t-32 -5.5t-36.5 -21t-12 -46.5v-19q-1 -18 -16.5 -29.5t-30.5 -11.5 q-53 0 -53 51q0 9 1 13q10 58 39.5 83t56.5 32t72 9l21 1q32 0 58 -18q37 -25 45 -68t8 -111v-26l1 -44l1 -22l-1 -41q0 -19 3 -45v-13q0 -11 12 -11t28 21.5t27 21.5q1 0 8.5 -3t7.5 -15l-3 -24l-1 -20q0 -11 -1.5 -15.5t-2.5 -9.5t-2.5 -8.5t-4.5 -7.5q-13 -21 -23 -23 t-13 -2z"/>
<glyph glyph-name="adieresis" horiz-adv-x="417" unicode="" d="M302 620q15 -27 15 -48.5t-17 -39t-37 -17.5t-29.5 2t-14.5 8q-18 22 -18 49.5t15.5 50t43 22.5t42.5 -27zM152 620q15 -27 15 -48.5t-17 -39t-37 -17.5t-29.5 2t-14.5 8q-18 22 -18 49.5t15.5 50t43 22.5t42.5 -27zM251 178l-1 10q-2 28 -23 40q-8 4 -28.5 -1.5 t-48.5 -22.5q-49 -32 -49 -60q0 -56 32 -70q4 -2 8 -2t14 5.5t14 6.5l14 6q28 11 41 26q27 31 27 62zM358 3l-20 -1q-18 -2 -29.5 -2t-22.5 5.5t-15 9.5t-8 10t-7.5 9.5t-6.5 9.5q-7 12 -15 12h-4q-13 0 -29.5 -15t-22.5 -18.5t-14 -8.5q-25 -19 -60 -19t-58 15t-31 47.5 t-8 54.5q0 59 57 108q35 28 91 51q10 4 33.5 5.5t34 10.5t14.5 27t4 30t-2 23t-3 19t-2 12t-3 10q-4 10 -13 16.5t-16.5 6.5t-32 -5.5t-36.5 -21t-12 -46.5v-19q-1 -18 -16.5 -29.5t-30.5 -11.5q-53 0 -53 51q0 9 1 13q10 58 39.5 83t56.5 32t72 9l21 1q32 0 58 -18 q37 -25 45 -68t8 -111v-26l1 -44l1 -22l-1 -41q0 -19 3 -45v-13q0 -11 12 -11t28 21.5t27 21.5q1 0 8.5 -3t7.5 -15l-3 -24l-1 -20q0 -11 -1.5 -15.5t-2.5 -9.5t-2.5 -8.5t-4.5 -7.5q-13 -21 -23 -23t-13 -2z"/>
<glyph glyph-name="aring" horiz-adv-x="417" unicode="" d="M186 516h-8q-15 0 -29 14q-15 15 -15 46q0 32 22 48q14 10 32 10h4q40 -3 42 -54v-9q0 -9 -4 -24q-8 -31 -36 -31h-8zM186 618q-16 0 -22 -17t-6 -31q0 -20 12 -32q2 -2 15 -5q4 -1 8 -1q5 0 9 2q5 2 9 15t5 19v8q0 42 -30 42zM251 178l-1 10q-2 28 -23 40 q-8 4 -28.5 -1.5t-48.5 -22.5q-49 -32 -49 -60q0 -56 32 -70q4 -2 8 -2t14 5.5t14 6.5l14 6q28 11 41 26q27 31 27 62zM358 3l-20 -1q-18 -2 -29.5 -2t-22.5 5.5t-15 9.5t-8 10t-7.5 9.5t-6.5 9.5q-7 12 -15 12h-4q-13 0 -29.5 -15t-22.5 -18.5t-14 -8.5q-25 -19 -60 -19 t-58 15t-31 47.5t-8 54.5q0 59 57 108q35 28 91 51q10 4 33.5 5.5t34 10.5t14.5 27t4 30t-2 23t-3 19t-2 12t-3 10q-4 10 -13 16.5t-16.5 6.5t-32 -5.5t-36.5 -21t-12 -46.5v-19q-1 -18 -16.5 -29.5t-30.5 -11.5q-53 0 -53 51q0 9 1 13q10 58 39.5 83t56.5 32t72 9l21 1 q32 0 58 -18q37 -25 45 -68t8 -111v-26l1 -44l1 -22l-1 -41q0 -19 3 -45v-13q0 -11 12 -11t28 21.5t27 21.5q1 0 8.5 -3t7.5 -15l-3 -24l-1 -20q0 -11 -1.5 -15.5t-2.5 -9.5t-2.5 -8.5t-4.5 -7.5q-13 -21 -23 -23t-13 -2z"/>
<glyph glyph-name="ccedilla" horiz-adv-x="432" unicode="" d="M376 381q0 -42 -31 -43h-1q-14 0 -26 16t-19 20q-6 5 -15 14q-18 17 -34 20t-34 3q-20 0 -44 -16t-42 -65q-18 -48 -19 -82q0 -34 3 -58q9 -64 63 -97q35 -21 67 -21t45 8q14 8 19 14q5 7 10 25l5 14q5 16 19 16q14 1 24 -7q9 -8 9 -19v-2q0 -40 -3 -49q-6 -16 -15 -26 q-15 -19 -45 -31q0 -20 -6 -47q-16 -90 -66 -144q-33 -37 -66 -39h-7q-53 0 -59 30l-1 7q0 16 17 26q18 10 38 21t27 29t7 28q0 11 -7 25q-7 15 -39 25t-33 28q0 14 -2 22q-10 5 -27 21q-74 68 -74 175q0 38 13 84t29 74t49 54q56 44 129 44h14q26 -1 36 -2q30 -5 61 -36 t31 -59z"/>
<glyph glyph-name="egrave" horiz-adv-x="364" unicode="" d="M30 593q14 34 28 47q15 13 36 17q58 -8 107 -28t75 -29t60 -25l-23 -31q-20 -27 -35.5 -27t-109.5 38.5t-131 38.5q-4 0 -7 -1zM263 3l-37 2q-13 -1 -33 -1q-57 0 -105 43q-52 51 -64 103q-10 39 -10 74.5t13 81t29 74.5t49 54q55 42 115 42t89 -20q14 -9 29 -39t15 -55 t-10.5 -53.5t-29.5 -29.5q-121 -11 -160.5 -11t-40.5 1q-2 -20 -2 -38t4.5 -46t12.5 -47.5t28 -36.5q10 -10 20.5 -12t17.5 -4t24 -2l33 -3q17 0 27 7t13 13t6 17t5 16q5 16 19 16t23.5 -8t9.5 -19v-1q-3 -43 -4.5 -49.5t-14 -28t-33 -31t-38.5 -9.5zM250 343l3 35 q0 18 -13 28q-14 9 -30 9t-38 -15q-46 -31 -46 -54q0 -4 3 -9q5 -5 62 -5t59 11z"/>
<glyph glyph-name="eacute" horiz-adv-x="364" unicode="" d="M344 578q-3 1 -8 1q-35 0 -129 -38t-103 -38t-38.5 21.5t-29.5 30.5q0 3 2 5q26 12 65 26l93 36q33 13 84 20q19 -4 33 -14t31 -50zM263 3l-37 2q-13 -1 -33 -1q-57 0 -105 43q-52 51 -64 103q-10 39 -10 74.5t13 81t29 74.5t49 54q55 42 115 42t89 -20q14 -9 29 -39 t15 -55t-10.5 -53.5t-29.5 -29.5q-121 -11 -160.5 -11t-40.5 1q-2 -20 -2 -38t4.5 -46t12.5 -47.5t28 -36.5q10 -10 20.5 -12t17.5 -4t24 -2l33 -3q17 0 27 7t13 13t6 17t5 16q5 16 19 16t23.5 -8t9.5 -19v-1q-3 -43 -4.5 -49.5t-14 -28t-33 -31t-38.5 -9.5zM250 343l3 35 q0 18 -13 28q-14 9 -30 9t-38 -15q-46 -31 -46 -54q0 -4 3 -9q5 -5 62 -5t59 11z"/>
<glyph glyph-name="ecircumflex" horiz-adv-x="364" unicode="" d="M219 487q0 -4 -23 -4t-23 5q12 32 43 91q20 10 27.5 10t14.5 -4q13 -19 18.5 -37.5t10.5 -32.5t9 -29v-1q0 -5 -19.5 -5t-21 2.5t-8.5 23.5t-17 26q-7 -21 -11 -45zM263 3l-37 2q-13 -1 -33 -1q-57 0 -105 43q-52 51 -64 103q-10 39 -10 74.5t13 81t29 74.5t49 54 q55 42 115 42t89 -20q14 -9 29 -39t15 -55t-10.5 -53.5t-29.5 -29.5q-121 -11 -160.5 -11t-40.5 1q-2 -20 -2 -38t4.5 -46t12.5 -47.5t28 -36.5q10 -10 20.5 -12t17.5 -4t24 -2l33 -3q17 0 27 7t13 13t6 17t5 16q5 16 19 16t23.5 -8t9.5 -19v-1q-3 -43 -4.5 -49.5t-14 -28 t-33 -31t-38.5 -9.5zM250 343l3 35q0 18 -13 28q-14 9 -30 9t-38 -15q-46 -31 -46 -54q0 -4 3 -9q5 -5 62 -5t59 11z"/>
<glyph glyph-name="edieresis" horiz-adv-x="364" unicode="" d="M334 602q15 -27 15 -48.5t-17 -39t-37 -17.5t-29.5 2t-14.5 8q-18 22 -18 49.5t15.5 50t43 22.5t42.5 -27zM184 602q15 -27 15 -48.5t-17 -39t-37 -17.5t-29.5 2t-14.5 8q-18 22 -18 49.5t15.5 50t43 22.5t42.5 -27zM263 3l-37 2q-13 -1 -33 -1q-57 0 -105 43 q-52 51 -64 103q-10 39 -10 74.5t13 81t29 74.5t49 54q55 42 115 42t89 -20q14 -9 29 -39t15 -55t-10.5 -53.5t-29.5 -29.5q-121 -11 -160.5 -11t-40.5 1q-2 -20 -2 -38t4.5 -46t12.5 -47.5t28 -36.5q10 -10 20.5 -12t17.5 -4t24 -2l33 -3q17 0 27 7t13 13t6 17t5 16 q5 16 19 16t23.5 -8t9.5 -19v-1q-3 -43 -4.5 -49.5t-14 -28t-33 -31t-38.5 -9.5zM250 343l3 35q0 18 -13 28q-14 9 -30 9t-38 -15q-46 -31 -46 -54q0 -4 3 -9q5 -5 62 -5t59 11z"/>
<glyph glyph-name="igrave" horiz-adv-x="250" unicode="" d="M-100 554q14 34 28 47q15 13 36 17q58 -8 107 -28t75 -29t60 -25l-23 -31q-20 -27 -35.5 -27t-109.5 38.5t-131 38.5q-4 0 -7 -1zM182 278l-5 -206q5 -13 26 -17.5t26 -14.5t5 -20.5t-10 -19.5h-199q-10 9 -10 18q0 30 43 33q30 2 39 15v106q0 56 -6 154q-9 22 -35 42.5 t-41 37.5q25 11 43 18l36 14q20 7 31 7q45 -6 58 -28t13 -40t-7 -49t-7 -50z"/>
<glyph glyph-name="iacute" horiz-adv-x="250" unicode="" d="M331 572q-3 1 -8 1q-35 0 -129 -38t-103 -38t-38.5 21.5t-29.5 30.5q0 3 2 5q26 12 65 26l93 36q33 13 84 20q19 -4 33 -14t31 -50zM182 278l-5 -206q5 -13 26 -17.5t26 -14.5t5 -20.5t-10 -19.5h-199q-10 9 -10 18q0 30 43 33q30 2 39 15v106q0 56 -6 154 q-9 22 -35 42.5t-41 37.5q25 11 43 18l36 14q20 7 31 7q45 -6 58 -28t13 -40t-7 -49t-7 -50z"/>
<glyph glyph-name="icircumflex" horiz-adv-x="250" unicode="" d="M110 459q0 -4 -23 -4t-23 5q12 32 43 91q20 10 27.5 10t14.5 -4q13 -19 18.5 -37.5t10.5 -32.5t9 -29v-1q0 -5 -19.5 -5t-21 2.5t-8.5 23.5t-17 26q-7 -21 -11 -45zM182 278l-5 -206q5 -13 26 -17.5t26 -14.5t5 -20.5t-10 -19.5h-199q-10 9 -10 18q0 30 43 33q30 2 39 15 v106q0 56 -6 154q-9 22 -35 42.5t-41 37.5q25 11 43 18l36 14q20 7 31 7q45 -6 58 -28t13 -40t-7 -49t-7 -50z"/>
<glyph glyph-name="idieresis" horiz-adv-x="250" unicode="" d="M237 566q15 -27 15 -48.5t-17 -39t-37 -17.5t-29.5 2t-14.5 8q-18 22 -18 49.5t15.5 50t43 22.5t42.5 -27zM87 566q15 -27 15 -48.5t-17 -39t-37 -17.5t-29.5 2t-14.5 8q-18 22 -18 49.5t15.5 50t43 22.5t42.5 -27zM182 278l-5 -206q5 -13 26 -17.5t26 -14.5t5 -20.5 t-10 -19.5h-199q-10 9 -10 18q0 30 43 33q30 2 39 15v106q0 56 -6 154q-9 22 -35 42.5t-41 37.5q25 11 43 18l36 14q20 7 31 7q45 -6 58 -28t13 -40t-7 -49t-7 -50z"/>
<glyph glyph-name="eth" horiz-adv-x="432" unicode="" d="M303 642q15 5 33 5t35 -13q16 -13 16 -36t-22 -38q17 -36 23 -71t12 -65q7 -30 12 -95q8 -35 8 -90q0 -124 -63 -193q-24 -26 -63 -37q-15 -5 -33 -5l-35 1l-35 -1q-15 0 -30 4q-45 13 -73 39q-74 68 -74 175q0 38 13 84t29 74t49 54q56 44 126 44h17q42 -2 61 -11 q-10 41 -22 64q-39 -13 -61 -13t-38 12t-16 26q0 40 39 51q-44 30 -118 71q-8 4 -8 9q0 9 25 17q24 8 50 7q26 0 41 -6q65 -30 102 -63zM222 70l30 -3q47 0 69 59q-2 2 -4 6q21 54 25 100q0 12 -6 58t-37 84q-23 29 -43 33t-40 4t-44 -16t-44 -66q-18 -50 -18 -83 q0 -107 49 -153q17 -16 63 -23z"/>
<glyph glyph-name="ntilde" horiz-adv-x="470" unicode="" d="M197 619q15 -2 27.5 -10t17 -10t15.5 -8t18 -6h4q10 1 21 15.5t21 14.5q29 0 32 -24q0 -8 -9 -13t-13 -7.5t-12.5 -10.5t-17.5 -15.5t-29 -9.5h-1q-17 0 -39 19t-39 19h-2q-10 0 -22.5 -13.5t-22.5 -13.5h-3q-11 2 -18.5 10t-7.5 15.5t1.5 11t5 6.5t5.5 4.5t8 5t7 4.5 q27 16 48 16h5zM156 269l1 -150q4 -6 14.5 -10.5t14.5 -9.5q14 -23 14 -35.5t-4.5 -27.5t-11.5 -19.5t-19 -7.5h-127q-20 6 -30.5 20.5t-10.5 24.5q0 28 24.5 41t30.5 24v114q0 72 -1 152q-6 10 -27.5 13.5t-23.5 14.5q61 55 97 91q9 0 14 -1.5t7 -2t5 -2.5t4 -3 q6 -6 10.5 -8.5t9.5 -14.5q7 -15 22.5 -15t37 11.5t28 13.5t14.5 6q17 7 28.5 7t20 -3t22 -10.5t18.5 -9.5t16 -6q20 -6 29 -18q18 -26 18 -56.5t-5 -42.5q3 -62 3 -100l-1 -98v-32q4 -7 19.5 -8t20.5 -7q16 -19 16 -36t-4.5 -34.5t-22.5 -26.5q-23 -1 -58.5 -1t-95.5 1 q-11 5 -19 26t-8 30t5 19t26.5 18t26.5 19l-2 108q0 31 2 105q-3 23 -12 34q-15 16 -38 19h-8q-24 0 -51.5 -16t-37.5 -39q-1 -23 -1 -61z"/>
<glyph glyph-name="ograve" horiz-adv-x="432" unicode="" d="M70 581q14 34 28 47q15 13 36 17q58 -8 107 -28t75 -29t60 -25l-23 -31q-20 -27 -35.5 -27t-109.5 38.5t-131 38.5q-4 0 -7 -1zM222 70l30 -3q30 0 51 25q9 10 24 51t15 75q0 100 -43 156q-24 29 -43.5 33t-39.5 4t-44.5 -16t-43 -66t-18.5 -83q0 -107 49 -153 q17 -16 63 -23zM258 4l-32 1q-13 -1 -33 -1q-57 0 -105 43q-52 51 -64 103q-10 39 -10 74.5t13 81t29 74.5t49 54q56 44 129 44h14q26 -1 36 -2q30 -5 65 -40t51 -70q20 -43 20 -140q0 -41 -16 -94.5t-42.5 -81t-67.5 -41.5q-18 -5 -36 -5z"/>
<glyph glyph-name="oacute" horiz-adv-x="432" unicode="" d="M378 566q-3 1 -8 1q-35 0 -129 -38t-103 -38t-38.5 21.5t-29.5 30.5q0 3 2 5q26 12 65 26l93 36q33 13 84 20q19 -4 33 -14t31 -50zM222 70l30 -3q30 0 51 25q9 10 24 51t15 75q0 100 -43 156q-24 29 -43.5 33t-39.5 4t-44.5 -16t-43 -66t-18.5 -83q0 -107 49 -153 q17 -16 63 -23zM258 4l-32 1q-13 -1 -33 -1q-57 0 -105 43q-52 51 -64 103q-10 39 -10 74.5t13 81t29 74.5t49 54q56 44 129 44h14q26 -1 36 -2q30 -5 65 -40t51 -70q20 -43 20 -140q0 -41 -16 -94.5t-42.5 -81t-67.5 -41.5q-18 -5 -36 -5z"/>
<glyph glyph-name="ocircumflex" horiz-adv-x="432" unicode="" d="M220 496q0 -4 -23 -4t-23 5q12 32 43 91q20 10 27.5 10t14.5 -4q13 -19 18.5 -37.5t10.5 -32.5t9 -29v-1q0 -5 -19.5 -5t-21 2.5t-8.5 23.5t-17 26q-7 -21 -11 -45zM222 70l30 -3q30 0 51 25q9 10 24 51t15 75q0 100 -43 156q-24 29 -43.5 33t-39.5 4t-44.5 -16t-43 -66 t-18.5 -83q0 -107 49 -153q17 -16 63 -23zM258 4l-32 1q-13 -1 -33 -1q-57 0 -105 43q-52 51 -64 103q-10 39 -10 74.5t13 81t29 74.5t49 54q56 44 129 44h14q26 -1 36 -2q30 -5 65 -40t51 -70q20 -43 20 -140q0 -41 -16 -94.5t-42.5 -81t-67.5 -41.5q-18 -5 -36 -5z"/>
<glyph glyph-name="otilde" horiz-adv-x="432" unicode="" d="M218 590q15 -2 27.5 -10t17 -10t15.5 -8t18 -6h4q10 1 21 15.5t21 14.5q29 0 32 -24q0 -8 -9 -13t-13 -7.5t-12.5 -10.5t-17.5 -15.5t-29 -9.5h-1q-17 0 -39 19t-39 19h-2q-10 0 -22.5 -13.5t-22.5 -13.5h-3q-11 2 -18.5 10t-7.5 15.5t1.5 11t5 6.5t5.5 4.5t8 5t7 4.5 q27 16 48 16h5zM222 70l30 -3q30 0 51 25q9 10 24 51t15 75q0 100 -43 156q-24 29 -43.5 33t-39.5 4t-44.5 -16t-43 -66t-18.5 -83q0 -107 49 -153q17 -16 63 -23zM258 4l-32 1q-13 -1 -33 -1q-57 0 -105 43q-52 51 -64 103q-10 39 -10 74.5t13 81t29 74.5t49 54 q56 44 129 44h14q26 -1 36 -2q30 -5 65 -40t51 -70q20 -43 20 -140q0 -41 -16 -94.5t-42.5 -81t-67.5 -41.5q-18 -5 -36 -5z"/>
<glyph glyph-name="odieresis" horiz-adv-x="432" unicode="" d="M368 611q15 -27 15 -48.5t-17 -39t-37 -17.5t-29.5 2t-14.5 8q-18 22 -18 49.5t15.5 50t43 22.5t42.5 -27zM218 611q15 -27 15 -48.5t-17 -39t-37 -17.5t-29.5 2t-14.5 8q-18 22 -18 49.5t15.5 50t43 22.5t42.5 -27zM222 70l30 -3q30 0 51 25q9 10 24 51t15 75 q0 100 -43 156q-24 29 -43.5 33t-39.5 4t-44.5 -16t-43 -66t-18.5 -83q0 -107 49 -153q17 -16 63 -23zM258 4l-32 1q-13 -1 -33 -1q-57 0 -105 43q-52 51 -64 103q-10 39 -10 74.5t13 81t29 74.5t49 54q56 44 129 44h14q26 -1 36 -2q30 -5 65 -40t51 -70q20 -43 20 -140 q0 -41 -16 -94.5t-42.5 -81t-67.5 -41.5q-18 -5 -36 -5z"/>
<glyph glyph-name="divide" horiz-adv-x="346" unicode="" d="M192 166l-69 -3q-62 0 -90 39q-9 13 -9 29q0 17 15 34t31 21t39 4h5q1 -1 20 0t36 6q16 6 38 6h27q4 0 10 -2q7 -2 9 -2h6t8 -2l6 -2q5 -1 7 -2q15 -7 27 -23q12 -17 11 -35q0 -18 -9 -31t-18 -20q-20 -17 -100 -17zM219 89q1 -12 -11 -27t-37 -15t-32 18t-7 31 q0 12 7 25q13 25 35 25t34 -22q11 -22 11 -35zM219 362q1 -12 -11 -27t-37 -15t-32 18t-7 31q0 12 7 25q13 25 35 25q22 -1 34 -23q11 -22 11 -34z"/>
<glyph glyph-name="oslash" horiz-adv-x="468" unicode="" d="M227 70l30 -3q30 0 51 25q9 10 24 51t15 75q0 83 -26 132l-47 -58l-86 -116q-4 -5 -19 -20t-26 -36l-1 -1q8 -12 24 -27t61 -22zM284 395q-21 16 -52 16q-69 0 -94 -72q-23 -60 -23 -93t4 -56l1 -1q7 9 23 32t29 39l66 82q12 16 18 25t10 13t10 8t8 7zM52 95 q-33 50 -33 129q0 36 13 82t29 74q16 29 49 54q56 44 129 44h14q53 -2 79 -22q37 54 37 65v2q5 -1 16 -1l23 1q30 0 43 -20l-77 -88q18 -20 34 -56t17 -133q0 -40 -16 -94q-17 -54 -43 -82t-55 -36q-29 -10 -48 -10l-32 1q-13 -1 -33 -1q-51 0 -93 33q-3 -12 -2 -19 q-30 -2 -35 -2t-47 9q-4 1 -4 6t5 15q6 10 16 26t14 23z"/>
<glyph glyph-name="ugrave" horiz-adv-x="438" unicode="" d="M29 587q14 34 28 47q15 13 36 17q58 -8 107 -28t75 -29t60 -25l-23 -31q-20 -27 -35.5 -27t-109.5 38.5t-131 38.5q-4 0 -7 -1zM248 403q-34 0 -34 27q0 20 15 30.5t31.5 11.5t29 3t34.5 2t35.5 -6t17.5 -7t12 -5q11 -5 11 -15v-3q0 -7 -10.5 -16t-12.5 -15v-283l19 -27 q3 -3 12.5 -9t20.5 -15l-33 -42q-22 -24 -81 -43q-11 0 -17 4.5t-13.5 17t-15.5 21.5q-9 1 -17 -2t-15 -5t-37 -14.5t-51 -12.5h-5q-33 1 -59.5 25t-37.5 70v82q0 -6 -1 -6v204q-5 9 -23 14q-17 5 -23 17q-3 6 -3 11t2 9q9 15 21 22l10 8q7 5 17 7t24.5 6t22.5 4t12 -1 q26 -6 34 -23q1 -72 1 -130l-1 -177q27 -46 76 -46q33 0 49 17.5t27 45.5l-1 234q-8 10 -28 10h-15z"/>
<glyph glyph-name="uacute" horiz-adv-x="438" unicode="" d="M439 575q-3 1 -8 1q-35 0 -129 -38t-103 -38t-38.5 21.5t-29.5 30.5q0 3 2 5q26 12 65 26l93 36q33 13 84 20q19 -4 33 -14t31 -50zM248 403q-34 0 -34 27q0 20 15 30.5t31.5 11.5t29 3t34.5 2t35.5 -6t17.5 -7t12 -5q11 -5 11 -15v-3q0 -7 -10.5 -16t-12.5 -15v-283 l19 -27q3 -3 12.5 -9t20.5 -15l-33 -42q-22 -24 -81 -43q-11 0 -17 4.5t-13.5 17t-15.5 21.5q-9 1 -17 -2t-15 -5t-37 -14.5t-51 -12.5h-5q-33 1 -59.5 25t-37.5 70v82q0 -6 -1 -6v204q-5 9 -23 14q-17 5 -23 17q-3 6 -3 11t2 9q9 15 21 22l10 8q7 5 17 7t24.5 6t22.5 4 t12 -1q26 -6 34 -23q1 -72 1 -130l-1 -177q27 -46 76 -46q33 0 49 17.5t27 45.5l-1 234q-8 10 -28 10h-15z"/>
<glyph glyph-name="ucircumflex" horiz-adv-x="438" unicode="" d="M176 484q0 -4 -23 -4t-23 5q12 32 43 91q20 10 27.5 10t14.5 -4q13 -19 18.5 -37.5t10.5 -32.5t9 -29v-1q0 -5 -19.5 -5t-21 2.5t-8.5 23.5t-17 26q-7 -21 -11 -45zM248 403q-34 0 -34 27q0 20 15 30.5t31.5 11.5t29 3t34.5 2t35.5 -6t17.5 -7t12 -5q11 -5 11 -15v-3 q0 -7 -10.5 -16t-12.5 -15v-283l19 -27q3 -3 12.5 -9t20.5 -15l-33 -42q-22 -24 -81 -43q-11 0 -17 4.5t-13.5 17t-15.5 21.5q-9 1 -17 -2t-15 -5t-37 -14.5t-51 -12.5h-5q-33 1 -59.5 25t-37.5 70v82q0 -6 -1 -6v204q-5 9 -23 14q-17 5 -23 17q-3 6 -3 11t2 9q9 15 21 22 l10 8q7 5 17 7t24.5 6t22.5 4t12 -1q26 -6 34 -23q1 -72 1 -130l-1 -177q27 -46 76 -46q33 0 49 17.5t27 45.5l-1 234q-8 10 -28 10h-15z"/>
<glyph glyph-name="udieresis" horiz-adv-x="438" unicode="" d="M321 602q15 -27 15 -48.5t-17 -39t-37 -17.5t-29.5 2t-14.5 8q-18 22 -18 49.5t15.5 50t43 22.5t42.5 -27zM171 602q15 -27 15 -48.5t-17 -39t-37 -17.5t-29.5 2t-14.5 8q-18 22 -18 49.5t15.5 50t43 22.5t42.5 -27zM248 403q-34 0 -34 27q0 20 15 30.5t31.5 11.5t29 3 t34.5 2t35.5 -6t17.5 -7t12 -5q11 -5 11 -15v-3q0 -7 -10.5 -16t-12.5 -15v-283l19 -27q3 -3 12.5 -9t20.5 -15l-33 -42q-22 -24 -81 -43q-11 0 -17 4.5t-13.5 17t-15.5 21.5q-9 1 -17 -2t-15 -5t-37 -14.5t-51 -12.5h-5q-33 1 -59.5 25t-37.5 70v82q0 -6 -1 -6v204 q-5 9 -23 14q-17 5 -23 17q-3 6 -3 11t2 9q9 15 21 22l10 8q7 5 17 7t24.5 6t22.5 4t12 -1q26 -6 34 -23q1 -72 1 -130l-1 -177q27 -46 76 -46q33 0 49 17.5t27 45.5l-1 234q-8 10 -28 10h-15z"/>
<glyph glyph-name="yacute" horiz-adv-x="491" unicode="" d="M452 593q-3 1 -8 1q-35 0 -129 -38t-103 -38t-38.5 21.5t-29.5 30.5q0 3 2 5q26 12 65 26l93 36q33 13 84 20q19 -4 33 -14t31 -50zM391 495l20 1q28 0 46 -11q21 -23 21 -40t-4 -25t-4 -8.5t-2 -1t-3.5 0t-8.5 -1.5l-15 -5l-145 -307l-70 -139l-109 -203q-18 -7 -40 -7 t-68 34q-9 13 -9 28t9 40q3 23 10.5 33t19 15.5t18.5 5.5t21 -5.5t21 -5.5t13 3q29 16 41 41t17 50.5t7 35t2 24.5t-12.5 78.5t-32 121.5t-60.5 141q-26 4 -38.5 12t-19 22t-6.5 21.5t11 19.5l18 11q24 13 38 14.5t16 1.5q6 2 32 3t38 1q33 0 49 -17t16 -34t-6 -23.5 t-12 -6.5l-20 2q-6 0 -11 -5.5t-5 -13.5l6 -30q10 -66 51 -159q11 -6 23.5 -6t28.5 11q29 56 40 85t16 75l3 24q0 12 -6 18.5t-12 6.5l-15 -2q-6 0 -12.5 8t-6.5 21t10 26q34 18 91 21z"/>
<glyph glyph-name="thorn" horiz-adv-x="567" unicode="" d="M236 485q-8 -91 -8 -212t8 -190q16 -15 40 -15t65 30q43 30 59 62t25 80t9 77q0 54 -31 109q-23 41 -75 59q-30 10 -44 10t-48 -10zM277 -147l50 2q46 0 63 -31q5 -10 5 -19t-23 -28l-222 -8q-57 0 -116 7q-13 16 -13 28t30 36q9 4 19 4t18 -8q9 -8 14 -7q5 0 16 11 l2 209q5 82 5 338l-1 276q-5 -5 -29 -5t-64 8q-10 11 -10 31t19 37h41l231 -2h36q4 0 9 -10t5 -24t-11 -29q-3 -5 -53 -7t-58 -7t-8 -25t2 -36q4 -32 9 -32h20q71 0 121 -15t99 -58q23 -21 32 -41t18 -66t9 -95t-18 -97t-25 -68q-8 -20 -22 -46q-25 -45 -79 -73 q-25 -13 -47 -13q-21 0 -57 6t-58 7q0 -21 8 -147q16 -3 33 -3z"/>
<glyph glyph-name="dotlessi" horiz-adv-x="250" unicode="" d="M182 278l-5 -206q5 -13 26 -17.5t26 -14.5t5 -20.5t-10 -19.5h-199q-10 9 -10 18q0 30 43 33q30 2 39 15v106q0 56 -6 154q-9 22 -35 42.5t-41 37.5q25 11 43 18l36 14q20 7 31 7q45 -6 58 -28t13 -40t-7 -49t-7 -50z"/>
<glyph glyph-name="OE" horiz-adv-x="945" unicode="" d="M693 429l-1 27q0 31 18 42q12 7 28 7t31 -16q0 -53 4 -290q-29 -12 -41 -12t-31 21q-2 8 -2 22t7 27q7 11 7 15q1 4 -3 12t-10 12t-10 6t-14 4q-12 4 -32 10t-36 6q-54 0 -69 -29q-13 -60 -15 -93t-2 -103q10 -22 34 -28q56 -14 98 -14q65 0 149 6q32 17 41 47 q11 43 45 83q25 -29 25 -61v-13q1 -13 1 -36q0 -56 -32 -81h-448q-19 -9 -49 -9q-79 0 -198 75q-84 54 -116 113q-19 37 -27 93t-8 102q0 118 71 210q124 161 287 161q29 0 49 -4h78l225 3q35 0 125 -16q2 -17 2 -34v-26t1 -17t1 -13v-9q0 -4 2 -8q2 -3 4 -7t4 -11t5 -15 t15 -18q12 -12 12 -18v-2l-1 -2q-49 -16 -65 -16t-27 1q-28 3 -61 5q-3 4 -3 6q1 2 11 12t10 21t-1 15l-7 29q-2 4 -8 8t-14 15q-38 7 -74 7t-64 -5q-27 -5 -33 -5l-15 1q-12 0 -19 -8q-1 -46 -1 -114t1 -125q77 -14 89 -14t39 6q18 12 18 42zM205 376l-3 -69q0 -63 24 -106 t50 -63t74 -43q13 -6 37 -6h16q22 225 22 337q0 208 -7 253q-4 1 -8 -3t-25 -15l-25 -14q-33 -18 -44 -27l-18 -14q-12 -10 -19 -18l-17 -20q-29 -34 -40 -72t-13 -57t-4 -63z"/>
<glyph glyph-name="oe" horiz-adv-x="568" unicode="" d="M438 343l3 35q0 18 -13 28q-14 10 -30 9q-16 0 -38 -15q-46 -31 -46 -54q0 -4 3 -9q5 -5 62 -5t59 11zM344 8l-43 -4h-13l-50 1l-26 -1q-66 0 -115 46t-61 100q-10 39 -10 74t14 81q14 47 30 75t47 54q57 44 144 44l61 -2h8l63 2q21 0 33 -2t24 -5l15 -3q19 -3 24 -7 t11 -8q11 -7 26 -37t15 -54q-1 -25 -11 -53t-29 -30q-121 -11 -161 -11t-40 1q-2 -18 -2 -33q0 -96 45 -135q15 -13 29 -15t33 -3l33 -3q29 0 40 20q4 6 7 18t4 15q5 16 19 16t24 -8t9 -19v-1q-4 -51 -7 -57q-27 -61 -86 -61l-34 2q-26 0 -65 3h-5zM242 71l9 85q0 6 -5 30 t-5 42q0 20 7 67q6 47 8 73t4 38l2 2q-18 2 -36 2t-41 -15t-40 -56q-23 -66 -23 -105q0 -12 4 -44q11 -64 40 -92t65 -28q8 0 11 1z"/>
<glyph glyph-name="Scaron" horiz-adv-x="460" unicode="" d="M271 846q0 4 23 4t23 -5q-12 -32 -43 -91q-20 -10 -27.5 -10t-14.5 4q-13 19 -18.5 37.5t-10.5 32.5t-9 29v1q0 5 19.5 5t21 -2.5t8.5 -23.5t17 -26q7 21 11 45zM5 159l3 93q10 11 21 11t31 -10q26 -15 37.5 -46.5t22 -64.5t40.5 -55.5t78 -22.5q55 0 75.5 11t27.5 25 q18 30 18 70.5t-35 91.5q-18 26 -43 39t-61 23.5t-54 20.5t-41.5 18t-39.5 17t-27 27q-39 61 -39 116.5t17 101t37.5 65t55 33t62 13.5t77 -10.5t67.5 -13t27 -4.5q26 -6 39 -28q0 -66 -2.5 -91.5t-14.5 -87.5q-10 -2 -13 -2q-36 0 -47 71q-5 28 -17.5 58t-33.5 43 q-37 23 -61 23t-41 -14q-49 -40 -49 -106q0 -46 23 -90q10 -20 26.5 -29.5t43 -16.5t44 -15.5t49.5 -16.5t55 -19t38 -34q37 -55 37 -111t-20.5 -110.5t-44 -78.5t-62 -40.5t-75.5 -16.5t-105 16l-17 5q-7 2 -13 3.5t-12.5 5t-10.5 5t-12.5 7.5t-13 8.5t-18.5 11.5l-23 16 q-6 57 -6 85z"/>
<glyph glyph-name="scaron" horiz-adv-x="314" unicode="" d="M180 588q0 4 23 4t23 -5q-12 -32 -43 -91q-20 -10 -27.5 -10t-14.5 4q-13 19 -18.5 37.5t-10.5 32.5t-9 29v1q0 5 19.5 5t21 -2.5t8.5 -23.5t17 -26q7 21 11 45zM25 146q4 10 12 10t24.5 -25t37.5 -50.5t41 -25.5h4q28 3 44.5 24t18.5 50v2q0 17 -8 26.5t-11 12.5 t-14 11.5t-13 10.5q-17 14 -64 20.5t-61 32.5q-20 37 -20 64q0 4 0.5 12.5t0.5 14.5q1 40 23 66.5t57.5 48t55 21.5t37.5 -5q61 -16 79 -63q7 -17 7 -30.5t-10.5 -34.5t-14.5 -21t-11 13q-21 43 -29 48t-16.5 11t-12.5 8q-14 8 -21 8t-17 -2q-46 -15 -46 -52 q0 -28 18.5 -36.5t42 -14.5t34.5 -15t32.5 -24t30.5 -22q26 -24 36 -54.5t10 -60.5t-19 -57q-28 -41 -65 -52q-54 -17 -77.5 -17t-36.5 3l-18 4q-7 2 -8.5 2.5t-7 2t-11.5 3.5t-8 3.5t-5.5 3.5t-5.5 5q-6 5 -10 11q-21 32 -21 55t16 54z"/>
<glyph glyph-name="Ydieresis" horiz-adv-x="759" unicode="" d="M515 817q15 -27 15 -48.5t-17 -39t-37 -17.5t-29.5 2t-14.5 8q-18 22 -18 49.5t15.5 50t43 22.5t42.5 -27zM365 817q15 -27 15 -48.5t-17 -39t-37 -17.5t-29.5 2t-14.5 8q-18 22 -18 49.5t15.5 50t43 22.5t42.5 -27zM425 57l47 9q10 0 20.5 -10t10.5 -20.5t-5 -18.5 q-131 -13 -159 -13t-148 10q-8 10 -8 23.5t12.5 24.5t25.5 11l50 -8q14 0 22 9q9 94 9 213q-37 77 -106.5 175t-101.5 152q-6 3 -12 3l-36 -8q-5 0 -12 5q-20 18 -20 40t12 37q103 8 122 8l56 -2q26 0 106 3q21 -16 21 -36q0 -26 -26 -26l-41 4q-16 0 -22 -11 q25 -67 66 -154t62 -153l179 290q-12 5 -32.5 7t-34.5 7q-20 9 -20 31.5t27 40.5l48 4q21 1 29 2q16 2 23.5 2t17 -0.5t42 -3t71.5 -4.5q15 -13 15 -28t-7 -23q-10 -15 -31 -15l-50 5q-18 0 -30 -8q-19 -33 -49 -91l-48 -89q-50 -88 -105 -161q-2 -26 -5 -52l-4 -42 q-1 -15 -1 -38.5t7 -89.5q1 -11 13 -11z"/>
<glyph glyph-name="longs" horiz-adv-x="324" unicode="" d="M46 0q-24 0 -30 39q0 21 24 40q5 4 14 4l22 -2q9 0 15 5q1 50 1 77v11l-2 148q-7 12 -31 18.5t-31 17.5q-12 21 -12 34t7.5 24t30.5 13t31 13q4 21 4 37v32q0 31 2 56q23 75 67 125q60 68 115 68q83 0 121 -45q24 -28 24 -63q0 -60 -40 -60q-18 0 -52 26l-32 28 q-14 13 -26 13t-17.5 -1.5t-11.5 -4t-11 -7t-8.5 -7t-7.5 -10t-6 -10.5t-5.5 -12.5t-4.5 -12.5q-3 -17 -8 -27v-81l1 -249q0 -89 -1 -147q5 -11 22 -16q29 -8 29 -34q0 -10 -6 -21q-9 -19 -28 -19h-159z"/>
<glyph glyph-name="uni0237" horiz-adv-x="286" unicode="" d="M149 380l-25 -2q-11 0 -16 7q-13 18 -13 35t13 33q88 22 117 22t37 -1v-570q-12 -44 -35.5 -71.5t-69.5 -56.5t-68 -29h-5q-17 0 -40 12q-35 19 -35 52q0 12 8 31.5t27.5 27.5t31.5 8t22 -4.5t14.5 -15.5t10.5 -14q20 -11 26.5 -11t17.5 6q-1 147 -2 147t-1 122.5 t1 265.5q-5 6 -16 6z"/>
<glyph glyph-name="circumflex" horiz-adv-x="168" unicode="" d="M78 524q0 -4 -23 -4t-23 5q12 32 43 91q20 10 27.5 10t14.5 -4q13 -19 18.5 -37.5t10.5 -32.5t9 -29v-1q0 -5 -19.5 -5t-21 2.5t-8.5 23.5t-17 26q-7 -21 -11 -45z"/>
<glyph glyph-name="caron" horiz-adv-x="193" unicode="" d="M112 619q0 4 23 4t23 -5q-12 -32 -43 -91q-20 -10 -27.5 -10t-14.5 4q-13 19 -18.5 37.5t-10.5 32.5t-9 29v1q0 5 19.5 5t21 -2.5t8.5 -23.5t17 -26q7 21 11 45z"/>
<glyph glyph-name="dotaccent" horiz-adv-x="257" unicode="" d="M118 663q11 24 32 24t31.5 -19.5t10.5 -32.5t-11 -26.5t-34.5 -13.5t-28.5 17q-7 14 -7 26.5t7 24.5z"/>
<glyph glyph-name="ring" horiz-adv-x="198" unicode="" d="M134 528h-8q-15 0 -29 14q-15 15 -15 46q0 32 22 48q14 10 32 10h4q40 -3 42 -54v-9q0 -9 -4 -24q-8 -31 -36 -31h-8zM134 630q-16 0 -22 -17t-6 -31q0 -20 12 -32q2 -2 15 -5q4 -1 8 -1q5 0 9 2q5 2 9 15t5 19v8q0 42 -30 42z"/>
<glyph glyph-name="tilde" horiz-adv-x="346" unicode="" d="M135 691q15 -2 27.5 -10t17 -10t15.5 -8t18 -6h4q10 1 21 15.5t21 14.5q29 0 32 -24q0 -8 -9 -13t-13 -7.5t-12.5 -10.5t-17.5 -15.5t-29 -9.5h-1q-17 0 -39 19t-39 19h-2q-10 0 -22.5 -13.5t-22.5 -13.5h-3q-11 2 -18.5 10t-7.5 15.5t1.5 11t5 6.5t5.5 4.5t8 5t7 4.5 q27 16 48 16h5z"/>
<glyph glyph-name="gravecomb" horiz-adv-x="333" unicode="" d="M12 578q14 34 28 47q15 13 36 17q58 -8 107 -28t75 -29t60 -25l-23 -31q-20 -27 -35.5 -27t-109.5 38.5t-131 38.5q-4 0 -7 -1z"/>
<glyph glyph-name="acutecomb" horiz-adv-x="330" unicode="" d="M319 578q-3 1 -8 1q-35 0 -129 -38t-103 -38t-38.5 21.5t-29.5 30.5q0 3 2 5q26 12 65 26l93 36q33 13 84 20q19 -4 33 -14t31 -50z"/>
<glyph glyph-name="endash" horiz-adv-x="470" unicode="" d="M316 147l-193 -3q-62 0 -90 39q-9 13 -9 29q0 17 14 32q23 27 71 27q3 0 5 -1h8q31 2 34 3q30 10 198 10q45 1 67 -21t22 -44t-9 -34q-10 -13 -18 -20q-8 -6 -23 -10t-21 -5q-14 -2 -56 -2z"/>
<glyph glyph-name="emdash" horiz-adv-x="711" unicode="" d="M557 147l-434 -3q-62 0 -90 39q-9 13 -9 29q0 17 14 32q23 27 71 27q3 0 5 -1h8q31 2 34 3q30 10 440 10q44 1 66 -21t22 -44t-9 -34q-9 -13 -17 -20q-8 -6 -24 -10q-15 -4 -21 -5q-14 -2 -56 -2z"/>
<glyph glyph-name="quoteleft" horiz-adv-x="288" unicode="" d="M28 560l1 23q4 67 47 108q7 6 21 21t18 17.5t19.5 9t35 7.5t54.5 2q2 -2 2 -6.5t-14 -15.5l-30 -24q-16 -12 -29.5 -38t-13.5 -58v-8q20 -12 48 -18t40 -21q18 -24 18 -45t-5 -46q-16 -76 -80 -76q-44 0 -88 48t-44 120z"/>
<glyph glyph-name="quotedblleft" horiz-adv-x="538" unicode="" d="M278 560l1 23q4 67 47 108q7 6 21 21t18 17.5t19.5 9t35 7.5t54.5 2q2 -2 2 -6.5t-14 -15.5l-30 -24q-16 -12 -29.5 -38t-13.5 -58v-8q20 -12 48 -18t40 -21q18 -24 18 -45t-5 -46q-16 -76 -80 -76q-44 0 -88 48t-44 120zM28 560l1 23q4 67 47 108q7 6 21 21t18 17.5 t19.5 9t35 7.5t54.5 2q2 -2 2 -6.5t-14 -15.5l-30 -24q-16 -12 -29.5 -38t-13.5 -58v-8q20 -12 48 -18t40 -21q18 -24 18 -45t-5 -46q-16 -76 -80 -76q-44 0 -88 48t-44 120z"/>
<glyph glyph-name="quotedblright" horiz-adv-x="538" unicode="" d="M246 581l-1 -23q-4 -67 -47 -108q-7 -6 -21 -21t-18 -17.5t-19.5 -9t-35 -7.5t-54.5 -2q-2 2 -2 6.5t14 15.5l30 24q16 12 29.5 38t13.5 58v8q-20 12 -48 18t-40 21q-18 24 -18 45t5 46q16 76 80 76q44 0 88 -48t44 -120zM496 581l-1 -23q-4 -67 -47 -108q-7 -6 -21 -21 t-18 -17.5t-19.5 -9t-35 -7.5t-54.5 -2q-2 2 -2 6.5t14 15.5l30 24q16 12 29.5 38t13.5 58v8q-20 12 -48 18t-40 21q-18 24 -18 45t5 46q16 76 80 76q44 0 88 -48t44 -120z"/>
<glyph glyph-name="dagger" horiz-adv-x="643" unicode="" d="M524 383l17 1q5 0 17 -2l41 -7q24 -5 24 -31t-14 -52t-34 -34q-7 -3 -15 -3t-28 23q-20 22 -33 24q-12 2 -26 2q-63 0 -99 -40q-12 -50 -12 -82t13 -79t13 -65t-2 -36t-4 -44t-5 -34q-1 -8 -5 -25t-12 -37l-54 -123l-40 139q-12 36 -14 62t-2 60v14q0 44 18 118t19 135 q-17 36 -67 36h-5q-21 -1 -49 -27t-50 -27h-7q-41 0 -65 26t-24 51q0 49 32 49h1l48 -2q5 0 13 1q29 6 152 13q23 1 23 21q0 10 -12 48t-14 60q1 12 7 34t6 34t-4 22t-26 22t-23 16t9 11t18 11t14 6q27 8 71 24q23 -8 37 -10t23 -7q36 -21 36 -27q1 -6 -21 -24t-24 -26 t-1 -18q0 -10 9 -31q9 -22 9 -37v-2q1 -19 -13 -44t-14 -44t4 -36q103 -7 144 -7z"/>
<glyph glyph-name="daggerdbl" horiz-adv-x="643" unicode="" d="M344 -114v-7q0 -11 12 -29t13 -26q0 -8 -1 -10q-17 -72 -72 -72q-24 0 -42 18t-21 45v4q0 13 17 30q26 26 26 72q0 21 -15 21h-1q-32 -2 -68 -14t-52 -12q-15 0 -33 20t-18 64t28 44q9 0 57 -24t67 -25q17 0 19 25q2 24 13 142t11 192t-4 142q-1 18 -14 18q-10 0 -54 -25 t-62 -25t-27 6q-29 20 -29 54q0 21 11 36q22 30 49 30q9 0 47 -6t72 -7h1q21 0 21 31q0 4 -6 46q-3 12 -21 28t-18 24q0 6 7 17t29 25t40 15h3q22 0 43 -31l8 -13q8 -10 10 -13q2 -2 2 -10t-14 -26t-14 -28l-4 -37q0 -21 14 -21h1q33 2 67 6t43 4q30 0 52 -34q10 -16 10 -35 q0 -41 -37 -64q-8 -5 -22 -5t-49 23t-45 23t-13 -14q-28 -120 -28 -261q0 -71 7 -206q1 -24 26 -24q35 0 126 55q5 4 12 4q14 0 22 -20t8 -50q0 -32 -17 -53t-31 -21q-2 0 -40 12t-85 11h-19q-18 -1 -18 -39z"/>
<glyph glyph-name="ellipsis" horiz-adv-x="478" unicode="" d="M456 321q-25 -32 -69 -32t-56.5 30t-12.5 55t12 46q23 45 63 45t63 -45q15 -27 15 -53t-15 -46zM144 330q-25 -32 -69 -32t-56.5 30t-12.5 55t12 46q23 45 63 45t63 -45q15 -27 15 -53t-15 -46zM302 321q-25 -32 -69 -32t-56.5 30t-12.5 55t12 46q23 45 63 45t63 -45 q15 -27 15 -53t-15 -46z"/>
<glyph glyph-name="perthousand" horiz-adv-x="820" unicode="" d="M195 544q26 13 33 40q3 9 3 18t-9 29q-17 30 -52 30q-13 0 -26 -7q-19 -9 -25 -31t-6 -31q-1 -9 9 -26t40 -25q4 -2 14 -2t19 5zM138 518q-57 32 -57 87q0 20 11 41q14 30 43 41q17 7 32 7t47 -10t47 -33q14 -23 14 -41t-7 -41q-14 -43 -49 -57q-21 -8 -39 -8t-42 14z M717 119q36 21 36 56q0 15 -9 31q-15 31 -51 31q-13 0 -26 -7q-19 -9 -25 -31t-6 -31q0 -8 10 -26t29 -23t27 -5t15 5zM742 87q-18 -8 -36 -8t-51 19q-51 28 -51 82q0 21 11 42q14 29 43 40q17 7 31 7t47 -9t48 -35q14 -21 14 -39t-7 -42q-13 -41 -49 -57zM504 124 q26 13 33 40q3 9 3 18t-9 29q-17 30 -52 30q-13 0 -26 -7q-19 -9 -25 -31t-6 -31t10 -26t39 -25q5 -2 15 -2t18 5zM447 98q-57 33 -57 88q0 18 11 40q14 30 43 41q17 7 32 7q16 0 48 -10t46 -33t14 -43t-7 -41q-14 -41 -49 -55q-21 -8 -39 -8t-42 14zM282 28l-137 -6 q-37 0 -77 6q-6 7 -18 16q-24 18 -24 36t20 32q20 12 34 12l48 -10q10 0 17 8l188 226q31 36 57 64l63 65q49 53 83 108t76 101q-3 10 -28 12t-25 20q0 17 18 27q42 1 72 3t37 2t79 -25q7 -8 7 -20q0 -11 -8 -23t-18 -12l-31 6q-7 0 -10 -2q-75 -82 -127 -155t-74 -101 l-92 -114q-69 -86 -122 -165q0 -5 -8 -15t-8 -17q0 -14 16 -14l21 2q15 0 15 -16q0 -13 -20 -29t-24 -22z"/>
<glyph glyph-name="guilsinglleft" horiz-adv-x="314" unicode="" d="M264 412l-16 2q-7 0 -13 -7t-31 -33q-54 -53 -95 -107q14 -36 36.5 -63.5t56 -61t55.5 -62.5q11 -29 11 -36.5t-6 -16.5q-32 -14 -54.5 -15.5t-30.5 -2.5h-3q-23 0 -44 31.5t-31 71.5q-1 5 -35.5 63t-34.5 82q0 11 6 17q23 46 57 89.5t48 68.5t27 38q25 26 62 26t52 -24 q4 -5 4 -20t-10 -33q-3 -7 -11 -7z"/>
<glyph glyph-name="guilsinglright" horiz-adv-x="314" unicode="" d="M50 93l16 -2q7 0 13 7t31 33q54 53 95 107q-14 36 -36.5 63.5t-56 61t-55.5 62.5q-11 29 -11 36.5t6 16.5q32 14 54.5 15.5t30.5 2.5h3q23 0 44 -31.5t31 -71.5q1 -5 35.5 -63t34.5 -82q0 -11 -6 -17q-23 -46 -57 -89.5t-48 -68.5t-27 -38q-25 -26 -62 -26t-52 24 q-4 5 -4 20t10 33q3 7 11 7z"/>
<glyph glyph-name="Euro" horiz-adv-x="841" unicode="" d="M311 385l-1 -24q0 -11 2 -33q27 0 41 -2t22 -3t12 -2q5 -1 11 -2t10 -3t10 -4q10 -4 18 -12q23 -20 23 -39t-14 -33q-25 -25 -76 -32q40 -50 81 -71t102 -28q16 -2 24 -2q40 1 102 25t87 28h3q13 0 13 -23t-16 -44q-32 -42 -65 -55l-32 -13q-12 -5 -38 -7l-38 -4 q-20 -2 -86 -2h-15q-67 0 -127 32t-97 67q-36 34 -68 89l-1 1h-28q-98 0 -139 39q-14 12 -14 28t27 38q27 21 102 21h10v12q0 30 3 54q-88 2 -128 39q-14 12 -14 28q-1 16 27 38q28 21 105 21h13q24 0 36 1q15 30 54 83t78 85t93 56t116 23l39 -1q55 -1 102 -20 q86 -29 110 -57q10 -11 22 -37t12 -64q0 -39 -42 -121q-25 17 -33 53t-16 46l-29 40q-21 30 -29 39t-29 23q-38 28 -95 28t-121 -50t-90 -115l29 -3q11 0 25 -4l12 -3q18 -5 30 -17q23 -20 23 -39t-14 -33q-35 -35 -134 -35z"/>
<glyph glyph-name="trademark" horiz-adv-x="844" unicode="" d="M448 495l2 185.5q-4 5.5 -17.75 5.75t-16.25 7.25q-0.5 1.5 -0.5 4q0 11.5 20.5 21.5q24 6 41.25 6t53.75 -10q23 -56.5 35.5 -95.25t23 -65.25t40 -83l130.5 253q14 8 23.25 8t36.75 -9.5q9 -10.5 9 -18.75t-6.5 -12.75v-0.5q0 -6.5 -9 -6.5l-14 1q-12.5 0 -12.5 -9.5 q-5 -171.5 -5 -194t1 -62.5q3 -4 13 -5q16.5 -1.5 16.5 -19l-4 -29.5q-25.5 -3.5 -42.5 -3.5l-55.5 3.5v4.5l-1 18q0 19.5 19 19.5h10q9 0 13 5q4.5 36.5 4.5 71l-3 144v28.5q-34 -74.5 -62 -153.25t-39 -103.5t-12.5 -27.5t-2.5 -4.25q-2.5 -4 -7.5 -4h-2.5 q-10.5 0 -23.5 17q-19 49 -35.75 99.75t-32.5 89.5t-48.25 101.75q7.5 -76 7.5 -127l-1.5 -96v-24.5q4 -7.5 19 -12.5q20.5 -6 20.5 -20.5q0 -4 -2.5 -11.25t-3 -11.25q-18 -0.5 -38.25 -2.5t-40.25 -2l-24 0.5q-0.5 4 -3.5 11.5t-3 11t2.5 7.75t10.5 4.25l9 -0.5q7 0 10 4 q-2 52.5 -2 92zM259.5 411.5l16.5 1.5q7.5 0 11.75 -6t4.25 -17.75t-10 -20.25q-64.5 0 -97.75 3.75t-70.25 10.25q-8 8 -8 16.25t4 13.75q7.5 10.5 22.5 10.5l29.5 -2.5q5 0 7.5 0.5l-0.5 26q0 48 6 112t6 91.25t-1.5 52.25q-9 0.5 -28.5 2.75t-36.5 2.25l-16 -0.5 q-17 -10 -20.75 -23.5t-8.75 -36.25t-22 -46.75q-3 -2.5 -7 -2.5q-11.5 0 -21.5 31q10.5 47 10.5 53q0 10 10.5 45q6.5 6.5 11.25 7.5t10 1.5t15.5 2.25t30.5 1.75t56.25 -3.75t58.5 -3.75t55.75 4.5t50.75 4.5q42.5 0 56.5 -13l11.5 -12q1 -1 3.75 -6.5t3.25 -10 q0 -9 24 -65.5q-2.5 -9.5 -9.25 -15.75t-13 -6.25t-7.75 0.5q-16.5 23 -24.25 46t-13.5 34.5t-21.75 18.5q-38 -9 -94 -12.5q0 -56 4 -148.75t4.5 -133.75q0 -6 7.5 -6z"/>
<glyph glyph-name="arrowleft" horiz-adv-x="346" unicode="" d="M158 435l-33 2h-3q-20 -2 -20 -13q0 -2 4 -4l12 -4q14 -5 12 -10.5t-5 -5.5h-1q-49 22 -67.5 36t-34.5 38q20 16 29 22q31 21 77 28h1q8 0 4 -7t-15 -11t-12 -9q6 -10 21 -10l27 3q5 2 15 2h37q35 0 52.5 3t18.5 3q25 0 36 -10t11 -20t-4 -16q-13 -19 -44 -19h-13l-58 -1 q-40 0 -47 3z"/>
<glyph glyph-name="arrowup" horiz-adv-x="168" unicode="" d="M57 477l2 33v3q-2 20 -13 20q-2 0 -4 -4l-4 -12q-5 -14 -10.5 -12t-5.5 5v1q22 49 36 67.5t38 34.5q16 -20 22 -29q21 -31 28 -77v-1q0 -8 -7 -4t-11 15t-9 12q-10 -6 -10 -21l3 -27q2 -5 2 -15v-37q0 -35 3 -52.5t3 -18.5q0 -25 -10 -36t-20 -11t-16 4q-19 13 -19 44v13 l-1 58q0 40 3 47z"/>
<glyph glyph-name="arrowright" horiz-adv-x="346" unicode="" d="M188 489l33 -2h3q20 2 20 13q0 2 -4 4l-12 4q-14 5 -12 10.5t5 5.5h1q49 -22 67.5 -36t34.5 -38q-20 -16 -29 -22q-31 -21 -77 -28h-1q-8 0 -4 7t15 11t12 9q-6 10 -21 10l-27 -3q-5 -2 -15 -2h-37q-35 0 -52.5 -3t-18.5 -3q-25 0 -36 10t-11 20t4 16q13 19 44 19h13 l58 1q40 0 47 -3z"/>
<glyph glyph-name="arrowdown" horiz-adv-x="168" unicode="" d="M111 447l-2 -33v-3q2 -20 13 -20q2 0 4 4l4 12q5 14 10.5 12t5.5 -5v-1q-22 -49 -36 -67.5t-38 -34.5q-16 20 -22 29q-21 31 -28 77v1q0 8 7 4t11 -15t9 -12q10 6 10 21l-3 27q-2 5 -2 15v37q0 35 -3 52.5t-3 18.5q0 25 10 36t20 11t16 -4q19 -13 19 -44v-13l1 -58 q0 -40 -3 -47z"/>
<glyph glyph-name="uni21B4" horiz-adv-x="211" unicode="" d="M84 545l-20 1q-26 0 -37.5 10.5t-11.5 21t6 17.5t15 9q21 6 35 6h10q30 5 32 5q49 0 49 -35v-1q1 -8 1 -27l1 -58q0 -40 -3 -47q1 -1 -0.5 -5.5t-1.5 -27.5v-3q2 -19 13 -20q2 0 4 5l4 11q5 14 12 11q4 -1 4 -4v-1q-22 -49 -36 -67.5t-38 -34.5q-16 20 -22 29 q-21 32 -28 77v1q0 8 7 4t11 -15t9 -12q10 6 10 21l-5 42v37q0 37 -3 52q-9 -2 -17 -2z"/>
<glyph glyph-name="carriagereturn" horiz-adv-x="347" unicode="" d="M255 484l1 20q0 26 10.5 37.5t21 11.5t17.5 -6t9 -15q6 -21 6 -35v-10q5 -30 5 -32q0 -49 -35 -49h-1q-8 -1 -27 -1l-58 -1q-40 0 -47 3q-1 -1 -5.5 0.5t-27.5 1.5h-3q-19 -2 -20 -13q0 -2 5 -4l11 -4q14 -5 11 -12q-1 -4 -4 -4h-1q-49 22 -67.5 36t-34.5 38q20 16 29 22 q32 21 77 28h1q8 0 4 -7t-15 -11t-12 -9q6 -10 21 -10l42 5h37q37 0 52 3q-2 9 -2 17z"/>
<glyph glyph-name="arrowdblleft" horiz-adv-x="346" unicode="" d="M266 413l-58 -1q-41 0 -48 3q-1 -1 -5 0.5t-27 1.5h-4q-19 -2 -20 -13q0 -2 4 -4l12 -4q15 -5 11 -12q-2 -4 -5 -4q-53 22 -82 63l-20 31q6 5 25 24q38 39 81 46h2q7 0 3 -7t-15 -11t-12 -9q6 -10 22 -10l26 3q5 2 16 2h36q35 0 52.5 3t22 3t10.5 -2.5t10.5 -8t7.5 -9.5 t6.5 -10t4.5 -7q-34 3 -70.5 3t-119.5 -10q-6 -1 -6 -10.5t6 -10.5q74 -8 113 -8t75 4q-25 -35 -54 -36z"/>
<glyph glyph-name="arrowdblup" horiz-adv-x="178" unicode="" d="M40 369l-1 58q0 41 3 48q-1 1 0.5 5t1.5 27v4q-2 19 -13 20q-2 0 -4 -4l-4 -12q-5 -15 -12 -11q-4 2 -4 5q22 53 63 82l31 20q5 -6 24 -25q39 -38 46 -81v-2q0 -7 -7 -3t-11 15t-9 12q-10 -6 -10 -22l3 -26q2 -5 2 -16v-36q0 -35 3 -52.5t3 -22t-2.5 -10.5t-8 -10.5 t-9.5 -7.5t-10 -6.5t-7 -4.5q3 34 3 70.5t-10 119.5q-1 6 -10.5 6t-10.5 -6q-8 -74 -8 -113t4 -75q-35 25 -36 54z"/>
<glyph glyph-name="arrowdblright" horiz-adv-x="346" unicode="" d="M80 511l58 1q41 0 48 -3q1 1 5 -0.5t27 -1.5h4q19 2 20 13q0 2 -4 4l-12 4q-15 5 -11 12q2 4 5 4q53 -22 82 -63l20 -31q-6 -5 -25 -24q-38 -39 -81 -46h-2q-7 0 -3 7t15 11t12 9q-6 10 -22 10l-26 -3q-5 -2 -16 -2h-36q-35 0 -52.5 -3t-22 -3t-10.5 2.5t-10.5 8 t-7.5 9.5t-6.5 10t-4.5 7q34 -3 70.5 -3t119.5 10q6 1 6 10.5t-6 10.5q-74 8 -113 8t-75 -4q25 35 54 36z"/>
<glyph glyph-name="arrowdbldown" horiz-adv-x="178" unicode="" d="M138 555l1 -58q0 -41 -3 -48q1 -1 -0.5 -5t-1.5 -27v-4q2 -19 13 -20q2 0 4 4l4 12q5 15 12 11q4 -2 4 -5q-22 -53 -63 -82l-31 -20q-5 6 -24 25q-39 38 -46 81v2q0 7 7 3t11 -15t9 -12q10 6 10 22l-3 26q-2 5 -2 16v36q0 35 -3 52.5t-3 22t2.5 10.5t8 10.5t9.5 7.5 t10 6.5t7 4.5q-3 -34 -3 -70.5t10 -119.5q1 -6 10.5 -6t10.5 6q8 74 8 113t-4 75q35 -25 36 -54z"/>
<glyph glyph-name="therefore" horiz-adv-x="447" unicode="" d="M185 46q-25 -32 -69 -32t-56.5 30t-12.5 55t12 46q23 45 63 45t63 -45q15 -27 15 -53t-15 -46zM385 46q-25 -32 -69 -32t-56.5 30t-12.5 55t12 46q23 45 63 45t63 -45q15 -27 15 -53t-15 -46zM285 246q-25 -32 -69 -32t-56.5 30t-12.5 55t12 46q23 45 63 45t63 -45 q15 -27 15 -53t-15 -46z"/>
<glyph glyph-name="angleleft" horiz-adv-x="372" unicode="" d="M310 615l-21 3q-7 0 -11 -6l-44 -54q-71 -85 -118 -162q18 -54 45.5 -95t69.5 -91.5t70 -93.5q2 -7 5 -18q8 -24 8 -36.5t-7 -25.5q-30 -16 -46 -19t-33 -5l-27 -2h-4q-28 0 -55 47.5t-39 106.5q-2 9 -44.5 95.5t-42.5 122.5q0 17 7 25q28 67 103 183q11 18 28.5 55 t34 57t42.5 29.5t42 9.5q39 0 58 -37q5 -9 5 -30.5t-13 -49.5q-4 -9 -13 -9z"/>
<glyph glyph-name="angleright" horiz-adv-x="372" unicode="" d="M42 135l21 -3q7 0 11 6l44 54q71 85 118 162q-18 54 -45.5 95t-69.5 91.5t-70 93.5q-2 7 -5 18q-8 24 -8 36.5t7 25.5q30 16 46 19t33 5l27 2h4q28 0 55 -47.5t39 -106.5q2 -9 44.5 -95.5t42.5 -122.5q0 -17 -7 -25q-28 -67 -103 -183q-11 -18 -28.5 -55t-34 -57 t-42.5 -29.5t-42 -9.5q-39 0 -58 37q-5 9 -5 30.5t13 49.5q4 9 13 9z"/>
</font>
</defs>
</svg>
