<?xml version="1.0" encoding="UTF-8" standalone="no"?>
<!DOCTYPE svg  PUBLIC '-//W3C//DTD SVG 1.1//EN'  'http://www.w3.org/Graphics/SVG/1.1/DTD/svg11.dtd'>
<svg xmlns="http://www.w3.org/2000/svg">
<defs>
<font id="LinBiolinumOI-Regular" horiz-adv-x="527">
<font-face slope="-12" underline-position="-98" font-weight="400" descent="-200" panose-1="2 0 5 3 0 0 0 0 0 0" units-per-em="1000" unicode-range="U+0020-2666" bbox="-246 -238 1134 820" x-height="432" underline-thickness="40" font-family="LinBiolinumOI" ascent="800" font-style="italic" cap-height="648"/>
<missing-glyph horiz-adv-x="1000"/>
<glyph glyph-name="ellipsis" horiz-adv-x="749" unicode="..." d="M592 44l1 4q22 38 66 54h4q38 -14 42 -54l-1 -4q-24 -44 -65 -54h-4q-23 5 -32.5 17t-10.5 37zM328 44l1 4q22 38 66 54h4q38 -14 42 -54l-1 -4q-24 -44 -65 -54h-4q-23 5 -32.5 17t-10.5 37zM63 44l1 4q22 38 66 54h4q38 -14 42 -54l-1 -4q-24 -44 -65 -54h-4 q-23 5 -32.5 17t-10.5 37z"/>
<glyph glyph-name=".notdef" horiz-adv-x="1000"/>
<glyph glyph-name=".null" horiz-adv-x="0"/>
<glyph glyph-name="nonmarkingreturn" horiz-adv-x="333"/>
<glyph glyph-name="space" horiz-adv-x="250" unicode=" "/>
<glyph glyph-name="exclam" horiz-adv-x="228" unicode="!" d="M66 44l1 4q22 38 66 54h4q38 -14 42 -54l-1 -4q-24 -44 -65 -54h-4q-23 5 -32.5 17t-10.5 37zM253 658q18 0 30.5 -13t12.5 -37q0 -11 -3 -23q-8 -37 -32.5 -99t-34.5 -94q-16 -47 -28 -89.5t-18.5 -65.5t-7.5 -27q-5 -20 -19 -20q-11 0 -11 11q0 10 4 39.5t10.5 74.5 t10.5 77q4 36 6 95t10 98q8 37 29 55t41 18z"/>
<glyph glyph-name="quotedbl" horiz-adv-x="336" unicode='&quot;' d="M180 426q7 159 9 168q4 18 22.5 34t39.5 16q29 0 29 -25q0 -5 -1 -8l-72 -181zM306 427q8 159 10 168q4 18 22 34t39 16q29 0 29 -25v-8l-72 -181z"/>
<glyph glyph-name="numbersign" horiz-adv-x="440" unicode="#" d="M390 341l-42 -110h90l-17 -48h-89l-64 -170h-33l62 170h-109l-64 -170h-33l63 170h-90l17 48h91l40 110h-90l19 49h90l63 170h34l-64 -170h111l62 170h33l-63 -170h91l-18 -49h-90zM316 231l40 110h-110l-41 -110h111z"/>
<glyph glyph-name="dollar" horiz-adv-x="440" unicode="$" d="M284 244l-45 -212q39 8 67.5 33t37.5 66q3 17 3 30q0 54 -63 83zM270 341l42 196q-40 -2 -69 -27.5t-37 -64.5q0 -2 -1.5 -8.5t-1.5 -10.5q0 -53 67 -85zM204 28l49 229q-55 25 -87.5 55.5t-32.5 78.5q0 9 4 31q13 61 67.5 102.5t114.5 46.5l12 56h34l-12 -55 q40 -2 68.5 -11.5t36.5 -18.5l9 -9l2 -3q-21 -38 -35 -83l-9 -1q-18 76 -79 88l-44 -207q57 -22 91.5 -52t34.5 -81q0 -10 -4 -32q-12 -57 -69 -105t-124 -62l-16 -76h-34l15 71h-7q-47 0 -84.5 10t-50.5 20l-14 10l-1 3q25 55 36 85l8 1q11 -41 43 -66t78 -25z"/>
<glyph glyph-name="percent" horiz-adv-x="637" unicode="%" d="M195 398q-3 -14 -3 -24q0 -22 10.5 -32t23.5 -10q38 0 75 49t47 98q2 8 2 22q0 39 -34 39q-35 0 -73 -47.5t-48 -94.5zM475 521q40 0 87 13t74 41l29 -16l-532 -571l-30 15l465 500q-52 -19 -111 -19q-44 0 -76 21q0 -16 -2 -25q-13 -58 -61 -117.5t-105 -59.5 q-35 0 -52.5 23t-17.5 57q0 9 4 29q12 60 61.5 109.5t102.5 49.5q20 0 38 -7.5t24 -17.5q49 -25 102 -25zM401 98q13 59 62 108.5t103 49.5q70 0 70 -63q0 -11 -3 -28q-12 -59 -60 -118t-105 -59q-35 0 -52.5 23t-17.5 58q0 14 3 29zM450 83q-3 -13 -3 -25q0 -41 34 -41 q38 0 75 49.5t47 97.5q2 8 2 21q0 22 -11 31t-23 9q-35 0 -73 -47.5t-48 -94.5z"/>
<glyph glyph-name="ampersand" horiz-adv-x="705" unicode="&amp;" d="M473 192q120 136 155 240q9 -3 38 -3q33 0 44 3q-20 -25 -70 -90.5t-92 -119.5t-55 -69l24 -46q15 -31 32.5 -47t30.5 -16q49 0 88 54l14 -8q-27 -50 -59 -75t-60 -25q-20 0 -33.5 2.5t-33 18.5t-34.5 46l-21 37q-48 -52 -95.5 -78t-107.5 -26q-75 0 -119.5 31t-44.5 97 q0 27 5 48q11 55 65 104.5t164 104.5q-24 56 -24 103q0 23 4 39q10 49 60.5 90t120.5 41q47 0 76.5 -24.5t29.5 -63.5q0 -14 -2 -21q-9 -40 -60 -85t-124 -83l2 -8q18 -51 82 -171zM375 411q54 31 89.5 66t41.5 62q2 8 2 21q0 49 -53 49q-25 0 -55.5 -23t-39.5 -67 q-2 -14 -2 -25q0 -41 17 -83zM322 338q-82 -41 -118 -83t-48 -99q-4 -20 -4 -39q0 -47 28 -68.5t73 -21.5q26 0 45.5 5.5t43 24.5t34 29.5t44.5 46.5q-29 54 -61 121t-37 84z"/>
<glyph glyph-name="quotesingle" horiz-adv-x="190" unicode="&apos;" d="M170 426q7 159 9 168q4 18 22.5 34t39.5 16q29 0 29 -25q0 -5 -1 -8l-72 -181z"/>
<glyph glyph-name="parenleft" horiz-adv-x="300" unicode="(" d="M98 252q29 134 113 254.5t195 200.5l20 -18q-188 -169 -245 -437q-18 -84 -18 -162q0 -161 76 -277l-26 -17q-128 135 -128 335q0 66 13 121z"/>
<glyph glyph-name="parenright" horiz-adv-x="300" unicode=")" d="M310 252q-29 -134 -113.5 -254.5t-195.5 -200.5l-19 18q188 169 245 437q18 84 18 162q0 159 -77 277l26 17q128 -135 128 -336q0 -69 -12 -120z"/>
<glyph glyph-name="asterisk" horiz-adv-x="433" unicode="*" d="M318 567q-16 4 -41 4q-74 0 -74 30q0 4 1 7q3 12 13 21t27 9q19 0 44 -22t41 -29q1 6 1 16q0 13 -3 33.5t-3 28.5q0 9 1 14q3 16 14.5 27.5t24.5 11.5q26 0 26 -25q0 -6 -1 -10q-3 -14 -19 -48t-20 -49q21 8 54.5 30t51.5 22q28 0 28 -24q0 -1 -0.5 -3t-0.5 -3 q-7 -37 -77 -37q-31 0 -56 -4q8 -11 37 -35t29 -43q0 -6 -1 -9q-3 -13 -13.5 -21t-21.5 -8q-17 0 -25 16t-13 45.5t-11 42.5q-11 -14 -29 -44.5t-32 -45t-31 -14.5q-11 0 -17.5 6.5t-6.5 15.5q0 1 0.5 3t0.5 3q4 19 19.5 32t41.5 28t41 28z"/>
<glyph glyph-name="plus" d="M344 257h172l-11 -49h-172l-37 -174h-51l37 174h-172l11 49h172l37 174h51z" unicode="+"/>
<glyph glyph-name="comma" horiz-adv-x="220" unicode="," d="M57 44l1 4q22 38 66 54h4q46 -18 46 -69q0 -14 -5 -36q-11 -50 -54 -85.5t-93 -44.5q-4 4 -4 11t4 14q38 9 69 35t34 44q1 3 1 9q0 17 -25 17q-24 6 -33.5 14.5t-10.5 32.5z"/>
<glyph glyph-name="hyphen" horiz-adv-x="333" unicode="-" d="M323 223h-226q-12 0 -12 13t12.5 30t21.5 17h229q10 0 10 -12q0 -11 -12.5 -29.5t-22.5 -18.5z"/>
<glyph glyph-name="period" horiz-adv-x="220" unicode="." d="M63 44l1 4q22 38 66 54h4q38 -14 42 -54l-1 -4q-24 -44 -65 -54h-4q-23 5 -32.5 17t-10.5 37z"/>
<glyph glyph-name="slash" horiz-adv-x="323" unicode="/" d="M430 646l-386 -705h-42l387 705h41z"/>
<glyph glyph-name="zero" horiz-adv-x="444" unicode="0" d="M216 -10q-66 0 -100 53t-34 141q0 47 11 105q27 142 100 231.5t148 89.5q56 0 85 -35q47 -56 47 -161q0 -55 -10 -105q-31 -159 -105 -239t-142 -80zM334 571q-104 0 -159 -284q-16 -85 -16 -138q0 -120 66 -120q12 0 26.5 5t37 27.5t39.5 60.5q28 62 54 195 q15 75 15 137q0 77 -24 101q-14 16 -39 16z"/>
<glyph glyph-name="one" horiz-adv-x="444" unicode="1" d="M348 189q-24 -124 -29 -189l-2 -3q-27 3 -46 3l-44 -3l-1 3q22 70 45 189l48 248q8 38 8 55q0 21 -11 21q-10 0 -51 -7t-61 -9v29q43 13 120 44t106 40q6 0 6 -3q0 -6 -5 -23.5t-15 -56t-19 -84.5z"/>
<glyph glyph-name="two" horiz-adv-x="444" unicode="2" d="M308 548q-48 0 -81 -27q-33 -28 -58 -72l-13 1l-11 69q79 91 177 91q70 0 109 -39.5t39 -97.5q0 -40 -15 -78t-29.5 -57.5t-46.5 -59.5q-54 -66 -182 -181q-21 -21 -21 -29v-1q1 -1 1 -2q27 2 78 2q89 0 177 8q-2 -6 -10 -39q-3 -13 -3 -41q-113 5 -166 5q-5 0 -182 -5 q-5 12 -5 29q0 15 4 23q5 5 49 42.5t71 62t68.5 67.5t70.5 82q53 72 53 163q0 37 -23.5 60.5t-50.5 23.5z"/>
<glyph glyph-name="three" horiz-adv-x="444" unicode="3" d="M208 29q59 0 103 51q43 51 43 122q0 43 -23 66q-31 32 -86 32q-28 0 -40 -2l8 44q19 -3 34 -3q80 0 114 70q19 40 19 81q0 37 -18 59t-43 22q-41 0 -70 -21t-54 -64l-14 1l-9 64l4 3q69 56 158 56q61 0 95.5 -30t34.5 -77q0 -62 -42 -113q-41 -51 -93 -63v-5 q47 -5 77 -36.5t30 -78.5q0 -90 -78 -156q-73 -61 -159 -61t-132 48l-2 3l34 75l14 1q7 -28 11 -39t14 -25.5t26.5 -19t43.5 -4.5z"/>
<glyph glyph-name="four" horiz-adv-x="444" unicode="4" d="M374 512l-256 -314h195zM303 148h-198q-53 0 -53 17q0 14 20 42q49 65 157.5 197t166.5 196l4 4q17 -4 32 -4q8 0 21 2t17 2q1 0 1 -4q-18 -58 -34 -148l-49 -254h61q15 0 11 -16q-2 -9 -13.5 -21.5t-20.5 -12.5h-48q-14 -74 -23 -148q0 -3 -3 -3q-4 0 -17.5 1.5 t-21.5 1.5l-46 -3l-1 3q22 69 37 148z"/>
<glyph glyph-name="five" horiz-adv-x="444" unicode="5" d="M191 -10q-83 0 -134 56l-3 3l36 80l14 1q1 -4 6.5 -21t7 -20.5t7 -16t9 -15.5t10.5 -10.5t14.5 -9.5t18.5 -4.5t24 -2.5q49 0 87 40.5t51 108.5q6 30 6 56q0 52 -23 78.5t-62 26.5q-46 0 -125 -31l-6 3l88 294q64 -6 108 -6q79 0 159 10l6 -3l-28 -68q-48 -6 -102 -6 q-57 0 -120 9l-55 -177q43 15 108 15q66 0 102 -40t36 -102q0 -23 -4 -42q-17 -89 -84 -147.5t-152 -58.5z"/>
<glyph glyph-name="six" horiz-adv-x="444" unicode="6" d="M496 583q-109 -11 -183 -74q-91 -78 -131 -203q21 22 58.5 37t67.5 15q80 0 112 -43t32 -99q0 -22 -3 -36q-6 -30 -21 -60.5t-40 -60.5t-65.5 -49t-90.5 -19q-27 0 -51 7.5t-48 24.5t-38 52t-14 84q0 36 9 84q31 157 155 265q58 51 118 74.5t136 28.5zM175 277 q-2 -6 -8 -37q-10 -50 -10 -89q0 -69 27 -96.5t65 -27.5q86 0 114 146q5 22 5 47q0 98 -88 98q-59 0 -105 -41z"/>
<glyph glyph-name="seven" horiz-adv-x="444" unicode="7" d="M432 525q-16 1 -62 1q-134 0 -210 -10q10 32 14 49q0 1 3 42q47 -7 268 -7q33 0 63 10l14 -10q-145 -246 -333 -609l-71 -4l-2 6q114 183 316 532z"/>
<glyph glyph-name="eight" horiz-adv-x="444" unicode="8" d="M223 24q113 0 135 110q2 9 2 26q0 71 -61 111l-39 26q-97 -59 -115 -151q-4 -24 -4 -33q0 -45 24.5 -67t57.5 -22zM469 485q-13 -70 -135 -145l51 -43q59 -50 59 -114q0 -18 -2 -28q-12 -62 -75.5 -113t-152.5 -51q-68 0 -108 31t-40 88q0 10 4 36q14 67 82 120 q56 44 81 61l-17 14q-61 50 -61 113q0 12 3 26q11 59 60 94.5t121 35.5q62 0 97 -27.5t35 -73.5q0 -16 -2 -24zM327 577q-41 0 -65 -24t-31 -62q-3 -12 -3 -26q0 -45 49 -83l26 -18q30 19 59 52.5t36 69.5q2 16 2 22q0 31 -18 50t-55 19z"/>
<glyph glyph-name="nine" horiz-adv-x="444" unicode="9" d="M81 17q109 11 183 74q91 78 131 203q-21 -22 -58.5 -37t-67.5 -15q-80 0 -112 43t-32 99q0 22 3 36q6 30 21 60.5t40 60.5t65.5 49t90.5 19q27 0 51 -7.5t48 -24.5t38 -52t14 -84q0 -36 -9 -84q-31 -157 -155 -265q-58 -51 -118 -74.5t-136 -28.5zM402 323q2 6 8 37 q10 50 10 89q0 69 -27 96.5t-65 27.5q-86 0 -114 -146q-5 -22 -5 -47q0 -98 88 -98q59 0 105 41z"/>
<glyph glyph-name="colon" horiz-adv-x="220" unicode=":" d="M81 93l1 4q22 38 65 54h4q39 -14 43 -54l-1 -4q-23 -44 -66 -54h-4q-22 5 -31 16.5t-11 37.5zM137 356v4q22 38 66 54h4q39 -14 43 -54l-1 -4q-23 -44 -66 -54h-4q-22 5 -31 16.5t-11 37.5z"/>
<glyph glyph-name="semicolon" horiz-adv-x="220" unicode=";" d="M57 44l1 4q22 38 66 54h4q46 -18 46 -69q0 -14 -5 -36q-11 -50 -54 -85.5t-93 -44.5q-4 4 -4 11t4 14q38 9 69 35t34 44q1 3 1 9q0 17 -25 17q-24 6 -33.5 14.5t-10.5 32.5zM127 356v4q22 38 66 54h4q38 -14 42 -54v-4q-23 -44 -66 -54h-4q-22 5 -31 16.5t-11 37.5z"/>
<glyph glyph-name="less" horiz-adv-x="487" unicode="&lt;" d="M173 239l292 -116l-11 -50l-359 142l10 48l420 141l-11 -50z"/>
<glyph glyph-name="equal" d="M502 193l-10 -49h-395l10 49h395zM529 318l-11 -49h-395l11 49h395z" unicode="="/>
<glyph glyph-name="greater" horiz-adv-x="487" unicode="&gt;" d="M416 236l-292 116l10 50l360 -142l-10 -48l-420 -141l11 50z"/>
<glyph glyph-name="question" horiz-adv-x="405" unicode="?" d="M133 44l1 4q22 38 66 54h4q38 -14 42 -54l-1 -4q-24 -44 -65 -54h-4q-23 5 -32.5 17t-10.5 37zM327 619q-68 0 -143 -94l-13 1l-2 67l4 4q90 62 171 62q65 0 101 -30.5t36 -83.5q0 -20 -4 -37q-8 -37 -33.5 -69.5t-47 -48.5t-58.5 -39q-48 -30 -63 -50q-25 -35 -33 -73 l-10 -44q-3 -10 -15 -10q-6 0 -9 2.5t-2 7.5l10 46q6 29 12.5 49t29.5 52.5t59 59.5q38 29 57.5 54t26.5 59q3 15 3 30q0 38 -20.5 61.5t-56.5 23.5z"/>
<glyph glyph-name="at" horiz-adv-x="895" unicode="@" d="M599 74q-2 -12 8 -12q82 0 134.5 47.5t77.5 165.5q7 34 7 69q0 111 -75 174t-168 63q-59 0 -119 -20.5t-115.5 -60t-98 -107t-60.5 -152.5q-10 -50 -10 -97q0 -53 13 -98.5t42 -85t83 -62.5t128 -23q119 0 216 66l9 -18q-61 -40 -117 -60.5t-134 -20.5q-151 0 -237 82 t-86 213q0 41 9 86q23 106 97 195.5t179.5 141t216.5 51.5q139 0 223 -73t84 -189q0 -35 -7 -67q-10 -46 -34 -88.5t-63.5 -81t-103 -62t-141.5 -23.5q-29 0 -29 29q0 4 2 12q3 15 28 63l-2 1q-42 -52 -84 -77.5t-71 -25.5q-54 0 -76 28t-22 67q0 17 3 29q22 103 112.5 180 t174.5 77q25 0 45 -12t23 -31l10 24l56 13l14 -5l-115 -258q-25 -57 -27 -67zM636 316q2 10 2 14q0 22 -14.5 35.5t-38.5 13.5q-51 0 -99 -40q-83 -68 -106 -177q-4 -24 -4 -34q0 -58 63 -58q26 0 67 37.5t76 92.5q44 69 54 116z"/>
<glyph glyph-name="A" horiz-adv-x="633" unicode="A" d="M468 276q-20 115 -49 246h-2q-8 -13 -67.5 -104.5t-90.5 -141.5q16 0 53 -1t51 -1q39 0 105 2zM230 228q-103 -168 -133 -231q-11 3 -44 3q-23 0 -36 -3q268 400 436 661h28q18 -84 47 -236.5t51.5 -266.5t34.5 -158q-16 3 -59 3q-33 0 -51 -3q-4 79 -28 231 q-76 2 -117 2q-53 0 -129 -2z"/>
<glyph glyph-name="B" horiz-adv-x="592" unicode="B" d="M283 645q24 0 61.5 1.5t53.5 1.5q106 0 145 -34t39 -88q0 -11 -2 -33q-6 -45 -44.5 -81t-87.5 -52l3 -5q124 -39 124 -145q0 -8 -2 -26q-10 -82 -74.5 -134.5t-197.5 -52.5q-48 0 -88 1.5t-67 1.5l-53 -3v3q24 66 53 200l52 245q27 125 32 200l3 3q16 -3 50 -3zM258 327 l-50 -239q-2 -8 -2 -11q0 -36 86 -36q67 0 106 17t52.5 41.5t19.5 65.5q3 22 3 43q0 119 -128 119h-87zM308 559l-40 -188h72q133 0 150 110q3 18 3 34q0 89 -98 89q-40 0 -57.5 -5.5t-21.5 -12t-8 -27.5z"/>
<glyph glyph-name="C" horiz-adv-x="650" unicode="C" d="M495 658q54 0 103.5 -11t71.5 -23l23 -11l2 -3q-35 -78 -44 -111l-12 -1q-18 60 -58.5 86.5t-109.5 26.5q-33 0 -69.5 -15.5t-74.5 -46.5t-69.5 -87t-46.5 -128q-10 -46 -10 -94q0 -88 41 -143.5t127 -55.5q70 0 118.5 20.5t114.5 78.5l22 -19q-128 -131 -275 -131 q-127 0 -190.5 71t-63.5 178q0 40 9 80q31 145 146 242t245 97z"/>
<glyph glyph-name="D" horiz-adv-x="682" unicode="D" d="M281 645q31 0 80 1.5t80 1.5q122 0 196.5 -75.5t74.5 -191.5q0 -38 -7 -73q-19 -88 -61.5 -151.5t-98.5 -96.5t-111 -47.5t-113 -14.5q-56 0 -101.5 1t-75.5 1l-53 -3v3q24 66 53 200l52 245q27 125 32 200l3 3q16 -3 50 -3zM204 82q-2 -12 -2 -16q0 -14 19 -19t78 -5 q57 0 100.5 10t84 35t68.5 74.5t44 122.5q13 58 13 109q0 95 -50.5 153t-165.5 58q-41 0 -61 -8t-25 -32z"/>
<glyph glyph-name="E" horiz-adv-x="522" unicode="E" d="M224 200q-5 -22 -14 -76t-8 -70q60 0 131 3t112 6l41 3l1 -4q-5 -14 -9 -33q-1 -4 -1.5 -8t-1 -10t-1.5 -11l-3 -3q-24 3 -59 3h-273l-53 -3v3q24 66 53 200l52 245q27 125 32 200l3 3q16 -3 50 -3h263q37 0 61 3l1 -3q-2 -7 -8 -31q-2 -8 -4 -26l-3 -4q-135 12 -269 12 q-8 -17 -40 -151l-18 -82q105 0 225 10l3 -3q-6 -12 -9 -28q-3 -14 -3 -28l-4 -3q-97 10 -221 10z"/>
<glyph glyph-name="F" horiz-adv-x="477" unicode="F" d="M538 645q40 0 64 3l1 -3q-2 -7 -8 -31q-2 -8 -4 -26l-3 -4q-135 12 -269 12q-8 -17 -40 -151l-18 -82q105 0 225 10l3 -3q-6 -12 -9 -28q-3 -14 -3 -28l-4 -3q-97 10 -221 10l-26 -121q-27 -125 -32 -200l-3 -3q-16 3 -50 3l-53 -3v3q22 59 52 200l53 245q27 125 32 200 l3 3q16 -3 50 -3h260z"/>
<glyph glyph-name="G" horiz-adv-x="681" unicode="G" d="M551 117q27 143 30 190l3 3q16 -3 50 -3l53 3v-3q-24 -67 -46 -170l-1 -6q-4 -28 -4 -30q0 -10 4 -18l-1 -3q-126 -90 -275 -90q-125 0 -195 72t-70 182q0 33 8 73q34 161 145.5 251t258.5 90q54 0 103.5 -11t71.5 -23l23 -11l2 -3q-35 -78 -44 -111l-10 -1 q-18 61 -55 87t-105 26q-103 0 -179.5 -72.5t-103.5 -201.5q-8 -36 -8 -83q0 -93 46 -155.5t145 -62.5q96 0 145 38z"/>
<glyph glyph-name="H" horiz-adv-x="690" unicode="H" d="M596 445q27 125 32 200l3 3q16 -3 50 -3l53 3v-3q-23 -64 -52 -200l-52 -245q-28 -132 -33 -200l-3 -3q-16 3 -50 3l-53 -3v3q24 66 53 200l25 121h-312l-25 -121q-28 -132 -33 -200l-3 -3q-16 3 -50 3l-53 -3v3q24 66 53 200l52 245q27 125 32 200l3 3q16 -3 50 -3l53 3 v-3q-23 -64 -52 -200l-18 -82h312z"/>
<glyph glyph-name="I" horiz-adv-x="293" unicode="I" d="M201 445q27 125 32 200l3 3q16 -3 50 -3l52 3l1 -3q-23 -64 -52 -200l-53 -245q-27 -125 -32 -200l-3 -3q-16 3 -50 3l-53 -3v3q22 59 52 200z"/>
<glyph glyph-name="J" horiz-adv-x="311" unicode="J" d="M158 95l69 350q25 125 29 200l2 3q17 -3 51 -3l52 3l1 -3q-22 -64 -49 -200l-64 -328q-16 -84 -35 -122t-70 -91q-73 -76 -173 -76q-30 0 -43 9v3q17 22 44 82l11 1q12 -35 51 -35q28 0 50 18.5t36 53.5t22 64t16 71z"/>
<glyph glyph-name="K" horiz-adv-x="607" unicode="K" d="M201 445q27 125 32 200l3 3q16 -3 50 -3l53 3v-3q-23 -64 -52 -200l-22 -101h2q13 0 26 9l40 30q56 43 154.5 141.5t125.5 123.5q12 -3 48 -3q35 0 52 3q-111 -83 -339 -294v-2l220 -355q-18 3 -61 3q-45 0 -63 -3q-26 43 -68 120t-73.5 132t-45.5 73q-7 7 -20 7h-1 l-28 -129q-27 -125 -32 -200l-3 -3q-16 3 -50 3l-53 -3v3q22 59 52 200z"/>
<glyph glyph-name="L" horiz-adv-x="506" unicode="L" d="M232 200q-27 -114 -24 -146q60 0 126 5.5t102 10.5l37 6l1 -4q-5 -14 -9 -33q-1 -5 -2 -19t-2 -20l-3 -3q-24 3 -59 3h-253l-53 -3v3q24 66 53 200l52 245q25 119 31 200l3 3q17 -3 51 -3l53 3v-3q-23 -64 -52 -200z"/>
<glyph glyph-name="M" horiz-adv-x="833" unicode="M" d="M284 662h26q8 -29 55 -221t81 -295l368 516h22q-7 -73 -22.5 -217.5t-25 -247.5t-16.5 -200q-14 3 -49 3q-34 0 -50 -3q43 325 56 471q-135 -179 -322 -468h-19q-13 50 -36.5 144.5t-44 172.5t-41.5 149q-128 -390 -145 -469q-10 3 -32 3q-27 0 -39 -3q156 420 234 665z "/>
<glyph glyph-name="N" horiz-adv-x="650" unicode="N" d="M196 445q25 119 32 200l3 3q16 -3 30 -3l24 2l219 -444q23 -47 34 -47q8 0 13 22l47 217q40 182 66 250l3 3q10 -3 34 -3l36 3v-3q-55 -106 -86 -250l-81 -374q-7 -31 -27 -31q-25 0 -38 24l-225 441q-17 34 -20 34q-2 0 -13 -50l-45 -209q-38 -172 -58 -230l-3 -3 q-10 3 -34 3l-36 -3v3q51 99 79 230z"/>
<glyph glyph-name="O" horiz-adv-x="691" unicode="O" d="M579 78q-101 -88 -237 -88q-111 0 -177 63.5t-66 173.5q0 108 45.5 197.5t117.5 149.5q100 84 221 84q114 0 180 -65.5t66 -176.5q0 -102 -44.5 -193t-105.5 -145zM460 614q-78 0 -141 -64q-44 -45 -79.5 -135t-35.5 -184t45.5 -145.5t121.5 -51.5q96 0 164 89 q38 50 65 138.5t27 172.5q0 180 -167 180z"/>
<glyph glyph-name="P" horiz-adv-x="522" unicode="P" d="M198 445q27 125 32 200l3 3q16 -3 50 -3q15 0 67 3.5t65 3.5q56 0 95.5 -13.5t58.5 -37t27 -47t8 -49.5q0 -2 -3 -29q-12 -77 -85 -142t-197 -65q-43 0 -72 10l-15 -79q-29 -146 -33 -200l-3 -3q-16 3 -50 3l-53 -3v3q24 66 53 200zM311 574l-56 -258q17 -10 67 -10 q153 0 178 152q5 32 5 52q0 108 -105 108q-50 0 -67 -10t-22 -34z"/>
<glyph glyph-name="Q" horiz-adv-x="701" unicode="Q" d="M541 49q2 -2 50.5 -34.5t87.5 -53.5t85 -38l-2 -6q-74 -35 -106 -57q-43 28 -90.5 69.5t-108.5 78.5q-54 -18 -115 -18q-111 0 -177 63.5t-66 173.5q0 108 45.5 197.5t117.5 149.5q100 84 221 84q114 0 180 -65.5t66 -176.5q0 -102 -44.5 -193t-105.5 -145 q-12 -11 -38 -29zM460 614q-78 0 -141 -64q-44 -45 -79.5 -135t-35.5 -184t45.5 -145.5t121.5 -51.5q96 0 164 89q38 50 65 138.5t27 172.5q0 180 -167 180z"/>
<glyph glyph-name="R" horiz-adv-x="579" unicode="R" d="M253 300l-21 -100q-28 -132 -33 -200l-3 -3q-16 3 -50 3l-53 -3v3q24 66 53 200l52 245q27 125 32 200l3 3q16 -3 50 -3q16 0 63 3.5t59 3.5q83 0 137 -34.5t54 -109.5q0 -61 -52 -123t-167 -80q25 -34 69 -105q34 -56 78.5 -116t69.5 -84l-3 -3q-19 3 -51 3 q-50 0 -70 -3q-21 36 -103 171q-62 103 -88 132h-26zM397 613q-50 0 -66 -10t-21 -34l-48 -225h43q59 0 94.5 8.5t58.5 32.5q16 17 23.5 28t13.5 35.5t6 61.5q0 53 -30 78t-74 25z"/>
<glyph glyph-name="S" horiz-adv-x="485" unicode="S" d="M236 33q44 0 91 31.5t59 86.5q5 25 5 39q0 40 -21 60.5t-63 38.5q-33 14 -56.5 26.5t-49 32.5t-38.5 46t-13 57q0 18 4 34q18 83 87 128t143 45q34 0 62 -4.5t43 -11t25.5 -13.5t13.5 -11l4 -5l2 -3q-27 -54 -41 -96l-10 -1q-25 105 -117 105q-40 0 -80 -31t-49 -75 q-3 -12 -3 -22q0 -23 11 -42.5t31 -33.5t33.5 -20.5t32.5 -14.5q65 -25 104.5 -60t39.5 -95q0 -15 -5 -38q-19 -88 -96 -142t-167 -54q-54 0 -97 11t-59 23l-16 11l-1 3q29 62 41 98l10 1q11 -47 49 -75.5t91 -28.5z"/>
<glyph glyph-name="T" horiz-adv-x="540" unicode="T" d="M322 445q25 106 22 141q-60 0 -111 -3t-73 -6l-21 -3l-1 4q8 23 14 67l3 3q24 -3 59 -3h386q37 0 61 3l1 -3q-12 -44 -14 -67l-3 -4q-65 12 -199 12q-9 -18 -38 -141l-52 -245q-28 -132 -33 -200l-3 -3q-16 3 -50 3l-53 -3v3q24 66 53 200z"/>
<glyph glyph-name="U" horiz-adv-x="651" unicode="U" d="M606 445q27 125 32 200l3 3q10 -3 34 -3l36 3v-3q-23 -64 -52 -200l-32 -150q-15 -71 -37.5 -123.5t-58.5 -95t-91.5 -64.5t-130.5 -22q-25 0 -48.5 4.5t-48.5 16t-43.5 30t-30 49t-11.5 70.5q0 32 9 76l45 209q27 125 32 200l3 3q16 -3 50 -3l53 3v-3q-23 -64 -52 -200 l-38 -176q-14 -73 -14 -101q0 -127 126 -127q49 0 86.5 14.5t60 35.5t40 55.5t25.5 62t17 68.5z"/>
<glyph glyph-name="V" horiz-adv-x="601" unicode="V" d="M352 132q142 220 284 516q11 -3 49 -3q23 0 36 3q-80 -120 -211.5 -340.5t-193.5 -317.5h-28q-16 77 -46.5 234.5t-53 268t-34.5 155.5q16 -3 59 -3q38 0 56 3q11 -200 81 -516h2z"/>
<glyph glyph-name="W" horiz-adv-x="903" unicode="W" d="M664 137q110 171 271 511q11 -3 49 -3q26 0 39 3q-79 -118 -204.5 -337.5t-190.5 -320.5h-28q-24 113 -63 344l-219 -344h-28q-16 77 -46.5 234.5t-53 268t-34.5 155.5q16 -3 59 -3q36 0 54 3q22 -253 82 -525h2q43 67 171 282q-35 199 -48 243q16 -3 59 -3q41 0 59 3 q0 -3 1.5 -35.5t5 -73.5t10 -99.5t19.5 -138t32 -164.5h2z"/>
<glyph glyph-name="X" horiz-adv-x="571" unicode="X" d="M553 -3q-17 3 -57 3t-59 -3q-57 183 -97 286q-134 -153 -234 -286q-10 3 -41 3t-43 -3q146 166 299 334q-52 129 -135 317q16 -3 55 -3t58 3q21 -77 88 -244q126 138 205 244q10 -3 41 -3t43 3q-11 -12 -106.5 -113.5t-163.5 -176.5q8 -19 59.5 -145t87.5 -216z"/>
<glyph glyph-name="Y" horiz-adv-x="591" unicode="Y" d="M395 286q-47 -232 -54 -289q-15 3 -51 3q-35 0 -52 -3q19 60 66 278q-19 52 -75 191t-75 182q16 -3 56 -3t58 3q11 -37 25.5 -79t25.5 -72t30 -80t29 -77q145 171 240 308q11 -3 41 -3q29 0 43 3q-34 -39 -86 -98.5t-76.5 -87.5t-56 -65t-51.5 -62.5t-37 -48.5z"/>
<glyph glyph-name="Z" horiz-adv-x="604" unicode="Z" d="M198 54q58 0 154 3t162 5l67 3l1 -3q-5 -14 -9 -33q-1 -4 -1.5 -8t-1 -10t-1.5 -11l-3 -3q-24 3 -70 3h-363l-106 -3l-2 4q8 8 19.5 21t14.5 16l484 541q10 12 0 12q-72 0 -200 -5t-160 -6l-1 3q5 14 9 33q1 4 1.5 8t1 10t1.5 11l3 3q24 -3 60 -3h324q76 0 127 6 q5 0 5 -4q0 -12 -41 -56l-466 -519q-7 -8 -9 -18z"/>
<glyph glyph-name="bracketleft" horiz-adv-x="361" unicode="[" d="M69 -192l190 895h215l-6 -30q-72 -5 -103.5 -15.5t-44.5 -30t-23 -66.5l-130 -611q-7 -31 -7 -52q0 -31 26 -43t104 -18l-6 -29h-215z"/>
<glyph glyph-name="backslash" horiz-adv-x="292" unicode="\" d="M208 698l72 -746h-49l-72 746h49z"/>
<glyph glyph-name="bracketright" horiz-adv-x="361" unicode="]" d="M400 703l-190 -895h-215l7 30q72 5 103.5 15.5t44 30t22.5 66.5l130 611q8 35 8 52q0 31 -26.5 43t-104.5 18l6 29h215z"/>
<glyph glyph-name="asciicircum" horiz-adv-x="518" unicode="^" d="M385 593l-155 -247h-44l191 304h42l62 -304h-45z"/>
<glyph glyph-name="underscore" horiz-adv-x="486" unicode="_" d="M459 -110l-10 -44h-477l10 44h477z"/>
<glyph glyph-name="grave" horiz-adv-x="392" unicode="`" d="M327 699l43 -126q2 -5 2 -14q0 -7 -1 -10q-1 -4 -6.5 -7.5t-11.5 -3.5q-7 0 -24 20l-91 109l4 11q35 23 70 23q7 0 15 -2z"/>
<glyph glyph-name="a" horiz-adv-x="474" unicode="a" d="M408 138q-8 -36 -8 -64q0 -32 29 -32q23 0 48 7l2 -3v-26q-60 -30 -95 -30q-26 0 -44 13t-18 40q0 17 7 47l13 52l-2 2q-54 -81 -92 -117.5t-86 -36.5q-57 0 -79.5 37.5t-22.5 89.5q0 74 46 150.5t107.5 122.5t109.5 46q53 0 80 -3q3 -1 13 -1q11 0 34 2t29 2zM353 219 q11 28 20 69.5t12 69.5l3 27q-25 10 -62 10q-43 0 -87 -43.5t-70.5 -104.5t-26.5 -114q0 -85 47 -85q25 0 76.5 53t87.5 118z"/>
<glyph glyph-name="b" horiz-adv-x="491" unicode="b" d="M263 500l-24 -116q62 55 125 55q59 0 101 -41.5t42 -109.5q0 -65 -27 -123t-67.5 -95t-86 -58.5t-85.5 -21.5q-56 0 -99 45q-18 -28 -49 -46q-18 0 -29 11q20 34 28 71l88 411q30 141 31 194l3 3q51 4 92 19q10 0 7 -10q-25 -73 -50 -188zM174 81q28 -47 70 -47 q74 0 124.5 69t50.5 170q0 51 -24 81.5t-62 30.5q-53 0 -103 -42z"/>
<glyph glyph-name="c" horiz-adv-x="395" unicode="c" d="M314 399q-55 0 -99 -67q-49 -76 -49 -173q0 -57 24.5 -88t65.5 -31q55 0 106 42h3l13 -21q-65 -71 -147 -71q-70 0 -112 44.5t-42 120.5q0 119 82 205q76 79 165 79q71 0 113 -28l2 -3l-39 -82l-11 -1q-23 74 -75 74z"/>
<glyph glyph-name="d" horiz-adv-x="494" unicode="d" d="M355 64q-74 -74 -141 -74q-61 0 -101 44.5t-40 115.5q0 136 110 227q75 62 167 62q46 0 80 -22l13 65q31 147 32 194l3 3q47 3 89 19q8 0 8 -6q0 -35 -22 -104t-26 -88l-65 -308q-25 -115 -25 -167q0 -11 2 -25l-3 -3q-20 3 -43 3q-13 0 -34 -3q-6 0 -6 3q2 38 5 64h-3z M366 115l46 220q-13 31 -31 46t-51 15q-66 0 -109 -55q-22 -28 -40 -82.5t-18 -106.5q0 -55 24 -81.5t64 -26.5q44 0 115 71z"/>
<glyph glyph-name="e" horiz-adv-x="427" unicode="e" d="M168 208q-3 -21 -3 -42q0 -63 24 -95.5t60 -32.5t80 29t65 67l6 -1q7 -44 10 -51q-30 -42 -83 -67t-115 -25q-61 0 -98 44.5t-37 108.5q0 49 17 99.5t48.5 95.5t84 73t115.5 28q53 0 77.5 -21t24.5 -56q0 -15 -3.5 -30t-19.5 -37.5t-43.5 -39.5t-82 -30.5t-127.5 -16.5z M369 364q0 39 -49 39q-105 0 -147 -161q196 8 196 122z"/>
<glyph glyph-name="f" horiz-adv-x="318" unicode="f" d="M147 236l32 149h-70q-5 0 -4 6l4 18q5 20 27 20h52l11 40q14 54 32 83.5t55 69.5q71 76 170 76q30 0 50 -14v-3q-18 -22 -44 -77l-11 -1q-12 35 -58 35q-40 0 -66.5 -29t-36.5 -74q-2 -8 -4.5 -21.5t-6 -34.5t-6.5 -34l-3 -16h112q4 0 6 -1.5t1 -4.5l-5 -25 q-3 -13 -26 -13h-97l-71 -318q-14 -65 -43 -125.5t-59 -96.5q-65 -76 -152 -76q-28 0 -45 14l-1 3q17 23 41 77l10 1q5 -16 18.5 -27t32.5 -11q51 0 88 106q8 24 18.5 71t25.5 121t23 112z"/>
<glyph glyph-name="g" horiz-adv-x="458" unicode="g" d="M375 298q0 46 -23 74t-63 28q-43 0 -66.5 -33t-23.5 -79q0 -45 22.5 -78t63.5 -33q35 0 62.5 32.5t27.5 88.5zM276 138q-23 0 -48.5 6.5t-35.5 16.5q-48 -36 -48 -62q0 -30 63 -45q8 -2 41.5 -9t47 -10.5t37.5 -10t39.5 -13.5t26.5 -15q42 -29 42 -91q0 -70 -66 -107 q-65 -36 -221 -36q-61 0 -107 24t-46 64q0 60 39 105q20 23 70 51q-31 19 -31 64q0 33 24.5 61t61.5 46q-44 39 -44 107q0 70 52 112.5t123 42.5q16 0 46 -4t38 -4q28 0 46.5 12t18.5 37q0 14 -11 26l1 4q29 7 48 23l4 -1q16 -24 16 -58q0 -28 -19.5 -47.5t-51.5 -19.5 q-17 0 -21 1l-3 -2q45 -45 45 -102q0 -77 -52.5 -121.5t-124.5 -44.5zM149 -5q-39 -28 -46 -37q-29 -35 -29 -79q0 -36 35.5 -55t67.5 -19q127 0 174 29q24 15 24 45q0 40 -33 62q-50 33 -174 53h-9.5t-9.5 1z"/>
<glyph glyph-name="h" horiz-adv-x="514" unicode="h" d="M390 180l23 105q6 31 6 50q0 27 -14 37t-47 10q-45 0 -135 -73l-28 -129q-23 -109 -28 -180l-3 -3q-13 3 -47 3l-50 -3v3q22 59 48 180l64 301q31 147 32 195l3 3q47 3 89 19q10 0 7 -10q-22 -73 -47 -187l-30 -141q96 79 182 79q85 0 85 -93q0 -25 -8 -62l-22 -104 q-23 -109 -28 -180l-3 -3q-13 3 -47 3l-50 -3v3q22 59 48 180z"/>
<glyph glyph-name="i" horiz-adv-x="268" unicode="i" d="M206 600q0 20 15.5 35.5t35.5 15.5t35.5 -15.5t15.5 -35.5t-15.5 -35.5t-35.5 -15.5t-35.5 15.5t-15.5 35.5zM144 235q27 125 28 181l3 3q47 3 92 20q8 0 8 -6q0 -33 -21.5 -95.5t-26.5 -86.5l-15 -71q-23 -109 -28 -180l-3 -3q-13 3 -47 3l-50 -3v3q23 61 48 180z"/>
<glyph glyph-name="j" horiz-adv-x="282" unicode="j" d="M219 600q0 20 15.5 35.5t35.5 15.5t35.5 -15.5t15.5 -35.5t-15.5 -35.5t-35.5 -15.5t-35.5 15.5t-15.5 35.5zM102 -63q28 151 30 159l30 139q26 121 27 176l3 3q33 2 94 25q8 0 8 -6q0 -33 -22 -95t-27 -87l-53 -253q-12 -54 -25.5 -81t-46.5 -61q-66 -69 -147 -69 q-29 0 -41 8v3q8 10 18 38t14 36l10 1q4 -12 6.5 -17t10 -10t20.5 -5q71 0 91 96z"/>
<glyph glyph-name="k" horiz-adv-x="462" unicode="k" d="M208 240q23 2 42 15q31 22 83.5 73.5t93.5 100.5q77 0 95 3l1 -3q-32 -25 -72.5 -60.5t-86.5 -79t-54 -51.5q78 -139 145 -238l-2 -3q-12 3 -55 3q-40 0 -62 -3q-13 29 -28 63l-22.5 51t-20 40.5t-29.5 47.5q-7 8 -34 11l-7 -30q-23 -109 -28 -180l-3 -3q-13 3 -47 3 l-50 -3v3q22 59 48 180l64 301q31 147 32 195l3 3q47 3 89 19q10 0 7 -10q-21 -69 -47 -187z"/>
<glyph glyph-name="l" horiz-adv-x="261" unicode="l" d="M176 82q0 -23 8.5 -31.5t25.5 -8.5q5 0 52 7l2 -3v-26q-51 -30 -111 -30q-62 0 -62 71q0 12 20 107l65 314q31 147 32 194l3 3q47 3 89 19q8 0 7 -10q-21 -67 -47 -188l-72 -342q-12 -54 -12 -76z"/>
<glyph glyph-name="m" horiz-adv-x="752" unicode="m" d="M486 361l-1 -1zM458 180q-25 -117 -29 -180l-2 -3q-18 3 -48 3l-49 -3v3q20 55 47 180l21 98q7 31 7 54q0 27 -12 37t-38 10q-54 0 -135 -82l-25 -117q-25 -117 -29 -180l-3 -3q-16 3 -47 3l-49 -3l-1 3q24 69 48 180l11 55q17 82 17 134q0 23 -3 44l2 3q42 4 82 21 q8 0 8 -10q1 -9 1 -24q0 -21 -3 -51l2 -3q88 90 163 90q85 0 94 -77q50 43 87.5 60t78.5 17q52 0 73.5 -21t21.5 -61q0 -26 -11 -77l-21 -100q-23 -110 -28 -180l-3 -3q-13 3 -47 3l-50 -3v3q22 59 48 180l24 112q5 27 5 40q0 27 -14.5 38t-45.5 11q-28 0 -51.5 -13.5 t-66.5 -50.5q-2 -17 -6 -36q-3 -16 -12 -50.5t-12 -50.5z"/>
<glyph glyph-name="n" horiz-adv-x="504" unicode="n" d="M471 180q-25 -117 -29 -180l-2 -3q-18 3 -48 3l-49 -3v3q20 55 47 180l21 98q7 31 7 54q0 27 -12 37t-38 10q-27 0 -67 -20t-81 -62l-25 -117q-25 -117 -29 -180l-3 -3q-16 3 -47 3l-49 -3l-1 3q24 69 48 180l11 55q17 82 17 134q0 23 -3 44l2 3q42 4 82 21q8 0 8 -10 q1 -9 1 -24q0 -21 -3 -51l2 -3q88 90 176 90q95 0 95 -98q0 -29 -7 -60q-4 -16 -12 -50.5t-12 -50.5z"/>
<glyph glyph-name="o" horiz-adv-x="490" unicode="o" d="M327 398q-54 0 -96 -50t-56 -120q-8 -42 -8 -68q0 -129 94 -129q58 0 98 52q58 73 58 200q0 115 -90 115zM146 346q81 93 194 93q86 0 126 -47t40 -118q0 -68 -33 -134.5t-88 -106.5q-59 -43 -142 -43q-81 0 -125 47.5t-44 118.5q0 107 72 190z"/>
<glyph glyph-name="p" horiz-adv-x="506" unicode="p" d="M125 235q16 76 16 131q0 26 -3 47l2 3q42 4 82 21q8 0 8 -10q1 -8 1 -22q0 -28 -2 -46l3 1q69 79 141 79q61 0 100.5 -46.5t39.5 -113.5q0 -71 -33.5 -132t-82.5 -101q-68 -56 -155 -56q-48 0 -84 22l-10 -44q-27 -125 -32 -200l-3 -3q-13 3 -47 3l-50 -3v3q21 57 52 200 zM219 301l-48 -224q27 -43 74 -43q86 0 132 78q43 71 43 161q0 54 -22.5 83.5t-59.5 29.5q-27 0 -61 -23.5t-58 -61.5z"/>
<glyph glyph-name="q" horiz-adv-x="488" unicode="q" d="M334 -32l12 55q-46 -33 -108 -33q-83 0 -123 48.5t-40 118.5q0 119 92 209q75 73 171 73q75 0 116 -44l21 28q14 19 27 19q9 0 9 -12q0 -8 -1 -13l-96 -449q-27 -125 -32 -200l-3 -3q-13 3 -47 3l-50 -3v3q21 57 52 200zM410 326q-27 71 -85 71q-67 0 -108 -62 q-21 -31 -35.5 -80.5t-14.5 -96.5q0 -65 31.5 -92.5t74.5 -27.5q37 0 82 30z"/>
<glyph glyph-name="r" horiz-adv-x="347" unicode="r" d="M234 354h2q29 33 69.5 59t73.5 26q18 0 40 -7l3 -4l-36 -79l-8 -2q-15 14 -55 14q-35 0 -66 -23q-22 -18 -34 -52l-23 -106q-25 -117 -29 -180l-3 -3q-16 3 -47 3l-49 -3l-1 3q24 69 48 180l11 55q17 82 17 134q0 23 -3 44l2 3q42 4 82 21q8 0 8 -10q1 -9 1 -24 q0 -19 -3 -49z"/>
<glyph glyph-name="s" horiz-adv-x="366" unicode="s" d="M62 96l15 1q9 -31 39.5 -49t62.5 -18q36 0 62 20t26 59q0 45 -66 85q-61 38 -77 71q-9 18 -9 38q0 48 28 80t65 44t78 12q55 0 106 -32l2 -3l-28 -67l-14 -1q-6 25 -26.5 44t-54.5 19q-33 0 -55 -15.5t-22 -46.5q0 -35 19.5 -57t56.5 -41q77 -39 77 -109 q0 -61 -47.5 -100.5t-127.5 -39.5q-70 0 -137 27z"/>
<glyph glyph-name="t" horiz-adv-x="302" unicode="t" d="M179 429q24 117 26 124l3 3q19 1 30 4t26.5 9.5t20.5 8.5q10 0 7 -10q-20 -67 -35 -139h108q4 0 6 -1.5t1 -4.5l-5 -25q-3 -13 -27 -13h-92l-31 -143q-6 -29 -16 -71.5t-13 -58.5q-4 -16 -4 -32q0 -35 24 -35h3q39 0 69 15l7 -28q-56 -42 -130 -42q-28 0 -43 18.5 t-15 48.5q0 4 1.5 12t1.5 10q2 13 7.5 37t13.5 58t13 57l34 154h-64q-4 0 -3 4l7 36q1 4 4 4h65z"/>
<glyph glyph-name="u" horiz-adv-x="514" unicode="u" d="M361 64q-85 -74 -159 -74q-96 0 -96 93q0 18 5 43l26 123q25 117 28 180l3 3q13 -3 47 -3l50 3v-3q-22 -59 -48 -180l-21 -99q-7 -32 -7 -55q0 -29 13.5 -39.5t42.5 -10.5q48 0 127 74l28 130q25 117 28 180l3 3q13 -3 47 -3l50 3v-3q-22 -59 -48 -180l-12 -57 q-22 -103 -24 -192l-3 -3q-20 3 -43 3q-15 0 -36 -3q-8 0 -8 3l9 64h-2z"/>
<glyph glyph-name="v" horiz-adv-x="414" unicode="v" d="M176 -3q-38 295 -66 435q14 -3 57 -3q33 0 45 3q1 -17 5 -80t6.5 -90.5t8 -75.5t12.5 -87q27 43 56 98.5t65 127t55 107.5q7 -3 30 -3q30 0 39 3q-175 -289 -253 -435q-7 3 -25 3q-25 0 -35 -3z"/>
<glyph glyph-name="w" horiz-adv-x="664" unicode="w" d="M178 -4q-35 265 -68 435q14 -3 56 -3q33 0 45 3q16 -234 36 -342h5q42 67 122 215q-1 17 -5.5 61t-6.5 67q14 -3 54 -3q34 0 46 3v-52q0 -166 16 -290h7q92 156 184 342q7 -3 30 -3q30 0 39 3q-90 -144 -260 -435q-7 3 -32 3q-30 0 -40 -3q-15 125 -26 236 q-39 -66 -130 -237q-7 3 -31 3q-31 0 -41 -3z"/>
<glyph glyph-name="x" horiz-adv-x="455" unicode="x" d="M228 207l-122 225q15 -3 57 -3q37 0 55 3q24 -60 76 -163q127 129 157 163q10 -3 36 -3q34 0 46 3l-217 -202q45 -94 123 -233q-14 3 -50 3q-42 0 -58 -3q-21 51 -80 168q-120 -129 -154 -168q-9 3 -43 3q-26 0 -37 -3z"/>
<glyph glyph-name="y" horiz-adv-x="486" unicode="y" d="M110 432q13 -3 51 -3q36 0 50 3q12 -107 60 -344h2q101 147 205 344q9 -3 38 -3q33 0 44 3q-62 -89 -226 -338.5t-206 -330.5q-15 5 -48 5q-18 0 -36 -5q87 107 158 218q-10 66 -42 221t-50 230z"/>
<glyph glyph-name="z" horiz-adv-x="416" unicode="z" d="M146 50q54 0 117.5 3t99.5 5l36 3l1 -3q-3 -7 -8 -31q-1 -4 -1.5 -7.5t-1 -9t-1.5 -10.5l-3 -3q-23 3 -55 3h-226l-82 -3l-2 4q3 3 29 31l309 347q-51 -1 -109 -3.5t-90 -5.5l-32 -2l-1 3q3 7 8 31q1 4 1.5 7.5t1 9t1.5 10.5l3 3q22 -3 55 -3h204q13 0 32 1.5t34 3 t16 1.5q6 0 4 -6q-2 -2 -39 -42z"/>
<glyph glyph-name="braceleft" horiz-adv-x="278" unicode="{" d="M298 562l-37 -176q-14 -67 -33 -95t-60 -44q43 -20 43 -69q0 -25 -12 -83l-34 -159q-5 -24 -5 -51q0 -75 49 -75l-5 -22q-62 2 -90 21.5t-28 69.5q0 24 10 72l36 170q5 27 5 45q0 59 -52 73l3 15q76 21 97 116l39 184q18 84 57.5 117.5t117.5 35.5l-4 -22 q-36 -10 -60 -35.5t-37 -87.5z"/>
<glyph glyph-name="bar" horiz-adv-x="210" unicode="|" d="M81 -232h-49l197 930h50z"/>
<glyph glyph-name="braceright" horiz-adv-x="278" unicode="}" d="M84 -68l38 176q14 68 32.5 95.5t59.5 43.5q-42 20 -42 69q0 25 12 83l34 159q5 24 5 51q0 75 -49 75l5 22q62 -2 90 -21.5t28 -69.5q0 -24 -10 -72l-36 -170q-5 -27 -5 -45q0 -59 52 -73l-3 -15q-76 -21 -97 -116l-39 -184q-18 -84 -57.5 -117.5t-117.5 -35.5l4 22 q36 10 59.5 35.5t36.5 87.5z"/>
<glyph glyph-name="asciitilde" horiz-adv-x="449" unicode="~" d="M70 209q21 51 66.5 89.5t89.5 38.5q21 0 67 -32q45 -33 66 -33q26 0 58.5 16.5t54.5 50.5l16 -6q-25 -49 -57 -78t-52 -35.5t-37 -6.5q-29 0 -68 33q-40 32 -67 32q-28 0 -64.5 -20t-59.5 -52z"/>
<glyph glyph-name="uni00A0" horiz-adv-x="250" unicode=" "/>
<glyph glyph-name="exclamdown" horiz-adv-x="228" unicode="¡" d="M253 385l-1 -4q-22 -38 -65 -54h-4q-39 14 -43 54l1 4q24 44 65 54h4q23 -5 32.5 -17t10.5 -37zM66 -229q-18 0 -30.5 13t-12.5 37q0 11 3 23q8 37 32.5 99t34.5 94q16 47 28.5 89.5t19 65.5t7.5 27q5 20 18 20q11 0 11 -11q0 -10 -4 -39.5t-10.5 -74.5t-10.5 -77 q-4 -36 -6 -95t-10 -98q-8 -37 -29 -55t-41 -18z"/>
<glyph glyph-name="cent" horiz-adv-x="440" unicode="¢" d="M255 143l63 296q-40 -14 -71.5 -50t-42.5 -90q-5 -21 -5 -47q0 -79 56 -109zM348 578h34l-20 -91h8q63 0 115 -29l1 -2l-36 -74l-12 -1q-24 66 -77 66q-1 0 -3.5 -0.5t-3.5 -0.5l-67 -313q5 -1 17 -1q61 0 111 56h3l15 -14q-30 -43 -72 -66.5t-84 -24.5l-21 -95h-34 l21 97q-58 8 -91.5 47t-33.5 98q0 23 6 49q16 78 75 133t129 70z"/>
<glyph glyph-name="sterling" horiz-adv-x="440" unicode="£" d="M290 388l-14 -67h118q8 0 6 -6l-4 -21q-3 -12 -26 -12h-102q-29 -131 -111 -196h5q46 0 72 -11t43.5 -22t42.5 -11q68 0 107 41l15 -10q-25 -38 -65 -60.5t-85 -22.5q-43 0 -79.5 28t-77.5 28q-40 0 -45 -23q-8 -33 -45 -33q-25 0 -25 20v6q5 21 58 47q78 49 110 203 l4 16h-60q-6 0 -5 6l3 13q5 20 27 20h43l4 19q12 59 33 92.5t66 70.5q82 67 181 67q26 0 38 -8l1 -3q-16 -19 -40 -72l-11 -1q-11 31 -44 31q-40 0 -84 -39.5t-54 -89.5z"/>
<glyph glyph-name="currency" horiz-adv-x="440" unicode="¤" d="M243 113q-59 0 -100 36l-55 -53l-32 40l63 43q-20 32 -20 72q0 20 4 37q13 63 63 110l-44 41l46 40l35 -51q55 35 114 35q61 0 101 -37l58 55l30 -41l-64 -44q19 -31 19 -70q0 -21 -4 -38q-12 -59 -60 -107l43 -44l-44 -38l-35 51q-56 -37 -118 -37zM163 289 q-3 -12 -3 -34q0 -44 24.5 -72t67.5 -28q51 0 91.5 39t52.5 94q4 22 4 32q0 44 -25 72.5t-65 28.5q-51 0 -93.5 -39t-53.5 -93z"/>
<glyph glyph-name="yen" horiz-adv-x="440" unicode="¥" d="M96 229q-5 0 -4 6l3 14q5 20 26 20h100q-11 33 -47.5 154.5t-47.5 151.5q14 -3 51 -3q34 0 50 3q29 -165 68 -273q24 28 49.5 64.5t41 60t47.5 75.5t45 73q9 -3 37 -3q25 0 37 3q-107 -136 -230 -306h128q8 0 6 -6l-5 -21q-3 -13 -25 -13h-121l-12 -63h135q8 0 6 -6 l-4 -20q-3 -13 -26 -13h-119q-22 -119 -23 -130q-13 3 -45 3q-31 0 -46 -3q12 38 33 130h-130q-4 0 -4 2v4l3 13q5 20 26 20h114q9 37 14 63h-131z"/>
<glyph glyph-name="brokenbar" horiz-adv-x="205" unicode="¦" d="M163 161l-77 -362h-48l77 362h48zM272 674l-77 -362h-48l77 362h48z"/>
<glyph glyph-name="section" horiz-adv-x="483" unicode="§" d="M212 407q-25 35 -25 76q0 11 4 33q11 53 66.5 97.5t126.5 44.5q32 0 60 -13t38 -22t28 -28l1 -5l-32 -73l-14 -2q-17 47 -39.5 75t-59.5 28q-36 0 -65.5 -23t-36.5 -59q-2 -7 -2 -21q0 -50 61 -78q161 -73 161 -182q0 -19 -4 -36q-18 -84 -105 -140q24 -34 24 -76 q0 -17 -3 -33q-11 -53 -67 -97.5t-127 -44.5q-32 0 -59.5 13t-37 21.5t-28.5 28.5l-2 5l32 73l15 2q17 -47 39 -75t59 -28q36 0 65.5 23t36.5 59q3 10 3 21q0 49 -62 78q-160 73 -160 182q0 19 4 36q18 84 105 140zM230 387q-50 -42 -58 -82q-3 -12 -3 -24q0 -16 4.5 -30.5 t15.5 -28.5t19 -23t27.5 -22l27 -18t30.5 -18t27 -15q21 -12 36 -27q50 42 58 82q3 12 3 24q0 16 -4.5 30.5t-15.5 28.5t-19 23t-27.5 22l-27 18t-30.5 18t-27 15q-21 12 -36 27z"/>
<glyph glyph-name="dieresis" horiz-adv-x="375" unicode="¨" d="M336 575q4 19 20.5 32.5t35.5 13.5q16 0 26.5 -10.5t10.5 -26.5q0 -6 -1 -9q-4 -19 -20.5 -32.5t-35.5 -13.5q-16 0 -26.5 10.5t-10.5 26.5q0 6 1 9zM176 575q4 19 20.5 32.5t35.5 13.5q16 0 26.5 -10.5t10.5 -26.5q0 -6 -1 -9q-4 -19 -20.5 -32.5t-35.5 -13.5 q-16 0 -26.5 10.5t-10.5 26.5q0 6 1 9z"/>
<glyph glyph-name="copyright" horiz-adv-x="633" unicode="©" d="M435 557q-105 0 -193.5 -73.5t-111.5 -177.5q-6 -27 -6 -52q0 -86 57 -142.5t148 -56.5q104 0 193 73.5t111 177.5q6 27 6 53q0 86 -57 142t-147 56zM322 23q-102 0 -165.5 63.5t-63.5 160.5q0 29 6 59q25 117 125.5 199.5t217.5 82.5q101 0 164.5 -63.5t63.5 -159.5 q0 -29 -6 -59q-25 -117 -125 -200t-217 -83zM485 216q-23 -26 -58.5 -45t-73.5 -19q-57 0 -92 34.5t-35 85.5q0 14 3 29q14 64 70 110t121 46q40 0 63.5 -7.5t32.5 -7.5l-3 -78l-21 -4q-6 38 -23.5 56t-57.5 18q-37 0 -70.5 -28.5t-47.5 -94.5q-5 -23 -5 -41q0 -41 20 -65 t60 -24q57 0 101 50z"/>
<glyph glyph-name="ordfeminine" horiz-adv-x="297" unicode="ª" d="M307 358q-17 0 -26 12t-8 27q-30 -23 -49.5 -31t-43.5 -8q-28 0 -46 15t-18 40q0 5 2 15q13 60 121 86l61 15q5 25 5 37q0 46 -41 46q-55 0 -60 -27q-2 -8 0 -13q1 -2 -1 -12q-5 -21 -30 -21q-22 0 -22 19q0 1 0.5 3t0.5 3q6 28 45.5 50.5t73.5 22.5q87 0 87 -77 q0 -14 -5 -37l-16 -75q-6 -27 -6 -41q0 -16 8 -16q6 0 13 5l7 -16q-24 -22 -52 -22zM295 502q-66 -16 -92.5 -31.5t-31.5 -39.5q-2 -8 -2 -11q0 -30 38 -30q27 0 71 33z"/>
<glyph glyph-name="guillemotleft" horiz-adv-x="536" unicode="«" d="M336 215q46 -57 95 -168l-33 -24q-70 113 -127 168q-11 11 -17 16l3 16l24 16q86 60 199 168l22 -24q-101 -116 -166 -168zM173 215q46 -57 95 -168l-34 -24q-70 113 -127 168q-11 11 -17 16l3 16l24 16q86 60 199 168l23 -24q-101 -116 -166 -168z"/>
<glyph glyph-name="logicalnot" horiz-adv-x="560" unicode="¬" d="M511 133l48 224h-459l9 44h513l-57 -268h-54z"/>
<glyph glyph-name="uni00AD" horiz-adv-x="333" unicode="­" d="M324 236h-226q-12 0 -12 13t12.5 27t21.5 14h229q10 0 10 -12v-6q-2 -9 -14 -22.5t-21 -13.5z"/>
<glyph glyph-name="registered" horiz-adv-x="633" unicode="®" d="M435 557q-105 0 -193.5 -73.5t-111.5 -177.5q-6 -27 -6 -52q0 -86 57 -142.5t148 -56.5q104 0 193 73.5t111 177.5q6 27 6 53q0 86 -57 142t-147 56zM322 23q-102 0 -165.5 63.5t-63.5 160.5q0 29 6 59q25 117 125.5 199.5t217.5 82.5q101 0 164.5 -63.5t63.5 -159.5 q0 -29 -6 -59q-25 -117 -125 -200t-217 -83zM455 370q2 12 2 17q0 34 -42 34q-39 0 -45 -25l-18 -84h32q27 0 45.5 11.5t25.5 46.5zM510 370q-6 -28 -26.5 -47t-47.5 -27l30 -82q8 -22 31 -22q5 0 8 1v-17q-18 -7 -37 -7q-41 0 -54 35l-31 80q-4 4 -36 4l-15 -72 q-5 -20 7 -21l14 -2q10 -1 10 -4v-2l-4 -16l-2 -2q-41 2 -59 2l-61 -2l-2 2l4 17q1 4 11 5l17 2q14 2 18 21l38 180q1 3 1 7q0 18 -19 18h-11q-9 0 -7 5l4 17l3 2h136q44 0 62.5 -18t18.5 -43q0 -9 -1 -14z"/>
<glyph glyph-name="macron" horiz-adv-x="397" unicode="¯" d="M427 529h-244q-9 0 -9 10q0 1 0.5 2.5t0.5 2.5q2 10 11 19.5t17 9.5h244q11 0 11 -11q0 -10 -10.5 -21.5t-20.5 -11.5z"/>
<glyph glyph-name="degree" horiz-adv-x="267" unicode="°" d="M146 525q9 42 44.5 71t76.5 29q36 0 58 -22t22 -56q0 -15 -2 -22q-9 -41 -44.5 -70t-76.5 -29q-36 0 -58.5 22t-22.5 56q0 10 3 21zM311 524q2 12 2 17q0 23 -13 39.5t-39 16.5q-31 0 -54 -22t-29 -51q-1 -5 -1 -16q0 -23 13.5 -38.5t39.5 -15.5q29 0 52 21.5t29 48.5z "/>
<glyph glyph-name="plusminus" d="M476 68l-11 -49h-395l10 49h396zM362 342h172l-11 -49h-172l-37 -174h-51l37 174h-172l11 49h172l37 174h51z" unicode="±"/>
<glyph glyph-name="two.superior" horiz-adv-x="307" unicode="²" d="M263 398q33 0 87 4q-5 -16 -6 -20q-2 -12 -2 -20q-35 2 -81 2h-139q12 57 118 127q43 30 63 52.5t28 60.5q2 12 2 17q0 23 -13 33t-29 10q-53 0 -60 -29q-1 -5 0 -12.5t0 -11.5q-2 -11 -13 -17.5t-20 -6.5q-8 0 -15 6t-7 14q0 26 35.5 53.5t88.5 27.5q39 0 66 -15t27 -49 q0 -5 -2 -19q-7 -32 -34.5 -59t-80.5 -60q-75 -47 -84 -88h71z"/>
<glyph glyph-name="three.superior" horiz-adv-x="307" unicode="³" d="M321 624q1 4 1 12q0 28 -33 28q-19 0 -38.5 -9t-23.5 -26q-3 -9 -5 -13.5t-9 -10t-18 -5.5q-9 0 -14 4t-6 8t0 6q5 20 39.5 45t91.5 25q35 0 54.5 -12.5t19.5 -34.5q0 -8 -1 -12q-8 -39 -66 -68q25 -3 44.5 -20.5t19.5 -47.5q0 -13 -2 -20q-11 -51 -60.5 -83t-110.5 -32 q-28 0 -54.5 10t-26.5 24q0 9 9.5 16t18.5 7q15 0 23 -14q11 -18 46 -18q24 0 54 18.5t40 63.5q2 12 2 16q0 48 -67 48q-4 0 -20 -2l3 24q34 5 58 24t31 49z"/>
<glyph glyph-name="acute" horiz-adv-x="341" unicode="´" d="M324 703q6 2 15 2q31 0 50 -23l1 -11l-138 -109q-23 -19 -35 -19q-11 0 -11 11q0 10 18 30z"/>
<glyph glyph-name="uni00B5" horiz-adv-x="486" unicode="µ" d="M51 -234q-13 0 -27 15t-14 37q0 8 1 13q5 24 24 76t26 85q3 14 8.5 62t12.5 80l40 188l13 107q13 0 44.5 4.5t39.5 5.5q-10 -64 -17 -96l-42 -196q-6 -29 -6 -51q0 -61 51 -61q39 0 78 19t62 45l70 330q14 0 42.5 4.5t34.5 5.5l-67 -315q-11 -57 -11 -66q0 -21 19 -21 q17 0 43 42l22 -11q-25 -41 -48 -59.5t-60 -18.5q-24 0 -39.5 15.5t-15.5 39.5q0 5 2 15q-78 -70 -160 -70q-38 0 -52 23q-12 0 -14 -9q-6 -32 -6 -62q0 -15 1.5 -43t1.5 -39q0 -19 -3 -34q-6 -29 -21 -44.5t-33 -15.5z"/>
<glyph glyph-name="paragraph" horiz-adv-x="602" unicode="¶" d="M545 645l100 3v-3q-23 -64 -52 -200l-102 -477q-27 -125 -32 -200l-3 -3q-64 3 -98 3l-99 -3l-1 3q24 68 52 200l68 317q-14 -3 -33 -3q-192 0 -192 143q0 26 6 56q14 66 74 116t152 50q43 0 98 -1t62 -1zM489 574l-156 -735q-1 -4 -1 -11q0 -27 33 -27q40 0 49 38 l156 735q1 5 1 12q0 26 -34 26q-40 0 -48 -38z"/>
<glyph glyph-name="periodcentered" horiz-adv-x="250" unicode="·" d="M123 251v4q13 38 54 54h4q41 -14 54 -54v-4q-14 -44 -54 -54h-4q-24 5 -35.5 17t-18.5 37z"/>
<glyph glyph-name="cedilla" horiz-adv-x="541" unicode="¸" d="M282 -96q-27 0 -47 -6l-4 6l60 96h34l-39 -67q12 3 26 3q27 0 43.5 -13.5t16.5 -35.5q0 -3 -2 -13q-7 -32 -42 -53t-81 -21q-34 0 -70 17q2 14 16 26q35 -14 55 -14q50 0 59 40q1 4 1 11q0 24 -26 24z"/>
<glyph glyph-name="one.superior" horiz-adv-x="307" unicode="¹" d="M252 492l18 85q5 27 5 33q0 9 -8 9q-28 0 -74 -20l-3 29q104 35 151 60h7q2 0 2 -2v-2l-1 -2q-11 -34 -17 -64l-26 -126q-17 -78 -21 -128l-1 -2q-9 2 -34 2l-34 -2l-1 2q22 56 37 128z"/>
<glyph glyph-name="ordmasculine" horiz-adv-x="349" unicode="º" d="M286 541q-36 0 -61 -29.5t-35 -72.5q-3 -15 -3 -30q0 -33 16 -55.5t50 -22.5q27 0 53.5 20t36.5 68q6 25 6 46q0 37 -16.5 56.5t-46.5 19.5zM130 429q14 64 58.5 100.5t108.5 36.5q57 0 83.5 -26.5t26.5 -69.5q0 -23 -3 -35q-11 -55 -56 -93.5t-112 -38.5q-48 0 -78.5 28 t-30.5 72q0 13 3 26z"/>
<glyph glyph-name="guillemotright" horiz-adv-x="536" unicode="»" d="M227 215q-46 57 -95 168l33 24q70 -113 127 -168q11 -11 17 -16l-3 -16l-24 -16q-86 -60 -199 -168l-22 24q101 116 166 168zM390 215q-46 57 -95 168l34 24q70 -113 127 -168q11 -11 17 -16l-3 -16l-24 -16q-86 -60 -199 -168l-23 24q101 116 166 168z"/>
<glyph glyph-name="onequarter" horiz-adv-x="660" unicode="¼" d="M238 443l18 85q6 32 6 33q0 9 -9 9q-27 0 -73 -20l-4 29q107 36 152 60h6q4 0 2 -6q-11 -34 -17 -64l-27 -126q-16 -71 -20 -128l-1 -2q-9 2 -34 2l-34 -2l-1 2q20 50 36 128zM503 -81q17 44 30 99h-144l-2 12q70 77 201 218l29 -10q-33 -38 -95.5 -105t-74.5 -81h93 l16 77q1 7 11 17q21 21 31 21q4 0 8 -0.5t7.5 -3t2.5 -6.5l-22 -105h49l-13 -34h-43q-12 -65 -14 -99l-2 -2q-8 2 -33 2l-35 -2v2zM685 601l39 -8l-597 -655l-41 8z"/>
<glyph glyph-name="onehalf" horiz-adv-x="660" unicode="½" d="M240 443l18 85q6 32 6 33q0 9 -9 9q-27 0 -73 -20l-4 29q107 36 152 60h6q4 0 2 -6q-11 -34 -17 -64l-27 -126q-16 -71 -20 -128l-2 -2q-8 2 -33 2l-35 -2v2q20 50 36 128zM526 -45q34 0 88 4q-5 -16 -6 -20q-2 -12 -2 -20q-35 2 -81 2h-139q12 57 118 127q43 30 63 52.5 t28 60.5q2 12 2 17q0 23 -13 33t-29 10q-53 0 -60 -29q-1 -5 0 -12.5t0 -11.5q-2 -11 -13 -17.5t-20 -6.5q-8 0 -15 6t-7 14q0 26 35.5 53.5t88.5 27.5q39 0 66 -15t27 -49q0 -3 -1.5 -10t-1.5 -9q-7 -32 -34.5 -59t-79.5 -60q-76 -47 -85 -88h71zM660 601l40 -8l-598 -655 l-40 8z"/>
<glyph glyph-name="threequarters" horiz-adv-x="660" unicode="¾" d="M507 -79q17 44 30 99h-144l-1 12q111 122 200 218l29 -10q-33 -38 -95 -104.5t-74 -81.5h93l16 77q1 7 11 17q21 21 30 21q4 0 8 -0.5t8 -3t3 -6.5l-22 -105h49l-14 -34h-42q-13 -73 -15 -99l-1 -2q-9 2 -34 2l-34 -2zM308 573q1 4 1 12q0 28 -33 28q-19 0 -39 -9 t-24 -26q-8 -24 -21 -28q-5 -1 -10 -1q-9 0 -13.5 4t-5.5 8t0 6q5 20 39 45t91 25q35 0 54.5 -12.5t19.5 -34.5q0 -8 -1 -12q-8 -39 -66 -68q25 -3 44.5 -20.5t19.5 -47.5q0 -13 -2 -20q-11 -51 -60.5 -83t-110.5 -32q-28 0 -54.5 10t-26.5 24q0 9 9.5 16t18.5 7 q15 0 23 -14q11 -18 47 -18q24 0 53.5 18.5t39.5 63.5q2 12 2 16q0 48 -66 48q-5 0 -21 -2l3 24q34 5 58 24t31 49zM690 601l39 -8l-597 -655l-40 8z"/>
<glyph glyph-name="questiondown" horiz-adv-x="405" unicode="¿" d="M364 385l-1 -4q-22 -38 -65 -54h-4q-39 14 -43 54l1 4q24 44 65 54h4q23 -5 32.5 -17t10.5 -37zM171 -190q68 0 143 94l12 -1l2 -67l-4 -4q-90 -62 -171 -62q-65 0 -101 30.5t-36 83.5q0 20 4 37q6 28 20 52t37 44.5t39.5 32t43.5 28.5q46 29 62 50q26 37 34 73l9 44 q3 10 15 10q6 0 9 -2.5t2 -7.5l-10 -46q-6 -29 -12.5 -49t-29.5 -52.5t-59 -59.5q-38 -29 -57.5 -54t-26.5 -59q-3 -15 -3 -30q0 -38 21 -61.5t57 -23.5z"/>
<glyph glyph-name="Agrave" horiz-adv-x="633" unicode="À" d="M468 276q-20 115 -49 246h-2q-8 -13 -67.5 -104.5t-90.5 -141.5q16 0 53 -1t51 -1q39 0 105 2zM230 228q-103 -168 -133 -231q-11 3 -44 3q-23 0 -36 -3q268 400 436 661h28q18 -84 47 -236.5t51.5 -266.5t34.5 -158q-16 3 -59 3q-33 0 -51 -3q-4 79 -28 231 q-76 2 -117 2q-53 0 -129 -2zM430 818l103 -84q11 -10 11 -18q0 -7 -6 -12.5t-13 -5.5q-15 0 -40 12l-141 63q35 28 86 45z"/>
<glyph glyph-name="Aacute" horiz-adv-x="633" unicode="Á" d="M468 276q-20 115 -49 246h-2q-8 -13 -67.5 -104.5t-90.5 -141.5q16 0 53 -1t51 -1q39 0 105 2zM230 228q-103 -168 -133 -231q-11 3 -44 3q-23 0 -36 -3q268 400 436 661h28q18 -84 47 -236.5t51.5 -266.5t34.5 -158q-16 3 -59 3q-33 0 -51 -3q-4 79 -28 231 q-76 2 -117 2q-53 0 -129 -2zM563 820q39 -19 51 -52l-156 -58q-31 -12 -45 -12q-12 0 -12 12q0 13 20 24z"/>
<glyph glyph-name="Acircumflex" horiz-adv-x="633" unicode="Â" d="M468 276q-20 115 -49 246h-2q-8 -13 -67.5 -104.5t-90.5 -141.5q16 0 53 -1t51 -1q39 0 105 2zM230 228q-103 -168 -133 -231q-11 3 -44 3q-23 0 -36 -3q268 400 436 661h28q18 -84 47 -236.5t51.5 -266.5t34.5 -158q-16 3 -59 3q-33 0 -51 -3q-4 79 -28 231 q-76 2 -117 2q-53 0 -129 -2zM522 805q29 -47 81 -94l-20 -21q-56 29 -93 62q-60 -38 -120 -62l-10 21q51 33 119 94h43z"/>
<glyph glyph-name="Atilde" horiz-adv-x="633" unicode="Ã" d="M468 276q-20 115 -49 246h-2q-8 -13 -67.5 -104.5t-90.5 -141.5q16 0 53 -1t51 -1q39 0 105 2zM229 228q-98 -160 -132 -231q-11 3 -44 3q-23 0 -36 -3q268 400 436 661h28q18 -84 47 -236.5t51.5 -266.5t34.5 -158q-16 3 -59 3q-33 0 -51 -3q-4 79 -28 231q-76 2 -117 2 q-54 0 -130 -2zM552 744q33 0 61 52l23 -6q-38 -90 -106 -90q-26 0 -59 26q-32 22 -49 22q-34 0 -59 -48l-23 5q39 89 99 89q32 0 66 -28q26 -22 47 -22z"/>
<glyph glyph-name="Adieresis" horiz-adv-x="633" unicode="Ä" d="M468 276q-20 115 -49 246h-2q-8 -13 -67.5 -104.5t-90.5 -141.5q16 0 53 -1t51 -1q39 0 105 2zM230 228q-103 -168 -133 -231q-11 3 -44 3q-23 0 -36 -3q268 400 436 661h28q18 -84 47 -236.5t51.5 -266.5t34.5 -158q-16 3 -59 3q-33 0 -51 -3q-4 79 -28 231 q-76 2 -117 2q-53 0 -129 -2zM551 709q4 19 20 32t35 13q16 0 26.5 -10t10.5 -25q0 -7 -1 -10q-4 -19 -20 -32t-35 -13q-16 0 -26.5 10t-10.5 26q0 6 1 9zM311 709q4 19 20 32t35 13q16 0 26.5 -10t10.5 -25q0 -7 -1 -10q-4 -19 -20 -32t-35 -13q-16 0 -26.5 10t-10.5 26 q0 6 1 9z"/>
<glyph glyph-name="Aring" horiz-adv-x="633" unicode="Å" d="M468 276q-20 115 -49 246h-2q-8 -13 -67.5 -104.5t-90.5 -141.5q16 0 53 -1t51 -1q39 0 105 2zM389 714q7 34 38 58.5t66 24.5q30 0 51 -19t21 -48q0 -4 -2 -16q-6 -27 -27.5 -49t-49.5 -30q17 -81 45 -231t49.5 -257t33.5 -150q-16 3 -59 3q-33 0 -51 -3q-4 79 -28 231 q-76 2 -117 2q-53 0 -129 -2q-103 -168 -133 -231q-11 3 -44 3q-23 0 -36 -3q234 348 420 637q-23 6 -36.5 23.5t-13.5 40.5q0 6 2 16zM488 770q-23 0 -40 -16.5t-22 -39.5q-2 -8 -2 -13q0 -18 10.5 -30.5t29.5 -12.5q22 0 39.5 17t22.5 39q1 5 1 14q0 19 -10.5 30.5 t-28.5 11.5z"/>
<glyph glyph-name="AE" horiz-adv-x="802" unicode="Æ" d="M466 325q0 19 1.5 91t2.5 118h-2q-71 -91 -154 -208q60 -2 90 -2q8 0 29 0.5t33 0.5zM281 278q-119 -171 -184 -281q-11 3 -44 3q-23 0 -36 -3q30 41 135.5 188t184 251t166.5 210v-1l3 3q16 -3 50 -3h213q37 0 61 3l1 -3q-2 -7 -8 -31q-2 -8 -4 -26l-3 -4 q-75 10 -181 10q-57 0 -75 -9t-20 -39v-70q0 -96 1 -143q109 0 227 10l2 -3q-6 -13 -9 -28q-3 -14 -3 -28l-3 -3q-75 7 -213 10q3 -147 9 -235l215 10l1 -4q-5 -14 -9 -33q-1 -4 -1.5 -8t-1 -10t-1.5 -11l-3 -3q-24 3 -59 3h-137h-1h-54q-33 0 -51 -3q10 46 16 282 q-11 0 -33 0.5t-32 0.5q-45 0 -119 -2z"/>
<glyph glyph-name="Ccedilla" horiz-adv-x="650" unicode="Ç" d="M495 658q54 0 103.5 -11t71.5 -23l23 -11l2 -3q-35 -78 -44 -111l-12 -1q-18 60 -58.5 86.5t-109.5 26.5q-33 0 -69.5 -15.5t-74.5 -46.5t-69.5 -87t-46.5 -128q-10 -46 -10 -94q0 -88 41 -143.5t127 -55.5q70 0 118.5 20.5t114.5 78.5l22 -19q-118 -121 -255 -130 l-33 -58q12 3 26 3q27 0 43.5 -13.5t16.5 -35.5q0 -3 -2 -13q-7 -32 -42 -53t-81 -21q-34 0 -70 17q2 14 16 26q35 -14 55 -14q50 0 59 40q1 4 1 11q0 24 -26 24q-27 0 -47 -6l-4 6l54 86q-120 4 -180 74t-60 175q0 40 9 80q31 145 146 242t245 97z"/>
<glyph glyph-name="Egrave" horiz-adv-x="522" unicode="È" d="M224 200q-5 -22 -14 -76t-8 -70q60 0 131 3t112 6l41 3l1 -4q-5 -14 -9 -33q-1 -4 -1.5 -8t-1 -10t-1.5 -11l-3 -3q-24 3 -59 3h-273l-53 -3v3q24 66 53 200l52 245q27 125 32 200l3 3q16 -3 50 -3h263q37 0 61 3l1 -3q-2 -7 -8 -31q-2 -8 -4 -26l-3 -4q-135 12 -269 12 q-8 -17 -40 -151l-18 -82q105 0 225 10l3 -3q-6 -12 -9 -28q-3 -14 -3 -28l-4 -3q-97 10 -221 10zM419 817l103 -84q11 -10 11 -17t-6 -13t-13 -6q-15 0 -40 12l-141 63q35 28 86 45z"/>
<glyph glyph-name="Eacute" horiz-adv-x="522" unicode="É" d="M224 200q-5 -22 -14 -76t-8 -70q60 0 131 3t112 6l41 3l1 -4q-5 -14 -9 -33q-1 -4 -1.5 -8t-1 -10t-1.5 -11l-3 -3q-24 3 -59 3h-273l-53 -3v3q24 66 53 200l52 245q27 125 32 200l3 3q16 -3 50 -3h263q37 0 61 3l1 -3q-2 -7 -8 -31q-2 -8 -4 -26l-3 -4q-135 12 -269 12 q-8 -17 -40 -151l-18 -82q105 0 225 10l3 -3q-6 -12 -9 -28q-3 -14 -3 -28l-4 -3q-97 10 -221 10zM524 820q39 -19 51 -52l-156 -58q-31 -12 -45 -12q-12 0 -12 12q0 13 20 24z"/>
<glyph glyph-name="Ecircumflex" horiz-adv-x="522" unicode="Ê" d="M224 200q-5 -22 -14 -76t-8 -70q60 0 131 3t112 6l41 3l1 -4q-5 -14 -9 -33q-1 -4 -1.5 -8t-1 -10t-1.5 -11l-3 -3q-24 3 -59 3h-273l-53 -3v3q24 66 53 200l52 245q27 125 32 200l3 3q16 -3 50 -3h263q37 0 61 3l1 -3q-2 -7 -8 -31q-2 -8 -4 -26l-3 -4q-135 12 -269 12 q-8 -17 -40 -151l-18 -82q105 0 225 10l3 -3q-6 -12 -9 -28q-3 -14 -3 -28l-4 -3q-97 10 -221 10zM488 805q29 -47 81 -94l-20 -21q-56 29 -93 62q-60 -38 -120 -62l-10 21q51 33 119 94h43z"/>
<glyph glyph-name="Edieresis" horiz-adv-x="522" unicode="Ë" d="M224 200q-5 -22 -14 -76t-8 -70q60 0 131 3t112 6l41 3l1 -4q-5 -14 -9 -33q-1 -4 -1.5 -8t-1 -10t-1.5 -11l-3 -3q-24 3 -59 3h-273l-53 -3v3q24 66 53 200l52 245q27 125 32 200l3 3q16 -3 50 -3h263q37 0 61 3l1 -3q-2 -7 -8 -31q-2 -8 -4 -26l-3 -4q-135 12 -269 12 q-8 -17 -40 -151l-18 -82q105 0 225 10l3 -3q-6 -12 -9 -28q-3 -14 -3 -28l-4 -3q-97 10 -221 10zM305 751q5 20 22 34t36 14q17 0 28 -10.5t11 -27.5q0 -7 -1 -10q-5 -20 -22.5 -34t-36.5 -14q-17 0 -27.5 10.5t-10.5 27.5q0 7 1 10zM494 751q5 20 22 34t36 14 q17 0 28 -10.5t11 -27.5q0 -7 -1 -10q-5 -20 -22.5 -34t-36.5 -14q-17 0 -27.5 10.5t-10.5 27.5q0 7 1 10z"/>
<glyph glyph-name="Igrave" horiz-adv-x="293" unicode="Ì" d="M201 445q27 125 32 200l3 3q16 -3 50 -3l53 3v-3q-23 -64 -52 -200l-53 -245q-27 -125 -32 -200l-3 -3q-16 3 -50 3l-53 -3v3q22 59 52 200zM273 817l103 -84q11 -10 11 -18q0 -7 -6 -12.5t-13 -5.5q-15 0 -40 12l-141 63q35 28 86 45z"/>
<glyph glyph-name="Iacute" horiz-adv-x="293" unicode="Í" d="M201 445q27 125 32 200l3 3q16 -3 50 -3l53 3v-3q-23 -64 -52 -200l-53 -245q-27 -125 -32 -200l-3 -3q-16 3 -50 3l-53 -3v3q22 59 52 200zM384 819q39 -19 51 -52l-156 -58q-31 -12 -45 -12q-12 0 -12 12q0 13 20 24z"/>
<glyph glyph-name="Icircumflex" horiz-adv-x="293" unicode="Î" d="M201 445q27 125 32 200l3 3q16 -3 50 -3l53 3v-3q-23 -64 -52 -200l-53 -245q-27 -125 -32 -200l-3 -3q-16 3 -50 3l-53 -3v3q22 59 52 200zM338 805q29 -47 81 -94l-20 -21q-56 29 -93 62q-60 -38 -120 -62l-10 21q51 33 119 94h43z"/>
<glyph glyph-name="Idieresis" horiz-adv-x="293" unicode="Ï" d="M201 445q27 125 32 200l3 3q16 -3 50 -3l53 3v-3q-23 -64 -52 -200l-52 -245q-28 -132 -33 -200l-3 -3q-16 3 -50 3l-53 -3v3q24 66 53 200zM163 750q5 20 22.5 34t36.5 14q17 0 27.5 -10.5t10.5 -27.5q0 -7 -1 -10q-5 -20 -22 -34t-36 -14q-17 0 -28 10.5t-11 27.5 q0 7 1 10zM352 750q5 20 22.5 34t36.5 14q17 0 27.5 -10.5t10.5 -27.5q0 -7 -1 -10q-5 -20 -22 -34t-36 -14q-17 0 -28 10.5t-11 27.5q0 7 1 10z"/>
<glyph glyph-name="Eth" horiz-adv-x="682" unicode="Ð" d="M281 645q31 0 80 1.5t80 1.5q122 0 196.5 -75.5t74.5 -191.5q0 -33 -8 -73q-15 -71 -46.5 -126.5t-70 -89t-86 -55.5t-91.5 -30.5t-89 -8.5q-56 0 -101.5 1t-75.5 1l-53 -3v3q24 66 53 200l18 87h-71l8 39h71l26 119q27 125 32 200l3 3q16 -3 50 -3zM204 82 q-2 -12 -2 -16q0 -14 19 -19t78 -5q57 0 100.5 10t84 35t68.5 74.5t44 122.5q13 58 13 109q0 95 -50.5 153t-165.5 58q-41 0 -61 -8t-25 -32l-51 -238h114l-8 -39h-114z"/>
<glyph glyph-name="Ntilde" horiz-adv-x="650" unicode="Ñ" d="M580 741q33 0 61 52l23 -6q-38 -90 -106 -90q-26 0 -59 26q-32 22 -49 22q-34 0 -59 -48l-23 5q39 89 99 89q32 0 66 -28q24 -22 47 -22zM196 445q25 119 32 200l3 3q16 -3 30 -3l24 2l219 -444q23 -47 34 -47q8 0 13 22l47 217q40 182 66 250l3 3q10 -3 34 -3l36 3v-3 q-55 -106 -86 -250l-81 -374q-7 -31 -27 -31q-25 0 -38 24l-225 441q-17 34 -20 34q-2 0 -13 -50l-45 -209q-38 -172 -58 -230l-3 -3q-10 3 -34 3l-36 -3v3q51 99 79 230z"/>
<glyph glyph-name="Ograve" horiz-adv-x="691" unicode="Ò" d="M459 816l103 -84q14 -12 11 -21q-4 -15 -19 -15t-40 12l-141 63q35 28 86 45zM579 78q-101 -88 -237 -88q-111 0 -177 63.5t-66 173.5q0 108 45.5 197.5t117.5 149.5q100 84 221 84q114 0 180 -65.5t66 -176.5q0 -102 -44.5 -193t-105.5 -145zM460 614q-78 0 -141 -64 q-44 -45 -79.5 -135t-35.5 -184t45.5 -145.5t121.5 -51.5q96 0 164 89q38 50 65 138.5t27 172.5q0 180 -167 180z"/>
<glyph glyph-name="Oacute" horiz-adv-x="691" unicode="Ó" d="M521 818q39 -19 51 -52l-156 -58q-31 -12 -45 -12q-15 0 -11 15q3 12 19 21zM579 78q-101 -88 -237 -88q-111 0 -177 63.5t-66 173.5q0 108 45.5 197.5t117.5 149.5q100 84 221 84q114 0 180 -65.5t66 -176.5q0 -102 -44.5 -193t-105.5 -145zM460 614q-78 0 -141 -64 q-44 -45 -79.5 -135t-35.5 -184t45.5 -145.5t121.5 -51.5q96 0 164 89q38 50 65 138.5t27 172.5q0 180 -167 180z"/>
<glyph glyph-name="Ocircumflex" horiz-adv-x="691" unicode="Ô" d="M509 811q29 -47 81 -94l-21 -21q-53 27 -92 62q-58 -37 -121 -62l-9 21q51 33 119 94h43zM579 78q-101 -88 -237 -88q-111 0 -177 63.5t-66 173.5q0 108 45.5 197.5t117.5 149.5q100 84 221 84q114 0 180 -65.5t66 -176.5q0 -102 -44.5 -193t-105.5 -145zM460 614 q-78 0 -141 -64q-44 -45 -79.5 -135t-35.5 -184t45.5 -145.5t121.5 -51.5q96 0 164 89q38 50 65 138.5t27 172.5q0 180 -167 180z"/>
<glyph glyph-name="Otilde" horiz-adv-x="691" unicode="Õ" d="M537 741q33 0 61 52l23 -6q-37 -90 -106 -90q-26 0 -59 26q-32 22 -49 22q-34 0 -59 -48l-23 5q39 89 99 89q32 0 66 -28q24 -22 47 -22zM579 78q-101 -88 -237 -88q-111 0 -177 63.5t-66 173.5q0 108 45.5 197.5t117.5 149.5q100 84 221 84q114 0 180 -65.5t66 -176.5 q0 -102 -44.5 -193t-105.5 -145zM460 614q-78 0 -141 -64q-44 -45 -79.5 -135t-35.5 -184t45.5 -145.5t121.5 -51.5q96 0 164 89q38 50 65 138.5t27 172.5q0 180 -167 180z"/>
<glyph glyph-name="Odieresis" horiz-adv-x="691" unicode="Ö" d="M579 78q-101 -88 -237 -88q-111 0 -177 63.5t-66 173.5q0 108 45.5 197.5t117.5 149.5q100 84 221 84q114 0 180 -65.5t66 -176.5q0 -102 -44.5 -193t-105.5 -145zM460 614q-78 0 -141 -64q-44 -45 -79.5 -135t-35.5 -184t45.5 -145.5t121.5 -51.5q96 0 164 89 q38 50 65 138.5t27 172.5q0 180 -167 180zM635 709q4 19 19.5 32t34.5 13q16 0 26.5 -10t10.5 -25q0 -7 -1 -10q-4 -19 -20 -32t-35 -13q-16 0 -26 10t-10 25q0 7 1 10zM265 709q4 19 20 32t35 13q16 0 26.5 -10t10.5 -25q0 -7 -1 -10q-4 -19 -20 -32t-35 -13 q-16 0 -26.5 10t-10.5 26q0 6 1 9z"/>
<glyph glyph-name="multiply" d="M347 230l97 -122l-42 -35l-97 122l-147 -122l-29 35l149 122l-97 123l43 35l96 -123l148 123l28 -35z" unicode="×"/>
<glyph glyph-name="Oslash" horiz-adv-x="721" unicode="Ø" d="M642 509l-405 -396q50 -79 149 -79q88 0 158 72.5t98 203.5q13 61 13 112q0 48 -13 87zM475 614q-38 0 -75.5 -16t-73.5 -48.5t-66 -90t-46 -132.5q-9 -40 -9 -87q0 -55 14 -91l406 396q-44 69 -150 69zM80 -40l-28 26l97 94q-50 65 -50 154q0 36 9 76q32 147 144 247.5 t246 100.5q111 0 181 -61l74 73l29 -24l-77 -76q53 -65 53 -161q0 -38 -9 -80q-32 -150 -140.5 -244.5t-251.5 -94.5q-111 0 -182 62z"/>
<glyph glyph-name="Ugrave" horiz-adv-x="661" unicode="Ù" d="M616 445q27 125 32 200l3 3q10 -3 34 -3l36 3v-3q-23 -64 -52 -200l-32 -150q-15 -71 -37.5 -123.5t-58.5 -95t-91.5 -64.5t-130.5 -22q-33 0 -63.5 7.5t-60.5 25.5t-48.5 54.5t-18.5 86.5q0 36 8 72l45 209q27 125 32 200l3 3q16 -3 50 -3l53 3v-3q-23 -64 -52 -200 l-38 -176q-11 -52 -11 -89q0 -139 133 -139q49 0 86.5 14.5t60 35.5t40 55.5t25.5 62t17 68.5zM450 818l103 -84q11 -10 11 -18q0 -7 -6 -12.5t-13 -5.5q-15 0 -40 12l-141 63q35 28 86 45z"/>
<glyph glyph-name="Uacute" horiz-adv-x="661" unicode="Ú" d="M616 445q27 125 32 200l3 3q10 -3 34 -3l36 3v-3q-23 -64 -52 -200l-32 -150q-15 -71 -37.5 -123.5t-58.5 -95t-91.5 -64.5t-130.5 -22q-33 0 -63.5 7.5t-60.5 25.5t-48.5 54.5t-18.5 86.5q0 36 8 72l45 209q27 125 32 200l3 3q16 -3 50 -3l53 3v-3q-23 -64 -52 -200 l-38 -176q-11 -52 -11 -89q0 -139 133 -139q49 0 86.5 14.5t60 35.5t40 55.5t25.5 62t17 68.5zM579 819q39 -19 51 -52l-156 -58q-31 -12 -45 -12q-12 0 -12 12q0 13 20 24z"/>
<glyph glyph-name="Ucircumflex" horiz-adv-x="661" unicode="Û" d="M616 445q27 125 32 200l3 3q10 -3 34 -3l36 3v-3q-23 -64 -52 -200l-32 -150q-15 -71 -37.5 -123.5t-58.5 -95t-91.5 -64.5t-130.5 -22q-33 0 -63.5 7.5t-60.5 25.5t-48.5 54.5t-18.5 86.5q0 36 8 72l45 209q27 125 32 200l3 3q16 -3 50 -3l53 3v-3q-23 -64 -52 -200 l-38 -176q-11 -52 -11 -89q0 -139 133 -139q49 0 86.5 14.5t60 35.5t40 55.5t25.5 62t17 68.5zM541 805q29 -47 81 -94l-20 -21q-56 29 -93 62q-60 -38 -120 -62l-10 21q51 33 119 94h43z"/>
<glyph glyph-name="Udieresis" horiz-adv-x="661" unicode="Ü" d="M616 445q27 125 32 200l3 3q10 -3 34 -3l36 3v-3q-23 -64 -52 -200l-32 -150q-15 -71 -37.5 -123.5t-58.5 -95t-91.5 -64.5t-130.5 -22q-33 0 -63.5 7.5t-60.5 25.5t-48.5 54.5t-18.5 86.5q0 36 8 72l45 209q27 125 32 200l3 3q16 -3 50 -3l53 3v-3q-23 -64 -52 -200 l-38 -176q-11 -52 -11 -89q0 -139 133 -139q49 0 86.5 14.5t60 35.5t40 55.5t25.5 62t17 68.5zM537 709q4 19 19.5 32t34.5 13q16 0 26.5 -10t10.5 -25q0 -7 -1 -10q-4 -19 -20 -32t-35 -13q-16 0 -26 10t-10 25q0 7 1 10zM373 709q4 19 19.5 32t34.5 13q16 0 26.5 -10 t10.5 -25q0 -7 -1 -10q-4 -19 -20 -32t-35 -13q-16 0 -26 10t-10 25q0 7 1 10z"/>
<glyph glyph-name="Yacute" horiz-adv-x="591" unicode="Ý" d="M395 286q-47 -232 -54 -289q-15 3 -51 3q-35 0 -52 -3q19 60 66 278q-19 52 -75 191t-75 182q16 -3 56 -3t58 3q11 -37 25.5 -79t25.5 -72t30 -80t29 -77q145 171 240 308q11 -3 41 -3q29 0 43 3q-34 -39 -86 -98.5t-76.5 -87.5t-56 -65t-51.5 -62.5t-37 -48.5zM534 820 q39 -19 51 -52l-156 -58q-31 -12 -45 -12q-12 0 -12 12q0 13 20 24z"/>
<glyph glyph-name="Thorn" horiz-adv-x="528" unicode="Þ" d="M222 192q13 -4 68 -4q147 0 179 155q6 28 6 49q0 93 -104 93q-51 0 -89 -10l-6 -30l-52 -245q0 -1 -1 -4t-1 -4zM190 445q27 125 32 200l3 3q16 -3 50 -3l53 3v-3q-18 -52 -35 -120q18 1 88 1q104 0 147 -41.5t43 -101.5q0 -24 -4 -40q-7 -31 -26.5 -63t-52.5 -63 t-86 -50.5t-116 -19.5q-51 0 -72 6q-20 -101 -23 -153l-3 -3q-16 3 -50 3l-53 -3v3q24 66 53 200z"/>
<glyph glyph-name="germandbls" horiz-adv-x="532" unicode="ß" d="M179 67q-30 -139 -100 -222q-65 -76 -150 -76q-32 0 -45 11l-1 3q11 16 41 82l10 1q5 -16 19 -27t33 -11q29 0 48 26t37 78q9 24 19 67.5t26.5 127.5t21.5 109l29 133q4 16 -8 16h-45q-7 0 -7 5l5 25q3 14 20 14q26 0 44 8q9 14 14 40q18 86 83 151q70 70 147 70 q57 0 85 -21q35 -27 35 -78q0 -93 -140 -185v-2q59 -45 94 -91t35 -108q0 -98 -71 -175q-45 -48 -126 -48q-58 0 -97 28l-1 3q10 13 32 58l11 1q6 -18 24.5 -35.5t38.5 -17.5q42 0 68 51q29 55 29 115q0 107 -110 206l3 13l9 6q9 5 16.5 10t20.5 15t23.5 20.5t22.5 25.5 t20 31t13 36t5 41q0 66 -56 66q-22 0 -50.5 -20.5t-44.5 -50.5q-22 -42 -46 -150z"/>
<glyph glyph-name="agrave" horiz-adv-x="474" unicode="à" d="M380 671l43 -126q4 -13 1 -24q-1 -4 -6.5 -7.5t-11.5 -3.5q-7 0 -24 20l-91 109l4 11q35 23 70 23q7 0 15 -2zM408 138q-8 -36 -8 -64q0 -32 29 -32q23 0 48 7l2 -3v-26q-60 -30 -95 -30q-26 0 -44 13t-18 40q0 17 7 47l13 52l-2 2q-54 -81 -92 -117.5t-86 -36.5 q-57 0 -79.5 37.5t-22.5 89.5q0 74 46 150.5t107.5 122.5t109.5 46q53 0 80 -3q3 -1 13 -1q11 0 34 2t29 2zM353 219q11 28 20 69.5t12 69.5l3 27q-25 10 -62 10q-43 0 -87 -43.5t-70.5 -104.5t-26.5 -114q0 -85 47 -85q25 0 76.5 53t87.5 118z"/>
<glyph glyph-name="aacute" horiz-adv-x="474" unicode="á" d="M374 666q6 2 15 2q31 0 50 -23l1 -11l-139 -109q-23 -19 -34 -19q-5 0 -8.5 4t-2.5 9q2 9 18 28zM408 138q-8 -36 -8 -64q0 -32 29 -32q23 0 48 7l2 -3v-26q-60 -30 -95 -30q-26 0 -44 13t-18 40q0 17 7 47l13 52l-2 2q-54 -81 -92 -117.5t-86 -36.5q-57 0 -79.5 37.5 t-22.5 89.5q0 74 46 150.5t107.5 122.5t109.5 46q53 0 80 -3q3 -1 13 -1q11 0 34 2t29 2zM353 219q11 28 20 69.5t12 69.5l3 27q-25 10 -62 10q-43 0 -87 -43.5t-70.5 -104.5t-26.5 -114q0 -85 47 -85q25 0 76.5 53t87.5 118z"/>
<glyph glyph-name="acircumflex" horiz-adv-x="474" unicode="â" d="M388 653q22 -55 74 -129l-24 -14q-60 53 -87 90q-55 -46 -126 -90l-17 14q90 82 130 129h50zM408 138q-8 -36 -8 -64q0 -32 29 -32q23 0 48 7l2 -3v-26q-60 -30 -95 -30q-26 0 -44 13t-18 40q0 17 7 47l13 52l-2 2q-54 -81 -92 -117.5t-86 -36.5q-57 0 -79.5 37.5 t-22.5 89.5q0 74 46 150.5t107.5 122.5t109.5 46q53 0 80 -3q3 -1 13 -1q11 0 34 2t29 2zM353 219q11 28 20 69.5t12 69.5l3 27q-25 10 -62 10q-43 0 -87 -43.5t-70.5 -104.5t-26.5 -114q0 -85 47 -85q25 0 76.5 53t87.5 118z"/>
<glyph glyph-name="atilde" horiz-adv-x="474" unicode="ã" d="M401 565q33 0 61 52l23 -6q-38 -90 -106 -90q-26 0 -59 26q-32 22 -49 22q-34 0 -59 -48l-23 5q39 89 99 89q32 0 66 -28q24 -22 47 -22zM408 138q-8 -36 -8 -64q0 -32 29 -32q23 0 48 7l2 -3v-26q-60 -30 -95 -30q-26 0 -44 13t-18 40q0 17 7 47l13 52l-2 2 q-54 -81 -92 -117.5t-86 -36.5q-57 0 -79.5 37.5t-22.5 89.5q0 74 46 150.5t107.5 122.5t109.5 46q53 0 80 -3q3 -1 13 -1q11 0 34 2t29 2zM353 219q11 28 20 69.5t12 69.5l3 27q-25 10 -62 10q-43 0 -87 -43.5t-70.5 -104.5t-26.5 -114q0 -85 47 -85q25 0 76.5 53t87.5 118 z"/>
<glyph glyph-name="adieresis" horiz-adv-x="474" unicode="ä" d="M388 580q4 19 20.5 32.5t35.5 13.5q16 0 26.5 -10.5t10.5 -26.5q0 -6 -1 -9q-4 -19 -20.5 -32.5t-35.5 -13.5q-16 0 -26.5 10.5t-10.5 26.5q0 6 1 9zM220 575q4 19 20.5 32.5t35.5 13.5q16 0 26.5 -10.5t10.5 -26.5q0 -6 -1 -9q-4 -19 -20.5 -32.5t-35.5 -13.5 q-16 0 -26.5 10.5t-10.5 26.5q0 6 1 9zM408 138q-8 -36 -8 -64q0 -32 29 -32q23 0 48 7l2 -3v-26q-60 -30 -95 -30q-26 0 -44 13t-18 40q0 17 7 47l13 52l-2 2q-54 -81 -92 -117.5t-86 -36.5q-57 0 -79.5 37.5t-22.5 89.5q0 74 46 150.5t107.5 122.5t109.5 46q53 0 80 -3 q3 -1 13 -1q11 0 34 2t29 2zM353 219q11 28 20 69.5t12 69.5l3 27q-25 10 -62 10q-43 0 -87 -43.5t-70.5 -104.5t-26.5 -114q0 -85 47 -85q25 0 76.5 53t87.5 118z"/>
<glyph glyph-name="aring" horiz-adv-x="474" unicode="å" d="M261 593q7 34 38 58.5t66 24.5q30 0 51 -19t21 -48q0 -4 -2 -16q-8 -34 -38.5 -58.5t-66.5 -24.5q-31 0 -51 19t-20 48q0 6 2 16zM360 649q-23 0 -40 -16.5t-22 -39.5q-2 -8 -2 -13q0 -18 10.5 -30.5t29.5 -12.5q22 0 39.5 17t22.5 39q1 5 1 14q0 19 -10.5 30.5 t-28.5 11.5zM408 138q-8 -36 -8 -64q0 -32 29 -32q23 0 48 7l2 -3v-26q-60 -30 -95 -30q-26 0 -44 13t-18 40q0 17 7 47l13 52l-2 2q-54 -81 -92 -117.5t-86 -36.5q-57 0 -79.5 37.5t-22.5 89.5q0 74 46 150.5t107.5 122.5t109.5 46q53 0 80 -3q3 -1 13 -1q11 0 34 2t29 2z M353 219q11 28 20 69.5t12 69.5l3 27q-25 10 -62 10q-43 0 -87 -43.5t-70.5 -104.5t-26.5 -114q0 -85 47 -85q25 0 76.5 53t87.5 118z"/>
<glyph glyph-name="ae" horiz-adv-x="687" unicode="æ" d="M286 394q-31 0 -66.5 -25.5t-65.5 -63.5l-13 1l-2 67l4 4q90 62 161 62q98 0 122 -70q67 70 157 70q67 0 98.5 -38t31.5 -79q0 -9 -1 -13q-11 -50 -42 -72q-14 -7 -38.5 -10.5t-48.5 -4t-73 -1.5t-90 -3q-6 -26 -6 -60q0 -54 24 -84t69 -30q66 0 138 68l14 -28 q-31 -41 -79.5 -67.5t-97.5 -26.5q-32 0 -55.5 6.5t-38.5 20t-20.5 20.5t-14.5 22q-86 -69 -165 -69q-131 0 -131 84q0 14 3 27q14 64 88.5 104.5t201.5 49.5q8 42 8 67q0 37 -16.5 54.5t-55.5 17.5zM430 258q33 2 72.5 2t55.5 0.5t33.5 4.5t24.5 13.5t11 27.5q2 10 2 17 q0 28 -14 49.5t-42 21.5q-47 0 -85.5 -36t-57.5 -100zM342 215q-178 -16 -198 -109q-3 -11 -3 -20q0 -46 60 -46q29 0 59 16t46 44q18 32 36 115z"/>
<glyph glyph-name="ccedilla" horiz-adv-x="395" unicode="ç" d="M314 399q-55 0 -99 -67q-49 -76 -49 -173q0 -57 24.5 -88t65.5 -31q55 0 106 42h3l13 -21q-62 -68 -137 -71l-32 -55q12 3 26 3q27 0 43.5 -13.5t16.5 -35.5q0 -3 -2 -13q-7 -32 -42 -53t-81 -21q-34 0 -70 17q2 14 16 26q35 -14 55 -14q50 0 59 40q1 4 1 11q0 24 -26 24 q-27 0 -47 -6l-4 6l53 86q-59 8 -94.5 51t-35.5 112q0 119 82 205q76 79 165 79q71 0 113 -28l2 -3l-39 -82l-11 -1q-23 74 -75 74z"/>
<glyph glyph-name="egrave" horiz-adv-x="427" unicode="è" d="M342 671l44 -126q4 -13 1 -24q-1 -4 -6.5 -7.5t-11.5 -3.5q-8 0 -25 20l-90 109l4 11q34 23 70 23q6 0 14 -2zM168 208q-3 -21 -3 -42q0 -63 24 -95.5t60 -32.5t80 29t65 67l6 -1q7 -44 10 -51q-30 -42 -83 -67t-115 -25q-61 0 -98 44.5t-37 108.5q0 49 17 99.5 t48.5 95.5t84 73t115.5 28q53 0 77.5 -21t24.5 -56q0 -15 -3.5 -30t-19.5 -37.5t-43.5 -39.5t-82 -30.5t-127.5 -16.5zM369 364q0 39 -49 39q-105 0 -147 -161q196 8 196 122z"/>
<glyph glyph-name="eacute" horiz-adv-x="427" unicode="é" d="M379 666q6 2 15 2q31 0 50 -23l1 -11l-139 -109q-23 -19 -34 -19q-5 0 -8.5 4t-2.5 9q2 9 18 28zM168 208q-3 -21 -3 -42q0 -63 24 -95.5t60 -32.5t80 29t65 67l6 -1q7 -44 10 -51q-30 -42 -83 -67t-115 -25q-61 0 -98 44.5t-37 108.5q0 49 17 99.5t48.5 95.5t84 73 t115.5 28q53 0 77.5 -21t24.5 -56q0 -15 -3.5 -30t-19.5 -37.5t-43.5 -39.5t-82 -30.5t-127.5 -16.5zM369 364q0 39 -49 39q-105 0 -147 -161q196 8 196 122z"/>
<glyph glyph-name="ecircumflex" horiz-adv-x="427" unicode="ê" d="M356 653q22 -55 74 -129l-24 -14q-60 53 -87 90q-55 -46 -126 -90l-17 14q90 82 130 129h50zM168 208q-3 -21 -3 -42q0 -63 24 -95.5t60 -32.5t80 29t65 67l6 -1q7 -44 10 -51q-30 -42 -83 -67t-115 -25q-61 0 -98 44.5t-37 108.5q0 49 17 99.5t48.5 95.5t84 73t115.5 28 q53 0 77.5 -21t24.5 -56q0 -15 -3.5 -30t-19.5 -37.5t-43.5 -39.5t-82 -30.5t-127.5 -16.5zM369 364q0 39 -49 39q-105 0 -147 -161q196 8 196 122z"/>
<glyph glyph-name="edieresis" horiz-adv-x="427" unicode="ë" d="M363 580q4 19 20.5 32.5t35.5 13.5q16 0 26.5 -10.5t10.5 -26.5q0 -6 -1 -9q-4 -19 -20.5 -32.5t-35.5 -13.5q-16 0 -26.5 10.5t-10.5 26.5q0 6 1 9zM195 575q4 19 20.5 32.5t35.5 13.5q16 0 26.5 -10.5t10.5 -26.5q0 -6 -1 -9q-4 -19 -20.5 -32.5t-35.5 -13.5 q-16 0 -26.5 10.5t-10.5 26.5q0 6 1 9zM168 208q-3 -21 -3 -42q0 -63 24 -95.5t60 -32.5t80 29t65 67l6 -1q7 -44 10 -51q-30 -42 -83 -67t-115 -25q-61 0 -98 44.5t-37 108.5q0 49 17 99.5t48.5 95.5t84 73t115.5 28q53 0 77.5 -21t24.5 -56q0 -15 -3.5 -30t-19.5 -37.5 t-43.5 -39.5t-82 -30.5t-127.5 -16.5zM369 364q0 39 -49 39q-105 0 -147 -161q196 8 196 122z"/>
<glyph glyph-name="igrave" horiz-adv-x="268" unicode="ì" d="M220 671l43 -126q4 -13 1 -24q-1 -4 -6.5 -7.5t-11.5 -3.5q-7 0 -24 20l-91 109l4 11q35 23 70 23q7 0 15 -2zM144 235q27 125 28 181l3 3q47 3 92 20q8 0 8 -6q0 -33 -21.5 -95.5t-26.5 -86.5l-15 -71q-23 -109 -28 -180l-3 -3q-13 3 -47 3l-50 -3v3q23 61 48 180z"/>
<glyph glyph-name="iacute" horiz-adv-x="268" unicode="í" d="M312 680q6 2 14 2q31 0 50 -23l1 -11l-139 -109q-23 -19 -34 -19q-5 0 -8.5 4t-2.5 9q2 9 18 28zM144 235q27 125 28 181l3 3q47 3 92 20q8 0 8 -6q0 -33 -21.5 -95.5t-26.5 -86.5l-15 -71q-23 -109 -28 -180l-3 -3q-13 3 -47 3l-50 -3v3q23 61 48 180z"/>
<glyph glyph-name="icircumflex" horiz-adv-x="268" unicode="î" d="M287 653q22 -55 74 -129l-24 -14q-60 53 -87 90q-55 -46 -126 -90l-17 14q90 82 130 129h50zM144 235q27 125 28 181l3 3q47 3 92 20q8 0 8 -6q0 -33 -21.5 -95.5t-26.5 -86.5l-15 -71q-23 -109 -28 -180l-3 -3q-13 3 -47 3l-50 -3v3q23 61 48 180z"/>
<glyph glyph-name="idieresis" horiz-adv-x="268" unicode="ï" d="M284 580q4 19 20.5 32.5t35.5 13.5q16 0 26.5 -10.5t10.5 -26.5q0 -6 -1 -9q-4 -19 -20.5 -32.5t-35.5 -13.5q-16 0 -26.5 10.5t-10.5 26.5q0 6 1 9zM116 575q4 19 20.5 32.5t35.5 13.5q16 0 26.5 -10.5t10.5 -26.5q0 -6 -1 -9q-4 -19 -20.5 -32.5t-35.5 -13.5 q-16 0 -26.5 10.5t-10.5 26.5q0 6 1 9zM144 235q27 125 28 181l3 3q47 3 92 20q8 0 8 -6q0 -33 -21.5 -95.5t-26.5 -86.5l-15 -71q-23 -109 -28 -180l-3 -3q-13 3 -47 3l-50 -3v3q23 61 48 180z"/>
<glyph glyph-name="eth" horiz-adv-x="495" unicode="ð" d="M90 207q17 81 64.5 136t96 75.5t94.5 20.5q42 0 74 -14q-15 75 -58 147l-106 -61l-15 32l101 59l-13 16q-17 23 -58 58l23 22q48 -29 91 -71l121 71l16 -32l-111 -65l14 -18q94 -120 94 -256q0 -45 -10 -91q-26 -120 -99.5 -183t-163.5 -63q-76 0 -118 50t-42 121 q0 21 5 46zM271 31q45 0 85.5 41t60.5 150q12 63 12 107q0 18 -1 27q-25 42 -93 42q-114 0 -151 -174q-7 -32 -7 -63q0 -59 25.5 -94.5t68.5 -35.5z"/>
<glyph glyph-name="ntilde" horiz-adv-x="504" unicode="ñ" d="M442 570q33 0 61 52l23 -6q-38 -90 -106 -90q-25 0 -58 26q-32 22 -50 22q-34 0 -59 -48l-23 5q39 89 99 89q32 0 66 -28q24 -22 47 -22zM471 180q-25 -117 -29 -180l-2 -3q-18 3 -48 3l-49 -3v3q20 55 47 180l21 98q7 31 7 54q0 27 -12 37t-38 10q-27 0 -67 -20t-81 -62 l-25 -117q-25 -117 -29 -180l-3 -3q-16 3 -47 3l-49 -3l-1 3q24 69 48 180l11 55q17 82 17 134q0 23 -3 44l2 3q42 4 82 21q8 0 8 -10q1 -9 1 -24q0 -21 -3 -51l2 -3q88 90 176 90q95 0 95 -98q0 -29 -7 -60q-4 -16 -12 -50.5t-12 -50.5z"/>
<glyph glyph-name="ograve" horiz-adv-x="490" unicode="ò" d="M327 398q-54 0 -96 -50t-56 -120q-8 -42 -8 -68q0 -129 94 -129q58 0 98 52q58 73 58 200q0 115 -90 115zM146 346q81 93 194 93q86 0 126 -47t40 -118q0 -68 -33 -134.5t-88 -106.5q-59 -43 -142 -43q-81 0 -125 47.5t-44 118.5q0 107 72 190zM362 671l44 -126 q2 -5 2 -14q0 -7 -1 -10q-1 -4 -6.5 -7.5t-11.5 -3.5q-7 0 -24 20l-91 109l4 11q34 23 70 23q6 0 14 -2z"/>
<glyph glyph-name="oacute" horiz-adv-x="490" unicode="ó" d="M327 398q-54 0 -96.5 -50.5t-56.5 -119.5q-7 -37 -7 -68q0 -129 94 -129q58 0 98 52q58 73 58 200q0 115 -90 115zM146 346q81 93 194 93q86 0 126 -47t40 -118q0 -68 -33 -134.5t-88 -106.5q-59 -43 -142 -43q-81 0 -125 47.5t-44 118.5q0 107 72 190zM388 666q6 2 15 2 q31 0 50 -23l1 -11l-139 -109q-23 -19 -34 -19t-11 11q0 10 18 30z"/>
<glyph glyph-name="ocircumflex" horiz-adv-x="490" unicode="ô" d="M327 398q-54 0 -96 -50t-56 -120q-8 -42 -8 -68q0 -129 94 -129q58 0 98 52q58 73 58 200q0 115 -90 115zM146 346q81 93 194 93q86 0 126 -47t40 -118q0 -68 -33 -134.5t-88 -106.5q-59 -43 -142 -43q-81 0 -125 47.5t-44 118.5q0 107 72 190zM398 653q22 -55 74 -129 l-24 -14q-60 53 -87 90q-55 -46 -126 -90l-17 14q90 82 130 129h50z"/>
<glyph glyph-name="otilde" horiz-adv-x="490" unicode="õ" d="M327 398q-54 0 -96 -50t-56 -120q-8 -42 -8 -68q0 -129 94 -129q58 0 98 52q58 73 58 200q0 115 -90 115zM146 346q81 93 194 93q86 0 126 -47t40 -118q0 -68 -33 -134.5t-88 -106.5q-59 -43 -142 -43q-81 0 -125 47.5t-44 118.5q0 107 72 190zM416 570q33 0 61 52l23 -6 q-38 -90 -106 -90q-25 0 -58 26q-32 22 -50 22q-34 0 -59 -48l-23 5q39 89 99 89q32 0 66 -28q24 -22 47 -22z"/>
<glyph glyph-name="odieresis" horiz-adv-x="490" unicode="ö" d="M399 580q4 19 20.5 32.5t35.5 13.5q16 0 26.5 -10.5t10.5 -26.5q0 -6 -1 -9q-4 -19 -20.5 -32.5t-35.5 -13.5q-16 0 -26.5 10.5t-10.5 26.5q0 6 1 9zM231 575q4 19 20.5 32.5t35.5 13.5q16 0 26.5 -10.5t10.5 -26.5q0 -6 -1 -9q-4 -19 -20.5 -32.5t-35.5 -13.5 q-16 0 -26.5 10.5t-10.5 26.5q0 6 1 9zM327 398q-54 0 -96 -50t-56 -120q-8 -42 -8 -68q0 -129 94 -129q58 0 98 52q58 73 58 200q0 115 -90 115zM146 346q81 93 194 93q86 0 126 -47t40 -118q0 -68 -33 -134.5t-88 -106.5q-59 -43 -142 -43q-81 0 -125 47.5t-44 118.5 q0 107 72 190z"/>
<glyph glyph-name="divide" d="M516 257l-11 -49h-395l11 49h395zM239 99l1 3q18 33 55 46h3q32 -13 36 -46l-1 -3q-19 -36 -55 -45h-3q-35 8 -36 45zM296 367l1 3q18 33 55 46h3q32 -13 36 -46l-1 -3q-19 -36 -55 -45h-3q-35 8 -36 45z" unicode="÷"/>
<glyph glyph-name="oslash" horiz-adv-x="490" unicode="ø" d="M410 338l-221 -272q23 -35 72 -35q58 0 98 52q58 73 58 199q0 34 -7 56zM327 398q-54 0 -96.5 -50.5t-56.5 -119.5q-7 -37 -7 -68q0 -28 4 -49l217 265q-24 22 -61 22zM470 477l33 -24l-44 -54q47 -44 47 -125q0 -68 -33 -134.5t-88 -106.5q-59 -43 -142 -43 q-56 0 -96 24l-51 -62l-33 27l51 62q-40 44 -40 115q0 107 72 190q81 93 194 93q49 0 85 -17z"/>
<glyph glyph-name="ugrave" horiz-adv-x="514" unicode="ù" d="M361 64q-85 -74 -159 -74q-96 0 -96 93q0 18 5 43l26 123q25 117 28 180l3 3q13 -3 47 -3l50 3v-3q-22 -59 -48 -180l-21 -99q-7 -32 -7 -55q0 -29 13.5 -39.5t42.5 -10.5q48 0 127 74l28 130q25 117 28 180l3 3q13 -3 47 -3l50 3v-3q-22 -59 -48 -180l-12 -57 q-22 -103 -24 -192l-3 -3q-20 3 -43 3q-15 0 -36 -3q-8 0 -8 3l9 64h-2zM370 671l43 -126q2 -5 2 -14q0 -7 -1 -10q-1 -4 -6.5 -7.5t-11.5 -3.5q-7 0 -24 20l-91 109l4 11q35 23 70 23q7 0 15 -2z"/>
<glyph glyph-name="uacute" horiz-adv-x="514" unicode="ú" d="M361 64q-85 -74 -159 -74q-96 0 -96 93q0 18 5 43l26 123q25 117 28 180l3 3q13 -3 47 -3l50 3v-3q-22 -59 -48 -180l-21 -99q-7 -32 -7 -55q0 -29 13.5 -39.5t42.5 -10.5q48 0 127 74l28 130q25 117 28 180l3 3q13 -3 47 -3l50 3v-3q-22 -59 -48 -180l-12 -57 q-22 -103 -24 -192l-3 -3q-20 3 -44 3q-14 0 -35 -3q-8 0 -8 3l9 64h-2zM432 666q6 2 14 2q31 0 50 -23l1 -11l-139 -109q-23 -19 -34 -19t-11 11q0 10 18 30z"/>
<glyph glyph-name="ucircumflex" horiz-adv-x="514" unicode="û" d="M361 64q-85 -74 -159 -74q-96 0 -96 93q0 18 5 43l26 123q25 117 28 180l3 3q13 -3 47 -3l50 3v-3q-22 -59 -48 -180l-21 -99q-7 -32 -7 -55q0 -29 13.5 -39.5t42.5 -10.5q48 0 127 74l28 130q25 117 28 180l3 3q13 -3 47 -3l50 3v-3q-22 -59 -48 -180l-12 -57 q-22 -103 -24 -192l-3 -3q-20 3 -43 3q-15 0 -36 -3q-8 0 -8 3l9 64h-2zM416 653q22 -55 74 -129l-24 -14q-60 53 -87 90q-55 -46 -126 -90l-17 14q90 82 130 129h50z"/>
<glyph glyph-name="udieresis" horiz-adv-x="514" unicode="ü" d="M407 580q4 19 20.5 32.5t35.5 13.5q16 0 26.5 -10.5t10.5 -26.5q0 -6 -1 -9q-4 -19 -20.5 -32.5t-35.5 -13.5q-16 0 -26.5 10.5t-10.5 26.5q0 6 1 9zM239 575q4 19 20.5 32.5t35.5 13.5q16 0 26.5 -10.5t10.5 -26.5q0 -6 -1 -9q-4 -19 -20.5 -32.5t-35.5 -13.5 q-16 0 -26.5 10.5t-10.5 26.5q0 6 1 9zM361 64q-85 -74 -159 -74q-96 0 -96 93q0 18 5 43l26 123q25 117 28 180l3 3q13 -3 47 -3l50 3v-3q-22 -59 -48 -180l-21 -99q-7 -32 -7 -55q0 -29 13.5 -39.5t42.5 -10.5q48 0 127 74l28 130q25 117 28 180l3 3q13 -3 47 -3l50 3v-3 q-22 -59 -48 -180l-12 -57q-22 -103 -24 -192l-3 -3q-20 3 -43 3q-15 0 -36 -3q-8 0 -8 3l9 64h-2z"/>
<glyph glyph-name="yacute" horiz-adv-x="486" unicode="ý" d="M110 432q13 -3 51 -3q36 0 50 3q12 -107 60 -344h2q101 147 205 344q9 -3 38 -3q33 0 44 3q-62 -89 -226 -338.5t-206 -330.5q-15 5 -48 5q-18 0 -36 -5q87 107 158 218q-10 66 -42 221t-50 230zM394 667q6 2 15 2q31 0 50 -23l1 -11l-139 -109q-23 -19 -34 -19t-11 11 q0 10 18 30z"/>
<glyph glyph-name="thorn" horiz-adv-x="505" unicode="þ" d="M156 -32q-27 -125 -32 -200l-3 -3q-13 3 -47 3l-50 -3v3q21 57 52 200l110 514q29 136 30 193l3 3q49 4 93 20q10 0 7 -10q-26 -76 -50 -188l-23 -108l-8 -33q67 80 142 80q62 0 102 -47t40 -114q0 -20 -5 -43q-23 -109 -100 -177t-166 -68q-49 0 -85 22zM228 306 l-50 -234q26 -43 76 -43q38 0 67 15t47 42.5t28.5 56t18.5 65.5q9 42 9 73q0 58 -24 82.5t-56 24.5q-28 0 -60 -22t-56 -60z"/>
<glyph glyph-name="OE" horiz-adv-x="838" unicode="Œ" d="M455 0l-105 -2q-117 1 -183 67.5t-66 173.5q0 39 9 79q29 140 129.5 234t236.5 94q71 -1 116 -1h263q37 0 61 3l1 -3q-2 -7 -8 -31q-2 -8 -4 -26l-3 -4q-135 12 -269 12q-8 -17 -40 -151l-18 -82q105 0 225 10l3 -3q-6 -12 -9 -28q-3 -14 -3 -28l-4 -3q-97 10 -221 10 l-26 -121q-26 -110 -23 -146q60 0 131 3t112 6l42 3l1 -4q-5 -14 -9 -33q-1 -4 -1.5 -8t-1 -10t-1.5 -11l-3 -3q-24 3 -59 3h-273zM356 37h13q29 0 41.5 9t17.5 31l105 492q2 10 2 14q0 14 -10 18.5t-35 4.5h-35q-81 0 -145 -65t-96 -214q-12 -58 -12 -104q0 -93 43 -139.5 t111 -46.5z"/>
<glyph glyph-name="oe" horiz-adv-x="775" unicode="œ" d="M174 237q-9 -45 -9 -84q0 -123 92 -123q46 0 89 37.5t63 131.5q9 44 9 76q0 64 -26.5 94.5t-59.5 30.5q-58 0 -101.5 -51.5t-56.5 -111.5zM753 105l15 -26q-84 -89 -190 -89q-117 0 -157 84q-39 -43 -79.5 -63.5t-106.5 -20.5q-78 0 -120.5 43.5t-42.5 115.5q0 27 6 57 q24 111 99 172t164 61q69 0 100 -23.5t47 -66.5q39 43 87 66.5t92 23.5q73 0 105.5 -35.5t32.5 -91.5q0 -26 -6 -52q-3 -17 -21 -17h-269q-8 -38 -8 -64q0 -67 33.5 -98.5t75.5 -31.5q80 0 143 56zM521 287h181q14 0 17 14q4 24 4 31q0 34 -19 50.5t-45 16.5q-13 0 -27 -3.5 t-35.5 -13t-41.5 -34.5t-34 -61z"/>
<glyph glyph-name="Scaron" horiz-adv-x="485" unicode="Š" d="M236 33q44 0 91 31.5t59 86.5q5 25 5 39q0 40 -21 60.5t-63 38.5q-33 14 -56.5 26.5t-49 32.5t-38.5 46t-13 57q0 18 4 34q18 83 87 128t143 45q34 0 62 -4.5t43 -11t25.5 -13.5t13.5 -11l4 -5l2 -3q-27 -54 -41 -96l-10 -1q-25 105 -117 105q-40 0 -80 -31t-49 -75 q-3 -12 -3 -22q0 -23 11 -42.5t31 -33.5t33.5 -20.5t32.5 -14.5q65 -25 104.5 -60t39.5 -95q0 -15 -5 -38q-19 -88 -96 -142t-167 -54q-54 0 -97 11t-59 23l-16 11l-1 3q29 62 41 98l10 1q11 -47 49 -75.5t91 -28.5zM376 697q-27 46 -80 95l20 20q54 -26 93 -61 q62 38 120 61l11 -20q-62 -41 -121 -95h-43z"/>
<glyph glyph-name="scaron" horiz-adv-x="366" unicode="š" d="M276 502q-24 60 -74 130l23 13q60 -53 87 -90q47 40 127 90l16 -13q-81 -74 -129 -130h-50zM67 96l15 1q10 -32 36.5 -51t60.5 -19q38 0 66 23.5t36 62.5q2 12 2 16q0 6 -1 11t-4 9.5t-5 8t-8 7.5l-9 6t-11 6t-11.5 5.5t-14 5.5t-14.5 6q-66 28 -81 58q-8 16 -8 38 q0 18 2 27q13 58 66 90t112 32q61 0 112 -32l1 -3l-33 -67l-14 -1q-17 67 -77 67q-32 0 -59 -18.5t-34 -48.5q-1 -5 -1 -14q0 -18 13.5 -32t24 -19t32.5 -13q25 -10 40 -17t31.5 -19t24 -28t7.5 -38q0 -14 -3 -29q-12 -53 -57 -95t-132 -42q-70 0 -137 27z"/>
<glyph glyph-name="Ydieresis" horiz-adv-x="591" unicode="Ÿ" d="M395 286q-47 -232 -54 -289q-15 3 -51 3q-35 0 -52 -3q19 60 66 278q-19 52 -75 191t-75 182q16 -3 56 -3t58 3q11 -37 25.5 -79t25.5 -72t30 -80t29 -77q145 171 240 308q11 -3 41 -3q29 0 43 3q-34 -39 -86 -98.5t-76.5 -87.5t-56 -65t-51.5 -62.5t-37 -48.5zM499 751 q4 19 20 32.5t35 13.5q16 0 27 -10.5t11 -26.5q0 -6 -1 -9q-4 -19 -20.5 -32.5t-35.5 -13.5q-16 0 -26.5 10.5t-10.5 26.5q0 6 1 9zM339 751q4 19 20 32.5t35 13.5q16 0 27 -10.5t11 -26.5q0 -6 -1 -9q-4 -19 -20.5 -32.5t-35.5 -13.5q-16 0 -26.5 10.5t-10.5 26.5q0 6 1 9z "/>
<glyph glyph-name="circumflex" horiz-adv-x="349" unicode="ˆ" d="M345 668q22 -55 74 -129l-24 -14q-60 53 -87 90q-55 -46 -126 -90l-17 14q90 82 130 129h50z"/>
<glyph glyph-name="tilde" horiz-adv-x="292" unicode="˜" d="M340 618q33 0 61 52l23 -6q-38 -90 -106 -90q-25 0 -58 26q-32 22 -50 22q-34 0 -59 -48l-23 5q39 89 99 89q32 0 66 -28q24 -22 47 -22z"/>
<glyph glyph-name="Alpha" horiz-adv-x="633" unicode="Α" d="M468 276q-20 115 -49 246h-2q-8 -13 -67.5 -104.5t-90.5 -141.5q16 0 53 -1t51 -1q39 0 105 2zM230 228q-103 -168 -133 -231q-11 3 -44 3q-23 0 -36 -3q268 400 436 661h28q18 -84 47 -236.5t51.5 -266.5t34.5 -158q-16 3 -59 3q-33 0 -51 -3q-4 79 -28 231 q-76 2 -117 2q-53 0 -129 -2z"/>
<glyph glyph-name="Beta" horiz-adv-x="582" unicode="Β" d="M283 645q25 0 65.5 1.5t56.5 1.5q186 0 186 -116q0 -23 -4 -39q-9 -40 -43.5 -77t-77.5 -56q118 -35 118 -137q0 -20 -4 -39q-7 -35 -25.5 -66t-51.5 -59.5t-88.5 -45t-126.5 -16.5q-49 0 -83.5 1.5t-58.5 1.5l-53 -3v3q24 66 53 200l52 245q27 125 32 200l3 3 q16 -3 50 -3zM258 327l-50 -239q-2 -12 -2 -16q0 -16 16 -23.5t57 -7.5q55 0 92.5 8.5t58 26.5t30.5 38t17 51q5 27 5 45q0 54 -33.5 85.5t-103.5 31.5h-87zM308 559l-40 -188h72q66 0 105 24.5t52 85.5q5 25 5 39q0 84 -100 84q-57 0 -72.5 -9t-21.5 -36z"/>
<glyph glyph-name="Gamma" horiz-adv-x="481" unicode="Γ" d="M280 445l-53 -245q-28 -132 -32 -200l-2 -3q-16 3 -51 3l-53 -3l-1 3q26 75 53 200l53 245q26 123 32 200l2 3q17 -3 51 -3h273q37 0 61 3l1 -3q-7 -26 -8 -29q-2 -12 -5 -33l-3 -4q-145 12 -279 12q-9 -18 -39 -146z"/>
<glyph glyph-name="Delta" horiz-adv-x="636" unicode="Δ" d="M492 658l108 -638q1 -6 1 -12q0 -8 -22 -8h-528q-20 0 -20 6q0 2 0.5 3t3 4t4.5 7l391 638h62zM416 547l-302 -503h387l-83 503h-2z"/>
<glyph glyph-name="Epsilon" horiz-adv-x="522" unicode="Ε" d="M224 200q-5 -22 -14 -76t-8 -70q60 0 131 3t112 6l41 3l1 -4q-5 -14 -9 -33q-1 -4 -1.5 -8t-1 -10t-1.5 -11l-3 -3q-24 3 -59 3h-273l-53 -3v3q24 66 53 200l52 245q27 125 32 200l3 3q16 -3 50 -3h263q37 0 61 3l1 -3q-2 -7 -8 -31q-2 -8 -4 -26l-3 -4q-135 12 -269 12 q-8 -17 -40 -151l-18 -82q105 0 225 10l3 -3q-6 -12 -9 -28q-3 -14 -3 -28l-4 -3q-97 10 -221 10z"/>
<glyph glyph-name="Zeta" horiz-adv-x="604" unicode="Ζ" d="M178 54q58 0 159 3t173 5l71 3l1 -3q-5 -14 -9 -33q-1 -4 -1.5 -8t-1 -10t-1.5 -11l-3 -3q-24 3 -70 3h-383l-88 -3l-2 4q8 8 19.5 21t14.5 16l504 541q10 12 0 12q-55 0 -149.5 -2.5t-161.5 -5.5l-67 -3l-1 3q5 14 9 33q1 4 1.5 8t1 10t1.5 11l3 3q24 -3 60 -3h324 q76 0 127 6q5 0 5 -4q0 -12 -41 -56l-486 -519q-7 -9 -9 -18z"/>
<glyph glyph-name="Eta" horiz-adv-x="700" unicode="Η" d="M606 445q27 125 32 200l3 3q16 -3 50 -3l53 3v-3q-23 -64 -52 -200l-52 -245q-28 -132 -33 -200l-3 -3q-16 3 -50 3l-53 -3v3q24 66 53 200l25 121h-322l-25 -121q-28 -132 -33 -200l-3 -3q-16 3 -50 3l-53 -3v3q24 66 53 200l52 245q27 125 32 200l3 3q16 -3 50 -3l53 3 v-3q-23 -64 -52 -200l-18 -82h322z"/>
<glyph glyph-name="Theta" horiz-adv-x="721" unicode="Θ" d="M749 329q-32 -150 -140.5 -244.5t-251.5 -94.5q-114 0 -186 66t-72 178q0 36 9 76q32 147 144 247.5t246 100.5q117 0 188.5 -67.5t71.5 -181.5q0 -38 -9 -80zM476 614q-38 0 -75.5 -16t-74 -48.5t-66.5 -90t-46 -132.5q-9 -40 -9 -87q0 -98 51.5 -152t129.5 -54 q88 0 158 72.5t98 203.5q13 61 13 112q0 96 -46.5 144t-132.5 48zM281 284l-2 2q6 16 9 31l6 42l4 1q60 -10 139 -10q69 0 142 10l2 -2q-9 -26 -12 -41l-3 -32l-4 -1q-60 10 -134 10q-78 0 -147 -10z"/>
<glyph glyph-name="Iota" horiz-adv-x="293" unicode="Ι" d="M201 445q27 125 32 200l3 3q16 -3 50 -3l52 3l1 -3q-23 -64 -52 -200l-53 -245q-27 -125 -32 -200l-3 -3q-16 3 -50 3l-53 -3v3q22 59 52 200z"/>
<glyph glyph-name="Kappa" horiz-adv-x="637" unicode="Κ" d="M201 445q27 125 32 200l3 3q16 -3 50 -3l53 3v-3q-23 -64 -52 -200l-21 -97q3 1 9 5q139 103 348 295q12 -3 48 -3q35 0 52 3q-249 -184 -367 -294v-2l238 -355q-18 3 -61 3q-45 0 -63 -3q-156 262 -205 325q-2 2 -4 3l-27 -125q-27 -125 -32 -200l-3 -3q-16 3 -50 3 l-53 -3v3q22 59 52 200z"/>
<glyph glyph-name="Lambda" horiz-adv-x="625" unicode="Λ" d="M408 513q-7 -11 -40.5 -63t-45.5 -71t-43 -67t-46 -72.5t-40 -65t-40 -67t-31.5 -56.5t-27.5 -54q-11 3 -49 3q-23 0 -36 -3q292 437 435 658h28q16 -77 46.5 -234.5t53 -268t34.5 -155.5q-16 3 -59 3q-38 0 -56 -3q-11 200 -81 516h-2z"/>
<glyph glyph-name="Mu" horiz-adv-x="839" unicode="Μ" d="M274 662h26q66 -247 156 -516l388 516h22q-7 -73 -22.5 -217.5t-25 -247.5t-16.5 -200q-14 3 -49 3q-34 0 -50 -3q42 315 56 476q-10 -13 -56.5 -75t-62 -82t-54 -72.5t-60.5 -83.5t-52.5 -75.5t-56.5 -84.5h-19q-13 51 -137 472q-123 -378 -145 -475q-10 3 -37 3t-39 -3 q156 420 234 665z"/>
<glyph glyph-name="Nu" horiz-adv-x="695" unicode="Ν" d="M196 445q27 125 32 200l3 3q16 -3 50 -3l14 2l249 -444q5 -8 10.5 -18.5t8.5 -16l6 -11t5.5 -8t4.5 -2.5q5 0 12 31l57 267q27 125 32 200l3 3q10 -3 34 -3l36 3v-3q-23 -64 -52 -200l-91 -424q-7 -31 -27 -31q-25 0 -38 24l-255 441q-18 33 -25 33q-8 0 -18 -49 l-51 -239q-27 -125 -32 -200l-3 -3q-10 3 -34 3l-36 -3v3q26 71 53 200z"/>
<glyph glyph-name="Xi" horiz-adv-x="648" unicode="Ξ" d="M400 0h-152q-121 0 -202 -11l-3 2q5 8 12 42l7 45l3 1q64 -10 198 -10h152q133 0 202 10l3 -1q-6 -10 -13 -45l-6 -42l-3 -2q-76 11 -198 11zM522 576h-152q-121 0 -202 -11l-2 2q4 8 11 42l7 45l3 1q64 -10 198 -10h152q133 0 202 10l3 -1q-6 -10 -13 -45l-5 -42l-4 -2 q-76 11 -198 11zM211 284l-2 2q6 16 9 31l6 42l4 1q60 -10 169 -10t182 10l2 -2q-9 -26 -12 -41l-3 -32l-4 -1q-60 10 -174 10q-108 0 -177 -10z"/>
<glyph glyph-name="Omicron" horiz-adv-x="721" unicode="Ο" d="M749 329q-32 -150 -140.5 -244.5t-251.5 -94.5q-114 0 -186 66t-72 178q0 36 9 76q32 147 144 247.5t246 100.5q117 0 188.5 -67.5t71.5 -181.5q0 -38 -9 -80zM476 614q-38 0 -75.5 -16t-74 -48.5t-66.5 -90t-46 -132.5q-9 -40 -9 -87q0 -98 51.5 -152t129.5 -54 q88 0 158 72.5t98 203.5q13 61 13 112q0 96 -46.5 144t-132.5 48z"/>
<glyph glyph-name="Pi" horiz-adv-x="708" unicode="Π" d="M701 645l53 3v-3q-22 -59 -52 -200l-52 -245q-27 -125 -32 -200l-3 -3q-17 3 -51 3l-53 -3v3q26 71 53 200l52 245q25 106 22 143q-7 13 -23 13h-266q-16 0 -29 -13q-8 -16 -38 -143l-52 -245q-30 -138 -33 -200l-2 -3q-16 3 -51 3l-53 -3l-1 3q29 82 54 200l52 245 q26 123 32 200l2 3q17 -3 51 -3h420z"/>
<glyph glyph-name="Rho" horiz-adv-x="522" unicode="Ρ" d="M198 445q27 125 32 200l3 3q16 -3 50 -3q15 0 67 3.5t65 3.5q105 0 147.5 -39.5t42.5 -94.5q0 -12 -4 -32q-7 -35 -26 -68.5t-51 -65t-84 -51t-117 -19.5q-43 0 -72 10l-19 -92q-28 -132 -33 -200l-3 -3q-16 3 -50 3l-53 -3v3q24 66 53 200zM311 574l-53 -248 q17 -10 67 -10q74 0 116 36t59 116q7 31 7 57q0 54 -28.5 73.5t-78.5 19.5t-67 -10t-22 -34z"/>
<glyph glyph-name="Sigma" horiz-adv-x="594" unicode="Σ" d="M260 645h337q37 0 61 3l1 -3q-7 -26 -8 -29q-2 -12 -5 -33l-3 -4q-170 9 -279 12h-15l-62 -1l125 -259l-287 -283q87 4 143 6l285 12l1 -4q-5 -14 -9 -33q-1 -4 -1.5 -8t-1 -10t-1.5 -11l-3 -3q-24 3 -59 3h-387l-70 -2l-2 2l5 24l3 3q12 10 23 21l267 261l2 1l-129 266 q-14 29 -27 42l-1 2l5 25l2 1z"/>
<glyph glyph-name="Tau" horiz-adv-x="540" unicode="Τ" d="M322 445q25 106 22 141q-60 0 -111 -3t-73 -6l-21 -3l-1 4q8 23 14 67l3 3q24 -3 59 -3h386q37 0 61 3l1 -3q-12 -44 -14 -67l-3 -4q-65 12 -199 12q-9 -18 -38 -141l-52 -245q-28 -132 -33 -200l-3 -3q-16 3 -50 3l-53 -3v3q24 66 53 200z"/>
<glyph glyph-name="Upsilon" horiz-adv-x="591" unicode="Υ" d="M395 286q-47 -232 -54 -289q-15 3 -51 3q-35 0 -52 -3q19 60 66 278q-19 52 -75 191t-75 182q16 -3 56 -3t58 3q11 -37 25.5 -79t25.5 -72t30 -80t29 -77q145 171 240 308q11 -3 41 -3q29 0 43 3q-34 -39 -86 -98.5t-76.5 -87.5t-56 -65t-51.5 -62.5t-37 -48.5z"/>
<glyph glyph-name="Phi" horiz-adv-x="677" unicode="Φ" d="M414 147q57 6 97 23.5t61.5 46t31 51.5t16.5 56q6 30 6 53q0 60 -36 87.5t-102 34.5q-2 -9 -5.5 -27t-5.5 -27l-53 -245q-3 -14 -10 -53zM327 147q2 9 5.5 27t5.5 26l53 245q2 8 5.5 26.5t5.5 28.5q-173 -14 -206 -169q-5 -24 -5 -51q0 -116 136 -133zM318 110 q-65 5 -111 23.5t-67.5 45.5t-30 52t-8.5 53q0 20 4 40q15 70 94.5 135.5t209.5 77.5q11 63 14 108l3 3q16 -3 50 -3l53 3v-3q-13 -36 -31 -107q100 -8 158.5 -56t58.5 -117q0 -12 -4 -34q-17 -79 -102.5 -144.5t-201.5 -76.5q-13 -73 -15 -110l-3 -3q-16 3 -50 3l-53 -3v3 q15 39 32 110z"/>
<glyph glyph-name="Chi" horiz-adv-x="571" unicode="Χ" d="M553 -3q-17 3 -57 3t-59 -3q-57 183 -97 286q-134 -153 -234 -286q-10 3 -41 3t-43 -3q146 166 299 334q-52 129 -135 317q16 -3 55 -3t58 3q21 -77 88 -244q126 138 205 244q10 -3 41 -3t43 3q-11 -12 -106.5 -113.5t-163.5 -176.5q8 -19 59.5 -145t87.5 -216z"/>
<glyph glyph-name="Psi" horiz-adv-x="694" unicode="Ψ" d="M400 445q27 125 32 200l3 3q16 -3 50 -3l53 3v-3q-23 -64 -52 -200l-45 -209q38 8 70 33.5t50.5 52.5t33.5 63t20 54.5t9 37.5q30 139 121 139h36q19 0 19 -14q0 -10 -17 -14q-15 -4 -22 -7t-21 -14t-24 -34.5t-18 -59.5q-15 -69 -43.5 -120.5t-65.5 -82t-75 -47 t-80 -21.5v-2q-28 -132 -33 -200l-3 -3q-16 3 -50 3l-53 -3v3q24 66 53 200v3q-71 9 -117 51t-46 125q0 36 8 71q9 40 9 74q0 20 -3.5 33t-12.5 20t-12 8.5t-14 4.5t-11 8q0 8 7.5 13t16.5 5h38q68 0 68 -84q0 -26 -8 -66q-10 -46 -10 -84q0 -119 94 -146z"/>
<glyph glyph-name="alpha" horiz-adv-x="567" unicode="α" d="M407 222v21q-2 80 -18 118.5t-58 38.5q-53 0 -100.5 -49t-64.5 -132q-11 -50 -11 -88q0 -102 73 -102q68 0 154 152zM451 191l1 -58q3 -82 39 -82q19 0 31.5 7.5t29.5 29.5l25 -9q-26 -48 -51.5 -68.5t-58.5 -20.5q-55 0 -58 101v39q-54 -75 -98.5 -107.5t-95.5 -32.5 q-147 0 -147 138q0 28 8 68q11 53 34 95.5t51 69.5t61 45t63 25.5t59 7.5q34 0 56.5 -15t32 -39t13 -42.5t3.5 -36.5l-1 -12l82 140q8 0 24 -2.5t23 -2.5q8 0 23.5 2.5t21.5 2.5z"/>
<glyph glyph-name="beta" horiz-adv-x="514" unicode="β" d="M170 80q26 -56 106 -56q53 0 95 58t55 118q8 34 8 66q0 99 -68 114q-33 -15 -51 -15q-13 0 -22 8.5t-9 21.5q0 5 1 8q3 13 13.5 21.5t21.5 8.5q26 0 57 -12q29 5 55 46t34 79q4 16 4 35q0 37 -18.5 59.5t-53.5 22.5q-104 0 -141 -173zM140 -61q-19 -94 -40 -146l-90 -31 l-8 18q39 66 69 210l93 439q28 132 88 200.5t163 68.5q57 0 96.5 -29t39.5 -82q0 -9 -4 -31q-21 -95 -144 -154q21 -8 34.5 -15t36 -23t34.5 -44t12 -64q0 -24 -6 -52q-18 -87 -87 -150.5t-152 -63.5t-117 31z"/>
<glyph glyph-name="gamma" horiz-adv-x="494" unicode="γ" d="M155 -135q12 54 41 99l41 63q-14 152 -58 317q-5 22 -15 29t-25 7t-38 -5l1 30q43 8 76 22.5t47 14.5t17 -13q43 -199 54 -312q79 129 130 217q37 63 50 102q18 -7 47 -7q21 0 52 9l5 -2q-43 -42 -90 -104l-148 -205q-33 -47 -42 -61q0 -5 0.5 -15t0.5 -15v-35 q0 -84 -7 -121q-12 -55 -33.5 -85t-62.5 -30q-24 0 -35 19.5t-11 48.5q0 17 3 32zM240 -29q-35 -63 -43 -99q-5 -25 -5 -40q0 -28 13 -28q19 0 29 44q7 35 7 83q0 26 -1 40z"/>
<glyph glyph-name="delta" horiz-adv-x="486" unicode="δ" d="M343 407q-158 -71 -185 -196q-6 -27 -6 -57q0 -57 24 -95.5t74 -38.5q22 0 43.5 7.5t45.5 26.5t45 59.5t33 98.5q4 22 4 34q0 84 -51 135zM319 430l-12 12q-46 45 -65.5 75.5t-19.5 60.5q0 14 2 22q9 45 45.5 71.5t82.5 26.5t118 -37q66 -36 66 -54q0 -20 -18.5 -29 t-33.5 -9q-40 0 -61 44q-25 52 -70 52q-63 0 -75 -51q-1 -3 -1 -10q0 -20 19 -44t65 -67l59 -53q47 -40 70 -97q13 -36 13 -75q0 -25 -4 -44q-25 -114 -101.5 -174t-164.5 -60q-76 0 -118 43t-42 111q0 28 5 49q17 80 87 141.5t154 95.5z"/>
<glyph glyph-name="epsilon" horiz-adv-x="397" unicode="ε" d="M149 121q-3 -12 -3 -23q0 -33 21 -53.5t58 -20.5q59 0 134 45l11 -19q-77 -60 -163 -60q-77 0 -109 28.5t-32 70.5q0 16 3 29q17 80 118 111q-58 25 -58 69q0 15 2 24q8 40 53.5 78.5t124.5 38.5q52 0 86.5 -19.5t34.5 -45.5q0 -5 -1 -7q-4 -19 -17 -28t-26 -9 q-15 0 -22 8.5t-13 24.5q-4 14 -8 22.5t-16 16.5t-30 8q-29 0 -57 -20.5t-37 -65.5q-4 -22 -4 -30q0 -53 65 -53l24 3q25 2 28 2q26 0 26 -15q0 -25 -35 -25q-4 0 -24.5 3t-25.5 3q-42 0 -70.5 -24.5t-37.5 -66.5z"/>
<glyph glyph-name="zeta" horiz-adv-x="433" unicode="ζ" d="M203 -229q-40 0 -64.5 12t-24.5 30v5q4 15 16.5 24t25.5 9q38 0 53 -26q8 -13 45 -13q29 0 57 28t37 71q3 12 3 24q0 59 -71 59q-205 0 -205 137q0 18 8 60q33 157 277 377q-49 -17 -80 -17q-44 0 -70.5 28.5t-25.5 78.5q25 24 65 40h9q-1 -3 -2.5 -10t-2.5 -10 q-3 -15 -3 -28q0 -32 16 -50t36 -18q35 0 93 22q81 71 113 71t32 -21q0 -5 -1 -8q-3 -17 -34 -31t-101 -36q-209 -210 -245 -377q-8 -40 -8 -59q0 -41 28.5 -63.5t101.5 -22.5q53 0 79.5 -27t26.5 -75q0 -18 -5 -43q-11 -50 -60 -95.5t-119 -45.5z"/>
<glyph glyph-name="eta" horiz-adv-x="523" unicode="η" d="M244 357q71 82 176 82q91 0 91 -97q0 -29 -7 -61l-61 -287q-6 -29 -15 -76.5t-12 -61.5q-8 -40 -17 -60l-89 -34l-7 18q23 40 60 214l59 279q7 35 7 55q0 61 -56 61q-70 0 -140 -82l-27 -127q-23 -109 -28 -180l-3 -3q-13 3 -47 3l-50 -3v3q23 61 48 180l12 55 q26 121 27 176l3 3q29 2 91 25q10 0 7 -10l-24 -72h2z"/>
<glyph glyph-name="theta" horiz-adv-x="491" unicode="θ" d="M112 344q36 168 119.5 261t165.5 93q56 0 100.5 -53.5t44.5 -163.5q0 -61 -16 -137q-21 -97 -57.5 -170t-78 -111.5t-79.5 -56.5t-71 -18q-59 0 -102 51t-43 160q0 66 17 145zM438 321h-248q-14 -70 -14 -133q0 -74 19.5 -120t57.5 -46q37 0 74.5 45t65.5 112t45 142z M448 365q14 66 14 133q0 75 -20 120.5t-58 45.5q-39 0 -78 -49t-65 -114.5t-41 -135.5h248z"/>
<glyph glyph-name="iota" horiz-adv-x="282" unicode="ι" d="M152 322q10 48 10 71q0 18 -5 36l3 2q12 -2 43 -2q25 0 52 10q-11 -64 -18 -96l-54 -252q-4 -22 -4 -27q0 -18 18 -18q34 0 75 41l18 -17q-26 -33 -59 -57.5t-62 -24.5q-35 0 -53.5 16t-18.5 45q0 14 2 22z"/>
<glyph glyph-name="kappa" horiz-adv-x="523" unicode="κ" d="M266 429q-7 -18 -15 -48.5t-13 -52.5l-5 -21l-13 -62q21 0 53 30l48 47q44 43 66.5 63t52 38.5t50.5 18.5t36 -11t15 -30q0 -7 -1 -11q-3 -13 -17 -22.5t-28 -9.5q-25 0 -36 13q-9 11 -20 11q-18 0 -83 -65l-44 -43q-4 -4 -6 -13v-5q0 -15 9 -33l48 -116q4 -9 8.5 -21 t7 -17.5t6 -12t6 -9t7 -4.5t9.5 -2q16 0 38 22l16 -17q-36 -35 -57.5 -45.5t-44.5 -10.5q-18 0 -30.5 14.5t-30.5 58.5l-48 117q-6 15 -13 20t-25 5l-6 -25q-23 -109 -28 -180l-3 -3q-13 3 -47 3l-50 -3v3q23 61 48 180l12 55q26 121 27 176l3 3q29 2 91 25q10 0 7 -10z"/>
<glyph glyph-name="lambda" horiz-adv-x="531" unicode="λ" d="M534 60q-20 -30 -48.5 -51t-50.5 -21q-36 0 -51 32t-21 106l-21 237l-220 -363q-54 -4 -78 -12l-22 12l314 435l-4 43q-14 159 -75 159q-38 0 -76 -25l-13 17q62 69 111 69q83 0 94 -129l31 -355q9 -104 17 -134.5t31 -30.5q35 0 63 28z"/>
<glyph glyph-name="mu" horiz-adv-x="488" unicode="μ" d="M474 343l-45 -212q-11 -50 -11 -68q0 -21 13 -21q20 0 48 44l18 -19q-50 -77 -112 -77q-23 0 -38 13.5t-15 38.5q0 6 2 20q-80 -72 -157 -72q-31 0 -48 12l-1 -2q0 -3 -1 -5q-1 -5 -7.5 -52.5t-12.5 -78.5q-7 -33 -21 -71l-86 -31l-7 18q24 41 60 213q3 13 9.5 34t8.5 32 q1 4 2 23t3 30l44 210q13 62 13 95v14q12 -2 34 -2q29 0 56 10q-11 -64 -18 -96l-40 -189q-7 -37 -7 -56q0 -58 48 -58q38 0 76 19.5t62 46.5l45 216q17 80 18 109q12 -2 34 -2q29 0 56 10q-16 -64 -23 -96z"/>
<glyph glyph-name="nu" horiz-adv-x="479" unicode="ν" d="M274 70q84 98 116.5 143.5t37.5 72.5q4 21 4 38q0 11 -3 27t-3 25q0 10 3 25q3 14 21 27.5t40 13.5q34 0 34 -39q0 -4 -2 -16q-27 -125 -282 -397h-34q-45 261 -89 442q15 -3 52 -3t51 3q24 -233 54 -362z"/>
<glyph glyph-name="xi" horiz-adv-x="422" unicode="ξ" d="M326 568q-27 -7 -54 -7q-46 0 -68 18.5t-21 66.5q31 40 61 52h9q-1 -6 -5 -20q-3 -15 -3 -28q0 -30 14.5 -44.5t34.5 -14.5q38 0 72 13q93 66 122 66q22 0 22 -19q0 -7 -1 -10q-3 -17 -35 -30.5t-94 -31.5q-128 -89 -139 -144q-3 -14 -3 -25q0 -26 13 -39t33 -13 q30 0 71 15t53 15q23 0 23 -21v-7q-9 -39 -55 -39q-8 0 -23 1t-22 1q-41 0 -89 -12q-33 -15 -59.5 -49t-37.5 -83q-4 -22 -4 -34q0 -87 117 -87q57 0 91 -25.5t34 -75.5q0 -18 -4 -35q-13 -61 -67.5 -105.5t-130.5 -44.5q-70 0 -70 32q0 5 1 8q6 29 42 29q19 0 53 -17 q21 -12 55 -12q26 0 53 34t36 76q2 10 2 15q0 57 -96 57q-187 0 -187 132q0 19 5 44q23 113 150 166q-29 10 -43 23t-14 38q0 15 2 24q4 19 20 40t43 42t45.5 33.5t47.5 31.5z"/>
<glyph glyph-name="omicron" horiz-adv-x="510" unicode="ο" d="M335 398q-61 0 -103.5 -49.5t-57.5 -120.5q-5 -21 -5 -56q0 -59 25.5 -100t81.5 -41q43 0 87 36.5t61 119.5q11 49 11 92q0 119 -100 119zM80 205q22 103 97 168.5t173 65.5q90 0 133 -48t43 -121q0 -29 -6 -56q-19 -88 -92.5 -156t-174.5 -68q-85 0 -131.5 48t-46.5 120 q0 20 5 47z"/>
<glyph glyph-name="pi" horiz-adv-x="566" unicode="π" d="M622 429l9 -12q-21 -29 -39.5 -42.5t-44.5 -13.5h-70q-11 -36 -57 -255q-5 -22 -5 -34q0 -31 23 -31q45 0 99 45l15 -16q-79 -82 -133 -82q-38 0 -55 13t-17 44q0 14 7 47q16 77 61 269h-124q-39 -187 -90.5 -280t-123.5 -93q-9 0 -17 6t-8 19q0 6 1 9q2 11 13.5 26 t29.5 18q12 2 20.5 6.5t25 22t30.5 46.5t32 85.5t35 134.5h-18q-75 0 -117 -79l-19 3q18 52 55 98t73 46h409z"/>
<glyph glyph-name="rho" horiz-adv-x="520" unicode="ρ" d="M435 189q11 52 11 86q0 126 -110 126q-98 0 -135 -173l-34 -156q43 -52 100 -52q62 0 106.5 44.5t61.5 124.5zM100 -207l-86 -31l-7 18q39 66 69 210l41 194q14 64 32 107t31 59t34 33q66 56 150 56q77 0 124 -46.5t47 -117.5q0 -19 -5 -44q-23 -112 -101.5 -176.5 t-181.5 -64.5q-53 0 -91 27l-17 -78q-21 -100 -39 -146z"/>
<glyph glyph-name="sigma1" horiz-adv-x="441" unicode="ς" d="M72 188q12 57 49 113t102 98.5t140 42.5q63 0 91.5 -16t28.5 -39q0 -5 -1 -7q-5 -20 -20 -33.5t-35 -13.5q-24 0 -44 25q-25 31 -68 31q-63 0 -118 -58.5t-68 -121.5q-5 -23 -5 -47q0 -55 40.5 -75.5t129.5 -20.5q54 0 83 -37q19 -24 19 -57q0 -25 -8 -59 q-13 -58 -64.5 -102t-115.5 -44q-40 0 -65 12t-25 30q0 1 0.5 2.5t0.5 2.5q4 15 16.5 24t25.5 9q37 0 52 -26q8 -13 45 -13q23 0 54 27.5t41 75.5q2 10 2 15q0 33 -38 46.5t-118 17.5q-65 3 -98.5 45t-33.5 104q0 28 5 49z"/>
<glyph glyph-name="sigma" horiz-adv-x="562" unicode="σ" d="M266 24q49 0 90 41t56 110q7 31 7 59q0 66 -56 127q-91 0 -143 -47.5t-68 -125.5q-4 -22 -4 -36q0 -53 29 -90.5t89 -37.5zM549 361h-136q35 -20 56.5 -58.5t21.5 -86.5q0 -24 -4 -44q-5 -25 -20 -53t-41.5 -58.5t-72 -50.5t-101.5 -20q-85 0 -131.5 43t-46.5 116 q0 27 6 55q21 97 100 162q76 63 202 63h241l9 -12q-21 -29 -39 -42.5t-44 -13.5z"/>
<glyph glyph-name="tau" horiz-adv-x="441" unicode="τ" d="M215 429h297l9 -12q-21 -29 -39.5 -42.5t-44.5 -13.5h-112q-56 -188 -71 -255q-4 -17 -4 -34q0 -31 23 -31q42 0 97 46l15 -18q-79 -81 -137 -81q-34 0 -50.5 13t-16.5 44q0 13 5 38q23 105 81 278h-56q-36 0 -54.5 -15t-46.5 -63l-22 5q18 52 51.5 96.5t75.5 44.5z"/>
<glyph glyph-name="upsilon" horiz-adv-x="492" unicode="υ" d="M227 251l-13 -62q-11 -49 -11 -82q0 -36 18 -54.5t62 -18.5q62 0 109.5 61t64.5 142q8 40 8 60q0 21 -6 36t-13 21t-19 14q-25 15 -25 36q0 6 1 10q3 12 15 20t25 8q33 0 51 -28.5t18 -79.5q0 -39 -10 -85q-26 -123 -94.5 -191t-142.5 -68q-77 0 -110 29.5t-33 84.5 q0 24 9 69l13 62q26 121 27 176l3 3q33 2 94 25q10 0 7 -10q-26 -77 -48 -178z"/>
<glyph glyph-name="phi" horiz-adv-x="589" unicode="φ" d="M315 -8q-21 -99 -21 -152q0 -36 11 -60l-17 -18l-61 34q0 2 -0.5 5t-0.5 4q0 48 30 187q-177 10 -177 165q0 30 8 70q15 69 75.5 127.5t111.5 80.5l14 -21q-96 -65 -123 -196q-10 -48 -10 -80q0 -108 108 -117l50 239q13 58 28.5 90.5t48.5 60.5q35 28 83 28 q65 0 97.5 -40t32.5 -103q0 -24 -7 -59q-14 -68 -50.5 -118.5t-81.5 -75.5t-81 -36.5t-68 -14.5zM512 218q11 52 11 91q0 91 -58 91q-31 0 -53 -26.5t-37 -97.5l-54 -254q75 9 124.5 63t66.5 133z"/>
<glyph glyph-name="chi" horiz-adv-x="505" unicode="χ" d="M228 255q-8 71 -24 98t-51 27q-25 0 -51 -22l-12 18q8 7 23 21.5t23 21.5t21.5 13.5t26.5 6.5q46 0 67 -43.5t33 -136.5l11 -86l193 263q15 -4 22 -4l71 7l-93 -107l-188 -204l23 -179q11 -82 23.5 -102t45.5 -20q24 0 54 28l16 -16q-61 -71 -94 -71q-47 0 -65.5 37 t-34.5 144l-16 108l-122 -183l-87 -109l-45 10l-26 1l7 16l266 322z"/>
<glyph glyph-name="psi" horiz-adv-x="638" unicode="ψ" d="M575 304q24 60 48 132q17 -7 52 -7q21 0 52 9l5 -2q-6 -6 -23.5 -22.5t-25.5 -25t-18.5 -24t-17.5 -32.5l-65 -161q-26 -64 -82 -116t-128 -65q-3 -27 -11 -66q-16 -78 -37 -131l-83 -31l-7 18q49 83 80 210q-81 1 -114 42.5t-33 117.5q0 40 11 113l12 81q0 2 0.5 4 t0.5 3q0 29 -41 29q-16 0 -38 -5l1 30q42 8 82.5 22.5t55.5 14.5q8 0 12.5 -3.5t3.5 -9.5l-23 -158q-11 -77 -11 -116q0 -129 89 -138q17 68 37 159q42 196 96 514l41 -2l49 10l-51 -156q-42 -126 -91 -361q-10 -46 -26 -164q53 16 91 65t73 137z"/>
<glyph glyph-name="theta1" horiz-adv-x="551" unicode="ϑ" d="M116 132q20 93 21 144l2 3q34 3 95 25q10 0 7 -10q-28 -81 -45 -161q-4 -20 -4 -39q0 -75 85 -75q34 0 67.5 38.5t58.5 97.5t42.5 114.5t27.5 105.5q-101 0 -153 14.5t-79 47.5q-37 44 -37 94q0 21 6 48q11 51 61.5 85t108.5 34q95 0 142 -60t47 -150q0 -36 -8 -74 q49 0 68 -12q-7 -5 -12.5 -12.5t-10.5 -16t-8 -12.5q-20 14 -45 14q-37 -175 -114 -281t-184 -106q-73 0 -108.5 24t-35.5 76q0 17 5 44zM481 414q10 47 10 88q0 76 -30.5 116.5t-65.5 40.5q-49 0 -78 -21.5t-40 -72.5q-2 -7 -2 -24q0 -48 35 -84q41 -43 171 -43z"/>
<glyph glyph-name="Upsilon1" horiz-adv-x="552" unicode="ϒ" d="M272 200l21 100q20 94 20 163q0 45 -9 74q-24 76 -75 76q-47 0 -82 -24l-12 21q22 22 55 35t65 13q63 0 94 -52t31 -135q0 -22 -1 -34h2q14 32 34 66t49 71t65.5 60.5t72.5 23.5q32 0 52.5 -16t20.5 -39q0 -6 -1 -10q-3 -16 -15.5 -27.5t-27.5 -11.5q-30 0 -33 25 q-5 33 -26 33q-45 0 -104.5 -87.5t-82.5 -193.5l-27 -131q-28 -132 -33 -200l-3 -3q-16 3 -50 3l-53 -3v3q24 66 53 200z"/>
<glyph glyph-name="omega1" horiz-adv-x="692" unicode="ϖ" d="M626 217q6 27 6 49q0 77 -55.5 115.5t-137.5 38.5h-147q-30 0 -43 7t-21 31l14 11h229q109 0 174 -58t65 -143q0 -23 -4 -43q-19 -87 -83 -162t-149 -75q-43 0 -74.5 25t-40.5 80q-69 -105 -154 -105q-138 0 -138 127q0 25 8 62q16 72 77.5 131.5t142.5 93.5l9 -20 q-120 -56 -150 -198q-9 -42 -9 -72q0 -90 84 -90q31 0 60 25.5t64 80.5q-2 10 -2 31q0 31 6 59q6 26 20 46t31 20q26 0 26 -19q0 -3 -1.5 -9.5t-1.5 -8.5q-4 -21 -18 -55.5t-31 -60.5q8 -54 29.5 -81.5t62.5 -27.5q61 0 95 44t57 151z"/>
<glyph glyph-name="enspace" horiz-adv-x="518" unicode=" "/>
<glyph glyph-name="emspace" horiz-adv-x="756" unicode=" "/>
<glyph glyph-name="thinspace" horiz-adv-x="125" unicode=" "/>
<glyph glyph-name="endash" horiz-adv-x="534" unicode="–" d="M110 238q-11 0 -11 11v6q2 10 13 21t20 11h404q11 0 11 -11q0 -1 -0.5 -3t-0.5 -3q-2 -10 -12.5 -21t-19.5 -11h-404z"/>
<glyph glyph-name="emdash" horiz-adv-x="742" unicode="—" d="M90 287h684l-10 -49h-684z"/>
<glyph glyph-name="quoteleft" horiz-adv-x="268" unicode="‘" d="M314 558l-1 -4q-22 -38 -66 -54h-4q-46 18 -46 69q0 14 5 36q11 50 54 85.5t93 44.5q4 -4 4 -11t-4 -14q-38 -9 -69 -35t-34 -44q-1 -3 -1 -9q0 -17 25 -17q24 -6 33.5 -14.5t10.5 -32.5z"/>
<glyph glyph-name="quotesinglbase" horiz-adv-x="268" unicode="‚" d="M82 44l1 4q22 38 66 54h4q46 -18 46 -69q0 -14 -5 -36q-11 -50 -54 -85.5t-93 -44.5q-4 4 -4 11t4 14q38 9 69 35t34 44q1 3 1 9q0 17 -25 17q-24 6 -33.5 14.5t-10.5 32.5z"/>
<glyph glyph-name="quotedblleft" horiz-adv-x="375" unicode="“" d="M289 559l-1 -4q-22 -38 -65 -54h-4q-46 18 -46 69q0 19 4 36q11 50 54 85.5t93 44.5q9 -9 0 -25q-38 -9 -69 -35t-34 -44q-1 -3 -1 -9q0 -17 25 -17q24 -6 33.5 -14.5t10.5 -32.5zM446 559l-1 -4q-22 -38 -65 -54h-4q-46 18 -46 69q0 19 4 36q11 50 54 85.5t93 44.5 q4 -4 4 -11t-4 -14q-38 -9 -69 -35t-34 -44q-1 -3 -1 -9q0 -17 25 -17q24 -6 33.5 -14.5t10.5 -32.5z"/>
<glyph glyph-name="quotedblright" horiz-adv-x="375" unicode="”" d="M343 647l1 4q22 38 66 54h4q46 -18 46 -69q0 -14 -5 -36q-11 -50 -54 -85.5t-93 -44.5q-9 9 0 25q38 9 69 35t34 44q1 3 1 9q0 17 -25 17q-24 6 -33.5 14.5t-10.5 32.5zM186 647l1 4q22 38 66 54h4q46 -18 46 -69q0 -14 -5 -36q-11 -50 -54 -85.5t-93 -44.5q-4 4 -4 11 t4 14q38 9 69 35t34 44q1 3 1 9q0 17 -25 17q-24 6 -33.5 14.5t-10.5 32.5z"/>
<glyph glyph-name="dagger" horiz-adv-x="588" unicode="†" d="M457 697q15 0 24 -12.5t9 -31.5q0 -6 -2 -16q-24 -113 -75 -187q74 41 173 41q19 0 32 -12t13 -29q0 -7 -1 -10q-4 -21 -23 -35t-42 -14q-100 0 -157 39q-11 -50 -11 -97q0 -56 19 -88q-77 -139 -143 -452h-17q54 255 54 388q0 40 -4 64q56 50 85 185q-69 -39 -173 -39 q-19 0 -31.5 11t-12.5 28q0 2 2 10q5 21 23 36t40 15q99 0 157 -41q-10 38 -10 76q0 52 13 111q5 24 22 42t36 18z"/>
<glyph glyph-name="daggerdbl" horiz-adv-x="588" unicode="‡" d="M630 440q-4 -21 -23 -35t-42 -14q-100 0 -157 39q-11 -51 -11 -98q0 -55 19 -87q-59 -59 -86 -185q75 39 173 39q19 0 32 -10.5t13 -28.5q0 -6 -1 -10q-4 -21 -23.5 -35.5t-41.5 -14.5q-98 0 -156 40q9 -34 9 -77q0 -52 -13 -110q-5 -23 -21.5 -41.5t-35.5 -18.5 q-15 0 -24.5 12.5t-9.5 31.5q0 4 2 16q25 113 75 187q-73 -40 -173 -40q-19 0 -31.5 11t-12.5 29q0 2 2 10q4 21 23.5 35t39.5 14q101 0 157 -39q12 58 12 101q0 55 -19 84q56 50 85 185q-69 -39 -173 -39q-19 0 -31.5 11t-12.5 28q0 2 2 10q5 21 23 36t40 15q99 0 157 -41 q-10 38 -10 76q0 52 13 111q5 24 22 42t36 18q15 0 24 -12.5t9 -31.5q0 -6 -2 -16q-24 -113 -75 -187q74 41 173 41q20 0 32.5 -11.5t12.5 -29.5q0 -6 -1 -10z"/>
<glyph glyph-name="perthousand" horiz-adv-x="911" unicode="‰" d="M195 398q-3 -14 -3 -24q0 -22 10.5 -32t23.5 -10q38 0 75 49t47 98q2 8 2 22q0 39 -34 39q-35 0 -73 -47.5t-48 -94.5zM475 521q40 0 87 13t74 41l29 -16l-532 -571l-30 15l465 500q-52 -19 -111 -19q-44 0 -76 21q0 -16 -2 -25q-13 -58 -61 -117.5t-105 -59.5 q-35 0 -52.5 23t-17.5 57q0 9 4 29q12 60 61.5 109.5t102.5 49.5q20 0 38 -7.5t24 -17.5q49 -25 102 -25zM401 98q13 59 62 108.5t103 49.5q70 0 70 -63q0 -11 -3 -28q-12 -59 -60 -118t-105 -59q-35 0 -52.5 23t-17.5 58q0 14 3 29zM450 83q-3 -13 -3 -25q0 -41 34 -41 q38 0 75 49.5t47 97.5q2 8 2 21q0 22 -11 31t-23 9q-35 0 -73 -47.5t-48 -94.5zM753 17q40 0 77 50t47 96q2 8 2 21q0 21 -10.5 31t-23.5 10q-33 0 -72 -46.5t-50 -95.5q-3 -12 -3 -23q0 -43 33 -43zM907 164q-13 -58 -61 -117t-105 -59q-33 0 -51.5 21.5t-18.5 56.5 q0 14 3 30q13 60 62 110t104 50q29 0 49.5 -15t20.5 -49q0 -12 -3 -28z"/>
<glyph glyph-name="minute" horiz-adv-x="249" unicode="′" d="M295 658q14 0 24.5 -8.5t10.5 -20.5v-6q-2 -10 -10 -18l-118 -122q-8 -8 -14 -8q-12 0 -12 10q0 3 5 13l82 143q9 17 32 17z"/>
<glyph glyph-name="second" horiz-adv-x="381" unicode="″" d="M295 658q14 0 24.5 -8.5t10.5 -20.5q0 -1 -0.5 -3t-0.5 -3q-2 -11 -9 -18l-118 -122q-8 -8 -14 -8q-12 0 -12 10q0 3 5 13l82 143q9 17 32 17zM427 658q14 0 24.5 -8.5t10.5 -20.5v-6q-2 -10 -10 -18l-118 -122q-8 -8 -14 -8q-12 0 -12 10q0 3 5 13l82 143q9 17 32 17z "/>
<glyph glyph-name="guilsinglleft" horiz-adv-x="355" unicode="‹" d="M379 430l-11 -54q-96 -104 -174 -161q54 -52 106 -160l-12 -54q-92 142 -178 195l8 39q122 73 261 195z"/>
<glyph glyph-name="guilsinglright" horiz-adv-x="355" unicode="›" d="M68 0l11 54q94 102 175 161q-54 52 -106 160l11 54q91 -140 179 -195l-9 -39q-121 -73 -261 -195z"/>
<glyph glyph-name="uni203E" horiz-adv-x="423" unicode="‾" d="M534 688l-9 -44h-352l9 44h352z"/>
<glyph glyph-name="fraction" horiz-adv-x="44" unicode="⁄" d="M352 601h42l-598 -655h-42z"/>
<glyph glyph-name="Euro" horiz-adv-x="438" unicode="€" d="M279 -10q-92 0 -137 50.5t-45 137.5q0 22 3 45h-53l2 9l25 25h31q1 3 2 9t2 9q2 11 8 33h-37l3 10l24 24h20q38 108 109.5 172t158.5 64q44 0 76.5 -11t42.5 -21l11 -11l1 -3l-13.5 -27t-10 -21t-6.5 -18t-9 -30l-10 -1q-13 62 -32 82t-73 20q-43 0 -88.5 -49.5 t-74.5 -145.5h225l-26 -34h-208q-1 -3 -2.5 -10t-2.5 -10q-1 -5 -3 -15.5t-3 -15.5h192l-26 -34h-170q-3 -26 -3 -49q0 -139 92 -139q51 0 77 18t70 80l10 -1q-4 -28 -4 -44q0 -7 1.5 -23t1.5 -29l-3 -3q-65 -43 -148 -43z"/>
<glyph glyph-name="Ifraktur" horiz-adv-x="543" unicode="ℑ" d="M152 482q16 75 86 125.5t165 50.5q39 0 99 -20t116 -56l-103 -94q-26 -24 -32 -50q-1 -3 -1 -9q0 -24 33 -105.5t33 -114.5q0 -5 -2 -15q-4 -19 -10.5 -32.5t-25.5 -38t-62.5 -54.5t-109.5 -65q-32 -16 -46 -16q-18 0 -34 11l-121 75q-23 16 -43 16q-14 0 -56 -17l-11 16 l87 47q34 17 52 17q13 0 35 -13l108 -66q28 -14 45 -14q27 0 67 20.5t49 63.5q2 9 2 27q0 26 -4 34l-51 114q-8 21 -8 44q0 15 3 29q9 38 33 59l78 74q-103 56 -177 56q-59 0 -105.5 -31t-57.5 -83q-2 -8 -2 -24q0 -35 22 -61q18 -21 33 -27.5t60 -15.5l-5 -20 q-24 4 -40.5 7.5t-38 12t-34 20t-22 32t-9.5 46.5q0 24 5 45z"/>
<glyph glyph-name="Rfraktur" horiz-adv-x="708" unicode="ℜ" d="M124 475q17 82 80.5 132.5t149.5 50.5q42 0 76 -19q14 -8 23 -18t12 -16t9.5 -23t9.5 -24l135 85q20 14 34 14q9 0 16 -8l118 -126l-187 -115q35 -61 35 -153q0 -30 -4.5 -78t-4.5 -62q0 -40 22 -40q7 0 37 11l9 -21l-115 -79q-48 28 -48 104q0 24 6 82.5t6 90.5 q0 25 -3 49q-3 23 -11.5 32t-27.5 9h-4l-6 18l198 120l-57 67q-18 24 -44 24q-15 0 -36 -12l-64 -36q-7 -110 -28 -208q-13 -59 -21 -87t-26.5 -62.5t-48.5 -65.5q-36 -36 -90.5 -75t-77.5 -50l-28 28q-22 19 -39 19q-19 0 -46 -17l-15 14l76 54q35 27 43 27q7 0 11 -4 l60 -50q50 56 74 117t45 159q20 92 20 153q0 60 -23 89.5t-75 29.5q-61 0 -95.5 -36t-41.5 -66q-2 -10 -2 -16q0 -43 31 -60l77 -43q32 -17 32 -47q0 -4 -2 -10q-2 -11 -14 -25l-42 -47l-17 15q2 2 8.5 7t10.5 10.5t4 11.5q0 12 -20 25t-43.5 24.5t-43.5 37t-20 59.5 q0 13 3 30z"/>
<glyph glyph-name="trademark" horiz-adv-x="795" unicode="™" d="M747 344l25 197l-151 -243q-5 -10 -18 -10q-12 0 -15 10q-29 143 -49 238q-41 -149 -55 -193q0 -1 -0.5 -3t-0.5 -3q-5 -23 2 -23h15q6 0 11 -2t4 -5l-1 -8l-5 -6q-38 2 -60 2l-48 -2l-3 6l1 8q1 7 20 7h14q6 0 17 30q11 39 37.5 129.5t39.5 136.5v3l1 2q3 17 -6 17h-16 q-6 0 -9.5 1t-5 2t-0.5 3l1 8l7 6h89l55 -265q146 235 164 265h82l1 -6l-1 -8q-1 -6 -19 -6h-15q-9 0 -12 -16l-1 -6l-34 -266q-1 -6 -1 -16q0 -14 7 -14h14q9 0 13.5 -1.5t3.5 -5.5l-1 -8l-8 -6q-43 2 -64 2l-67 -2l-4 6l1 8q1 7 19 7h14q7 0 11 23q0 1 0.5 3.5t0.5 3.5z M280 341q-1 -3 -1 -7q0 -17 25 -17h14q6 0 4 -5l-2 -13l-2 -1q-62 1 -82 1l-83 -1v1l2 13q2 5 6 5h14q31 0 36 24l57 265q4 20 -10 20h-51q-16 0 -25.5 -9t-24.5 -42l-21 6l39 90l22 -8q-1 -1 -2 -4t-2 -5l-1 -2h233q-1 0 -1 11l27 8l-1 -91l-24 -5q-1 33 -6.5 42t-22.5 9 h-43q-8 0 -11.5 -4t-6.5 -17z"/>
<glyph glyph-name="aleph" horiz-adv-x="481" unicode="ℵ" d="M547 442q-3 -14 -11.5 -34t-16 -34t-9.5 -14q-4 0 -11.5 19.5t-21.5 20.5q-70 -71 -81 -126q-2 -14 -2 -20q0 -16 4 -28l51 -71q21 -33 21 -67q0 -15 -2 -23q-6 -27 -23.5 -50.5t-39.5 -23.5q1 5 1 16q0 27 -14 47l-197 285q-44 -27 -60 -95q-1 -4 -1 -13q0 -26 31.5 -78 t31.5 -78q0 -5 -2 -13q-5 -24 -24.5 -43t-37.5 -19h-101v2l-1 2q0 9 9 11q12 2 25 11.5t15 20.5q1 4 1 13q0 13 -5.5 48t-5.5 53q0 16 2 23q10 45 39 92.5t75 74.5l-23 34q-21 33 -21 67q0 15 2 23q9 42 51 79h13q-2 -8 -2 -24q0 -27 12 -45l142 -206l1 -1q33 76 85 128 q-57 15 -57 59q0 5 2 17q7 31 19 50t21 23l9 4q5 -5 5 -11v-8q0 -19 51 -35q53 -14 53 -49q0 -4 -2 -14z"/>
<glyph glyph-name="arrowleft" horiz-adv-x="1130" unicode="←" d="M370 448h38q-53 -85 -144 -157h870l-11 -52h-870q53 -53 79 -157h-40q0 3 -23 34.5t-67.5 75t-88.5 63.5l5 23q100 32 252 170z"/>
<glyph glyph-name="arrowup" horiz-adv-x="441" unicode="↑" d="M526 567l-9 -38q-75 34 -133 111l-185 -870h-52l185 870q-66 -64 -181 -113l9 40q2 0 40.5 30t93 84t84.5 102h23q14 -95 125 -216z"/>
<glyph glyph-name="arrowright" horiz-adv-x="1130" unicode="→" d="M873 82h-38q52 83 145 157h-870l11 52h870q-54 54 -80 157h40q0 -3 23 -34.5t67.5 -75t88.5 -63.5l-4 -23q-101 -33 -253 -170z"/>
<glyph glyph-name="arrowdown" horiz-adv-x="462" unicode="↓" d="M46 -13l8 38q77 -35 134 -111l185 870h52l-185 -870q66 64 181 113l-9 -40q-2 0 -40.5 -30t-93.5 -84t-85 -102h-23q-14 96 -124 216z"/>
<glyph glyph-name="arrowdblleft" horiz-adv-x="1074" unicode="⇐" d="M357 377h740l-10 -49h-775q-33 -33 -75 -61q31 -27 51 -62h773l-11 -49h-739q15 -41 22 -72h-40q-36 57 -85 105t-95 66l5 23q100 33 252 171h38q-24 -39 -51 -72z"/>
<glyph glyph-name="arrowdblup" horiz-adv-x="462" unicode="⇑" d="M456 526l-158 -740h-49l165 775q-28 26 -48 62q-33 -36 -75 -64l-165 -773h-48l157 739q-37 -19 -80 -37l8 40q67 48 127.5 107t89.5 109h23q14 -95 125 -216l-8 -38q-34 16 -64 36z"/>
<glyph glyph-name="arrowdblright" horiz-adv-x="1074" unicode="⇒" d="M808 153h-740l11 49h775q33 33 75 61q-31 27 -51 62h-773l10 49h739q-12 33 -21 72h40q37 -58 85 -105.5t94 -65.5l-4 -23q-102 -34 -253 -171h-38q24 39 51 72z"/>
<glyph glyph-name="arrowdbldown" horiz-adv-x="462" unicode="⇓" d="M117 -14l157 740h49l-164 -775q26 -24 47 -62q32 34 76 64l164 773h49l-157 -739q37 19 80 37l-8 -40q-67 -48 -127.5 -107t-89.5 -109h-23q-14 95 -125 216l8 38q34 -16 64 -36z"/>
<glyph glyph-name="universal" horiz-adv-x="488" unicode="∀" d="M261 76l155 285h-190zM284 0h-79l-74 572h73l14 -147h232l79 147h73z"/>
<glyph glyph-name="partialdiff" horiz-adv-x="462" unicode="∂" d="M304 369q72 0 107 -55q4 10 11 40q8 35 8 76q0 64 -20.5 109t-64.5 45q-55 0 -71 -20q-28 -36 -52 -36q-25 0 -25 21q0 5 1 7q5 25 49 42.5t100 17.5q74 0 116 -56t42 -146q0 -37 -10 -87q-18 -84 -55 -158t-100 -127t-136 -53q-63 0 -103.5 37t-40.5 99q0 22 4 41 q19 89 91.5 146t148.5 57zM318 331q-56 0 -110.5 -60t-69.5 -133q-2 -7 -2 -23q0 -37 21.5 -65t55.5 -28q55 0 103 77t81 179q-31 53 -79 53z"/>
<glyph glyph-name="existential" horiz-adv-x="400" unicode="∃" d="M488 572l-122 -572h-331l14 65h262l44 207h-246l14 65h246l36 170h-256l14 65h325z"/>
<glyph glyph-name="emptyset" horiz-adv-x="642" unicode="∅" d="M235 56q42 -22 93 -22q101 0 189 75.5t109 176.5q5 22 5 53q0 90 -58 146zM175 34q-95 68 -95 190q0 33 7 62q26 122 130.5 208.5t226.5 86.5q74 0 133 -35l51 65l30 -17l-53 -68q78 -66 78 -178q0 -30 -6 -62q-26 -122 -130.5 -208.5t-227.5 -86.5q-63 0 -115 25 l-65 -83l-29 18zM435 538q-100 0 -187.5 -75t-109.5 -177q-6 -27 -6 -52q0 -103 74 -160l340 433q-46 31 -111 31z"/>
<glyph glyph-name="gradient" horiz-adv-x="584" unicode="∇" d="M327 0h-58l-125 601q-2 8 -2 9q0 5 5 6h12h533q15 0 15 -4q0 -2 -6 -11q-228 -367 -374 -601zM334 80l313 510h-418z"/>
<glyph glyph-name="element" horiz-adv-x="506" unicode="∈" d="M462 0h-150q-102 0 -165.5 65t-63.5 162q0 24 7 59q25 117 126 201.5t218 84.5h150l-12 -57h-156q-84 0 -153 -58t-97 -143h354l-12 -56h-354q-1 -7 -1 -20q0 -79 46.5 -130t119.5 -51h155z"/>
<glyph glyph-name="notelement" horiz-adv-x="506" unicode="∉" d="M374 314l115 201h-73q-84 0 -153 -58t-97 -143h208zM239 77l103 181h-188q-1 -7 -1 -20q0 -54 23 -96.5t63 -64.5zM462 0h-150q-34 0 -71 10l-51 -90l-35 12l52 90q-58 27 -91 82t-33 123q0 24 7 59q25 117 126 201.5t218 84.5h88l44 76l34 -11l-37 -65h21l-12 -57h-41 l-115 -201h104l-12 -56h-124l-112 -195q22 -6 47 -6h155z"/>
<glyph glyph-name="suchthat" horiz-adv-x="506" unicode="∋" d="M166 572h150q102 0 165 -65t63 -162q0 -29 -6 -59q-25 -117 -126 -201.5t-218 -84.5h-150l12 57h155q84 0 153.5 58.5t97.5 142.5h-354l12 56h354q1 7 1 20q0 78 -47 129.5t-120 51.5h-154z"/>
<glyph glyph-name="product" horiz-adv-x="696" unicode="∏" d="M490 -38l115 540q2 8 2 21q0 23 -30 23h-226q-22 0 -31 -9t-14 -36l-115 -539q-2 -10 -2 -14q0 -30 47 -30h27q7 0 6 -8l-4 -18l-2 -2q-87 2 -126 2l-129 -2l-2 2l4 18q1 8 10 8h26q54 0 64 44l118 554q2 12 2 16q0 29 -44 29h-30q-8 0 -6 7l4 19q3 0 60.5 -1t65.5 -1 q62 -1 189 -1q119 0 190 1q3 0 36 0.5t65 0.5l32 1l-4 -18q-2 -8 -10 -8h-29q-52 -2 -61 -45l-118 -554q-2 -10 -2 -14q0 -30 48 -30h26q7 0 6 -8l-4 -18l-1 -2q-87 2 -126 2l-129 -2l-2 2l4 18q1 8 10 8h26q54 0 64 44z"/>
<glyph glyph-name="summation" horiz-adv-x="592" unicode="∑" d="M615 583l-15 -139l-23 -3q-1 15 -6 35t-22.5 42.5t-43.5 22.5h-228l114 -272l-1 -1l-262 -272h280q24 0 48.5 17t41 41t26 39.5t11.5 21.5l22 -2l-65 -175h-481l5 22q20 0 40 19l259 269l-113 266q-24 46 -58 46l5 23h466z"/>
<glyph glyph-name="minus" d="M516 257l-11 -49h-395l11 49h395z" unicode="−"/>
<glyph glyph-name="asteriskmath" horiz-adv-x="341" unicode="∗" d="M205 234q-16 4 -41 4q-74 0 -74 30q0 4 1 7q6 30 39 30q19 0 44 -22t41 -29q1 6 1 16q0 13 -3 33.5t-3 28.5q0 4 2 14q3 16 14 27.5t24 11.5q26 0 26 -25v-10q-3 -14 -19.5 -48t-20.5 -49q21 8 54.5 30t51.5 22q28 0 28 -24v-6q-7 -37 -77 -37q-31 0 -56 -4 q8 -11 36.5 -35t28.5 -43q0 -6 -1 -9q-3 -13 -13.5 -21t-21.5 -8q-17 0 -25 16t-13 45.5t-11 42.5q-11 -14 -29 -44.5t-32 -45t-31 -14.5q-11 0 -17.5 6.5t-6.5 15.5q0 1 0.5 3t0.5 3q4 19 20 32t42 27.5t41 28.5z"/>
<glyph glyph-name="radical" horiz-adv-x="565" unicode="√" d="M644 733l-336 -733l-43 -18l-88 241l-70 -30l-9 35l134 59l75 -202l312 682l1 5h110l-8 -39h-78z"/>
<glyph glyph-name="proportional" horiz-adv-x="670" unicode="∝" d="M692 375q-14 8 -33 8q-35 0 -88 -36.5t-84 -72.5q75 -149 133 -149q13 0 19 1l-10 -44q-15 -3 -32 -3q-108 0 -171 135q-47 -51 -112 -93.5t-116 -42.5q-50 0 -83 29.5t-33 85.5q0 13 6 45q16 76 77 137t136 61q56 0 101.5 -39.5t67.5 -93.5q138 133 230 133h5zM409 241 q-15 50 -51.5 101.5t-77.5 51.5q-46 0 -78 -31t-42 -80q-4 -17 -4 -40q0 -45 20.5 -76.5t60.5 -31.5q35 0 89 35.5t83 70.5z"/>
<glyph glyph-name="infinity" horiz-adv-x="785" unicode="∞" d="M808 277q-16 -76 -76.5 -137t-134.5 -61q-108 0 -171 135q-47 -51 -112 -93.5t-116 -42.5q-50 0 -83 29.5t-33 85.5q0 13 6 45q16 76 77 137t136 61q56 0 101.5 -39.5t67.5 -93.5q138 133 230 133q55 0 84 -31t29 -83q0 -18 -5 -45zM738 234q3 18 3 37q0 46 -20.5 79 t-61.5 33q-35 0 -88 -36.5t-84 -72.5q75 -149 133 -149q46 0 77 30.5t41 78.5zM409 241q-15 50 -51.5 101.5t-77.5 51.5q-46 0 -78 -31t-42 -80q-4 -17 -4 -40q0 -45 20.5 -76.5t60.5 -31.5q35 0 89 35.5t83 70.5z"/>
<glyph glyph-name="logicaland" horiz-adv-x="481" unicode="∧" d="M324 386h-2l-254 -388h-53l294 444h52l105 -444h-53z"/>
<glyph glyph-name="logicalor" horiz-adv-x="481" unicode="∨" d="M249 46h2l254 388h53l-294 -444h-52l-105 444h53z"/>
<glyph glyph-name="intersection" horiz-adv-x="489" unicode="∩" d="M118 0h-51l45 212q23 107 75.5 167t155.5 60q73 0 104.5 -33.5t31.5 -96.5q0 -37 -12 -97l-45 -212h-51l45 212q11 49 11 86q0 98 -91 98q-77 0 -115.5 -48t-57.5 -136z"/>
<glyph glyph-name="union" horiz-adv-x="489" unicode="∪" d="M462 429h51l-45 -212q-23 -107 -75.5 -167t-155.5 -60q-73 0 -104.5 33.5t-31.5 96.5q0 37 12 97l45 212h51l-45 -212q-11 -49 -11 -86q0 -98 91 -98q77 0 115.5 48t57.5 136z"/>
<glyph glyph-name="similar" d="M100 209q21 51 66.5 89.5t89.5 38.5q21 0 67 -32q45 -33 66 -33q26 0 58.5 16.5t54.5 50.5l16 -6q-25 -49 -57 -78t-52 -35.5t-37 -6.5q-29 0 -68 33q-40 32 -67 32q-28 0 -64.5 -20t-59.5 -52z" unicode="∼"/>
<glyph glyph-name="congruent" d="M502 194l-10 -49h-395l10 49h395zM529 319l-11 -49h-395l11 49h395zM146 364q21 51 66.5 89.5t89.5 38.5q21 0 67 -32q45 -33 66 -33q26 0 58.5 16.5t54.5 50.5l16 -6q-25 -49 -57 -78t-52 -35.5t-37 -6.5q-29 0 -68 33q-40 32 -67 32q-28 0 -64.5 -20t-59.5 -52z" unicode="≅"/>
<glyph glyph-name="approxequal" d="M119 226l-12 3q21 51 66 89.5t89 38.5q21 0 67 -32q45 -33 66 -33q26 0 58.5 16.5t54.5 50.5l16 -6q-25 -49 -57 -78t-51.5 -35.5t-36.5 -6.5q-29 0 -68 33q-40 32 -68 32t-64.5 -20t-59.5 -52zM72 83q21 51 66 89.5t89 38.5q21 0 67 -32q45 -33 66 -33q26 0 58.5 16.5 t54.5 50.5l16 -6q-25 -49 -57 -78t-51.5 -35.5t-36.5 -6.5q-29 0 -68 33q-40 32 -68 32t-64.5 -20t-59.5 -52z" unicode="≈"/>
<glyph glyph-name="notequal" d="M529 318l-11 -49h-167l-41 -76h192l-10 -49h-209l-108 -197l-36 12l102 185h-144l10 49h161l42 76h-187l11 49h203l136 249l36 -10l-131 -239h151z" unicode="≠"/>
<glyph glyph-name="equivalence" d="M493 149l-10 -44h-395l10 44h395zM515 256l-9 -44h-395l9 44h395zM538 364l-9 -44h-395l9 44h395z" unicode="≡"/>
<glyph glyph-name="lessequal" d="M196 252l292 -116l-11 -50l-360 142l11 48l420 141l-11 -50zM70 11l10 47h390l-10 -47h-390z" unicode="≤"/>
<glyph glyph-name="greaterequal" d="M439 251l-292 116l11 50l360 -142l-11 -48l-420 -141l11 50zM70 11l10 47h390l-10 -47h-390z" unicode="≥"/>
<glyph glyph-name="propersubset" horiz-adv-x="522" unicode="⊂" d="M501 85l-9 -42h-212q-91 0 -146 28.5t-55 103.5q0 23 6 51q11 53 38.5 88.5t67 52t78 23t86.5 6.5h212l-9 -42h-212q-186 0 -213 -127q-4 -20 -4 -40q0 -58 42 -80t118 -22h212z"/>
<glyph glyph-name="propersuperset" horiz-adv-x="522" unicode="⊃" d="M114 354l9 42h212q91 0 146 -28.5t55 -103.5q0 -22 -6 -51q-11 -53 -38.5 -88.5t-67 -52t-78 -23t-86.5 -6.5h-212l9 42h212q186 0 213 127q5 25 5 40q0 58 -42.5 80t-118.5 22h-212z"/>
<glyph glyph-name="circleplus" horiz-adv-x="564" unicode="⊕" d="M346 399q-66 -7 -121 -53.5t-75 -112.5h160zM267 30l35 164h-160q-1 -7 -1 -21q0 -58 34 -97.5t92 -45.5zM313 31q64 8 117.5 53.5t73.5 109.5h-157zM391 398l-35 -165h157q1 7 1 21q0 57 -33.5 97t-89.5 47zM279 -10q-80 0 -131 50.5t-51 127.5q0 19 5 46 q20 92 100 158.5t172 66.5q80 0 132 -51.5t52 -128.5q0 -24 -4 -45q-19 -93 -100.5 -158.5t-174.5 -65.5z"/>
<glyph glyph-name="circlemultiply" horiz-adv-x="564" unicode="⊗" d="M182 69q40 -40 105 -40q66 0 122 39l-89 114zM206 327q-46 -47 -60 -113q-5 -23 -5 -41q0 -37 15 -67l136 111zM469 363q-42 37 -103 37q-62 0 -118 -37l87 -111zM496 328l-135 -111l90 -113q46 49 59 110q4 19 4 40q0 42 -18 74zM279 -10q-80 0 -131 50.5t-51 127.5 q0 19 5 46q20 92 100 158.5t172 66.5q80 0 132 -51.5t52 -128.5q0 -24 -4 -45q-19 -93 -100.5 -158.5t-174.5 -65.5z"/>
<glyph glyph-name="perpendicular" horiz-adv-x="629" unicode="⊥" d="M412 578h51l-113 -533h269l-10 -45h-589l10 45h269z"/>
<glyph glyph-name="dotmath" horiz-adv-x="253" unicode="⋅" d="M168 204q-20 0 -31.5 12t-11.5 30q0 8 1 12q5 21 24 37.5t41 16.5q18 0 31 -12.5t13 -31.5q0 -6 -1 -10q-5 -22 -24 -38t-42 -16z"/>
<glyph glyph-name="uni2329" horiz-adv-x="351" unicode="〈" d="M183 267l-4 -4l2 -4q36 -80 76 -195t57 -205q-7 -12 -25 -12q-27 97 -77.5 201t-98.5 177l-26 38l41 38q76 72 167 176.5t156 201.5q18 0 20 -12q-52 -90 -136.5 -205.5t-151.5 -194.5z"/>
<glyph glyph-name="uni232A" horiz-adv-x="351" unicode="〉" d="M270 258l4 4l-2 4q-36 80 -76 195t-57 205q7 12 25 12q27 -97 77.5 -201t98.5 -177l26 -38l-41 -38q-76 -72 -167 -176.5t-156 -201.5q-18 0 -20 12q52 90 136.5 205.5t151.5 194.5z"/>
<glyph glyph-name="lozenge" horiz-adv-x="667" unicode="◊" d="M110 208l333 346l184 -346l-331 -345zM169 208l144 -265l255 265l-142 266z"/>
<glyph glyph-name="uni2660" horiz-adv-x="722" unicode="♠" d="M465 182q-32 0 -45 -63q-5 -23 -5 -42q0 -51 34 -56l-5 -21h-168l5 21q52 8 72 99q3 16 3 28q0 34 -18 34q-13 0 -29 -15t-30 -33.5t-43 -33.5t-65 -15t-64.5 23.5t-28.5 70.5q0 18 4 34q14 65 76 118q214 183 336 302q58 -97 100 -158.5t109 -143.5q31 -38 31 -87 q0 -18 -3 -34q-12 -57 -55.5 -91t-89.5 -34q-36 0 -58 15t-28.5 33.5t-14.5 33.5t-20 15z"/>
<glyph glyph-name="uni2663" horiz-adv-x="777" unicode="♣" d="M455 124q-4 -19 -4 -43q0 -53 29 -60l-4 -21h-155l5 21q28 6 43.5 31.5t24.5 70.5q6 27 6 41q0 17 -10 17q-14 0 -40.5 -22.5t-66 -45.5t-84.5 -23q-47 0 -74 26.5t-27 71.5q0 18 4 34q11 52 51.5 98t110.5 46q37 0 82.5 -25t58.5 -25q22 0 22 21q0 10 -12.5 22 t-27.5 22.5t-27.5 31.5t-12.5 47q0 12 3 27q11 47 56.5 83.5t122.5 36.5q64 0 96.5 -27.5t32.5 -69.5q0 -15 -2 -23q-7 -35 -30.5 -62.5t-47 -40.5t-44 -26.5t-22.5 -23.5q-1 -7 3 -12.5t12 -5.5q11 0 69 25.5t95 25.5q57 0 80 -31t23 -74q0 -20 -4 -40q-12 -59 -53.5 -95 t-99.5 -36q-35 0 -61.5 14t-39 31.5t-25.5 31.5t-25 14q-9 0 -16 -11.5t-15 -46.5z"/>
<glyph glyph-name="uni2665" horiz-adv-x="725" unicode="♥" d="M667 596q50 0 85 -26.5t35 -81.5q0 -16 -5 -41q-9 -44 -36 -89.5t-73.5 -93.5t-78.5 -77.5t-89 -78.5l-148 -125l-86 121q-80 112 -106 167q-35 74 -35 135q0 23 4 42q17 78 69.5 113t107.5 35q51 0 83 -21.5t40.5 -48t13.5 -48t9 -21.5t13 14.5t24.5 34.5t36.5 40.5 t57 35t79 14.5z"/>
<glyph glyph-name="uni2666" horiz-adv-x="645" unicode="♦" d="M458 620q104 -199 217 -318q-188 -153 -353 -319q-87 159 -224 319q184 139 360 318z"/>
</font>
</defs>
</svg>
