<?xml version="1.0" encoding="UTF-8" standalone="no"?>
<!DOCTYPE svg  PUBLIC '-//W3C//DTD SVG 1.1//EN'  'http://www.w3.org/Graphics/SVG/1.1/DTD/svg11.dtd'>
<svg xmlns="http://www.w3.org/2000/svg">
<defs>
<font id="LinBiolinumO-Regular" horiz-adv-x="500">
<font-face underline-position="-98" font-weight="400" descent="-200" panose-1="2 0 5 3 0 0 0 0 0 0" units-per-em="1000" unicode-range="U+0020-2666" bbox="-234 -238 1072 820" x-height="432" underline-thickness="40" font-family="LinBiolinumO" ascent="800" cap-height="648"/>
<missing-glyph horiz-adv-x="1000"/>
<glyph glyph-name="ellipsis" horiz-adv-x="749" unicode="..." d="M583 44v4q13 38 54 54h4q41 -14 54 -54v-4q-14 -44 -54 -54h-4q-24 5 -35.5 17t-18.5 37zM319 44v4q13 38 54 54h4q41 -14 54 -54v-4q-14 -44 -54 -54h-4q-24 5 -35.5 17t-18.5 37zM54 44v4q13 38 54 54h4q41 -14 54 -54v-4q-14 -44 -54 -54h-4q-24 5 -35.5 17t-18.5 37z "/>
<glyph glyph-name=".notdef" horiz-adv-x="1000"/>
<glyph glyph-name=".null" horiz-adv-x="0"/>
<glyph glyph-name="nonmarkingreturn" horiz-adv-x="333"/>
<glyph glyph-name="space" horiz-adv-x="250" unicode=" "/>
<glyph glyph-name="exclam" horiz-adv-x="228" unicode="!" d="M57 44v4q13 38 54 54h4q41 -14 54 -54v-4q-14 -44 -54 -54h-4q-24 5 -35.5 17t-18.5 37zM113 658q22 0 39 -19t17 -54q0 -37 -11 -100t-15 -93q-6 -47 -9.5 -89.5t-4.5 -65.5t-2 -27q-2 -20 -14 -20t-14 13l-5 71q-5 71 -10 118q-4 35 -14.5 94.5t-10.5 98.5q0 37 17 55 t37 18z"/>
<glyph glyph-name="quotedbl" horiz-adv-x="336" unicode='&quot;' d="M89 426q-26 159 -26 168q0 18 15 34t36 16q35 0 35 -33l-33 -181zM215 427q-26 159 -26 168q0 18 15 34t36 16q35 0 35 -33l-33 -181z"/>
<glyph glyph-name="numbersign" horiz-adv-x="470" unicode="#" d="M339 364l-20 -117h97l-8 -52h-95l-30 -181h-35l28 181h-117l-30 -181h-35l29 181h-96l7 52h97l19 117h-97l9 53h96l29 181h36l-30 -181h119l28 181h35l-29 -181h97l-8 -53h-96zM285 247l18 117h-117l-19 -117h118z"/>
<glyph glyph-name="dollar" horiz-adv-x="465" unicode="$" d="M230 -9l-4 -84q-9 -5 -37 -5l4 88q-45 2 -82.5 12.5t-52.5 20.5l-15 10l-2 3q15 62 19 91l9 1q18 -38 51.5 -64t75.5 -32l13 246q-69 29 -110.5 68.5t-41.5 103.5q0 68 52.5 113t117.5 47l5 79q11 5 37 5l-5 -85q40 -3 70 -13.5t40 -19.5l10 -8l2 -3q-14 -43 -18 -88 l-10 -1q-35 75 -96 91l-12 -216q35 -13 60.5 -25.5t53.5 -33t43 -51t15 -68.5q0 -81 -60 -132q-50 -43 -132 -50zM245 264l-13 -232q47 4 79 31.5t32 76.5q0 52 -25 78.5t-73 45.5zM214 365l11 207h-1q-45 0 -72 -27.5t-27 -70.5q0 -67 89 -109z"/>
<glyph glyph-name="percent" horiz-adv-x="680" unicode="%" d="M118 425q0 -38 15 -54t33 -16q41 0 69 52t28 105q0 36 -14.5 50.5t-33.5 14.5q-37 0 -67 -51t-30 -101zM389 557q44 0 91 13.5t69 43.5l34 -17l-438 -610l-36 16l383 534q-51 -20 -114 -20q-48 0 -85 22q3 -11 3 -26q0 -61 -38 -125t-99 -64q-46 0 -71 35.5t-25 80.5 q0 63 42 116.5t98 53.5q21 0 42 -8.5t30 -18.5q56 -26 110 -26h4zM406 105q0 62 42 115t99 53q39 0 65.5 -22t26.5 -75q0 -64 -37.5 -126.5t-98.5 -62.5q-46 0 -71.5 35.5t-25.5 82.5zM462 89q0 -38 14.5 -54.5t33.5 -16.5q41 0 69 53t28 104q0 37 -15.5 51t-32.5 14 q-37 0 -67 -50.5t-30 -100.5z"/>
<glyph glyph-name="ampersand" horiz-adv-x="710" unicode="&amp;" d="M437 192q91 135 104 240q10 -3 39 -3q33 0 43 3q-15 -26 -80.5 -143t-77.5 -136l34 -46q22 -31 43 -47t34 -16q48 0 76 54l16 -8q-16 -50 -43 -75t-55 -25q-20 0 -34 2.5t-36.5 18.5t-44.5 46l-29 37q-38 -52 -79.5 -78t-101.5 -26q-88 0 -144.5 43t-56.5 133 q0 54 45 103.5t144 105.5q-54 84 -54 147q0 49 43.5 92.5t113.5 43.5q53 0 90 -33.5t37 -80.5q0 -40 -42 -88t-106 -85l4 -8q32 -55 118 -171zM293 411q47 31 75 68t28 65q0 34 -17.5 54.5t-47.5 20.5q-25 0 -50.5 -25.5t-25.5 -69.5q0 -51 38 -113zM255 338 q-72 -40 -97 -81.5t-25 -100.5q0 -126 119 -126q34 0 60 14t40 30.5t45 58.5q-111 147 -142 205z"/>
<glyph glyph-name="quotesingle" horiz-adv-x="190" unicode="&apos;" d="M79 426q-26 159 -26 168q0 18 15 34t36 16q35 0 35 -33l-33 -181z"/>
<glyph glyph-name="parenleft" horiz-adv-x="300" unicode="(" d="M44 252q0 134 59 254t153 201l23 -18q-152 -171 -152 -437q0 -264 152 -439l-23 -17q-59 51 -101.5 113t-63 111.5t-32.5 104t-13.5 79t-1.5 48.5z"/>
<glyph glyph-name="parenright" horiz-adv-x="300" unicode=")" d="M256 252q0 -134 -59 -254t-153 -201l-23 18q152 171 152 437q0 264 -152 439l23 17q59 -51 101.5 -113t63 -111.5t32.5 -104t13.5 -79t1.5 -48.5z"/>
<glyph glyph-name="asterisk" horiz-adv-x="433" unicode="*" d="M198 567q-17 4 -42 4q-81 0 -81 37q0 12 8 21t25 9q19 0 48.5 -22t47.5 -29q-2 20 -12.5 49.5t-10.5 42.5q0 16 8.5 27.5t21.5 11.5q33 0 33 -35q0 -14 -9 -48.5t-10 -48.5q19 8 48 30t47 22t26 -10t8 -20q0 -37 -69 -37q-31 0 -55 -4q12 -13 35 -28.5t35.5 -28 t12.5 -30.5q0 -13 -9 -21t-20 -8q-17 0 -28.5 16t-23 45.5t-19.5 42.5q-7 -13 -19 -44t-23 -45.5t-28 -14.5q-13 0 -21 8.5t-8 19.5q0 19 13 32t36 27.5t35 28.5z"/>
<glyph glyph-name="plus" horiz-adv-x="527" unicode="+" d="M289 257h172v-49h-172v-174h-51v174h-172v49h172v174h51v-174z"/>
<glyph glyph-name="comma" horiz-adv-x="220" unicode="," d="M48 44v4q13 38 54 54h4q64 -23 64 -105q0 -24 -6.5 -43.5t-13.5 -31.5t-25 -26.5t-26.5 -20t-32.5 -19.5q-13 11 -13 21q78 53 78 94q0 26 -29 26q-25 6 -36.5 14.5t-17.5 32.5z"/>
<glyph glyph-name="hyphen" horiz-adv-x="333" unicode="-" d="M274 236h-226q-15 0 -15 17q0 12 8 24.5t17 12.5h229q14 0 14 -18q0 -9 -9 -22.5t-18 -13.5z"/>
<glyph glyph-name="period" horiz-adv-x="220" unicode="." d="M54 44v4q13 38 54 54h4q41 -14 54 -54v-4q-14 -44 -54 -54h-4q-24 5 -35.5 17t-18.5 37z"/>
<glyph glyph-name="slash" horiz-adv-x="323" unicode="/" d="M293 646l-237 -705h-41l237 705h41z"/>
<glyph glyph-name="zero" horiz-adv-x="465" unicode="0" d="M228 -10q-89 0 -139 85.5t-50 213.5q0 142 58 231.5t136 89.5q57 0 95 -35q93 -85 93 -266q0 -83 -19 -147.5t-49 -100.5t-62 -53.5t-63 -17.5zM233 571q-108 0 -108 -284q0 -31 1.5 -60.5t8 -67.5t17.5 -65t30.5 -46t46.5 -19q13 0 26.5 5t33 27.5t29.5 60.5 q17 62 17 195q0 95 -16.5 156t-41.5 82q-18 16 -44 16z"/>
<glyph glyph-name="one" horiz-adv-x="465" unicode="1" d="M326 189q0 -112 9 -189l-2 -3q-28 3 -48 3l-46 -3l-1 3q8 65 8 189v248q0 76 -18 76q-11 0 -52 -7t-62 -9l-6 29q42 13 116 44t103 40q7 0 7 -5q-8 -56 -8 -162v-254z"/>
<glyph glyph-name="two" horiz-adv-x="465" unicode="2" d="M222 553q-48 0 -77 -23q-9 -7 -16 -16t-10 -14.5t-9.5 -20.5t-8.5 -20l-13 1l-22 69q23 30 67 55.5t105 25.5q83 0 129.5 -44t46.5 -117q0 -72 -73 -171q-66 -89 -162 -181q-17 -17 -17 -27q0 -3 1 -5q27 2 82 2q93 0 183 8q-5 -19 -5 -47q0 -18 3 -33q-118 5 -174 5 q-4 0 -189 -5q-10 18 -10 39q0 9 1 13q6 6 35 33t49.5 47t50 50.5t55.5 62t46 61.5q38 57 38 134q0 50 -32.5 84t-73.5 34z"/>
<glyph glyph-name="three" horiz-adv-x="465" unicode="3" d="M209 29q17 0 36.5 6t42 20t37.5 44.5t15 72.5q0 63 -39 96q-39 32 -98 32q-30 0 -42 -2v44q21 -3 37 -3q54 0 83 28q38 36 38 98q0 46 -26 76t-57 30q-44 0 -70.5 -20.5t-45.5 -64.5l-15 1l-21 64l3 3q64 56 158 56q73 0 117 -37.5t44 -92.5q0 -58 -37 -100.5t-81 -52.5 v-5q59 -5 98.5 -44.5t39.5 -97.5q0 -62 -38 -107t-86 -64t-95 -19q-92 0 -149 48l-3 3l22 75l15 1q14 -29 19.5 -39.5t19 -25t31.5 -19t47 -4.5z"/>
<glyph glyph-name="four" horiz-adv-x="465" unicode="4" d="M286 512l-203 -314h203v314zM286 148h-206q-59 0 -59 20q0 16 13 39q39 66 125 198t132 195l4 4q18 -4 34 -4q8 0 21.5 2t17.5 2q2 0 2 -4q-6 -55 -6 -148v-254h64q15 0 15 -16q0 -9 -9.5 -21.5t-19.5 -12.5h-50q0 -61 6 -148q0 -3 -2 -3q-4 0 -18.5 1.5t-23.5 1.5 l-47 -3l-1 3q8 68 8 148z"/>
<glyph glyph-name="five" horiz-adv-x="465" unicode="5" d="M202 -10q-87 0 -151 56l-4 3l22 80l14 1q3 -5 11.5 -21t11 -20.5t10.5 -16t12 -15t13 -11t17.5 -9.5t20 -4.5t25.5 -2.5q51 0 82.5 40.5t31.5 108.5q0 79 -32 120t-83 41q-47 0 -124 -31l-7 3l32 294q68 -6 114 -6q83 0 164 10l7 -3l-16 -68q-49 -6 -105 -6q-60 0 -127 9 l-21 -177q41 15 109 15q81 0 129 -54t48 -130q0 -89 -57.5 -147.5t-146.5 -58.5z"/>
<glyph glyph-name="six" horiz-adv-x="465" unicode="6" d="M400 583q-111 -11 -176 -74q-79 -77 -95 -203q18 22 53.5 37t66.5 15q55 0 94 -20.5t56.5 -51.5t25 -57t7.5 -49q0 -30 -9.5 -60.5t-29.5 -60.5t-58.5 -49t-90.5 -19q-33 0 -64 10.5t-63 36t-51.5 78.5t-19.5 127q0 158 107 265q50 51 107.5 74.5t136.5 28.5zM127 277 q-1 -10 -1 -37q0 -63 12 -107.5t33 -66t41 -30.5t43 -9q89 0 89 146q0 22 -4.5 44t-15.5 46.5t-35.5 39.5t-60.5 15q-61 0 -101 -41z"/>
<glyph glyph-name="seven" horiz-adv-x="465" unicode="7" d="M345 525q-18 1 -70 1q-147 0 -212 -10q5 38 5 49q0 5 -5 42q50 -7 280 -7q34 0 64 10l17 -10q-108 -264 -224 -609l-73 -4l-3 6q63 141 221 532z"/>
<glyph glyph-name="eight" horiz-adv-x="465" unicode="8" d="M228 24q45 0 81 26t36 91q0 75 -88 130l-46 29q-94 -62 -94 -154q0 -61 34.5 -91.5t76.5 -30.5zM398 485q0 -23 -11 -45t-32 -41.5t-36.5 -31.5t-38.5 -27l61 -40q87 -57 87 -138q0 -63 -55 -117t-147 -54q-83 0 -135 40.5t-52 114.5q0 62 66 120q32 28 70 57l-20 11 q-88 51 -88 139q0 58 49 97.5t125 39.5q73 0 115 -35t42 -90zM235 577q-43 0 -68 -24.5t-25 -61.5q0 -63 70 -109l31 -18q30 21 55.5 53.5t25.5 68.5q0 39 -21.5 65t-67.5 26z"/>
<glyph glyph-name="nine" horiz-adv-x="465" unicode="9" d="M60 17q111 11 176 74q79 77 95 203q-18 -22 -53.5 -37t-66.5 -15q-55 0 -94 20.5t-56.5 51.5t-25 57t-7.5 49q0 30 9.5 60.5t29.5 60.5t58.5 49t90.5 19q33 0 64 -10.5t63 -36t51.5 -78.5t19.5 -127q0 -158 -107 -265q-50 -51 -107.5 -74.5t-136.5 -28.5zM333 323 q1 10 1 37q0 63 -12 107.5t-33 66t-41 30.5t-43 9q-89 0 -89 -146q0 -22 4.5 -44t15.5 -46.5t35.5 -39.5t60.5 -15q61 0 101 41z"/>
<glyph glyph-name="colon" horiz-adv-x="220" unicode=":" d="M61 93v4q13 38 54 54h4q41 -14 54 -54v-4q-14 -44 -54 -54h-4q-24 5 -35.5 17t-18.5 37zM61 356v4q13 38 54 54h4q41 -14 54 -54v-4q-14 -44 -54 -54h-4q-24 5 -35.5 17t-18.5 37z"/>
<glyph glyph-name="semicolon" horiz-adv-x="220" unicode=";" d="M48 44v4q13 38 54 54h4q64 -23 64 -105q0 -24 -6.5 -43.5t-13.5 -31.5t-25 -26.5t-26.5 -20t-32.5 -19.5q-13 11 -13 21q78 53 78 94q0 26 -29 26q-25 6 -36.5 14.5t-17.5 32.5zM51 356v4q13 38 54 54h4q41 -14 54 -54v-4q-14 -44 -54 -54h-4q-24 5 -35.5 17t-18.5 37z "/>
<glyph glyph-name="less" horiz-adv-x="487" unicode="&lt;" d="M122 239l317 -116v-50l-390 142v48l390 141v-50z"/>
<glyph glyph-name="equal" horiz-adv-x="527" unicode="=" d="M461 193v-49h-395v49h395zM461 318v-49h-395v49h395z"/>
<glyph glyph-name="greater" horiz-adv-x="487" unicode="&gt;" d="M366 236l-317 116v50l390 -142v-48l-390 -141v50z"/>
<glyph glyph-name="question" horiz-adv-x="405" unicode="?" d="M124 44v4q13 38 54 54h4q41 -14 54 -54v-4q-14 -44 -54 -54h-4q-24 5 -35.5 17t-18.5 37zM195 619q-69 0 -123 -94l-13 1l-16 67l3 4q74 62 158 62q76 0 120.5 -41t44.5 -110q0 -37 -19 -69.5t-37 -48.5t-50 -39q-42 -31 -52 -50q-18 -35 -18 -73v-44q0 -10 -13 -10 t-13 10v46q0 29 2.5 49t18.5 52.5t46 59.5q32 30 46 54.5t14 58.5q0 49 -28 82t-71 33z"/>
<glyph glyph-name="at" horiz-adv-x="895" unicode="@" d="M583 74q0 -12 11 -12q82 0 124 47.5t42 165.5q0 74 -29 134.5t-75 96.5t-97 55.5t-100 19.5q-59 0 -114.5 -20.5t-102 -60t-75 -107t-28.5 -152.5q0 -48 9.5 -96t34 -97.5t61 -87t96 -61.5t133.5 -24q118 0 201 66l13 -18q-53 -40 -104 -60.5t-129 -20.5 q-176 0 -285.5 109t-109.5 272q0 161 120.5 274.5t289.5 113.5q160 0 265 -94t105 -235q0 -46 -15 -88.5t-46.5 -81t-90 -62t-136.5 -23.5q-36 0 -36 41q0 16 15 63l-2 1q-31 -52 -67.5 -77.5t-65.5 -25.5q-35 0 -61 13.5t-38 34t-17.5 39.5t-5.5 37q0 103 74.5 180 t158.5 77q25 0 47.5 -12t29.5 -31l5 24l53 13l15 -5l-60 -258q-13 -59 -13 -67zM569 316q0 28 -18.5 45.5t-46.5 17.5q-17 0 -43.5 -9.5t-46.5 -30.5q-68 -68 -68 -177q0 -92 78 -92q26 0 59 37.5t56 92.5q30 72 30 116z"/>
<glyph glyph-name="A" horiz-adv-x="629" unicode="A" d="M179 228q-62 -153 -83 -231q-12 3 -45 3q-23 0 -35 -3q170 373 295 661h28q34 -81 96.5 -236t109 -268t68.5 -157q-17 3 -60 3q-33 0 -50 -3q-23 83 -78 231q-36 3 -117 3q-92 0 -129 -3zM407 276q-48 125 -101 246h-2l-105 -246q66 -3 104 -3q55 0 104 3z"/>
<glyph glyph-name="B" horiz-adv-x="616" unicode="B" d="M147 645q27 0 69 1.5t58 1.5q53 0 94 -10t64.5 -25t38 -36.5t19.5 -41.5t5 -42q0 -40 -26.5 -77t-66.5 -56q152 -44 152 -176q0 -35 -11.5 -66t-37.5 -59.5t-77 -45t-122 -16.5q-48 0 -89.5 1.5t-69.5 1.5l-52 -3l-1 3q10 68 10 200v245q0 129 -10 200l2 3q17 -3 51 -3z M190 328v-240q0 -25 22.5 -36.5t74.5 -11.5q99 0 133.5 32.5t34.5 92.5q0 71 -44 117t-128 46h-93zM190 559v-188h78q67 0 103.5 25t36.5 85q0 69 -37.5 96.5t-89.5 27.5q-58 0 -74.5 -9.5t-16.5 -36.5z"/>
<glyph glyph-name="C" horiz-adv-x="677" unicode="C" d="M380 658q54 0 108.5 -12.5t81.5 -25.5l28 -12l2 -3q-13 -51 -18 -111l-12 -1q-59 118 -204 118q-33 0 -68 -15.5t-68 -46.5t-54 -87t-21 -128q0 -119 63 -206t157 -87q71 0 121 23t103 81l7 -3q3 -7 6 -42q-91 -110 -246 -110q-153 0 -233.5 93t-80.5 232q0 144 99 243.5 t229 99.5z"/>
<glyph glyph-name="D" horiz-adv-x="710" unicode="D" d="M147 645q32 0 82.5 1.5t82.5 1.5q144 0 245 -100t101 -240q0 -71 -21 -126.5t-53.5 -89t-77 -55.5t-87.5 -30.5t-89 -8.5q-56 0 -104 1t-79 1l-52 -3l-1 3q10 68 10 200v245q0 129 -10 200l2 3q17 -3 51 -3zM190 82q0 -25 19 -32.5t90 -7.5q58 0 100.5 10t79.5 35 t56.5 74.5t19.5 122.5q0 62 -14 115.5t-45 101.5t-87.5 75.5t-134.5 27.5q-42 0 -63 -8t-21 -32v-482z"/>
<glyph glyph-name="E" horiz-adv-x="538" unicode="E" d="M190 200q0 -117 8 -144q60 0 130.5 3t111.5 6l40 3l2 -4q-2 -16 -2 -33q0 -3 2 -31l-2 -3q-24 3 -60 3h-273l-52 -3l-1 3q10 68 10 200v245q0 129 -10 200l2 3q17 -3 51 -3h263q36 0 60 3l2 -3q-2 -28 -2 -38t2 -26l-2 -4q-138 12 -272 12q-8 -27 -8 -144v-78 q105 0 223 10l3 -3q-3 -14 -3 -32t3 -32l-3 -3q-99 10 -223 10v-117z"/>
<glyph glyph-name="F" horiz-adv-x="504" unicode="F" d="M407 645q39 0 63 3l2 -3q-2 -28 -2 -34q0 -14 2 -30l-2 -4q-138 12 -272 12q-8 -27 -8 -144v-78q105 0 223 10l3 -3q-3 -14 -3 -32t3 -32l-3 -3q-99 10 -223 10v-117q0 -129 10 -200l-2 -3q-17 3 -51 3l-52 -3l-1 3q10 68 10 200v245q0 129 -10 200l2 3q17 -3 51 -3h260z "/>
<glyph glyph-name="G" horiz-adv-x="717" unicode="G" d="M546 117q0 119 -10 190l2 3q17 -3 51 -3l52 3l1 -3q-10 -66 -10 -170v-6q0 -36 10 -48v-3q-107 -90 -266 -90q-146 0 -235 96t-89 231q0 80 30 146t80 107.5t112 64.5t127 23q54 0 111 -12.5t87 -25.5l30 -12l2 -3q-15 -52 -20 -116l-12 -1q-34 58 -90 92t-122 34 q-102 0 -167 -78.5t-65 -208.5q0 -41 8 -81t27 -79t46 -68t69.5 -47t93.5 -18q107 0 147 38v45z"/>
<glyph glyph-name="H" horiz-adv-x="726" unicode="H" d="M536 445q0 129 -10 200l2 3q18 -3 51 -3q34 0 52 3l1 -3q-10 -66 -10 -200v-245q0 -129 10 -200l-2 -3q-18 3 -51 3q-34 0 -52 -3l-1 3q10 68 10 200v121h-346v-121q0 -129 10 -200l-2 -3q-18 3 -51 3q-34 0 -52 -3l-1 3q10 68 10 200v245q0 129 -10 200l2 3q18 -3 51 -3 q34 0 52 3l1 -3q-10 -66 -10 -200v-80h346v80z"/>
<glyph glyph-name="I" horiz-adv-x="294" unicode="I" d="M104 445q0 129 -10 200l2 3q18 -3 51 -3t51 3l2 -3q-10 -66 -10 -200v-245q0 -129 10 -200l-2 -3q-18 3 -51 3t-51 -3l-2 3q10 68 10 200v245z"/>
<glyph glyph-name="J" horiz-adv-x="320" unicode="J" d="M140 95v350q0 129 -10 200l2 3q18 -3 51 -3q34 0 52 3l1 -3q-10 -66 -10 -200v-328q0 -85 -11.5 -123t-51.5 -90q-59 -76 -158 -76q-31 0 -45 9l-1 3q12 21 28 82l11 1q19 -35 58 -35q28 0 46 18.5t25.5 53.5t10 64t2.5 71z"/>
<glyph glyph-name="K" horiz-adv-x="629" unicode="K" d="M104 445q0 129 -10 200l2 3q18 -3 51 -3t51 3l2 -3q-10 -66 -10 -200v-101q12 0 22 9q117 102 285 295q13 -3 49 -3q35 0 51 3q-206 -181 -304 -294v-2l314 -355q-19 3 -62 3q-45 0 -62 -3q-219 270 -274 325q-5 4 -19 7v-129q0 -129 10 -200l-2 -3q-18 3 -51 3t-51 -3 l-2 3q10 68 10 200v245z"/>
<glyph glyph-name="L" horiz-adv-x="515" unicode="L" d="M191 445v-245q0 -112 8 -139q60 0 130.5 5.5t110.5 11.5l41 5l2 -4q-2 -16 -2 -35q0 -16 2 -44l-2 -3q-24 3 -60 3h-273l-52 -3l-1 3q10 68 10 200v245q0 129 -10 200l2 3q18 -3 51 -3q34 0 52 3l1 -3q-10 -66 -10 -200z"/>
<glyph glyph-name="M" horiz-adv-x="886" unicode="M" d="M193 662h33q125 -290 224 -496h8l243 496h25q39 -337 94 -665q-15 3 -56 3q-34 0 -49 -3q-18 194 -55 476h-4q-112 -224 -222 -473h-19q-111 269 -210 476h-4q-55 -346 -74 -479q-11 3 -30 3q-22 0 -33 -3q81 390 129 665z"/>
<glyph glyph-name="N" horiz-adv-x="718" unicode="N" d="M108 645l2 3q8 -3 42 -3l14 2l343 -444q4 -5 8.5 -11l7.5 -10t6.5 -8.5t6 -7.5t5.5 -6.5t5 -5.5l4 -4t4 -2.5t3 -0.5q8 0 9 31v267q0 129 -10 200l2 3q18 -3 35 -3t35 3l2 -3q-6 -78 -9.5 -163.5t-4.5 -142t-3 -160.5t-3 -158q-2 -31 -19 -31q-25 0 -43 24l-349 441 q-25 33 -32 33t-7 -49v-239q0 -129 10 -200l-2 -3q-18 3 -35 3t-35 -3l-2 3q15 150 15 403q0 125 -5 242z"/>
<glyph glyph-name="O" horiz-adv-x="741" unicode="O" d="M689 329q0 -150 -88.5 -244.5t-231.5 -94.5q-133 0 -225 88t-92 232q0 147 91 247.5t225 100.5q137 0 229 -91.5t92 -237.5zM355 614q-82 0 -141 -70.5t-59 -216.5q0 -137 69 -215t165 -78q88 0 142.5 72.5t54.5 203.5q0 152 -61 228t-170 76z"/>
<glyph glyph-name="P" horiz-adv-x="559" unicode="P" d="M104 445q0 129 -10 200l2 3q18 -3 51 -3q15 0 71 3.5t69 3.5q66 0 114 -16.5t72 -44t35 -56t11 -59.5q0 -34 -13.5 -67.5t-40.5 -64t-76.5 -49.5t-114.5 -19q-53 0 -84 10v-86q0 -129 10 -200l-2 -3q-18 3 -51 3t-51 -3l-2 3q10 68 10 200v245zM190 565v-236 q19 -10 79 -10q77 0 115 34.5t38 117.5q0 43 -12 71.5t-34 42.5t-44.5 19t-51.5 5q-52 0 -71 -10.5t-19 -33.5z"/>
<glyph glyph-name="Q" horiz-adv-x="741" unicode="Q" d="M561 49q6 -3 59 -34.5t97 -53t93 -38.5v-6q-66 -35 -94 -57q-49 28 -105.5 70t-126.5 79q-55 -19 -115 -19q-133 0 -225 88t-92 232q0 147 91 247.5t225 100.5q137 0 229 -91.5t92 -237.5q0 -90 -33.5 -162.5t-94.5 -117.5zM355 614q-82 0 -141 -70.5t-59 -216.5 q0 -137 69 -215t165 -78q88 0 142.5 72.5t54.5 203.5q0 152 -61 228t-170 76z"/>
<glyph glyph-name="R" horiz-adv-x="600" unicode="R" d="M283 609q-66 0 -79.5 -7t-13.5 -37v-239h58q82 0 130 33.5t48 118.5q0 38 -13.5 65.5t-36 41t-45 19t-48.5 5.5zM190 286v-86q0 -129 10 -200l-2 -3q-18 3 -51 3t-51 -3l-2 3q10 68 10 200v245q0 129 -10 200l2 3q18 -3 51 -3q16 0 69.5 3.5t65.5 3.5q136 0 187 -48 q53 -50 53 -125q0 -111 -100 -161q-24 -12 -61 -19q22 -29 104 -148t110 -151l-2 -3q-20 3 -60 3q-41 0 -60 -3q-18 54 -95 179q-7 11 -18.5 30t-18.5 30.5t-17.5 26t-20.5 26.5q-41 -3 -93 -3z"/>
<glyph glyph-name="S" horiz-adv-x="506" unicode="S" d="M242 34q47 0 82 31.5t35 85.5q0 58 -30 89.5t-87 55.5q-37 15 -63 30t-53 37.5t-41.5 53t-14.5 68.5q0 52 31.5 94t78.5 62q41 17 86 17q33 0 61.5 -4.5t45.5 -11t29.5 -13.5t17.5 -11l5 -5l2 -3q-19 -63 -23 -100l-10 -1q-20 47 -57.5 76t-78.5 29q-38 0 -61 -12 q-19 -10 -32.5 -36.5t-13.5 -53.5q0 -29 11 -52t32 -38t37.5 -23.5t41.5 -17.5q179 -66 179 -200q0 -86 -62 -138.5t-156 -52.5q-52 0 -97.5 11t-64.5 23l-20 11l-2 3q20 74 23 103l10 1q23 -44 70 -76t89 -32z"/>
<glyph glyph-name="T" horiz-adv-x="540" unicode="T" d="M227 445q0 117 -8 144q-60 0 -110.5 -3.5t-70.5 -7.5l-21 -3l-2 4q1 8 1 28q0 24 -1 38l2 3q24 -3 60 -3h386q36 0 60 3l2 -3q-1 -14 -1 -38q0 -20 1 -28l-2 -4q-68 14 -202 14q-8 -27 -8 -144v-245q0 -129 10 -200l-2 -3q-18 3 -51 3t-51 -3l-2 3q10 68 10 200v245z"/>
<glyph glyph-name="U" horiz-adv-x="692" unicode="U" d="M544 445q0 129 -10 200l2 3q18 -3 35 -3t35 3l2 -3q-10 -66 -10 -200v-150q0 -146 -58.5 -225.5t-202.5 -79.5q-39 0 -75.5 10.5t-74 35.5t-60.5 76.5t-23 123.5v209q0 129 -10 200l2 3q18 -3 51 -3t51 3l2 -3q-10 -66 -10 -200v-176q0 -223 168 -223q49 0 84 14 t54.5 34.5t30.5 53.5t14 61.5t3 67.5v168z"/>
<glyph glyph-name="V" horiz-adv-x="631" unicode="V" d="M324 132q3 7 24.5 56t27 62.5t25 59t27.5 65l24 58.5t24.5 62t20 53.5t18.5 54.5t13 45q16 -3 45 -3q22 0 40 3q-194 -426 -295 -658h-28q-33 79 -96 234.5t-109.5 267t-68.5 156.5q25 -3 60 -3q30 0 55 3q62 -216 191 -516h2z"/>
<glyph glyph-name="W" horiz-adv-x="951" unicode="W" d="M644 132l24 56t27 62.5t25.5 59t27.5 65l24 58.5t24.5 62t20 53.5t18.5 54.5t13 45q12 -3 50 -3q23 0 35 3q-194 -426 -295 -658h-28q-30 83 -132 362l-160 -362h-28q-33 79 -96 234.5t-109.5 267t-68.5 156.5q17 -3 60 -3q33 0 50 3q59 -208 197 -525h2q89 205 127 299 q-68 183 -86 226q17 -3 60 -3q38 0 55 3q27 -122 161 -516h2z"/>
<glyph glyph-name="X" horiz-adv-x="581" unicode="X" d="M564 -3q-18 3 -58 3t-58 -3q-18 35 -42 75t-38.5 62.5t-48.5 73.5t-45 67q-98 -151 -167 -278q-11 3 -42 3t-42 -3l221 324l-216 327q17 -3 56 -3t57 3q24 -49 161 -257q105 151 162 257q11 -3 42 -3t42 3q-14 -20 -51.5 -71.5t-81 -112t-83.5 -119.5q162 -249 232 -348z "/>
<glyph glyph-name="Y" horiz-adv-x="582" unicode="Y" d="M333 285q2 -232 7 -288q-18 3 -50 3t-50 -3q7 77 7 278q-30 51 -116 190.5t-115 182.5q25 -3 57 -3q31 0 57 3q24 -47 175 -308q112 176 175 308q18 -3 42 -3q22 0 42 3q-31 -48 -79 -120.5t-68.5 -104t-44.5 -70.5t-39 -68z"/>
<glyph glyph-name="Z" horiz-adv-x="622" unicode="Z" d="M187 54q58 0 153 5t161 11l66 5l2 -3q-2 -16 -2 -33q0 -11 2 -39l-2 -3q-24 3 -71 3h-363l-87 -3l-3 4q6 8 15 21.5t11 15.5l369 541q8 12 -3 12q-117 0 -355 -21l-2 3q2 16 2 33q0 11 -2 39l2 3q24 -3 61 -3h304q78 0 126 6q6 0 6 -6q0 -12 -30 -54l-355 -519 q-5 -7 -5 -18z"/>
<glyph glyph-name="bracketleft" horiz-adv-x="361" unicode="[" d="M110 -192v895h215v-30q-54 -4 -81 -9t-43 -18.5t-19.5 -31t-3.5 -53.5v-611q0 -36 3 -53t19 -31t43.5 -19.5t81.5 -9.5v-29h-215z"/>
<glyph glyph-name="backslash" horiz-adv-x="292" unicode="\" d="M60 698l230 -746h-49l-230 746h49z"/>
<glyph glyph-name="bracketright" horiz-adv-x="361" unicode="]" d="M251 703v-895h-215v30q54 4 81 9t43 18.5t19.5 31t3.5 53.5v611q0 36 -3 53t-19 31t-43.5 19.5t-81.5 9.5v29h215z"/>
<glyph glyph-name="asciicircum" horiz-adv-x="518" unicode="^" d="M259 593l-102 -247h-45l127 304h42l126 -304h-45z"/>
<glyph glyph-name="underscore" horiz-adv-x="486" unicode="_" d="M482 -110v-44h-477v44h477z"/>
<glyph glyph-name="grave" horiz-adv-x="392" unicode="`" d="M178 699l70 -126q6 -12 6 -24q0 -4 -4.5 -7.5t-10.5 -3.5q-8 0 -29 20l-114 109l2 11q31 23 65 23q7 0 15 -2z"/>
<glyph glyph-name="a" horiz-adv-x="481" unicode="a" d="M310 48h-4q-40 -34 -67.5 -46t-68.5 -12q-58 0 -91.5 27t-33.5 81q0 51 44.5 89.5t121.5 55.5l93 21q7 2 7 12q0 32 -7 55.5t-16 35t-24 18t-25 8t-24 1.5q-57 0 -110 -85l-13 1l-17 67l3 4q69 58 147 58q165 0 165 -162q0 -3 -1.5 -68.5t-1.5 -82.5q0 -63 17 -78 q8 -8 29 -8q11 0 27 6l8 -25q-30 -31 -80 -31q-62 0 -78 58zM310 225l-85 -23q-55 -15 -77 -39.5t-22 -60.5q0 -24 20.5 -42.5t53.5 -18.5q40 0 92 39q14 10 14 26z"/>
<glyph glyph-name="b" horiz-adv-x="504" unicode="b" d="M162 500v-111q46 50 125 50q75 0 129.5 -59t54.5 -148q0 -118 -64.5 -180t-150.5 -62q-61 0 -118 49q-14 -29 -33 -49q-20 0 -28 8q5 27 5 75v409q0 128 -12 193l2 3q46 3 87 20q9 0 9 -10q-6 -73 -6 -188zM162 81q16 -20 41 -35.5t47 -15.5q69 0 100.5 49t31.5 145 q0 88 -32.5 131.5t-82.5 43.5q-29 0 -51 -13.5t-54 -45.5v-259z"/>
<glyph glyph-name="c" horiz-adv-x="429" unicode="c" d="M250 399q-52 0 -88 -48t-36 -128q0 -85 36.5 -134t93.5 -49q60 0 107 42h4l19 -21q-56 -71 -147 -71q-92 0 -146.5 62t-54.5 166q0 97 65 159t148 62q79 0 133 -28l2 -3l-23 -82l-13 -1q-42 74 -100 74z"/>
<glyph glyph-name="d" horiz-adv-x="530" unicode="d" d="M361 58q-53 -68 -129 -68q-80 0 -130.5 64.5t-50.5 158.5q0 101 63.5 163.5t162.5 62.5q45 0 84 -22v65q0 145 -9 193l2 3q46 3 87 20q9 0 9 -10q-9 -112 -9 -188v-308q0 -101 17 -192l-2 -3q-20 3 -44 3q-16 0 -35 -3q-9 0 -9 3l-5 58h-2zM361 113v228q-19 30 -40 44 t-55 14q-21 0 -41 -7.5t-40.5 -25t-33.5 -55t-13 -90.5q0 -89 28 -134t72 -45q67 0 123 71z"/>
<glyph glyph-name="e" horiz-adv-x="453" unicode="e" d="M392 104l20 -25q-29 -40 -75 -64.5t-99 -24.5q-104 0 -159 66q-45 53 -45 153q0 105 61.5 167.5t143.5 62.5q90 0 131.5 -57t41.5 -132q0 -17 -18 -17h-272q0 -90 24 -127q36 -57 109 -57q86 0 137 55zM125 273h184q14 0 14 14q0 53 -25.5 82.5t-58.5 29.5 q-14 0 -29.5 -5.5t-33 -18t-31.5 -39t-20 -63.5z"/>
<glyph glyph-name="f" horiz-adv-x="314" unicode="f" d="M99 429v39q0 84 55 153q28 36 72.5 56.5t91.5 20.5q29 0 45 -10l1 -3q-15 -31 -28 -82l-11 -1q-19 35 -58 35q-42 0 -67.5 -25.5t-25.5 -67.5q0 -7 2.5 -46.5t2.5 -59.5v-9h43q36 0 70 2l5 -7q-8 -20 -12 -41q-26 2 -72 2h-34v-186q0 -128 10 -199l-2 -3q-18 3 -48 3 t-48 -3l-2 3q10 68 10 199v186h-1q-38 0 -74 -2l-5 7q12 18 22 41q13 -2 58 -2z"/>
<glyph glyph-name="g" horiz-adv-x="499" unicode="g" d="M312 284q0 117 -91 117q-43 0 -65.5 -29t-22.5 -80q0 -116 94 -116q43 0 64 29.5t21 78.5zM390 285q0 -62 -45.5 -105.5t-120.5 -43.5q-48 0 -74 14q-27 -23 -27 -56q0 -29 15.5 -38t42.5 -9q1 0 29 2q38 5 80 5q102 0 141 -33q42 -36 42 -99q0 -72 -67 -115.5 t-182 -43.5q-85 0 -138.5 28.5t-53.5 84.5q0 30 23 66q47 36 85 51q-39 6 -58.5 29.5t-19.5 56.5q0 39 64 83q-71 41 -71 125q0 70 52.5 111t117.5 41q34 0 61 -9q43 2 92 10t66 9l3 -3q-3 -14 -3 -26t3 -26l-3 -3q-99 10 -104 10q50 -33 50 -116zM101 -104 q0 -47 37.5 -68.5t93.5 -21.5q69 0 118.5 25t49.5 68q0 49 -39 72q-29 17 -106 17q-5 0 -38.5 -1.5t-50.5 -1.5q-27 -15 -46 -40t-19 -49z"/>
<glyph glyph-name="h" horiz-adv-x="549" unicode="h" d="M170 352l2 -3q77 90 173 90q66 0 95 -39t29 -119q0 -16 -1 -50.5t-1 -50.5q0 -116 9 -180l-2 -3q-18 3 -47 3t-47 -3l-2 3q9 61 9 180v98q0 59 -16 80t-56 21q-31 0 -70.5 -20t-74.5 -62v-117q0 -116 9 -180l-2 -3q-18 3 -47 3t-47 -3l-2 3q9 63 9 180v301q0 146 -9 194 l2 3q46 3 87 20q9 0 9 -10q-9 -112 -9 -187v-149z"/>
<glyph glyph-name="i" horiz-adv-x="260" unicode="i" d="M90 235q0 130 -9 194l2 3q9 -1 34 -1q27 0 53 2q6 0 7.5 -1.5t1.5 -8.5q-9 -91 -9 -172v-71q0 -107 9 -180l-2 -3q-18 3 -47 3t-47 -3l-2 3q9 69 9 180v55zM80 597q0 20 15.5 35.5t35.5 15.5t35.5 -15.5t15.5 -35.5t-15.5 -35.5t-35.5 -15.5t-35.5 15.5t-15.5 35.5z"/>
<glyph glyph-name="j" horiz-adv-x="272" unicode="j" d="M182 251v-131q0 -109 -10 -163.5t-34 -91.5q-52 -81 -135 -81q-29 0 -43 9l-1 3q4 15 4 89l16 4q25 -45 60 -45q38 0 50.5 65t12.5 187v139q0 130 -9 194l2 3q9 -1 34 -1q27 0 53 2q6 0 7.5 -1.5t1.5 -8.5q-9 -91 -9 -172zM90 597q0 20 15.5 35.5t35.5 15.5t35.5 -15.5 t15.5 -35.5t-15.5 -35.5t-35.5 -15.5t-35.5 15.5t-15.5 35.5z"/>
<glyph glyph-name="k" horiz-adv-x="503" unicode="k" d="M90 200v282q0 145 -9 193l2 3q46 3 87 20q9 0 9 -10q-9 -113 -9 -188v-260q27 2 44 15q30 23 78 75.5t80 98.5q82 0 101 3l2 -3q-104 -88 -202 -191q42 -51 79.5 -91t78 -80.5t65.5 -66.5l-2 -3q-14 3 -60 3q-44 0 -66 -3q-44 63 -59 84.5t-41 53t-57 64.5q-12 11 -41 11 v-10q0 -136 9 -200l-2 -3q-18 3 -47 3t-47 -3l-2 3q9 61 9 200z"/>
<glyph glyph-name="l" horiz-adv-x="252" unicode="l" d="M90 200v282q0 145 -9 193l2 3q46 3 87 20q9 0 9 -10q-9 -113 -9 -188v-300q0 -136 9 -200l-2 -3q-18 3 -47 3t-47 -3l-2 3q9 61 9 200z"/>
<glyph glyph-name="m" horiz-adv-x="807" unicode="m" d="M162 352l3 -3q85 90 168 90q42 0 70.5 -21.5t35.5 -57.5q75 79 169 79q74 0 99 -40.5t25 -118.5v-100q0 -116 9 -180l-2 -3q-18 3 -47 3t-47 -3l-2 3q9 61 9 180v110q0 49 -19 69t-61 20q-73 0 -127 -60q1 -12 1 -38v-101q0 -116 9 -180l-2 -3q-18 3 -47 3t-47 -3l-2 3 q9 61 9 180v110q0 89 -66 89q-27 0 -65 -21.5t-73 -56.5v-121q0 -116 9 -180l-2 -3q-18 3 -47 3t-47 -3l-2 3q9 61 9 180v55q0 139 -9 194l2 3q8 -1 28 -1q34 0 53 4q6 0 6 -10v-73z"/>
<glyph glyph-name="n" horiz-adv-x="539" unicode="n" d="M460 180q0 -116 9 -180l-2 -3q-18 3 -47 3t-47 -3l-2 3q9 69 9 180v98q0 59 -16 80t-56 21q-31 0 -70.5 -20t-74.5 -62v-117q0 -116 9 -180l-2 -3q-18 3 -47 3t-47 -3l-2 3q9 61 9 180v55q0 139 -9 194l2 3q8 -1 28 -1q34 0 53 4q6 0 6 -10v-73l2 -3q77 90 173 90 q66 0 95 -39t29 -119q0 -16 -1 -50.5t-1 -50.5z"/>
<glyph glyph-name="o" d="M247 399q-44 0 -72.5 -27t-38.5 -64.5t-10 -85.5q0 -45 10 -85t42 -73.5t81 -33.5q50 0 82.5 47t32.5 119q0 101 -26.5 152t-100.5 51zM38 205q0 106 59 170t157 64q100 0 154 -60.5t54 -164.5q0 -100 -57 -162t-155 -62q-97 0 -154.5 61t-57.5 154z" unicode="o"/>
<glyph glyph-name="p" horiz-adv-x="523" unicode="p" d="M162 352l2 -3q59 90 135 90q80 0 127 -61.5t47 -146.5q0 -107 -57 -174t-155 -67q-58 0 -99 22v-44q0 -127 9 -200l-2 -3q-18 3 -47 3t-47 -3l-2 3q9 69 9 200v267q0 139 -9 194l2 3q8 -1 28 -1q34 0 53 4q6 0 6 -10v-73zM162 294v-219q38 -45 93 -45q38 0 65 17 t40.5 46.5t19 60t5.5 64.5q0 175 -103 175q-30 0 -67 -30t-53 -69z"/>
<glyph glyph-name="q" horiz-adv-x="522" unicode="q" d="M366 432q18 -2 36 -2q21 0 45 2l2 -3q-9 -55 -9 -194v-267q0 -136 9 -200l-2 -3q-13 3 -47 3l-47 -3l-2 3q9 61 9 200v55q-14 -12 -46.5 -22.5t-71.5 -10.5q-49 0 -88 20.5t-61 54t-33 72t-11 79.5q0 98 60 160.5t148 62.5q67 0 109 -7zM357 376q-28 23 -94 23 q-56 0 -91 -47.5t-35 -124.5q0 -103 38.5 -148t90.5 -45q17 0 46.5 9t47.5 23v168z"/>
<glyph glyph-name="r" horiz-adv-x="355" unicode="r" d="M167 334l3 -2q35 60 61.5 83.5t65.5 23.5q12 0 36 -7l4 -4l-20 -74l-8 -2q-15 14 -52 14q-34 0 -56 -35q-34 -51 -34 -99v-52q0 -116 9 -180l-2 -3q-18 3 -47 3t-47 -3l-2 3q9 61 9 180v55q0 139 -9 194l2 3q8 -1 28 -1q34 0 53 4q6 0 6 -10v-91z"/>
<glyph glyph-name="s" horiz-adv-x="396" unicode="s" d="M50 101l15 1q52 -72 118 -72q41 0 66.5 22t25.5 61q0 34 -24.5 50.5t-76.5 30.5q-56 16 -88 42.5t-32 80.5q0 58 45 90t106 32q77 0 135 -30l2 -3l-20 -74l-14 -1q-19 22 -28 31.5t-32 23t-47 13.5q-33 0 -54.5 -16.5t-21.5 -46.5q0 -56 93 -78q62 -15 99 -45t37 -86 q0 -23 -7.5 -45t-25 -44t-53 -35t-84.5 -13q-74 0 -151 27z"/>
<glyph glyph-name="t" horiz-adv-x="340" unicode="t" d="M95 429q0 58 4 128l2 3q14 2 25 5.5t24.5 10t20.5 9.5q9 0 9 -10q-5 -73 -5 -146h47q34 0 70 2l5 -7q-8 -20 -12 -41q-26 2 -72 2h-38v-126q0 -34 -1.5 -78t-1.5 -55q0 -76 33 -82q18 -2 26 -2q24 0 53 10l12 -25q-58 -37 -116 -37q-37 0 -62.5 25t-25.5 71 q0 11 1.5 69.5t1.5 92.5v137q-37 0 -71 -2l-5 7q12 18 22 41q12 -2 54 -2z"/>
<glyph glyph-name="u" horiz-adv-x="537" unicode="u" d="M365 92q-28 -43 -68 -72.5t-83 -29.5q-69 0 -100 40t-31 99v120q0 116 -9 180l2 3q18 -3 47 -3t47 3l2 -3q-9 -60 -9 -180v-99q0 -63 18 -83.5t49 -20.5q35 0 74 31.5t63 73.5v98q0 116 -9 180l2 3q18 -3 47 -3t47 3l2 -3q-9 -60 -9 -180v-57q0 -101 17 -192l-2 -3 q-20 3 -44 3q-20 0 -40 -3q-4 0 -4 3l-5 89z"/>
<glyph glyph-name="v" horiz-adv-x="462" unicode="v" d="M202 -3q-86 225 -182 435q16 -3 58 -3q37 0 50 3q77 -247 119 -342h2q20 44 40.5 101t44 130t36.5 111q9 -3 34 -3q29 0 38 3q-124 -280 -179 -435q-9 3 -30 3t-31 -3z"/>
<glyph glyph-name="w" horiz-adv-x="722" unicode="w" d="M205 -4q-70 184 -185 435q16 -3 58 -3q37 0 50 3q75 -239 120 -342h6q29 62 83 212q-30 81 -47 131q16 -3 58 -3q37 0 50 3q46 -210 96 -342h8q59 139 123 342q9 -3 34 -3q34 0 43 3q-60 -132 -186 -435q-9 3 -37 3q-16 0 -26 -3q-16 45 -90 237q-38 -93 -89 -238 q-9 3 -36 3q-23 0 -33 -3z"/>
<glyph glyph-name="x" horiz-adv-x="455" unicode="x" d="M184 207l-160 225q24 -3 58 -3q28 0 54 3q10 -16 30.5 -51.5t36.5 -61t34 -50.5q13 16 112 163q15 -3 37 -3q26 0 45 3l-164 -202q15 -22 49 -72.5t60.5 -88t53.5 -72.5q-24 3 -57 3q-30 0 -51 -3q-12 19 -32.5 53t-38 62t-35.5 53q-22 -31 -58 -88.5t-50 -79.5 q-15 3 -44 3q-21 0 -36 -3z"/>
<glyph glyph-name="y" horiz-adv-x="506" unicode="y" d="M28 432q14 -3 52 -3q36 0 49 3q28 -88 134 -344h2q66 140 131 344q10 -3 39 -3q33 0 43 3q-43 -87 -154 -337.5t-136 -331.5q-17 5 -49 5q-18 0 -35 -5q73 122 118 227q-21 57 -194 442z"/>
<glyph glyph-name="z" horiz-adv-x="416" unicode="z" d="M136 45q54 0 116.5 3t97.5 6l36 2l2 -3q-2 -16 -2 -26q0 -1 2 -27l-2 -3q-22 3 -56 3h-226l-81 -3l-3 4q5 6 22 31l235 352q-51 -1 -108 -3.5t-89 -4.5l-31 -3l-2 3q2 16 2 26q0 1 -2 27l2 3q22 -3 56 -3h204q13 0 32 1.5t33.5 3t15.5 1.5q5 0 5 -6q-7 -8 -30 -42z"/>
<glyph glyph-name="braceleft" horiz-adv-x="277" unicode="{" d="M178 552l8 -166v-12q0 -56 -26 -83t-79 -42v-4q52 -22 78.5 -53.5t26.5 -84.5v-12l-8 -149v-13q0 -55 23.5 -88t56.5 -33q4 -4 4 -12t-4 -12q-78 0 -115 32t-37 115v16l6 170v6q0 96 -98 108q-6 6 -6 12t6 12q51 5 74.5 36.5t23.5 74.5l-6 184v10q0 143 152 143 q4 -4 4 -12t-4 -12q-24 -7 -38 -14.5t-28 -33.5t-14 -68v-15z"/>
<glyph glyph-name="bar" horiz-adv-x="210" unicode="|" d="M130 -232h-49v930h49v-930z"/>
<glyph glyph-name="braceright" horiz-adv-x="277" unicode="}" d="M95 -58l-8 166v12q0 56 26 83t79 42v4q-52 22 -78.5 53.5t-26.5 84.5v12l8 149v13q0 55 -23.5 88t-56.5 33q-5 5 -5 12t5 12q78 0 115 -32t37 -115v-16l-6 -170v-6q0 -96 98 -108q6 -6 6 -12t-6 -12q-51 -5 -74.5 -36.5t-23.5 -74.5l6 -184v-10q0 -143 -152 -143 q-5 5 -5 12t5 12q24 7 38 14.5t28 33.5t14 68v15z"/>
<glyph glyph-name="asciitilde" horiz-adv-x="449" unicode="~" d="M26 209q10 51 47 89.5t81 38.5q22 0 74 -32q52 -33 73 -33q26 0 55 16.5t44 50.5l17 -6q-14 -49 -40 -78t-44.5 -35.5t-35.5 -6.5q-28 0 -75 33q-47 32 -74 32q-28 0 -60.5 -20t-48.5 -52z"/>
<glyph glyph-name="uni00A0" horiz-adv-x="250" unicode=" "/>
<glyph glyph-name="exclamdown" horiz-adv-x="228" unicode="¡" d="M171 385v-4q-13 -38 -54 -54h-4q-41 14 -54 54v4q14 44 54 54h4q24 -5 35.5 -17t18.5 -37zM115 -229q-22 0 -39 19t-17 54q0 37 11 100t15 93q6 47 9.5 89.5t4.5 65.5t2 27q2 20 14 20t14 -13l5 -71q5 -71 10 -118q4 -35 14.5 -94.5t10.5 -98.5q0 -37 -17 -55t-37 -18z "/>
<glyph glyph-name="cent" d="M256 153v352q-40 -16 -65.5 -61.5t-25.5 -111.5q0 -70 25 -116.5t66 -62.5zM256 656h39v-103q78 0 134 -29l2 -3l-24 -83l-13 -1q-43 74 -99 75v-366h3q62 0 109 42h4l20 -21q-53 -67 -136 -72v-109h-39v110q-83 9 -132 71t-49 160q0 88 53 148.5t128 74.5v106z" unicode="¢"/>
<glyph glyph-name="sterling" d="M236 441v-77h134q8 0 8 -6v-24q0 -14 -26 -14h-116q-1 -149 -78 -222h6q53 0 84.5 -12.5t53.5 -25t51 -12.5q78 0 111 46l20 -11q-20 -43 -59.5 -68.5t-90.5 -25.5q-48 0 -96.5 31.5t-95.5 31.5q-45 0 -45 -26q0 -18 -12.5 -27.5t-31.5 -9.5q-15 0 -24.5 8t-9.5 21 q0 25 55 54q44 33 60 89.5t16 140.5v18h-68q-7 0 -7 7v15q0 8 6.5 15t19.5 7h49v22q0 67 15.5 105t57.5 80q76 76 189 76q28 0 46 -9l1 -3q-14 -24 -29 -82l-11 -1q-20 35 -58 35q-45 0 -85 -45t-40 -101z" unicode="£"/>
<glyph glyph-name="currency" d="M249 128q-68 0 -123 41l-49 -60l-46 45l61 49q-44 51 -44 124q0 75 44 125l-59 47l42 45l52 -58q56 40 122 40q70 0 124 -42l52 62l44 -46l-62 -50q42 -51 42 -123q0 -69 -41 -122l59 -49l-41 -44l-52 58q-57 -42 -125 -42zM116 328q0 -64 37 -108t96 -44q58 0 94.5 44 t36.5 107t-38 107t-91 44q-59 0 -97 -44t-38 -106z" unicode="¤"/>
<glyph glyph-name="yen" d="M53 260q-4 0 -4.5 1t-0.5 6v16q0 8 6 15t19 7h113q-17 32 -89 172.5t-92 175.5q17 -3 58 -3q39 0 56 3q72 -186 143 -310q16 26 30.5 53t31 64t24.5 56t29 70.5t27 66.5q11 -3 42 -3q30 0 42 3q-90 -156 -188 -348h146q8 0 8 -6v-24q0 -15 -26 -15h-137q0 -11 0.5 -35.5 t0.5 -36.5h154q8 0 8 -6v-23q0 -15 -26 -15h-135q1 -84 6 -147q-16 3 -53 3q-35 0 -51 -3q4 46 6 147h-148q-4 0 -4.5 1t-0.5 6v15q0 8 6 15t19 7h129v72h-149z" unicode="¥"/>
<glyph glyph-name="brokenbar" horiz-adv-x="205" unicode="¦" d="M129 161v-362h-48v362h48zM129 674v-362h-48v362h48z"/>
<glyph glyph-name="section" horiz-adv-x="483" unicode="§" d="M125 407q-44 47 -44 109q0 53 46 97.5t117 44.5q32 0 62.5 -13t42 -22t34.5 -28l3 -5l-17 -73l-14 -2q-28 48 -55.5 75.5t-64.5 27.5q-36 0 -60.5 -23t-24.5 -59q0 -66 80 -99q203 -83 203 -218q0 -85 -75 -140q44 -47 44 -109q0 -53 -46 -97.5t-117 -44.5 q-32 0 -62.5 13t-42 22t-34.5 28l-3 5l17 73l14 2q28 -48 55.5 -75.5t64.5 -27.5q36 0 60.5 23t24.5 59q0 66 -80 99q-203 83 -203 218q0 85 75 140zM148 387q-41 -41 -41 -82q0 -17 5.5 -33.5t12 -28.5t22 -26t24 -21.5t31 -21t29.5 -17l33 -16.5t29 -15q27 -13 43 -27 q40 40 40 82q0 17 -5.5 33.5t-12 28.5t-22 26t-24 21.5t-31 21t-29.5 17l-33 16.5t-29 15q-24 12 -42 27z"/>
<glyph glyph-name="dieresis" horiz-adv-x="379" unicode="¨" d="M219 574q0 20 14 34t33 14t33 -14t14 -34t-13.5 -33.5t-33.5 -13.5t-33.5 13.5t-13.5 33.5zM50 574q0 20 14 34t33 14t33 -14t14 -34t-14 -33.5t-33 -13.5t-33 13.5t-14 33.5z"/>
<glyph glyph-name="copyright" horiz-adv-x="633" unicode="©" d="M317 557q-105 0 -178.5 -73.5t-73.5 -177.5t73.5 -177.5t178.5 -73.5q104 0 177.5 73.5t73.5 177.5t-73.5 177.5t-177.5 73.5zM317 23q-117 0 -200 83t-83 200t83 199.5t200 82.5t199.5 -82.5t82.5 -199.5t-82.5 -200t-199.5 -83zM439 216q-17 -26 -48.5 -45t-69.5 -19 q-66 0 -111 44.5t-45 104.5q0 63 46.5 109.5t111.5 46.5q40 0 65 -7.5t34 -7.5l14 -78l-20 -4q-14 38 -35.5 56t-61.5 18q-37 0 -64.5 -28.5t-27.5 -94.5q0 -57 27 -93.5t76 -36.5q56 0 90 50z"/>
<glyph glyph-name="ordfeminine" horiz-adv-x="297" unicode="ª" d="M238 411q0 -19 10 -19q5 0 24 13l2 -1l10 -13q-26 -33 -55 -33q-35 0 -39 36h-4q-26 -22 -41.5 -29t-40.5 -7q-36 0 -57 17t-21 50q0 31 27.5 55t75.5 35l56 13q4 2 4 7q0 32 -10.5 50t-21 21t-25.5 3q-35 0 -68 -55h-8l-11 44l2 2q46 37 91 37q102 0 102 -101 q0 -2 -1 -58.5t-1 -66.5zM189 504l-51 -15q-34 -10 -46.5 -24.5t-12.5 -37.5q0 -15 12 -26t32 -11q24 0 55 24q8 6 8 16z"/>
<glyph glyph-name="guillemotleft" horiz-adv-x="543" unicode="«" d="M336 215q55 -61 127 -170q-1 -7 -8.5 -12.5t-15.5 -6.5q-106 114 -185 183v12q79 69 185 183q8 -1 15.5 -6.5t8.5 -12.5q-72 -109 -127 -170zM156 215q55 -61 127 -170q-1 -7 -8.5 -12.5t-15.5 -6.5q-106 114 -185 183v12q79 69 185 183q8 -1 15.5 -6.5t8.5 -12.5 q-72 -109 -127 -170z"/>
<glyph glyph-name="logicalnot" horiz-adv-x="560" unicode="¬" d="M483 133v224h-459v44h513v-268h-54z"/>
<glyph glyph-name="uni00AD" horiz-adv-x="333" unicode="­" d="M274 236h-226q-15 0 -15 17q0 12 8 24.5t17 12.5h229q14 0 14 -18q0 -9 -9 -22.5t-18 -13.5z"/>
<glyph glyph-name="registered" horiz-adv-x="633" unicode="®" d="M317 557q-105 0 -178.5 -73.5t-73.5 -177.5t73.5 -177.5t178.5 -73.5q104 0 177.5 73.5t73.5 177.5t-73.5 177.5t-177.5 73.5zM317 23q-117 0 -200 83t-83 200t83 199.5t200 82.5t199.5 -82.5t82.5 -199.5t-82.5 -200t-199.5 -83zM376 370q0 51 -50 51q-40 0 -40 -25v-84 h32q27 0 42.5 11.5t15.5 46.5zM431 370q0 -55 -58 -74l48 -82q12 -22 35 -22q5 0 8 1l4 -17q-17 -7 -36 -7q-40 0 -61 35l-48 80q-5 4 -37 4v-72q0 -20 12 -21l14 -2q11 -1 11 -6v-16l-2 -2q-41 2 -59 2l-61 -2l-2 2v17q0 4 10 5l17 2q13 2 13 21v180q0 25 -23 25h-11 q-8 0 -8 5v17l2 2h136q51 0 73.5 -23.5t22.5 -51.5z"/>
<glyph glyph-name="macron" horiz-adv-x="397" unicode="¯" d="M315 529h-244q-12 0 -12 15q0 10 6.5 19.5t15.5 9.5h244q14 0 14 -14q0 -10 -7.5 -20t-16.5 -10z"/>
<glyph glyph-name="degree" horiz-adv-x="267" unicode="°" d="M34 525q0 42 29.5 71t70.5 29t70 -29t29 -71q0 -41 -29 -70t-70 -29t-70.5 29t-29.5 70zM200 524q0 28 -17.5 50.5t-48.5 22.5t-49 -22t-18 -51q0 -28 18.5 -49t48.5 -21q29 0 47.5 21.5t18.5 48.5z"/>
<glyph glyph-name="plusminus" horiz-adv-x="527" unicode="±" d="M461 68v-49h-395v49h395zM289 342h172v-49h-172v-174h-51v174h-172v49h172v174h51v-174z"/>
<glyph glyph-name="two.superior" horiz-adv-x="311" unicode="²" d="M71 615h-13l-11 42l2 2q33 30 93 30q51 0 81 -21q33 -22 33 -63t-52 -90l-53 -52q-35 -35 -35 -46h43q22 0 99 5q-3 -14 -3 -35q0 -11 3 -25q-70 2 -92 2q-8 0 -24.5 -0.5t-47 -1t-55.5 -0.5l-1 2q0 35 73 109l40 39q33 34 33 94q0 23 -16 39q-14 15 -30 15 q-41 0 -67 -45z"/>
<glyph glyph-name="three.superior" horiz-adv-x="313" unicode="³" d="M171 399q22 18 22 59q0 62 -59 62q-16 0 -20 -1v25q73 3 73 68q0 21 -11 35q-12 14 -27 14q-27 0 -41 -12q-12 -9 -26 -35h-13l-11 42l1 3q35 29 94 29q41 0 67 -15q29 -18 29 -53q0 -64 -63 -81v-2q33 -3 54 -21q25 -21 25 -56q0 -52 -42 -79q-35 -23 -89 -23 q-52 0 -86 30l-2 2l12 42l12 1q15 -26 24 -35q13 -12 41 -12q22 0 36 13z"/>
<glyph glyph-name="acute" horiz-adv-x="341" unicode="´" d="M175 703q6 2 14 2q31 0 55 -23l3 -11l-115 -109q-19 -19 -30 -19q-5 0 -9.5 4t-4.5 9q0 10 11 28z"/>
<glyph glyph-name="uni00B5" horiz-adv-x="486" unicode="µ" d="M101 -234q-15 0 -34.5 18.5t-19.5 46.5q0 24 8 76t8 85q0 13 -4.5 61.5t-4.5 80.5v188l-10 107q13 0 43.5 4.5t38.5 5.5q3 -64 3 -96v-196q0 -112 69 -112q39 0 73.5 19t52.5 45v330q14 0 42 4.5t33 5.5v-315q0 -29 0.5 -41t3 -25t7.5 -17t15 -4q17 0 34 42l24 -11 q-16 -41 -35 -59.5t-56 -18.5q-28 0 -48 20.5t-20 49.5q-64 -70 -145 -70q-38 0 -57 23q-12 0 -12 -9q0 -35 16 -97t16 -81q0 -29 -11.5 -44.5t-29.5 -15.5z"/>
<glyph glyph-name="paragraph" horiz-adv-x="602" unicode="¶" d="M408 645l99 3l1 -3q-10 -66 -10 -200v-477q0 -129 10 -200l-2 -3q-65 3 -99 3l-98 -3l-2 3q10 71 10 200v317q-13 -3 -32 -3q-111 0 -169.5 50t-58.5 149q0 66 49 116t141 50q43 0 98 -1t63 -1zM367 574v-735q0 -38 40 -38q41 0 41 38v735q0 38 -41 38q-40 0 -40 -38z "/>
<glyph glyph-name="periodcentered" horiz-adv-x="250" unicode="·" d="M69 251v4q13 38 54 54h4q41 -14 54 -54v-4q-14 -44 -54 -54h-4q-24 5 -35.5 17t-18.5 37z"/>
<glyph glyph-name="cedilla" horiz-adv-x="541" unicode="¸" d="M302 -96q-26 0 -45 -6l-6 6l40 96h34l-25 -67q12 3 26 3q31 0 51 -17t20 -45q0 -32 -30.5 -53t-76.5 -21q-35 0 -74 17q0 16 10 26q38 -14 58 -14q23 0 37 10.5t14 29.5q0 35 -33 35z"/>
<glyph glyph-name="one.superior" horiz-adv-x="384" unicode="¹" d="M243 464q0 -61 7 -100l-1 -2q-24 2 -38 2t-36 -2v2q6 36 6 100v130q0 34 -10 34q-35 0 -58 -3l-1 23q23 5 134 40q3 0 3 -3q-6 -41 -6 -86v-135z"/>
<glyph glyph-name="ordmasculine" horiz-adv-x="349" unicode="º" d="M171 541q-36 0 -55 -29.5t-19 -72.5q0 -42 22 -75t64 -33q27 0 49 20t22 68q0 59 -22.5 90.5t-60.5 31.5zM39 429q0 64 37 100.5t101 36.5q69 0 101.5 -37.5t32.5 -93.5q0 -55 -36 -93.5t-103 -38.5q-56 0 -94.5 36t-38.5 90z"/>
<glyph glyph-name="guillemotright" horiz-adv-x="543" unicode="»" d="M207 215q-55 61 -127 170q1 7 8.5 12.5t15.5 6.5q106 -114 185 -183v-12q-79 -69 -185 -183q-8 1 -15.5 6.5t-8.5 12.5q72 109 127 170zM387 215q-55 61 -127 170q1 7 8.5 12.5t15.5 6.5q106 -114 185 -183v-12q-79 -69 -185 -183q-8 1 -15.5 6.5t-8.5 12.5 q72 109 127 170z"/>
<glyph glyph-name="onequarter" horiz-adv-x="660" unicode="¼" d="M240 415q0 -61 7 -100l-1 -2q-24 2 -38 2t-36 -2v2q6 36 6 100v130q0 34 -10 34q-36 0 -58 -3l-1 23q23 5 134 40q3 0 3 -3q-6 -40 -6 -86v-135zM408 43h97v153zM397 8q-29 0 -30 7q0 17 6 25q59 80 137 209v2q8 -2 26 -2q14 0 36 2l1 -2q-5 -45 -5 -79v-127h38 q7 0 7 -11q0 -6 -4 -14q-6 -10 -11 -10h-30q0 -35 5 -78l-1 -2q-22 2 -36 2q-15 0 -37 -2v2q6 45 6 78h-108zM557 601l41 -8l-458 -655l-42 8z"/>
<glyph glyph-name="onehalf" horiz-adv-x="660" unicode="½" d="M242 415q0 -61 7 -100l-1 -2q-24 2 -38 2t-36 -2v2q6 36 6 100v130q0 34 -10 34q-36 0 -58 -3l-1 23q23 5 134 40q3 0 3 -3q-6 -40 -6 -86v-135zM429 172h-13l-11 42l2 2q33 30 93 30q51 0 81 -21q33 -23 33 -63q0 -41 -52 -90l-53 -52q-35 -35 -35 -46h43q22 0 99 5 q-3 -14 -3 -35q0 -12 3 -25q-70 2 -92 2q-8 0 -24.5 -0.5t-47 -1t-55.5 -0.5l-1 2q0 35 73 109l40 39q33 35 33 94q0 23 -16 39q-14 15 -30 15q-42 0 -67 -45zM532 601l42 -8l-459 -655l-41 8z"/>
<glyph glyph-name="threequarters" horiz-adv-x="660" unicode="¾" d="M412 45h97v153zM401 10q-29 0 -30 7q0 18 6 25q59 80 137 209v2q8 -2 26 -2q14 0 36 2l1 -2q-5 -45 -5 -79v-127h38q7 0 7 -11q0 -6 -4 -14q-6 -10 -11 -10h-30q0 -35 5 -78l-1 -2q-22 2 -36 2q-15 0 -37 -2v2q6 45 6 78h-108zM169 348q22 18 22 59q0 62 -59 62 q-16 0 -20 -1v25q73 3 73 68q0 21 -11 35q-12 14 -27 14q-27 0 -41 -12q-12 -9 -26 -35h-13l-11 42l1 3q35 29 94 29q42 0 67 -15q29 -18 29 -53q0 -65 -63 -81v-2q33 -3 54 -21q25 -21 25 -56q0 -52 -42 -79q-35 -23 -89 -23q-52 0 -86 30l-2 2l12 42l12 1q15 -26 24 -35 q13 -12 41 -12q22 0 36 13zM562 601l41 -8l-458 -655l-42 8z"/>
<glyph glyph-name="questiondown" horiz-adv-x="405" unicode="¿" d="M282 385v-4q-13 -38 -54 -54h-4q-41 14 -54 54v4q14 44 54 54h4q24 -5 35.5 -17t18.5 -37zM211 -190q69 0 123 94l13 -1l16 -67l-3 -4q-74 -62 -158 -62q-76 0 -120.5 41t-44.5 110q0 37 19 69.5t37 48.5t50 39q42 31 52 50q18 35 18 73v44q0 10 13 10t13 -10v-46 q0 -29 -2.5 -49t-18.5 -52.5t-46 -59.5q-32 -30 -46 -54.5t-14 -58.5q0 -49 28 -82t71 -33z"/>
<glyph glyph-name="Agrave" horiz-adv-x="629" unicode="À" d="M179 228q-62 -153 -83 -231q-12 3 -45 3q-23 0 -35 -3q170 373 295 661h28q34 -81 96.5 -236t109 -268t68.5 -157q-17 3 -60 3q-33 0 -50 -3q-23 83 -78 231q-36 3 -117 3q-92 0 -129 -3zM407 276q-48 125 -101 246h-2l-105 -246q66 -3 104 -3q55 0 104 3zM256 818 l121 -84q15 -11 15 -21q0 -6 -4.5 -10.5t-10.5 -4.5q-15 0 -43 12l-154 63q28 28 76 45z"/>
<glyph glyph-name="Aacute" horiz-adv-x="629" unicode="Á" d="M179 228q-62 -153 -83 -231q-12 3 -45 3q-23 0 -35 -3q170 373 295 661h28q34 -81 96.5 -236t109 -268t68.5 -157q-17 3 -60 3q-33 0 -50 -3q-23 83 -78 231q-36 3 -117 3q-92 0 -129 -3zM407 276q-48 125 -101 246h-2l-105 -246q66 -3 104 -3q55 0 104 3zM367 820 q41 -18 62 -52l-144 -58q-28 -12 -42 -12q-15 0 -15 15q0 11 15 21z"/>
<glyph glyph-name="Acircumflex" horiz-adv-x="629" unicode="Â" d="M179 228q-62 -153 -83 -231q-12 3 -45 3q-23 0 -35 -3q170 373 295 661h28q34 -81 96.5 -236t109 -268t68.5 -157q-17 3 -60 3q-33 0 -50 -3q-23 83 -78 231q-36 3 -117 3q-92 0 -129 -3zM407 276q-48 125 -101 246h-2l-105 -246q66 -3 104 -3q55 0 104 3zM346 805 q41 -49 101 -94l-16 -21q-62 29 -106 62q-50 -37 -107 -62l-14 21q43 32 99 94h43z"/>
<glyph glyph-name="Atilde" horiz-adv-x="629" unicode="Ã" d="M179 228q-62 -153 -83 -231q-12 3 -45 3q-23 0 -35 -3q170 373 295 661h28q34 -81 96.5 -236t109 -268t68.5 -157q-17 3 -60 3q-33 0 -50 -3q-23 83 -78 231q-36 3 -117 3q-92 0 -129 -3zM407 276q-48 125 -101 246h-2l-105 -246q66 -3 104 -3q55 0 104 3zM394 744 q17 0 28.5 11t21.5 41l24 -6q-18 -90 -87 -90q-25 0 -64 26q-36 22 -54 22q-19 0 -30 -11.5t-19 -36.5l-24 5q11 45 29.5 67t50.5 22t72 -28q29 -22 52 -22z"/>
<glyph glyph-name="Adieresis" horiz-adv-x="629" unicode="Ä" d="M179 228q-62 -153 -83 -231q-12 3 -45 3q-23 0 -35 -3q170 373 295 661h28q34 -81 96.5 -236t109 -268t68.5 -157q-17 3 -60 3q-33 0 -50 -3q-23 83 -78 231q-36 3 -117 3q-92 0 -129 -3zM407 276q-48 125 -101 246h-2l-105 -246q66 -3 104 -3q55 0 104 3zM418 709 q0 19 13.5 32t32.5 13t32 -13t13 -32t-13 -32t-32 -13t-32.5 13t-13.5 32zM143 709q0 19 13.5 32t32.5 13t32 -13t13 -32t-13 -32t-32 -13t-32.5 13t-13.5 32z"/>
<glyph glyph-name="Aring" horiz-adv-x="629" unicode="Å" d="M407 276q-48 125 -101 246h-2l-105 -246q66 -3 104 -3q55 0 104 3zM237 714q0 34 26 58.5t61 24.5t61 -24t26 -59q0 -28 -17.5 -50t-44.5 -30q32 -76 93.5 -229.5t105.5 -259t65 -148.5q-17 3 -60 3q-33 0 -50 -3q-23 83 -78 231q-36 3 -117 3q-92 0 -129 -3 q-62 -153 -83 -231q-12 3 -45 3q-23 0 -35 -3q179 393 285 637q-28 8 -46 30t-18 50zM324 770q-23 0 -36.5 -16.5t-13.5 -39.5q0 -22 14 -39t36 -17t36 17t14 39q0 24 -14 40t-36 16z"/>
<glyph glyph-name="AE" horiz-adv-x="802" unicode="Æ" d="M397 325q-6 28 -19 97t-21 112h-2q-54 -96 -110 -208q60 -2 90 -2q9 0 30 0.5t32 0.5zM222 278q-80 -168 -124 -281q-12 3 -45 3q-23 0 -35 -3q23 44 96 189t130 249.5t122 210.5v-1l2 3q17 -3 51 -3h213q36 0 60 3l2 -3q-2 -28 -2 -31q0 -10 2 -26l-2 -4q-77 10 -183 10 q-51 0 -68.5 -7t-17.5 -29q0 -7 1 -12q15 -75 47 -213q108 0 224 10l3 -3q-3 -14 -3 -28t3 -28l-3 -3q-76 7 -214 10q31 -129 59 -235l212 10l2 -4q-2 -16 -2 -33q0 -1 2 -29l-2 -3q-24 3 -60 3h-137h-1h-54q-33 0 -50 -3q0 52 -44 282q-11 0 -33.5 0.5t-32.5 0.5 q-44 0 -118 -2z"/>
<glyph glyph-name="Ccedilla" horiz-adv-x="677" unicode="Ç" d="M367 -100q-26 0 -45 -6l-6 6l38 90q-147 4 -224.5 96.5t-77.5 228.5q0 144 99 243.5t229 99.5q54 0 108.5 -12.5t81.5 -25.5l28 -12l2 -3q-13 -51 -18 -111l-12 -1q-59 118 -204 118q-33 0 -68 -15.5t-68 -46.5t-54 -87t-21 -128q0 -119 63 -206t157 -87q71 0 121 23 t103 81l7 -3q3 -7 6 -42q-86 -102 -224 -109l-23 -62q12 3 26 3q31 0 51 -17t20 -45q0 -32 -30.5 -53t-76.5 -21q-35 0 -74 17q0 16 10 26q38 -14 58 -14q23 0 37 10.5t14 29.5q0 35 -33 35z"/>
<glyph glyph-name="Egrave" horiz-adv-x="538" unicode="È" d="M245 817l121 -84q15 -11 15 -21q0 -6 -4.5 -10.5t-10.5 -4.5q-15 0 -43 12l-154 63q28 28 76 45zM190 200q0 -117 8 -144q60 0 130.5 3t111.5 6l40 3l2 -4q-2 -16 -2 -33q0 -3 2 -31l-2 -3q-24 3 -60 3h-273l-52 -3l-1 3q10 68 10 200v245q0 129 -10 200l2 3q17 -3 51 -3 h263q36 0 60 3l2 -3q-2 -28 -2 -38t2 -26l-2 -4q-138 12 -272 12q-8 -27 -8 -144v-78q105 0 223 10l3 -3q-3 -14 -3 -32t3 -32l-3 -3q-99 10 -223 10v-117z"/>
<glyph glyph-name="Eacute" horiz-adv-x="538" unicode="É" d="M350 820q41 -18 62 -52l-144 -58q-28 -12 -42 -12q-15 0 -15 15q0 11 15 21zM190 200q0 -117 8 -144q60 0 130.5 3t111.5 6l40 3l2 -4q-2 -16 -2 -33q0 -3 2 -31l-2 -3q-24 3 -60 3h-273l-52 -3l-1 3q10 68 10 200v245q0 129 -10 200l2 3q17 -3 51 -3h263q36 0 60 3l2 -3 q-2 -28 -2 -38t2 -26l-2 -4q-138 12 -272 12q-8 -27 -8 -144v-78q105 0 223 10l3 -3q-3 -14 -3 -32t3 -32l-3 -3q-99 10 -223 10v-117z"/>
<glyph glyph-name="Ecircumflex" horiz-adv-x="538" unicode="Ê" d="M190 200q0 -117 8 -144q60 0 130.5 3t111.5 6l40 3l2 -4q-2 -16 -2 -33q0 -3 2 -31l-2 -3q-24 3 -60 3h-273l-52 -3l-1 3q10 68 10 200v245q0 129 -10 200l2 3q17 -3 51 -3h263q36 0 60 3l2 -3q-2 -28 -2 -38t2 -26l-2 -4q-138 12 -272 12q-8 -27 -8 -144v-78 q105 0 223 10l3 -3q-3 -14 -3 -32t3 -32l-3 -3q-99 10 -223 10v-117zM317 805q41 -49 101 -94l-16 -21q-62 29 -106 62q-50 -37 -107 -62l-14 21q43 32 99 94h43z"/>
<glyph glyph-name="Edieresis" horiz-adv-x="538" unicode="Ë" d="M190 200q0 -117 8 -144q60 0 130.5 3t111.5 6l40 3l2 -4q-2 -16 -2 -33q0 -3 2 -31l-2 -3q-24 3 -60 3h-273l-52 -3l-1 3q10 68 10 200v245q0 129 -10 200l2 3q17 -3 51 -3h263q36 0 60 3l2 -3q-2 -28 -2 -38t2 -26l-2 -4q-138 12 -272 12q-8 -27 -8 -144v-78 q105 0 223 10l3 -3q-3 -14 -3 -32t3 -32l-3 -3q-99 10 -223 10v-117zM145 751q0 19 14.5 33.5t33.5 14.5t33.5 -14.5t14.5 -33.5t-14.5 -33.5t-33.5 -14.5t-33.5 14.5t-14.5 33.5zM334 751q0 19 14 33.5t34 14.5t34 -14.5t14 -33.5t-14 -33.5t-34 -14.5t-34 14.5t-14 33.5z "/>
<glyph glyph-name="Igrave" horiz-adv-x="294" unicode="Ì" d="M99 817l121 -84q15 -11 15 -21q0 -6 -4.5 -10.5t-10.5 -4.5q-15 0 -43 12l-154 63q28 28 76 45zM104 445q0 129 -10 200l2 3q18 -3 51 -3t51 3l2 -3q-10 -66 -10 -200v-245q0 -129 10 -200l-2 -3q-18 3 -51 3t-51 -3l-2 3q10 68 10 200v245z"/>
<glyph glyph-name="Iacute" horiz-adv-x="294" unicode="Í" d="M210 819q41 -18 62 -52l-144 -58q-28 -12 -42 -12q-15 0 -15 15q0 11 15 21zM104 445q0 129 -10 200l2 3q18 -3 51 -3t51 3l2 -3q-10 -66 -10 -200v-245q0 -129 10 -200l-2 -3q-18 3 -51 3t-51 -3l-2 3q10 68 10 200v245z"/>
<glyph glyph-name="Icircumflex" horiz-adv-x="294" unicode="Î" d="M104 445q0 129 -10 200l2 3q18 -3 51 -3t51 3l2 -3q-10 -66 -10 -200v-245q0 -129 10 -200l-2 -3q-18 3 -51 3t-51 -3l-2 3q10 68 10 200v245zM167 805q41 -49 101 -94l-16 -21q-62 29 -106 62q-50 -37 -107 -62l-14 21q43 32 99 94h43z"/>
<glyph glyph-name="Idieresis" horiz-adv-x="294" unicode="Ï" d="M104 445q0 129 -10 200l2 3q18 -3 51 -3t51 3l2 -3q-10 -66 -10 -200v-245q0 -129 10 -200l-2 -3q-18 3 -51 3t-51 -3l-2 3q10 68 10 200v245zM13 750q0 20 14.5 34t33.5 14t33.5 -14t14.5 -34t-14.5 -34t-33.5 -14t-33.5 14t-14.5 34zM202 750q0 20 14 34t34 14t34 -14 t14 -34t-14 -34t-34 -14t-34 14t-14 34z"/>
<glyph glyph-name="Eth" horiz-adv-x="710" unicode="Ð" d="M147 645q32 0 82.5 1.5t82.5 1.5q144 0 245 -100t101 -240q0 -71 -21 -126.5t-53.5 -89t-77 -55.5t-87.5 -30.5t-89 -8.5q-56 0 -104 1t-79 1l-52 -3l-1 3q10 68 10 200v87h-87v39h87v119q0 129 -10 200l2 3q17 -3 51 -3zM190 82q0 -25 19 -32.5t90 -7.5q58 0 100.5 10 t79.5 35t56.5 74.5t19.5 122.5q0 62 -14 115.5t-45 101.5t-87.5 75.5t-134.5 27.5q-42 0 -63 -8t-21 -32v-238h98v-39h-98v-205z"/>
<glyph glyph-name="Ntilde" horiz-adv-x="718" unicode="Ñ" d="M108 645l2 3q8 -3 42 -3l14 2l343 -444q4 -5 8.5 -11l7.5 -10t6.5 -8.5t6 -7.5t5.5 -6.5t5 -5.5l4 -4t4 -2.5t3 -0.5q8 0 9 31v267q0 129 -10 200l2 3q18 -3 35 -3t35 3l2 -3q-6 -78 -9.5 -163.5t-4.5 -142t-3 -160.5t-3 -158q-2 -31 -19 -31q-25 0 -43 24l-349 441 q-25 33 -32 33t-7 -49v-239q0 -129 10 -200l-2 -3q-18 3 -35 3t-35 -3l-2 3q15 150 15 403q0 125 -5 242zM417 742q17 0 28.5 11t21.5 41l24 -6q-18 -90 -87 -90q-25 0 -64 26q-36 22 -54 22q-19 0 -30 -11.5t-19 -36.5l-24 5q11 45 29.5 67t50.5 22t72 -28q29 -22 52 -22z "/>
<glyph glyph-name="Ograve" horiz-adv-x="741" unicode="Ò" d="M304 819l121 -84q15 -11 15 -21q0 -6 -4.5 -10.5t-10.5 -4.5q-15 0 -43 12l-154 63q28 28 76 45zM689 329q0 -150 -88.5 -244.5t-231.5 -94.5q-133 0 -225 88t-92 232q0 147 91 247.5t225 100.5q137 0 229 -91.5t92 -237.5zM355 614q-82 0 -141 -70.5t-59 -216.5 q0 -137 69 -215t165 -78q88 0 142.5 72.5t54.5 203.5q0 152 -61 228t-170 76z"/>
<glyph glyph-name="Oacute" horiz-adv-x="741" unicode="Ó" d="M387 820q41 -18 62 -52l-144 -58q-28 -12 -42 -12q-15 0 -15 15q0 11 15 21zM689 329q0 -150 -88.5 -244.5t-231.5 -94.5q-133 0 -225 88t-92 232q0 147 91 247.5t225 100.5q137 0 229 -91.5t92 -237.5zM355 614q-82 0 -141 -70.5t-59 -216.5q0 -137 69 -215t165 -78 q88 0 142.5 72.5t54.5 203.5q0 152 -61 228t-170 76z"/>
<glyph glyph-name="Ocircumflex" horiz-adv-x="741" unicode="Ô" d="M689 329q0 -150 -88.5 -244.5t-231.5 -94.5q-133 0 -225 88t-92 232q0 147 91 247.5t225 100.5q137 0 229 -91.5t92 -237.5zM355 614q-82 0 -141 -70.5t-59 -216.5q0 -137 69 -215t165 -78q88 0 142.5 72.5t54.5 203.5q0 152 -61 228t-170 76zM388 805q41 -49 101 -94 l-16 -21q-62 29 -106 62q-50 -37 -107 -62l-14 21q43 32 99 94h43z"/>
<glyph glyph-name="Otilde" horiz-adv-x="741" unicode="Õ" d="M689 329q0 -150 -88.5 -244.5t-231.5 -94.5q-133 0 -225 88t-92 232q0 147 91 247.5t225 100.5q137 0 229 -91.5t92 -237.5zM355 614q-82 0 -141 -70.5t-59 -216.5q0 -137 69 -215t165 -78q88 0 142.5 72.5t54.5 203.5q0 152 -61 228t-170 76zM425 742q17 0 28.5 11 t21.5 41l24 -6q-18 -90 -87 -90q-25 0 -64 26q-36 22 -54 22q-19 0 -30 -11.5t-19 -36.5l-24 5q11 45 29.5 67t50.5 22t72 -28q29 -22 52 -22z"/>
<glyph glyph-name="Odieresis" horiz-adv-x="741" unicode="Ö" d="M689 329q0 -150 -88.5 -244.5t-231.5 -94.5q-133 0 -225 88t-92 232q0 147 91 247.5t225 100.5q137 0 229 -91.5t92 -237.5zM355 614q-82 0 -141 -70.5t-59 -216.5q0 -137 69 -215t165 -78q88 0 142.5 72.5t54.5 203.5q0 152 -61 228t-170 76zM557 709q0 19 13 32t32 13 t32 -13t13 -32t-13 -32t-32 -13t-32 13t-13 32zM94 709q0 19 13.5 32t32.5 13t32 -13t13 -32t-13 -32t-32 -13t-32.5 13t-13.5 32z"/>
<glyph glyph-name="multiply" horiz-adv-x="527" unicode="×" d="M298 230l123 -122l-35 -35l-122 122l-122 -122l-36 35l123 122l-123 123l36 35l122 -123l122 123l35 -35z"/>
<glyph glyph-name="Oslash" horiz-adv-x="741" unicode="Ø" d="M539 519l-322 -398q66 -87 172 -87q88 0 142.5 72.5t54.5 203.5q0 135 -47 209zM355 614q-82 0 -141 -70.5t-59 -216.5q0 -93 35 -163l319 392q-58 58 -154 58zM108 -13q-13 0 -23.5 10t-12.5 22l59 73q-79 87 -79 218q0 147 91 247.5t225 100.5q103 0 181 -52l42 52 q14 0 24 -9t12 -21l-41 -51q103 -93 103 -248q0 -150 -88.5 -244.5t-231.5 -94.5q-117 0 -203 69z"/>
<glyph glyph-name="Ugrave" horiz-adv-x="692" unicode="Ù" d="M336 818l121 -84q15 -11 15 -21q0 -6 -4.5 -10.5t-10.5 -4.5q-15 0 -43 12l-154 63q28 28 76 45zM544 445q0 129 -10 200l2 3q18 -3 35 -3t35 3l2 -3q-10 -66 -10 -200v-150q0 -146 -58.5 -225.5t-202.5 -79.5q-39 0 -75.5 10.5t-74 35.5t-60.5 76.5t-23 123.5v209 q0 129 -10 200l2 3q18 -3 51 -3t51 3l2 -3q-10 -66 -10 -200v-176q0 -223 168 -223q49 0 84 14t54.5 34.5t30.5 53.5t14 61.5t3 67.5v168z"/>
<glyph glyph-name="Uacute" horiz-adv-x="692" unicode="Ú" d="M425 819q41 -18 62 -52l-144 -58q-28 -12 -42 -12q-15 0 -15 15q0 11 15 21zM544 445q0 129 -10 200l2 3q18 -3 35 -3t35 3l2 -3q-10 -66 -10 -200v-150q0 -146 -58.5 -225.5t-202.5 -79.5q-39 0 -75.5 10.5t-74 35.5t-60.5 76.5t-23 123.5v209q0 129 -10 200l2 3 q18 -3 51 -3t51 3l2 -3q-10 -66 -10 -200v-176q0 -223 168 -223q49 0 84 14t54.5 34.5t30.5 53.5t14 61.5t3 67.5v168z"/>
<glyph glyph-name="Ucircumflex" horiz-adv-x="692" unicode="Û" d="M400 805q41 -49 101 -94l-16 -21q-62 29 -106 62q-50 -37 -107 -62l-14 21q43 32 99 94h43zM544 445q0 129 -10 200l2 3q18 -3 35 -3t35 3l2 -3q-10 -66 -10 -200v-150q0 -146 -58.5 -225.5t-202.5 -79.5q-39 0 -75.5 10.5t-74 35.5t-60.5 76.5t-23 123.5v209 q0 129 -10 200l2 3q18 -3 51 -3t51 3l2 -3q-10 -66 -10 -200v-176q0 -223 168 -223q49 0 84 14t54.5 34.5t30.5 53.5t14 61.5t3 67.5v168z"/>
<glyph glyph-name="Udieresis" horiz-adv-x="692" unicode="Ü" d="M544 445q0 129 -10 200l2 3q18 -3 35 -3t35 3l2 -3q-10 -66 -10 -200v-150q0 -146 -58.5 -225.5t-202.5 -79.5q-39 0 -75.5 10.5t-74 35.5t-60.5 76.5t-23 123.5v209q0 129 -10 200l2 3q18 -3 51 -3t51 3l2 -3q-10 -66 -10 -200v-176q0 -223 168 -223q49 0 84 14 t54.5 34.5t30.5 53.5t14 61.5t3 67.5v168zM414 709q0 19 13 32t32 13t32 -13t13 -32t-13 -32t-32 -13t-32 13t-13 32zM240 709q0 19 13 32t32 13t32 -13t13 -32t-13 -32t-32 -13t-32 13t-13 32z"/>
<glyph glyph-name="Yacute" horiz-adv-x="575" unicode="Ý" d="M360 820q41 -18 62 -52l-144 -58q-28 -12 -42 -12q-15 0 -15 15q0 11 15 21zM333 285q2 -232 7 -288q-18 3 -50 3t-50 -3q7 77 7 278q-30 51 -116 190.5t-115 182.5q25 -3 57 -3q31 0 57 3q24 -47 175 -308q112 176 175 308q18 -3 42 -3q22 0 42 3q-31 -48 -79 -120.5 t-68.5 -104t-44.5 -70.5t-39 -68z"/>
<glyph glyph-name="Thorn" horiz-adv-x="545" unicode="Þ" d="M190 192q13 -4 69 -4q146 0 146 155q0 142 -128 142q-50 0 -87 -10v-30v-245v-8zM104 445q0 129 -10 200l2 3q18 -3 51 -3t51 3l2 -3q-7 -51 -9 -120q18 1 87 1q65 0 112.5 -18t70 -47.5t32.5 -58.5t10 -59q0 -24 -7.5 -49.5t-25.5 -52t-44.5 -47t-68.5 -34t-93 -13.5 q-52 0 -74 6q2 -90 10 -153l-2 -3q-18 3 -51 3t-51 -3l-2 3q10 68 10 200v245z"/>
<glyph glyph-name="germandbls" horiz-adv-x="545" unicode="ß" d="M345 -10q-59 0 -104 28l-1 3q7 12 19 58l11 1q9 -17 32 -33.5t43 -16.5q66 0 66 116q0 65 -38.5 133.5t-101.5 116.5v13q51 39 70.5 75t19.5 90q0 84 -78 84q-22 0 -38.5 -7t-27.5 -16.5t-18.5 -28.5t-11.5 -33t-5.5 -41.5t-2 -43t-0.5 -46.5v-242q0 -136 9 -200l-2 -3 q-18 3 -47 3t-47 -3l-2 3q9 61 9 200v171q0 9 -2.5 11.5t-9.5 2.5h-42q-10 0 -8 8l7 26q3 10 23 10q22 0 27 8.5t5 39.5q0 59 18.5 104t48.5 69t62 36t64 12q72 0 110 -34.5t38 -76.5q0 -57 -22.5 -96t-76.5 -80v-2q68 -45 113 -108t45 -138q0 -79 -33 -121 q-40 -52 -121 -52z"/>
<glyph glyph-name="agrave" horiz-adv-x="481" unicode="à" d="M310 48h-4q-40 -34 -67.5 -46t-68.5 -12q-58 0 -91.5 27t-33.5 81q0 51 44.5 89.5t121.5 55.5l93 21q7 2 7 12q0 32 -7 55.5t-16 35t-24 18t-25 8t-24 1.5q-57 0 -110 -85l-13 1l-17 67l3 4q69 58 147 58q165 0 165 -162q0 -3 -1.5 -68.5t-1.5 -82.5q0 -63 17 -78 q8 -8 29 -8q11 0 27 6l8 -25q-30 -31 -80 -31q-62 0 -78 58zM310 225l-85 -23q-55 -15 -77 -39.5t-22 -60.5q0 -24 20.5 -42.5t53.5 -18.5q40 0 92 39q14 10 14 26zM196 671l70 -126q6 -12 6 -24q0 -4 -4.5 -7.5t-10.5 -3.5q-8 0 -29 20l-114 109l2 11q31 23 65 23 q7 0 15 -2z"/>
<glyph glyph-name="aacute" horiz-adv-x="481" unicode="á" d="M310 48h-4q-40 -34 -67.5 -46t-68.5 -12q-58 0 -91.5 27t-33.5 81q0 51 44.5 89.5t121.5 55.5l93 21q7 2 7 12q0 32 -7 55.5t-16 35t-24 18t-25 8t-24 1.5q-57 0 -110 -85l-13 1l-17 67l3 4q69 58 147 58q165 0 165 -162q0 -3 -1.5 -68.5t-1.5 -82.5q0 -63 17 -78 q8 -8 29 -8q11 0 27 6l8 -25q-30 -31 -80 -31q-62 0 -78 58zM310 225l-85 -23q-55 -15 -77 -39.5t-22 -60.5q0 -24 20.5 -42.5t53.5 -18.5q40 0 92 39q14 10 14 26zM244 671q6 2 14 2q31 0 55 -23l3 -11l-115 -109q-19 -19 -30 -19q-5 0 -9.5 4t-4.5 9q0 10 11 28z"/>
<glyph glyph-name="acircumflex" horiz-adv-x="481" unicode="â" d="M310 48h-4q-40 -34 -67.5 -46t-68.5 -12q-58 0 -91.5 27t-33.5 81q0 51 44.5 89.5t121.5 55.5l93 21q7 2 7 12q0 32 -7 55.5t-16 35t-24 18t-25 8t-24 1.5q-57 0 -110 -85l-13 1l-17 67l3 4q69 58 147 58q165 0 165 -162q0 -3 -1.5 -68.5t-1.5 -82.5q0 -63 17 -78 q8 -8 29 -8q11 0 27 6l8 -25q-30 -31 -80 -31q-62 0 -78 58zM310 225l-85 -23q-55 -15 -77 -39.5t-22 -60.5q0 -24 20.5 -42.5t53.5 -18.5q40 0 92 39q14 10 14 26zM250 646q33 -53 101 -129l-21 -14q-71 52 -106 90q-44 -45 -107 -90l-20 14q72 80 103 129h50z"/>
<glyph glyph-name="atilde" horiz-adv-x="481" unicode="ã" d="M310 48h-4q-40 -34 -67.5 -46t-68.5 -12q-58 0 -91.5 27t-33.5 81q0 51 44.5 89.5t121.5 55.5l93 21q7 2 7 12q0 32 -7 55.5t-16 35t-24 18t-25 8t-24 1.5q-57 0 -110 -85l-13 1l-17 67l3 4q69 58 147 58q165 0 165 -162q0 -3 -1.5 -68.5t-1.5 -82.5q0 -63 17 -78 q8 -8 29 -8q11 0 27 6l8 -25q-30 -31 -80 -31q-62 0 -78 58zM310 225l-85 -23q-55 -15 -77 -39.5t-22 -60.5q0 -24 20.5 -42.5t53.5 -18.5q40 0 92 39q14 10 14 26zM283 570q17 0 28.5 11t21.5 41l24 -6q-18 -90 -87 -90q-25 0 -64 26q-36 22 -54 22q-19 0 -30 -11.5 t-19 -36.5l-24 5q11 45 29.5 67t50.5 22t72 -28q29 -22 52 -22z"/>
<glyph glyph-name="adieresis" horiz-adv-x="481" unicode="ä" d="M310 48h-4q-40 -34 -67.5 -46t-68.5 -12q-58 0 -91.5 27t-33.5 81q0 51 44.5 89.5t121.5 55.5l93 21q7 2 7 12q0 32 -7 55.5t-16 35t-24 18t-25 8t-24 1.5q-57 0 -110 -85l-13 1l-17 67l3 4q69 58 147 58q165 0 165 -162q0 -3 -1.5 -68.5t-1.5 -82.5q0 -63 17 -78 q8 -8 29 -8q11 0 27 6l8 -25q-30 -31 -80 -31q-62 0 -78 58zM310 225l-85 -23q-55 -15 -77 -39.5t-22 -60.5q0 -24 20.5 -42.5t53.5 -18.5q40 0 92 39q14 10 14 26zM260 574q0 20 14 34t33 14t33 -14t14 -34t-14 -33.5t-33 -13.5t-33 13.5t-14 33.5zM91 574q0 20 14 34 t33 14t33 -14t14 -34t-13.5 -33.5t-33.5 -13.5t-33.5 13.5t-13.5 33.5z"/>
<glyph glyph-name="aring" horiz-adv-x="481" unicode="å" d="M310 48h-4q-40 -34 -67.5 -46t-68.5 -12q-58 0 -91.5 27t-33.5 81q0 51 44.5 89.5t121.5 55.5l93 21q7 2 7 12q0 32 -7 55.5t-16 35t-24 18t-25 8t-24 1.5q-57 0 -110 -85l-13 1l-17 67l3 4q69 58 147 58q165 0 165 -162q0 -3 -1.5 -68.5t-1.5 -82.5q0 -63 17 -78 q8 -8 29 -8q11 0 27 6l8 -25q-30 -31 -80 -31q-62 0 -78 58zM310 225l-85 -23q-55 -15 -77 -39.5t-22 -60.5q0 -24 20.5 -42.5t53.5 -18.5q40 0 92 39q14 10 14 26zM123 582q0 34 26 58.5t61 24.5t61 -24t26 -59q0 -34 -25.5 -58.5t-61.5 -24.5q-35 0 -61 24.5t-26 58.5z M210 638q-23 0 -36.5 -16.5t-13.5 -39.5q0 -22 14 -39t36 -17t36 17t14 39q0 24 -14 40t-36 16z"/>
<glyph glyph-name="ae" horiz-adv-x="687" unicode="æ" d="M202 394q-31 0 -61 -26t-52 -63l-13 1l-16 67l3 4q74 62 148 62q98 0 137 -70q51 70 142 70q40 0 72 -15t49 -37.5t26 -42.5t9 -35q0 -50 -26 -72q-13 -7 -36.5 -10.5t-47.5 -4t-73 -1.5t-89 -3q0 -79 34 -126.5t90 -47.5q65 0 123 68l20 -28q-22 -41 -65 -67.5 t-92 -26.5q-32 0 -57 6.5t-42.5 19.5t-25 20.5t-19.5 22.5q-72 -69 -150 -69q-151 0 -151 111q0 64 66 104.5t191 49.5q-1 74 -21 106.5t-73 32.5zM375 258q26 1 54 1.5t44.5 0.5t33.5 1t26 3t16.5 7t10 13.5t2.5 21.5q0 29 -20 58.5t-53 29.5q-47 0 -77.5 -36t-36.5 -100z M296 215q-175 -16 -175 -109q0 -66 71 -66q29 0 56 16t37 44q11 33 11 115z"/>
<glyph glyph-name="ccedilla" horiz-adv-x="429" unicode="ç" d="M233 -94q-26 0 -45 -6l-6 6l35 85q-83 8 -131 68.5t-48 158.5q0 97 65 159t148 62q79 0 133 -28l2 -3l-23 -82l-13 -1q-42 74 -100 74q-52 0 -88 -48t-36 -128q0 -85 36.5 -134t93.5 -49q60 0 107 42h4l19 -21q-52 -66 -134 -71l-21 -55q12 3 26 3q31 0 51 -17t20 -45 q0 -32 -30.5 -53t-76.5 -21q-35 0 -74 17q0 16 10 26q38 -14 58 -14q23 0 37 10.5t14 29.5q0 35 -33 35z"/>
<glyph glyph-name="egrave" horiz-adv-x="453" unicode="è" d="M392 104l20 -25q-29 -40 -75 -64.5t-99 -24.5q-104 0 -159 66q-45 53 -45 153q0 105 61.5 167.5t143.5 62.5q90 0 131.5 -57t41.5 -132q0 -17 -18 -17h-272q0 -90 24 -127q36 -57 109 -57q86 0 137 55zM125 273h184q14 0 14 14q0 53 -25.5 82.5t-58.5 29.5 q-14 0 -29.5 -5.5t-33 -18t-31.5 -39t-20 -63.5zM210 671l70 -126q6 -12 6 -24q0 -4 -4.5 -7.5t-10.5 -3.5q-8 0 -29 20l-114 109l2 11q31 23 65 23q7 0 15 -2z"/>
<glyph glyph-name="eacute" horiz-adv-x="453" unicode="é" d="M392 104l20 -25q-29 -40 -75 -64.5t-99 -24.5q-104 0 -159 66q-45 53 -45 153q0 105 61.5 167.5t143.5 62.5q90 0 131.5 -57t41.5 -132q0 -17 -18 -17h-272q0 -90 24 -127q36 -57 109 -57q86 0 137 55zM125 273h184q14 0 14 14q0 53 -25.5 82.5t-58.5 29.5 q-14 0 -29.5 -5.5t-33 -18t-31.5 -39t-20 -63.5zM270 671q6 2 14 2q31 0 55 -23l3 -11l-115 -109q-19 -19 -30 -19q-5 0 -9.5 4t-4.5 9q0 10 11 28z"/>
<glyph glyph-name="ecircumflex" horiz-adv-x="453" unicode="ê" d="M392 104l20 -25q-29 -40 -75 -64.5t-99 -24.5q-104 0 -159 66q-45 53 -45 153q0 105 61.5 167.5t143.5 62.5q90 0 131.5 -57t41.5 -132q0 -17 -18 -17h-272q0 -90 24 -127q36 -57 109 -57q86 0 137 55zM125 273h184q14 0 14 14q0 53 -25.5 82.5t-58.5 29.5 q-14 0 -29.5 -5.5t-33 -18t-31.5 -39t-20 -63.5zM258 646q33 -53 101 -129l-21 -14q-71 52 -106 90q-44 -45 -107 -90l-20 14q72 80 103 129h50z"/>
<glyph glyph-name="edieresis" horiz-adv-x="453" unicode="ë" d="M392 104l20 -25q-29 -40 -75 -64.5t-99 -24.5q-104 0 -159 66q-45 53 -45 153q0 105 61.5 167.5t143.5 62.5q90 0 131.5 -57t41.5 -132q0 -17 -18 -17h-272q0 -90 24 -127q36 -57 109 -57q86 0 137 55zM125 273h184q14 0 14 14q0 53 -25.5 82.5t-58.5 29.5 q-14 0 -29.5 -5.5t-33 -18t-31.5 -39t-20 -63.5zM268 574q0 20 14 34t33 14t33 -14t14 -34t-14 -33.5t-33 -13.5t-33 13.5t-14 33.5zM99 574q0 20 14 34t33 14t33 -14t14 -34t-13.5 -33.5t-33.5 -13.5t-33.5 13.5t-13.5 33.5z"/>
<glyph glyph-name="igrave" horiz-adv-x="260" unicode="ì" d="M90 235q0 130 -9 194l2 3q9 -1 34 -1q27 0 53 2q6 0 7.5 -1.5t1.5 -8.5q-9 -91 -9 -172v-71q0 -107 9 -180l-2 -3q-18 3 -47 3t-47 -3l-2 3q9 69 9 180v55zM110 671l70 -126q6 -12 6 -24q0 -4 -4.5 -7.5t-10.5 -3.5q-8 0 -29 20l-114 109l2 11q31 23 65 23q7 0 15 -2z "/>
<glyph glyph-name="iacute" horiz-adv-x="260" unicode="í" d="M90 235q0 130 -9 194l2 3q9 -1 34 -1q27 0 53 2q6 0 7.5 -1.5t1.5 -8.5q-9 -91 -9 -172v-71q0 -107 9 -180l-2 -3q-18 3 -47 3t-47 -3l-2 3q9 69 9 180v55zM174 671q6 2 14 2q31 0 55 -23l3 -11l-115 -109q-19 -19 -30 -19q-5 0 -9.5 4t-4.5 9q0 10 11 28z"/>
<glyph glyph-name="icircumflex" horiz-adv-x="260" unicode="î" d="M90 235q0 130 -9 194l2 3q9 -1 34 -1q27 0 53 2q6 0 7.5 -1.5t1.5 -8.5q-9 -91 -9 -172v-71q0 -107 9 -180l-2 -3q-18 3 -47 3t-47 -3l-2 3q9 69 9 180v55zM161 646q33 -53 101 -129l-21 -14q-71 52 -106 90q-44 -45 -107 -90l-20 14q72 80 103 129h50z"/>
<glyph glyph-name="idieresis" horiz-adv-x="260" unicode="ï" d="M90 235q0 130 -9 194l2 3q9 -1 34 -1q27 0 53 2q6 0 7.5 -1.5t1.5 -8.5q-9 -91 -9 -172v-71q0 -107 9 -180l-2 -3q-18 3 -47 3t-47 -3l-2 3q9 69 9 180v55zM174 574q0 20 14 34t33 14t33 -14t14 -34t-14 -33.5t-33 -13.5t-33 13.5t-14 33.5zM5 574q0 20 14 34t33 14 t33 -14t14 -34t-13.5 -33.5t-33.5 -13.5t-33.5 13.5t-13.5 33.5z"/>
<glyph glyph-name="eth" horiz-adv-x="495" unicode="ð" d="M34 208q0 61 22 108.5t56.5 72.5t70 37.5t69.5 12.5q42 0 77 -14q-30 73 -90 147l-109 -73l-22 32l105 71l-16 16q-23 24 -71 58l19 22q54 -29 106 -71l106 71l22 -32l-97 -65l18 -18q156 -156 156 -346q0 -119 -65 -183t-156 -64q-88 0 -144.5 67t-56.5 151zM252 31 q46 0 81 42t35 150q0 76 -16 133q-33 42 -102 42q-68 0 -97 -51.5t-29 -121.5q0 -84 37 -139t91 -55z"/>
<glyph glyph-name="ntilde" horiz-adv-x="539" unicode="ñ" d="M460 180q0 -116 9 -180l-2 -3q-18 3 -47 3t-47 -3l-2 3q9 69 9 180v98q0 59 -16 80t-56 21q-31 0 -70.5 -20t-74.5 -62v-117q0 -116 9 -180l-2 -3q-18 3 -47 3t-47 -3l-2 3q9 61 9 180v55q0 139 -9 194l2 3q8 -1 28 -1q34 0 53 4q6 0 6 -10v-73l2 -3q77 90 173 90 q66 0 95 -39t29 -119q0 -16 -1 -50.5t-1 -50.5zM342 570q17 0 28.5 11t21.5 41l24 -6q-18 -90 -87 -90q-25 0 -64 26q-36 22 -54 22q-19 0 -30 -11.5t-19 -36.5l-24 5q11 45 29.5 67t50.5 22t72 -28q29 -22 52 -22z"/>
<glyph glyph-name="ograve" d="M247 399q-44 0 -72.5 -27t-38.5 -64.5t-10 -85.5q0 -45 10 -85t42 -73.5t81 -33.5q50 0 82.5 47t32.5 119q0 101 -26.5 152t-100.5 51zM38 205q0 106 59 170t157 64q100 0 154 -60.5t54 -164.5q0 -100 -57 -162t-155 -62q-97 0 -154.5 61t-57.5 154zM234 671l70 -126 q6 -12 6 -24q0 -4 -4.5 -7.5t-10.5 -3.5q-8 0 -29 20l-114 109l2 11q31 23 65 23q7 0 15 -2z" unicode="ò"/>
<glyph glyph-name="oacute" d="M247 399q-44 0 -72.5 -27t-38.5 -64.5t-10 -85.5q0 -45 10 -85t42 -73.5t81 -33.5q50 0 82.5 47t32.5 119q0 101 -26.5 152t-100.5 51zM38 205q0 106 59 170t157 64q100 0 154 -60.5t54 -164.5q0 -100 -57 -162t-155 -62q-97 0 -154.5 61t-57.5 154zM280 671q6 2 14 2 q31 0 55 -23l3 -11l-115 -109q-19 -19 -30 -19q-5 0 -9.5 4t-4.5 9q0 10 11 28z" unicode="ó"/>
<glyph glyph-name="ocircumflex" d="M247 399q-44 0 -72.5 -27t-38.5 -64.5t-10 -85.5q0 -45 10 -85t42 -73.5t81 -33.5q50 0 82.5 47t32.5 119q0 101 -26.5 152t-100.5 51zM38 205q0 106 59 170t157 64q100 0 154 -60.5t54 -164.5q0 -100 -57 -162t-155 -62q-97 0 -154.5 61t-57.5 154zM277 646 q33 -53 101 -129l-21 -14q-71 52 -106 90q-44 -45 -107 -90l-20 14q72 80 103 129h50z" unicode="ô"/>
<glyph glyph-name="otilde" d="M247 399q-44 0 -72.5 -27t-38.5 -64.5t-10 -85.5q0 -45 10 -85t42 -73.5t81 -33.5q50 0 82.5 47t32.5 119q0 101 -26.5 152t-100.5 51zM38 205q0 106 59 170t157 64q100 0 154 -60.5t54 -164.5q0 -100 -57 -162t-155 -62q-97 0 -154.5 61t-57.5 154zM314 570 q17 0 28.5 11t21.5 41l24 -6q-18 -90 -87 -90q-25 0 -64 26q-36 22 -54 22q-19 0 -30 -11.5t-19 -36.5l-24 5q11 45 29.5 67t50.5 22t72 -28q29 -22 52 -22z" unicode="õ"/>
<glyph glyph-name="odieresis" d="M247 399q-44 0 -72.5 -27t-38.5 -64.5t-10 -85.5q0 -45 10 -85t42 -73.5t81 -33.5q50 0 82.5 47t32.5 119q0 101 -26.5 152t-100.5 51zM38 205q0 106 59 170t157 64q100 0 154 -60.5t54 -164.5q0 -100 -57 -162t-155 -62q-97 0 -154.5 61t-57.5 154zM281 574q0 20 14 34 t33 14t33 -14t14 -34t-13.5 -33.5t-33.5 -13.5t-33.5 13.5t-13.5 33.5zM112 574q0 20 14 34t33 14t33 -14t14 -34t-14 -33.5t-33 -13.5t-33 13.5t-14 33.5z" unicode="ö"/>
<glyph glyph-name="divide" horiz-adv-x="527" unicode="÷" d="M461 257v-49h-395v49h395zM218 99v3q12 32 46 46h3q34 -13 45 -46v-3q-12 -37 -45 -45h-3q-20 5 -30.5 14.5t-15.5 30.5zM218 367v3q12 32 46 46h3q34 -13 45 -46v-3q-12 -37 -45 -45h-3q-20 5 -30.5 14.5t-15.5 30.5z"/>
<glyph glyph-name="oslash" d="M361 316l-196 -238q34 -48 94 -48q50 0 82.5 47t32.5 119q0 77 -13 120zM247 399q-44 0 -72.5 -27t-38.5 -64.5t-10 -85.5q0 -60 19 -107l198 240q-30 44 -96 44zM424 454l31 -23l-45 -55q52 -60 52 -162q0 -100 -57 -162t-155 -62q-75 0 -127 37l-45 -55l-30 26l45 55 q-55 60 -55 152q0 106 59 170t157 64q76 0 127 -37z" unicode="ø"/>
<glyph glyph-name="ugrave" horiz-adv-x="537" unicode="ù" d="M365 92q-28 -43 -68 -72.5t-83 -29.5q-69 0 -100 40t-31 99v120q0 116 -9 180l2 3q18 -3 47 -3t47 3l2 -3q-9 -60 -9 -180v-99q0 -63 18 -83.5t49 -20.5q35 0 74 31.5t63 73.5v98q0 116 -9 180l2 3q18 -3 47 -3t47 3l2 -3q-9 -60 -9 -180v-57q0 -101 17 -192l-2 -3 q-20 3 -44 3q-20 0 -40 -3q-4 0 -4 3l-5 89zM228 671l70 -126q6 -12 6 -24q0 -4 -4.5 -7.5t-10.5 -3.5q-8 0 -29 20l-114 109l2 11q31 23 65 23q7 0 15 -2z"/>
<glyph glyph-name="uacute" horiz-adv-x="537" unicode="ú" d="M365 92q-28 -43 -68 -72.5t-83 -29.5q-69 0 -100 40t-31 99v120q0 116 -9 180l2 3q18 -3 47 -3t47 3l2 -3q-9 -60 -9 -180v-99q0 -63 18 -83.5t49 -20.5q35 0 74 31.5t63 73.5v98q0 116 -9 180l2 3q18 -3 47 -3t47 3l2 -3q-9 -60 -9 -180v-57q0 -101 17 -192l-2 -3 q-20 3 -44 3q-20 0 -40 -3q-4 0 -4 3l-5 89zM306 671q6 2 14 2q31 0 55 -23l3 -11l-115 -109q-19 -19 -30 -19q-5 0 -9.5 4t-4.5 9q0 10 11 28z"/>
<glyph glyph-name="ucircumflex" horiz-adv-x="537" unicode="û" d="M365 92q-28 -43 -68 -72.5t-83 -29.5q-69 0 -100 40t-31 99v120q0 116 -9 180l2 3q18 -3 47 -3t47 3l2 -3q-9 -60 -9 -180v-99q0 -63 18 -83.5t49 -20.5q35 0 74 31.5t63 73.5v98q0 116 -9 180l2 3q18 -3 47 -3t47 3l2 -3q-9 -60 -9 -180v-57q0 -101 17 -192l-2 -3 q-20 3 -44 3q-20 0 -40 -3q-4 0 -4 3l-5 89zM281 646q33 -53 101 -129l-21 -14q-71 52 -106 90q-44 -45 -107 -90l-20 14q72 80 103 129h50z"/>
<glyph glyph-name="udieresis" horiz-adv-x="537" unicode="ü" d="M365 92q-28 -43 -68 -72.5t-83 -29.5q-69 0 -100 40t-31 99v120q0 116 -9 180l2 3q18 -3 47 -3t47 3l2 -3q-9 -60 -9 -180v-99q0 -63 18 -83.5t49 -20.5q35 0 74 31.5t63 73.5v98q0 116 -9 180l2 3q18 -3 47 -3t47 3l2 -3q-9 -60 -9 -180v-57q0 -101 17 -192l-2 -3 q-20 3 -44 3q-20 0 -40 -3q-4 0 -4 3l-5 89zM301 574q0 20 14 34t33 14t33 -14t14 -34t-13.5 -33.5t-33.5 -13.5t-33.5 13.5t-13.5 33.5zM132 574q0 20 14 34t33 14t33 -14t14 -34t-14 -33.5t-33 -13.5t-33 13.5t-14 33.5z"/>
<glyph glyph-name="yacute" horiz-adv-x="506" unicode="ý" d="M28 432q14 -3 52 -3q36 0 49 3q28 -88 134 -344h2q66 140 131 344q10 -3 39 -3q33 0 43 3q-43 -87 -154 -337.5t-136 -331.5q-17 5 -49 5q-18 0 -35 -5q73 122 118 227q-21 57 -194 442zM307 671q6 2 14 2q31 0 55 -23l3 -11l-115 -109q-19 -19 -30 -19q-5 0 -9.5 4 t-4.5 9q0 10 11 28z"/>
<glyph glyph-name="thorn" horiz-adv-x="515" unicode="þ" d="M163 -32q0 -129 10 -200l-2 -3q-14 3 -48 3l-49 -3l-1 3q10 68 10 200v514q0 134 -10 188l2 3q33 2 89 25q9 0 9 -10q-10 -76 -10 -188v-108l-1 -33q19 31 53 55.5t80 24.5q72 0 126 -62t54 -142q0 -108 -66 -176.5t-156 -68.5q-49 0 -90 22v-44zM163 306v-234 q36 -43 85 -43q131 0 131 179q0 98 -33.5 139t-76.5 41q-28 0 -59 -22t-47 -60z"/>
<glyph glyph-name="OE" horiz-adv-x="838" unicode="Œ" d="M455 0l-105 -2q-139 1 -223.5 91.5t-84.5 228.5q0 140 80.5 234t216.5 94q71 -1 116 -1h263q36 0 60 3l2 -3q-2 -28 -2 -31q0 -10 2 -26l-2 -4q-138 12 -272 12q-8 -27 -8 -151v-82q105 0 223 10l3 -3q-3 -13 -3 -28q0 -14 3 -28l-3 -3q-99 10 -223 10v-121 q0 -119 8 -146q60 0 130.5 3t111.5 6l40 3l2 -4q-2 -16 -2 -33q0 -1 2 -29l-2 -3q-24 3 -60 3h-273zM348 37h13q29 0 40 9t11 31v492q0 23 -10.5 30t-40.5 7h-35q-81 0 -131 -65t-50 -214q0 -145 59 -217.5t144 -72.5z"/>
<glyph glyph-name="oe" horiz-adv-x="775" unicode="œ" d="M124 237q0 -91 31.5 -149t95.5 -58q46 0 81 37.5t35 131.5q0 103 -38.5 152t-81.5 49q-59 0 -91 -51.5t-32 -111.5zM731 105l20 -26q-65 -89 -171 -89q-117 0 -175 84q-29 -43 -65.5 -63.5t-102.5 -20.5q-93 0 -148 61t-55 155q0 111 62.5 172t151.5 61q69 0 104.5 -23.5 t61.5 -66.5q30 43 73 66.5t87 23.5q90 0 130 -52.5t40 -126.5q0 -17 -18 -17h-269q0 -100 45 -147t98 -47q79 0 131 56zM460 287h181q14 0 14 14q0 51 -24.5 74.5t-56.5 23.5q-12 0 -25.5 -3.5t-33 -13t-34.5 -34.5t-21 -61z"/>
<glyph glyph-name="Scaron" horiz-adv-x="506" unicode="Š" d="M242 34q47 0 82 31.5t35 85.5q0 58 -30 89.5t-87 55.5q-37 15 -63 30t-53 37.5t-41.5 53t-14.5 68.5q0 52 31.5 94t78.5 62q41 17 86 17q33 0 61.5 -4.5t45.5 -11t29.5 -13.5t17.5 -11l5 -5l2 -3q-19 -63 -23 -100l-10 -1q-20 47 -57.5 76t-78.5 29q-38 0 -61 -12 q-19 -10 -32.5 -36.5t-13.5 -53.5q0 -29 11 -52t32 -38t37.5 -23.5t41.5 -17.5q179 -66 179 -200q0 -86 -62 -138.5t-156 -52.5q-52 0 -97.5 11t-64.5 23l-20 11l-2 3q20 74 23 103l10 1q23 -44 70 -76t89 -32zM215 697q-36 45 -101 95l16 20q60 -26 106 -61q57 40 107 61 l15 -20q-50 -38 -100 -95h-43z"/>
<glyph glyph-name="scaron" horiz-adv-x="396" unicode="š" d="M169 502q-38 62 -101 130l20 13q71 -52 106 -90q38 39 108 90l19 -13q-67 -75 -102 -130h-50zM50 101l15 1q52 -72 118 -72q41 0 66.5 22t25.5 61q0 34 -24.5 50.5t-76.5 30.5q-56 16 -88 42.5t-32 80.5q0 58 45 90t106 32q77 0 135 -30l2 -3l-20 -74l-14 -1 q-19 22 -28 31.5t-32 23t-47 13.5q-33 0 -54.5 -16.5t-21.5 -46.5q0 -56 93 -78q62 -15 99 -45t37 -86q0 -23 -7.5 -45t-25 -44t-53 -35t-84.5 -13q-74 0 -151 27z"/>
<glyph glyph-name="Ydieresis" horiz-adv-x="582" unicode="Ÿ" d="M333 285q2 -232 7 -288q-18 3 -50 3t-50 -3q7 77 7 278q-30 51 -116 190.5t-115 182.5q25 -3 57 -3q31 0 57 3q24 -47 175 -308q112 176 175 308q18 -3 42 -3q22 0 42 3q-31 -48 -79 -120.5t-68.5 -104t-44.5 -70.5t-39 -68zM344 750q0 20 14 34t33 14t33 -14t14 -34 t-14 -33.5t-33 -13.5t-33 13.5t-14 33.5zM175 750q0 20 14 34t33 14t33 -14t14 -34t-13.5 -33.5t-33.5 -13.5t-33.5 13.5t-13.5 33.5z"/>
<glyph glyph-name="circumflex" horiz-adv-x="349" unicode="ˆ" d="M203 668q33 -53 101 -129l-21 -14q-71 52 -106 90q-44 -45 -107 -90l-20 14q72 80 103 129h50z"/>
<glyph glyph-name="tilde" horiz-adv-x="292" unicode="˜" d="M209 618q17 0 28.5 11t21.5 41l24 -6q-18 -90 -87 -90q-25 0 -64 26q-36 22 -54 22q-19 0 -30 -11.5t-19 -36.5l-24 5q11 45 29.5 67t50.5 22t72 -28q29 -22 52 -22z"/>
<glyph glyph-name="Alpha" horiz-adv-x="629" unicode="Α" d="M179 228q-62 -153 -83 -231q-12 3 -45 3q-23 0 -35 -3q170 373 295 661h28q34 -81 96.5 -236t109 -268t68.5 -157q-17 3 -60 3q-33 0 -50 -3q-23 83 -78 231q-36 3 -117 3q-92 0 -129 -3zM407 276q-48 125 -101 246h-2l-105 -246q66 -3 104 -3q55 0 104 3z"/>
<glyph glyph-name="Beta" horiz-adv-x="616" unicode="Β" d="M147 645q27 0 69 1.5t58 1.5q53 0 94 -10t64.5 -25t38 -36.5t19.5 -41.5t5 -42q0 -40 -26.5 -77t-66.5 -56q152 -44 152 -176q0 -35 -11.5 -66t-37.5 -59.5t-77 -45t-122 -16.5q-48 0 -89.5 1.5t-69.5 1.5l-52 -3l-1 3q10 68 10 200v245q0 129 -10 200l2 3q17 -3 51 -3z M190 328v-240q0 -25 22.5 -36.5t74.5 -11.5q99 0 133.5 32.5t34.5 92.5q0 71 -44 117t-128 46h-93zM190 559v-188h78q67 0 103.5 25t36.5 85q0 69 -37.5 96.5t-89.5 27.5q-58 0 -74.5 -9.5t-16.5 -36.5z"/>
<glyph glyph-name="Gamma" horiz-adv-x="481" unicode="Γ" d="M185 445v-245q0 -134 10 -200l-1 -3q-17 3 -52 3l-52 -3l-2 3q11 78 11 200v245q0 133 -10 200l1 3q18 -3 52 -3h273q36 0 60 3l2 -3q-2 -28 -2 -29q0 -17 2 -33l-2 -4q-148 12 -282 12q-8 -27 -8 -146z"/>
<glyph glyph-name="Delta" horiz-adv-x="636" unicode="Δ" d="M352 658l244 -638q4 -12 4 -14q0 -6 -21 -6h-528q-21 0 -21 7q0 1 5 13l255 638h62zM300 547l-195 -503h387l-190 503h-2z"/>
<glyph glyph-name="Epsilon" horiz-adv-x="538" unicode="Ε" d="M190 200q0 -117 8 -144q60 0 130.5 3t111.5 6l40 3l2 -4q-2 -16 -2 -33q0 -3 2 -31l-2 -3q-24 3 -60 3h-273l-52 -3l-1 3q10 68 10 200v245q0 129 -10 200l2 3q17 -3 51 -3h263q36 0 60 3l2 -3q-2 -28 -2 -38t2 -26l-2 -4q-138 12 -272 12q-8 -27 -8 -144v-78 q105 0 223 10l3 -3q-3 -14 -3 -32t3 -32l-3 -3q-99 10 -223 10v-117z"/>
<glyph glyph-name="Zeta" horiz-adv-x="622" unicode="Ζ" d="M187 54q58 0 153 5t161 11l66 5l2 -3q-2 -16 -2 -33q0 -11 2 -39l-2 -3q-24 3 -71 3h-363l-87 -3l-3 4q6 8 15 21.5t11 15.5l369 541q8 12 -3 12q-117 0 -355 -21l-2 3q2 16 2 33q0 11 -2 39l2 3q24 -3 61 -3h304q78 0 126 6q6 0 6 -6q0 -12 -30 -54l-355 -519 q-5 -7 -5 -18z"/>
<glyph glyph-name="Eta" horiz-adv-x="726" unicode="Η" d="M536 445q0 129 -10 200l2 3q18 -3 51 -3q34 0 52 3l1 -3q-10 -66 -10 -200v-245q0 -129 10 -200l-2 -3q-18 3 -51 3q-34 0 -52 -3l-1 3q10 68 10 200v121h-346v-121q0 -129 10 -200l-2 -3q-18 3 -51 3q-34 0 -52 -3l-1 3q10 68 10 200v245q0 129 -10 200l2 3q18 -3 51 -3 q34 0 52 3l1 -3q-10 -66 -10 -200v-80h346v80z"/>
<glyph glyph-name="Theta" horiz-adv-x="741" unicode="Θ" d="M689 329q0 -150 -88.5 -244.5t-231.5 -94.5q-133 0 -225 88t-92 232q0 147 91 247.5t225 100.5q137 0 229 -91.5t92 -237.5zM355 614q-82 0 -141 -70.5t-59 -216.5q0 -137 69 -215t165 -78q88 0 142.5 72.5t54.5 203.5q0 152 -61 228t-170 76zM221 284l-3 2q3 16 3 31 l-3 42l3 1q62 -10 141 -10q70 0 140 10l3 -2q-3 -26 -3 -41l3 -32l-3 -1q-60 10 -136 10q-79 0 -145 -10z"/>
<glyph glyph-name="Iota" horiz-adv-x="294" unicode="Ι" d="M104 445q0 129 -10 200l2 3q18 -3 51 -3t51 3l2 -3q-10 -66 -10 -200v-245q0 -129 10 -200l-2 -3q-18 3 -51 3t-51 -3l-2 3q10 68 10 200v245z"/>
<glyph glyph-name="Kappa" horiz-adv-x="629" unicode="Κ" d="M104 445q0 129 -10 200l2 3q18 -3 51 -3t51 3l2 -3q-10 -66 -10 -200v-101q12 0 22 9q117 102 285 295q13 -3 49 -3q35 0 51 3q-206 -181 -304 -294v-2l314 -355q-19 3 -62 3q-45 0 -62 -3q-219 270 -274 325q-5 4 -19 7v-129q0 -129 10 -200l-2 -3q-18 3 -51 3t-51 -3 l-2 3q10 68 10 200v245z"/>
<glyph glyph-name="Lambda" horiz-adv-x="625" unicode="Λ" d="M299 513q-3 -7 -24.5 -56t-27 -62.5t-25 -59t-27.5 -65l-24 -58.5t-24.5 -62t-20 -53.5t-18.5 -54.5t-13 -45q-17 3 -45 3q-22 0 -40 -3q194 426 295 658h28q33 -79 96 -234.5t109.5 -267t68.5 -156.5q-25 3 -60 3q-29 0 -55 -3q-62 216 -191 516h-2z"/>
<glyph glyph-name="Mu" horiz-adv-x="886" unicode="Μ" d="M193 662h33q125 -290 224 -496h8l243 496h25q39 -337 94 -665q-15 3 -56 3q-34 0 -49 -3q-18 194 -55 476h-4q-112 -224 -222 -473h-19q-111 269 -210 476h-4q-55 -346 -74 -479q-11 3 -30 3q-22 0 -33 -3q81 390 129 665z"/>
<glyph glyph-name="Nu" horiz-adv-x="718" unicode="Ν" d="M108 645l2 3q8 -3 42 -3l14 2l343 -444q4 -5 8.5 -11l7.5 -10t6.5 -8.5t6 -7.5t5.5 -6.5t5 -5.5l4 -4t4 -2.5t3 -0.5q8 0 9 31v267q0 129 -10 200l2 3q18 -3 35 -3t35 3l2 -3q-6 -78 -9.5 -163.5t-4.5 -142t-3 -160.5t-3 -158q-2 -31 -19 -31q-25 0 -43 24l-349 441 q-25 33 -32 33t-7 -49v-239q0 -129 10 -200l-2 -3q-18 3 -35 3t-35 -3l-2 3q15 150 15 403q0 125 -5 242z"/>
<glyph glyph-name="Xi" horiz-adv-x="648" unicode="Ξ" d="M400 0h-152q-122 0 -200 -11l-3 2q3 8 3 42l-3 45l3 1q66 -10 200 -10h152q134 0 200 10l3 -1q-3 -10 -3 -45l3 -42l-3 -2q-78 11 -200 11zM400 576h-152q-122 0 -200 -11l-3 2q3 8 3 42l-3 45l3 1q66 -10 200 -10h152q134 0 200 10l3 -1q-3 -10 -3 -45l3 -42l-3 -2 q-78 11 -200 11zM151 284l-3 2q3 16 3 31l-3 42l3 1q63 -10 171 -10q110 0 180 10l3 -2q-3 -26 -3 -41l3 -32l-3 -1q-60 10 -176 10q-109 0 -175 -10z"/>
<glyph glyph-name="Omicron" horiz-adv-x="741" unicode="Ο" d="M689 329q0 -150 -88.5 -244.5t-231.5 -94.5q-133 0 -225 88t-92 232q0 147 91 247.5t225 100.5q137 0 229 -91.5t92 -237.5zM355 614q-82 0 -141 -70.5t-59 -216.5q0 -137 69 -215t165 -78q88 0 142.5 72.5t54.5 203.5q0 152 -61 228t-170 76z"/>
<glyph glyph-name="Pi" horiz-adv-x="708" unicode="Π" d="M564 645l52 3l1 -3q-10 -68 -10 -200v-245q0 -122 11 -200l-2 -3q-18 3 -52 3l-52 -3l-1 3q10 66 10 200v245q0 116 -8 143q-10 13 -26 13h-266q-16 0 -26 -13q-8 -27 -8 -143v-245q0 -134 10 -200l-1 -3q-17 3 -52 3l-52 -3l-2 3q11 78 11 200v245q0 133 -10 200l1 3 q18 -3 52 -3h420z"/>
<glyph glyph-name="Rho" horiz-adv-x="559" unicode="Ρ" d="M104 445q0 129 -10 200l2 3q18 -3 51 -3q15 0 71 3.5t69 3.5q66 0 114 -16.5t72 -44t35 -56t11 -59.5q0 -34 -13.5 -67.5t-40.5 -64t-76.5 -49.5t-114.5 -19q-53 0 -84 10v-86q0 -129 10 -200l-2 -3q-18 3 -51 3t-51 -3l-2 3q10 68 10 200v245zM190 565v-236 q19 -10 79 -10q77 0 115 34.5t38 117.5q0 43 -12 71.5t-34 42.5t-44.5 19t-51.5 5q-52 0 -71 -10.5t-19 -33.5z"/>
<glyph glyph-name="Sigma" horiz-adv-x="594" unicode="Σ" d="M123 645h337q36 0 60 3l2 -3q-2 -28 -2 -29q0 -17 2 -33l-2 -4q-172 9 -282 12h-15l-61 -1l180 -259l-227 -283q87 4 142 6l282 12l2 -4q-2 -16 -2 -33q0 -1 2 -29l-2 -3q-24 3 -60 3h-387l-70 -2l-2 2v24l2 3q10 10 19 21l211 261l2 1l-185 266q-20 29 -36 42l-2 2v25 l2 1z"/>
<glyph glyph-name="Tau" horiz-adv-x="540" unicode="Τ" d="M227 445q0 117 -8 144q-60 0 -110.5 -3.5t-70.5 -7.5l-21 -3l-2 4q1 8 1 28q0 24 -1 38l2 3q24 -3 60 -3h386q36 0 60 3l2 -3q-1 -14 -1 -38q0 -20 1 -28l-2 -4q-68 14 -202 14q-8 -27 -8 -144v-245q0 -129 10 -200l-2 -3q-18 3 -51 3t-51 -3l-2 3q10 68 10 200v245z"/>
<glyph glyph-name="Upsilon" horiz-adv-x="582" unicode="Υ" d="M333 285q2 -232 7 -288q-18 3 -50 3t-50 -3q7 77 7 278q-30 51 -116 190.5t-115 182.5q25 -3 57 -3q31 0 57 3q24 -47 175 -308q112 176 175 308q18 -3 42 -3q22 0 42 3q-31 -48 -79 -120.5t-68.5 -104t-44.5 -70.5t-39 -68z"/>
<glyph glyph-name="Phi" horiz-adv-x="677" unicode="Φ" d="M380 147q46 4 79 18t50.5 30.5t27.5 41t12 43t2 44.5q0 89 -44.5 128t-126.5 47v-54v-245v-53zM294 148v52v245v55q-35 -3 -62.5 -11.5t-52.5 -26.5t-39 -51t-14 -80q0 -162 168 -183zM293 110q-66 5 -115.5 24.5t-75.5 43.5t-42 54t-20 51t-4 41q0 31 14.5 64t43.5 64.5 t81 55t118 29.5q-1 59 -9 108l2 3q18 -3 51 -3t51 3l2 -3q-7 -45 -9 -107q116 -8 188 -67t72 -140q0 -79 -72.5 -145t-187.5 -76q2 -61 9 -110l-2 -3q-18 3 -51 3t-51 -3l-2 3q7 48 9 110z"/>
<glyph glyph-name="Chi" horiz-adv-x="581" unicode="Χ" d="M564 -3q-18 3 -58 3t-58 -3q-18 35 -42 75t-38.5 62.5t-48.5 73.5t-45 67q-98 -151 -167 -278q-11 3 -42 3t-42 -3l221 324l-216 327q17 -3 56 -3t57 3q24 -49 161 -257q105 151 162 257q11 -3 42 -3t42 3q-14 -20 -51.5 -71.5t-81 -112t-83.5 -119.5q162 -249 232 -348z "/>
<glyph glyph-name="Psi" horiz-adv-x="694" unicode="Ψ" d="M303 445q0 129 -10 200l2 3q18 -3 51 -3t51 3l2 -3q-10 -66 -10 -200v-210q37 8 64.5 33.5t40 52.5t20 63.5t8.5 54.5t1 38q0 65 20 102t71 37h36q22 0 22 -17q0 -7 -14 -11t-20.5 -7t-18 -14t-16.5 -34.5t-5 -59.5q0 -132 -60 -196.5t-149 -74.5v-2q0 -129 10 -200 l-2 -3q-18 3 -51 3t-51 -3l-2 3q10 68 10 200v4q-40 5 -74.5 20.5t-65.5 43t-48.5 74.5t-17.5 108q0 36 -5 63t-10 40t-16 22t-15.5 10.5t-15.5 4.5q-13 3 -13 9q0 17 20 17h38q92 0 92 -150q0 -192 131 -229v208z"/>
<glyph glyph-name="alpha" horiz-adv-x="567" unicode="α" d="M363 222l-5 21q-19 79 -43 117.5t-66 38.5q-53 0 -90 -48.5t-37 -131.5q0 -86 25 -137.5t78 -51.5q68 0 122 151zM413 191l14 -58q20 -82 56 -82q19 0 29.5 7.5t23.5 29.5l27 -9q-17 -48 -37.5 -68.5t-53.5 -20.5q-55 0 -79 101l-9 39q-38 -75 -75.5 -107.5t-88.5 -32.5 q-93 0 -139.5 55t-46.5 151q0 53 14.5 95.5t37 69.5t52 45t58.5 25.5t58 7.5q33 0 59 -15t39.5 -36.5t22.5 -42.5t11 -36l3 -15l52 140q7 0 23.5 -2.5t24.5 -2.5t23 2.5t21 2.5z"/>
<glyph glyph-name="beta" horiz-adv-x="514" unicode="β" d="M153 21v-82q0 -101 -9 -146l-83 -31l-12 18q24 63 24 210v439q0 132 45.5 200.5t148.5 68.5q66 0 116.5 -38t50.5 -104q0 -51 -30 -85t-86 -64q153 -51 153 -203q0 -87 -55 -150.5t-139 -63.5t-124 31zM287 382q-11 2 -35 2q-27 0 -36 -1l-5 7q12 18 22 41q14 -2 30 -2 t24 2q28 6 45.5 42.5t17.5 72.5q0 49 -24.5 81t-68.5 32q-20 0 -35 -5t-32.5 -20.5t-27 -52t-9.5 -91.5v-410q35 -50 118 -50q53 0 83 55.5t30 114.5q0 66 -23 119t-74 63z"/>
<glyph glyph-name="gamma" horiz-adv-x="494" unicode="γ" d="M184 -135q0 51 20 99l27 63q-45 148 -125 317q-16 36 -48 36q-16 0 -37 -5l-5 30q42 8 71.5 22.5t43.5 14.5q13 0 20 -13q89 -208 120 -312q50 124 84 217q23 61 28 102q19 -7 49 -7q20 0 50 9l5 -2q-35 -42 -68 -104l-104 -205q-15 -31 -29 -61q1 -5 3.5 -15t3.5 -15 q26 -109 26 -156q0 -55 -15 -85t-56 -30q-31 0 -47.5 31.5t-16.5 68.5zM246 -29q-22 -64 -22 -99q0 -68 23 -68q19 0 19 44q0 47 -20 123z"/>
<glyph glyph-name="delta" horiz-adv-x="486" unicode="δ" d="M289 371l-53 46q-53 -24 -83 -80.5t-30 -125.5q0 -45 10.5 -83.5t39.5 -68t73 -29.5q23 0 41 6t37.5 23.5t30.5 56t11 96.5q0 41 -20.5 84.5t-56.5 74.5zM207 442l-20 17q-59 51 -74.5 76t-15.5 65q0 33 35 65.5t82 32.5q64 0 116 -17q26 -8 51.5 -25.5t25.5 -30.5 q0 -9 -20 -27.5t-31 -22.5q-35 32 -63 52q-43 32 -81 32q-64 0 -64 -45q0 -29 96 -110q8 -7 12 -11l71 -61q65 -52 89 -93q34 -59 34 -115q0 -114 -63.5 -174t-151.5 -60q-89 0 -143 63t-54 150q0 78 50.5 147t118.5 92z"/>
<glyph glyph-name="epsilon" horiz-adv-x="401" unicode="ε" d="M220 399q-77 0 -77 -75q0 -47 18 -62t56 -15l29 3q29 2 32 2q19 0 19 -25q0 -26 -20 -26q-4 0 -30 3t-31 3q-41 0 -62.5 -26.5t-21.5 -69.5q0 -81 92 -81q22 0 45 8.5t38 17.5t40 26l16 -32q-64 -60 -150 -60q-93 0 -131 35t-38 83q0 12 3 25t11.5 32t30 36.5t53.5 27.5 q-40 15 -59.5 36.5t-19.5 56.5q0 40 39.5 78.5t118.5 38.5q81 0 135 -28l2 -3l-23 -72l-13 -1q-36 64 -102 64z"/>
<glyph glyph-name="zeta" horiz-adv-x="433" unicode="ζ" d="M184 10q-145 35 -145 181q0 153 195 371q-21 -7 -44 -7q-30 0 -63 23.5t-42 69.5q22 26 56 50h9q3 -37 14 -61q7 -15 23 -29.5t29 -14.5q24 0 52 16q46 49 97 49q22 0 28.5 -2.5t6.5 -15.5t-11 -31t-29 -25q-33 -13 -80 -18q-94 -120 -124.5 -203.5t-30.5 -155.5 q0 -59 19.5 -85t83.5 -42q6 -1 25.5 -5t30.5 -7q101 -24 101 -107q0 -49 -35 -93.5t-60 -61.5l-22 13l-3 4q51 67 51 106q0 50 -65 66q-12 3 -36 8t-31 7z"/>
<glyph glyph-name="eta" horiz-adv-x="537" unicode="η" d="M165 349q10 12 23.5 25t36.5 29t54 26t64 10q58 0 87.5 -37t29.5 -121v-287q0 -27 1.5 -73.5t1.5 -64.5q0 -40 -5 -60l-81 -34l-11 18q14 37 14 214v269q0 62 -12.5 89t-55.5 27q-80 0 -149 -82v-117q0 -116 9 -180l-2 -3q-18 3 -47 3t-47 -3l-2 3q9 61 9 180v55 q0 139 -9 194l2 3q8 -1 28 -1q34 0 53 4q6 0 6 -10v-73z"/>
<glyph glyph-name="theta" horiz-adv-x="491" unicode="θ" d="M39 344q0 168 64 261t146 93q33 0 66.5 -19t65.5 -58t52 -111t20 -166q0 -97 -21 -170t-54.5 -111t-67.5 -55.5t-67 -17.5q-35 0 -68.5 18t-65 56t-51 110.5t-19.5 169.5zM370 321h-248q1 -115 36 -203t90 -88t88 87.5t34 203.5zM370 365q-1 120 -37 207t-90 87 q-30 0 -54 -27.5t-38 -71.5t-21.5 -94t-7.5 -101h248z"/>
<glyph glyph-name="iota" horiz-adv-x="282" unicode="ι" d="M84 322q0 70 -18 107l2 2q12 -2 44 -2q25 0 50 10q2 -64 2 -96v-252q0 -25 4.5 -35t18.5 -10q35 0 67 41l21 -17q-19 -33 -46.5 -57.5t-56.5 -24.5q-42 0 -65 22t-23 61v251z"/>
<glyph glyph-name="kappa" d="M83 235q0 130 -9 194l2 3q9 -1 34 -1q27 0 53 2q6 0 7.5 -1.5t1.5 -8.5q-9 -91 -9 -172v-6q19 1 42 30l66 81q45 56 62 68q23 15 56 15q24 0 56 -17l3 -5l-34 -68l-8 -1q-18 25 -56 25q-15 0 -60 -56l-35 -43q-10 -13 -10 -18q0 -10 6 -18q92 -119 203 -238l-2 -3 q-14 3 -60 3q-44 0 -66 -3q-55 96 -137 202q-6 6 -26 6v-25q0 -107 9 -180l-2 -3q-18 3 -47 3t-47 -3l-2 3q9 69 9 180v55z" unicode="κ"/>
<glyph glyph-name="lambda" horiz-adv-x="494" unicode="λ" d="M349 109l-81 239l-145 -348q-54 -4 -76 -12l-25 12l220 444l-24 72q-5 16 -40 129l-11 31l-10 22q20 -5 37 -5q21 0 32 4q3 -24 9 -47q7 -21 22 -75l168 -487q25 -61 39 -91q-1 3 -32 3h-25l-25 -3q-4 14 -13.5 48t-19.5 64z"/>
<glyph glyph-name="mu" horiz-adv-x="538" unicode="μ" d="M162 249v-95q0 -114 66 -114q39 0 80 20t58 46v143q0 116 -9 180l2 3q18 -3 47 -3t47 3l2 -3q-9 -57 -9 -172v-8v-123q0 -63 17 -78q7 -7 29 -7q13 0 27 5l8 -25q-30 -31 -80 -31q-61 0 -78 58q-3 12 -3 14q-65 -72 -157 -72q-29 0 -50 12l-1 -2v-5q0 -5 4 -52.5t4 -78.5 q0 -40 -6 -71l-79 -31l-11 18q14 37 14 213q0 14 2 35t2 31q0 5 -3 24t-3 29v137q0 116 -9 180l2 3q18 -3 47 -3t47 3l2 -3q-9 -60 -9 -180z"/>
<glyph glyph-name="nu" horiz-adv-x="479" unicode="ν" d="M269 70q98 152 98 216q0 63 -23 115q7 15 28 28t34 13q34 0 34 -55q0 -61 -45.5 -162.5t-142.5 -234.5h-34q-80 245 -163 442q16 -3 53 -3t50 3q33 -162 111 -362z"/>
<glyph glyph-name="xi" horiz-adv-x="428" unicode="ξ" d="M348 388q-10 -17 -20 -46q-22 3 -72 3q-45 0 -91.5 -42t-46.5 -104q0 -49 24 -76.5t86 -42.5q6 -1 25.5 -5t30.5 -7q101 -24 101 -107q0 -49 -35 -93.5t-60 -61.5l-22 13l-3 4q51 67 51 106q0 50 -65 66q-12 3 -36 8t-31 7q-76 17 -111 58t-35 110q0 108 126 179 q-41 11 -62.5 32.5t-21.5 59.5q0 36 24 65.5t75 63.5q-40 5 -72 23.5t-38 40.5q11 27 42 56h9q1 -33 29.5 -58.5t65.5 -28.5q79 47 129 47q11 0 16 -5t4 -13q-7 -34 -41 -56q-35 -11 -77 -11q-14 0 -21 1q-24 -15 -35.5 -24t-24 -28t-12.5 -42q0 -36 28 -61.5t88 -25.5 q45 0 74 3z"/>
<glyph glyph-name="omicron" d="M247 399q-44 0 -72.5 -27t-38.5 -64.5t-10 -85.5q0 -45 10 -85t42 -73.5t81 -33.5q50 0 82.5 47t32.5 119q0 101 -26.5 152t-100.5 51zM38 205q0 106 59 170t157 64q100 0 154 -60.5t54 -164.5q0 -100 -57 -162t-155 -62q-97 0 -154.5 61t-57.5 154z" unicode="ο"/>
<glyph glyph-name="pi" horiz-adv-x="575" unicode="π" d="M136 361q-35 0 -49 -9t-35 -39l-23 8q14 55 38 81.5t69 26.5h328q38 0 77 3l10 -9q-14 -28 -50 -59q-15 -3 -47 -3h-39q-6 -100 -6 -157q0 -39 3 -78q3 -49 12.5 -66.5t30.5 -17.5q26 0 63 20l12 -25q-53 -47 -126 -47q-30 0 -44.5 18t-17.5 64q-1 12 -1 46q0 120 15 243 h-128q1 -24 1 -73v-46q0 -147 -22 -231q-30 -13 -100 -23l-8 12q16 25 26 43.5t22 64t15 102.5q3 56 3 151h-29z"/>
<glyph glyph-name="rho" horiz-adv-x="528" unicode="ρ" d="M401 202q0 113 -50 161q-36 36 -94 36q-99 0 -99 -171v-156q43 -42 111 -42q60 0 96 46t36 126zM150 -207l-85 -31l-11 18q24 63 24 210v194q0 64 11 107.5t21 58t29 33.5q55 56 138 56q82 0 132 -40q38 -29 59 -76.5t21 -101.5q0 -111 -65 -171t-169 -60q-53 0 -97 27 v-78q0 -106 -8 -146z"/>
<glyph glyph-name="sigma1" horiz-adv-x="450" unicode="ς" d="M266 -5q-36 6 -53.5 9.5t-46 14.5t-52.5 28q-76 53 -76 155q0 84 71 160.5t165 76.5q79 0 133 -28l2 -3l-23 -97l-18 -1q-19 34 -47.5 54t-57.5 20q-67 0 -101 -34q-46 -45 -46 -118q0 -91 62 -125q34 -19 121 -39q101 -24 101 -107q0 -49 -35 -93.5t-60 -61.5l-22 13 l-3 4q51 67 51 106q0 55 -65 66z"/>
<glyph glyph-name="sigma" horiz-adv-x="572" unicode="σ" d="M257 29q49 0 79 40.5t30 115.5q0 87 -36 133q-16 23 -42 43q-168 0 -168 -173q0 -60 34.5 -109.5t102.5 -49.5zM482 364q-15 -3 -47 -3q-65 0 -87 2l-2 -5q47 -24 75.5 -69t28.5 -103q0 -30 -11 -62.5t-33.5 -63.5t-63 -50.5t-92.5 -19.5q-101 0 -157 58.5t-56 155.5 q0 92 70 162q28 28 80 47t116 19q23 0 71 -1.5t71 -1.5q38 0 77 3l10 -9q-14 -28 -50 -59z"/>
<glyph glyph-name="tau" horiz-adv-x="441" unicode="τ" d="M251 361q-16 -176 -16 -235q0 -76 33 -82q18 -2 25 -2q25 0 54 10l12 -25q-58 -37 -119 -37q-35 0 -56 27t-21 75q0 45 27 269h-56q-35 0 -49 -9t-35 -39l-23 8q14 55 38 81.5t69 26.5h201q38 0 77 3l10 -9q-14 -28 -50 -59q-15 -3 -47 -3h-74z"/>
<glyph glyph-name="upsilon" horiz-adv-x="492" unicode="υ" d="M174 251v-62q0 -80 19 -117.5t83 -37.5q62 0 96.5 61t34.5 142q0 34 -4.5 57t-15.5 37t-17 18.5t-21 13.5q-20 12 -49 25v9q7 17 22.5 36t26.5 19q29 0 59 -30q41 -42 41 -173q0 -123 -54 -191t-128 -68q-99 0 -136 47t-37 136v62q0 147 -10 201l2 3q34 -6 54 -6t35 6 q9 0 9 -10q-10 -76 -10 -178z"/>
<glyph glyph-name="phi" horiz-adv-x="590" unicode="φ" d="M323 -8q0 -150 -12 -196l-75 -34l-12 18q34 52 34 212q-111 7 -165 68t-54 167q0 69 48 127.5t94 80.5l19 -21q-78 -62 -78 -196q0 -83 29 -133.5t107 -57.5v233q0 56 10 89t38 62q29 28 79 28q80 0 123 -59.5t43 -142.5q0 -55 -17.5 -99.5t-43 -69.5t-59 -43t-59 -24.5 t-49.5 -8.5zM468 218q0 182 -83 182q-31 0 -47 -26.5t-16 -97.5v-248q73 9 109.5 60t36.5 130z"/>
<glyph glyph-name="chi" horiz-adv-x="515" unicode="χ" d="M150 254q-33 90 -45 105q-13 15 -33 15q-9 0 -27 -8.5t-29 -19.5l-16 24q22 26 53.5 47.5t57.5 21.5q9 0 16.5 -1.5t13.5 -2.5t11.5 -6t9.5 -8t8.5 -12t7.5 -14.5t8.5 -19.5t8 -22t9.5 -27t11 -31l46 -129l134 270q16 -4 23 -4l70 7l-71 -107l-136 -208l63 -175 q30 -82 42.5 -98.5t42.5 -16.5q24 0 55 25q0 1 2 0t2 0l18 -20q-51 -71 -104 -71q-48 0 -77 40t-63 138l-34 98l-86 -170l-48 -88l-51 -18h-30l-7 6l205 312z"/>
<glyph glyph-name="psi" horiz-adv-x="638" unicode="ψ" d="M374 0q3 -26 3 -76q0 -89 -9 -134l-76 -28l-11 14q29 77 35 224q-86 1 -131 43q-59 54 -81 206q-3 20 -10.5 84t-13.5 96l2 3q18 -3 47 -3t47 3l2 -3q2 -89 8 -158q14 -145 47 -194q30 -44 85 -50q2 51 2 149q0 212 -12 514l42 -2l47 10l-13 -156q-14 -121 -14 -361v-71 q0 -61 2 -83q50 5 94 71q32 48 48 173q7 61 7 93q0 27 -5 65l2 3q18 -3 47 -3q26 0 44 3l2 -3q-1 -77 -20 -180q-19 -111 -75 -181q-54 -67 -142 -68z"/>
<glyph glyph-name="theta1" horiz-adv-x="551" unicode="ϑ" d="M88 132q0 90 -10 144l2 3q33 2 89 25q9 0 9 -10q-10 -76 -10 -161q0 -114 105 -114q34 0 59 38.5t37.5 98t18 114.5t5.5 105q-101 0 -156 14.5t-89 47.5q-34 32 -47.5 64.5t-13.5 77.5q0 51 43.5 85t101.5 34q78 0 135 -44.5t81.5 -107.5t24.5 -132q50 0 71 -12 q-5 -5 -23 -41q-22 14 -48 14q0 -175 -54 -281t-161 -106q-86 0 -128 34.5t-42 109.5zM393 414q0 118 -46 181.5t-92 63.5q-49 0 -73.5 -21.5t-24.5 -72.5q0 -61 56 -108q51 -43 180 -43z"/>
<glyph glyph-name="Upsilon1" horiz-adv-x="552" unicode="ϒ" d="M229 200v100q0 161 -39 237q-40 76 -91 76q-48 0 -77 -24l-17 21q17 22 47.5 35t62.5 13q136 0 164 -201h2q7 29 25.5 71.5t39.5 70.5q47 59 123 59q35 0 57 -23.5t22 -51.5q-9 -15 -24.5 -27t-30.5 -12q-7 0 -18 35q-12 33 -33 33q-45 0 -86 -87.5t-41 -193.5v-131 q0 -129 10 -200l-2 -3q-17 3 -51 3l-52 -3l-1 3q10 68 10 200z"/>
<glyph glyph-name="omega1" horiz-adv-x="692" unicode="ϖ" d="M580 217q0 102 -68 152.5t-162 50.5h-147q-30 0 -44.5 7t-27.5 31l11 11h229q124 0 205.5 -73t81.5 -171q0 -54 -18.5 -106.5t-61.5 -91.5t-101 -39q-98 0 -138 105q-46 -105 -131 -105q-76 0 -123.5 44.5t-47.5 144.5q0 72 49.5 131.5t123.5 93.5l13 -20 q-108 -57 -108 -198q0 -84 26.5 -123t82.5 -39q31 0 55 25.5t47 80.5q-15 38 -15 90q0 26 9.5 46t27.5 20q19 0 25 -8.5t6 -28.5q0 -58 -25 -116q39 -109 115 -109q61 0 86 44t25 151z"/>
<glyph glyph-name="enspace" horiz-adv-x="518" unicode=" "/>
<glyph glyph-name="emspace" horiz-adv-x="756" unicode=" "/>
<glyph glyph-name="thinspace" horiz-adv-x="125" unicode=" "/>
<glyph glyph-name="endash" horiz-adv-x="534" unicode="–" d="M59 238q-14 0 -14 17q0 9 8.5 20.5t17.5 11.5h404q14 0 14 -17q0 -10 -8.5 -21t-17.5 -11h-404z"/>
<glyph glyph-name="emdash" horiz-adv-x="742" unicode="—" d="M29 287h684v-49h-684v49z"/>
<glyph glyph-name="quoteleft" horiz-adv-x="268" unicode="‘" d="M195 558v-4q-13 -38 -54 -54h-4q-64 23 -64 105q0 24 6.5 43.5t13.5 31.5t25 26.5t26.5 20t32.5 19.5q13 -11 13 -21q-78 -53 -78 -94q0 -26 29 -26q25 -6 36.5 -14.5t17.5 -32.5z"/>
<glyph glyph-name="quotesinglbase" horiz-adv-x="268" unicode="‚" d="M73 44v4q13 38 54 54h4q64 -23 64 -105q0 -24 -6.5 -43.5t-13.5 -31.5t-25 -26.5t-26.5 -20t-32.5 -19.5q-13 11 -13 21q78 53 78 94q0 26 -29 26q-25 6 -36.5 14.5t-17.5 32.5z"/>
<glyph glyph-name="quotedblleft" horiz-adv-x="385" unicode="“" d="M170 559v-4q-13 -38 -54 -54h-4q-64 23 -64 105q0 24 6.5 43.5t13.5 31.5t25 26.5t26.5 20t32.5 19.5q13 -11 13 -21q-78 -53 -78 -94q0 -26 29 -26q25 -6 36.5 -14.5t17.5 -32.5zM337 559v-4q-13 -38 -54 -54h-4q-64 23 -64 105q0 24 6.5 43.5t13.5 31.5t25 26.5 t26.5 20t32.5 19.5q13 -11 13 -21q-78 -53 -78 -94q0 -26 29 -26q25 -6 36.5 -14.5t17.5 -32.5z"/>
<glyph glyph-name="quotedblright" horiz-adv-x="385" unicode="”" d="M216 647v4q13 38 54 54h4q64 -23 64 -105q0 -24 -6.5 -43.5t-13.5 -31.5t-25 -26.5t-26.5 -20t-32.5 -19.5q-13 11 -13 21q78 53 78 94q0 26 -29 26q-25 6 -36.5 14.5t-17.5 32.5zM49 647v4q13 38 54 54h4q64 -23 64 -105q0 -24 -6.5 -43.5t-13.5 -31.5t-25 -26.5 t-26.5 -20t-32.5 -19.5q-13 11 -13 21q78 53 78 94q0 26 -29 26q-25 6 -36.5 14.5t-17.5 32.5z"/>
<glyph glyph-name="dagger" horiz-adv-x="588" unicode="†" d="M309 697q18 0 31 -18t13 -42q0 -113 -36 -187q65 41 165 41q22 0 38 -15t16 -36t-15.5 -35t-38.5 -14q-100 0 -165 39q0 -126 47 -185q-47 -139 -47 -452h-17q0 327 -46 452q46 50 46 185q-62 -39 -165 -39q-23 0 -38 14t-15 35t15.5 36t37.5 15q98 0 165 -41 q-36 75 -36 187q0 24 13 42t32 18z"/>
<glyph glyph-name="daggerdbl" horiz-adv-x="588" unicode="‡" d="M536 440q0 -21 -15.5 -35t-38.5 -14q-100 0 -165 39q0 -126 47 -185q-47 -61 -47 -185q67 39 165 39q22 0 38 -13.5t16 -35.5q0 -21 -16 -35.5t-38 -14.5q-98 0 -165 40q36 -77 36 -187q0 -23 -12.5 -41.5t-31.5 -18.5q-18 0 -31.5 17.5t-13.5 42.5q0 111 36 187 q-64 -40 -165 -40q-21 0 -37 14.5t-16 35.5t16.5 35t36.5 14q101 0 165 -39q0 130 -46 185q46 50 46 185q-62 -39 -165 -39q-23 0 -38 14t-15 35t15.5 36t37.5 15q98 0 165 -41q-36 75 -36 187q0 24 13 42t32 18q18 0 31 -18t13 -42q0 -113 -36 -187q65 41 165 41 q23 0 38.5 -15t15.5 -36z"/>
<glyph glyph-name="perthousand" horiz-adv-x="911" unicode="‰" d="M118 425q0 -38 15 -54t33 -16q41 0 69 52t28 105q0 36 -14.5 50.5t-33.5 14.5q-37 0 -67 -51t-30 -101zM389 557q44 0 91 13.5t69 43.5l34 -17l-438 -610l-36 16l383 534q-51 -20 -114 -20q-48 0 -85 22q3 -11 3 -26q0 -61 -38 -125t-99 -64q-46 0 -71 35.5t-25 80.5 q0 63 42 116.5t98 53.5q21 0 42 -8.5t30 -18.5q56 -26 110 -26h4zM406 105q0 62 42 115t99 53q39 0 65.5 -22t26.5 -75q0 -64 -37.5 -126.5t-98.5 -62.5q-46 0 -71.5 35.5t-25.5 82.5zM462 89q0 -38 14.5 -54.5t33.5 -16.5q41 0 69 53t28 104q0 37 -15.5 51t-32.5 14 q-37 0 -67 -50.5t-30 -100.5zM749 17q40 0 66.5 50t26.5 96q0 32 -14 47t-31 15q-33 0 -62.5 -46.5t-29.5 -95.5q0 -30 12 -48t32 -18zM872 164q0 -58 -35.5 -117t-92.5 -59q-40 0 -65 30.5t-25 77.5q0 60 38.5 110t93.5 50q35 0 60.5 -21t25.5 -71z"/>
<glyph glyph-name="minute" horiz-adv-x="249" unicode="′" d="M155 658q16 0 29 -10.5t13 -24.5q0 -11 -6 -18l-92 -122q-6 -8 -12 -8q-14 0 -14 13q0 4 2 10l52 143q6 17 28 17z"/>
<glyph glyph-name="second" horiz-adv-x="381" unicode="″" d="M155 658q16 0 29 -10.5t13 -24.5q0 -11 -6 -18l-92 -122q-6 -8 -12 -8q-14 0 -14 13q0 4 2 10l52 143q6 17 28 17zM287 658q16 0 29 -10.5t13 -24.5q0 -11 -6 -18l-92 -122q-6 -8 -12 -8q-14 0 -14 13q0 4 2 10l52 143q6 17 28 17z"/>
<glyph glyph-name="guilsinglleft" horiz-adv-x="363" unicode="‹" d="M156 215q55 -61 127 -170q-1 -7 -8.5 -12.5t-15.5 -6.5q-106 114 -185 183v12q79 69 185 183q8 -1 15.5 -6.5t8.5 -12.5q-72 -109 -127 -170z"/>
<glyph glyph-name="guilsinglright" horiz-adv-x="363" unicode="›" d="M207 215q-55 61 -127 170q1 7 8.5 12.5t15.5 6.5q106 -114 185 -183v-12q-79 -69 -185 -183q-8 1 -15.5 6.5t-8.5 12.5q72 109 127 170z"/>
<glyph glyph-name="uni203E" horiz-adv-x="423" unicode="‾" d="M388 688v-44h-352v44h352z"/>
<glyph glyph-name="fraction" horiz-adv-x="44" unicode="⁄" d="M224 601h42l-459 -655h-41z"/>
<glyph glyph-name="Euro" horiz-adv-x="465" unicode="€" d="M15 329l1 11l21 26h24q16 113 78 178.5t155 65.5q47 0 84 -11t50 -23l14 -11l2 -4q-3 -13 -8 -29t-6 -22t-3 -19t-3 -32l-11 -1q-28 66 -52 87.5t-82 21.5q-46 0 -84 -50t-47 -151h237l-19 -37h-220v-21q0 -6 0.5 -17t0.5 -16h201l-19 -37h-180q9 -89 43.5 -145t95.5 -56 q19 0 32 1t25.5 8.5t18 11t16.5 21t15 26t19 37.5l11 -1q3 -31 20 -95l-2 -3q-6 -6 -18 -15t-50 -24t-78 -15q-111 0 -169 67t-69 182h-59v10l21 27h35v19q0 24 1 35h-42z"/>
<glyph glyph-name="Ifraktur" horiz-adv-x="543" unicode="ℑ" d="M50 482q0 75 59 125.5t154 50.5q39 0 103.5 -20t127.5 -56l-83 -94q-21 -24 -21 -50q0 -23 57.5 -117t57.5 -127q0 -19 -3.5 -32.5t-17.5 -38t-51 -54.5t-96 -65q-30 -16 -42 -16q-18 0 -37 11l-137 75q-27 16 -46 16q-14 0 -53 -17l-14 16l77 47q30 17 48 17 q14 0 38 -13l122 -66q31 -14 48 -14q27 0 62.5 20.5t35.5 63.5q0 38 -15 61l-75 114q-20 34 -20 73q0 38 20 59l62 74q-115 56 -188 56q-59 0 -99 -31t-40 -83q0 -50 38 -85q22 -21 39 -27.5t63 -15.5l-1 -20q-37 5 -61 12t-53 23.5t-44 48.5t-15 79z"/>
<glyph glyph-name="Rfraktur" horiz-adv-x="708" unicode="ℜ" d="M23 475q0 82 52.5 132.5t138.5 50.5q42 0 80 -19q15 -8 26 -17.5t16 -16.5t14.5 -23t14.5 -24l117 85q16 14 31 14q10 0 18 -8l145 -126l-163 -115q37 -47 56.5 -110.5t22 -110t11.5 -79.5t29 -33q8 0 35 11l13 -21l-98 -79q-46 23 -61.5 72.5t-22.5 128t-24 125.5 q-8 23 -18.5 32t-29.5 9h-4l-10 18l173 120l-72 67q-24 24 -49 24q-14 0 -33 -12l-56 -36q16 -105 16 -208q0 -84 -8.5 -127.5t-42.5 -87.5q-28 -36 -74.5 -75t-66.5 -50l-34 28q-26 19 -43 19q-18 0 -42 -17l-18 14l64 54q30 27 37 27t12 -4l71 -50q38 56 49 117t11 159 q0 140 -29 206t-107 66q-33 0 -57.5 -12.5t-36 -30.5t-16.5 -33t-5 -26q0 -23 13 -45t32 -31l86 -43q43 -22 43 -57q0 -12 -9 -25l-32 -47l-20 15q1 2 6 6.5t8 9t3 9.5q0 14 -25.5 29t-55.5 28t-55.5 45t-25.5 78z"/>
<glyph glyph-name="trademark" horiz-adv-x="795" unicode="™" d="M674 344l-17 197l-99 -243q-3 -10 -16 -10q-11 0 -17 10q-60 143 -100 238q-8 -127 -14 -193v-6q0 -23 7 -23h15q17 0 17 -7v-8l-3 -6q-39 2 -61 2l-47 -2l-5 6v8q0 7 18 7h14q7 0 11 30q3 41 10 131.5t10 134.5v3v2q0 17 -9 17h-16q-17 1 -17 6v8l5 6h89l112 -265 q10 24 48.5 119.5t58.5 145.5h82l3 -6v-8q0 -6 -17 -6h-15q-9 0 -9 -16v-6l23 -266q4 -30 12 -30h14q19 0 19 -7v-8l-6 -6q-44 2 -65 2l-66 -2l-6 6v8q0 7 17 7h14q6 0 6 23v7zM207 341q0 -24 30 -24h14q5 0 5 -5v-13l-1 -1q-63 1 -83 1l-82 -1l-1 1v13q0 5 5 5h14 q31 0 31 24v265q0 20 -14 20h-51q-16 0 -23.5 -9t-15.5 -42l-22 6l19 90l24 -8q0 -1 -1 -4t-1 -5l-1 -2h233v2q-1 2 -2 5t-1 4l25 8l19 -91l-23 -5q-9 33 -16 42t-24 9h-43q-8 0 -11 -4t-3 -17v-264z"/>
<glyph glyph-name="aleph" horiz-adv-x="481" unicode="ℵ" d="M453 442q0 -14 -4 -34t-8.5 -34t-6.5 -14q-4 0 -16 19.5t-26 20.5q-54 -71 -54 -126q0 -24 13 -48l65 -71q38 -44 38 -90q0 -27 -12.5 -50.5t-34.5 -23.5q-3 37 -26 63l-259 285q-39 -26 -39 -95q0 -30 49.5 -90.5t49.5 -91.5q0 -24 -15.5 -43t-33.5 -19h-101q-2 4 -2 6 q0 7 7 9q12 2 22.5 11.5t10.5 20.5q0 13 -18.5 63.5t-18.5 73.5q0 45 19.5 92.5t59.5 74.5l-31 34q-38 44 -38 90q0 42 34 79h13q1 -42 25 -69l186 -206l1 -1q16 75 58 128q-72 18 -72 76q0 31 8 50t16 23l9 4q7 -5 7 -14.5t12 -18.5t49 -21q64 -17 64 -63z"/>
<glyph glyph-name="arrowleft" horiz-adv-x="1130" unicode="←" d="M275 448h38q-35 -83 -111 -157h870v-52h-870q65 -53 113 -157h-40q0 2 -30 34t-84 75.5t-102 63.5v23q94 33 216 170z"/>
<glyph glyph-name="arrowup" horiz-adv-x="441" unicode="↑" d="M405 567v-38q-83 35 -157 111v-870h-52v870q-53 -65 -157 -113v40q2 0 34 30t75.5 84t63.5 102h23q33 -94 170 -216z"/>
<glyph glyph-name="arrowright" horiz-adv-x="1130" unicode="→" d="M856 82h-38q35 83 111 157h-870v52h870q-65 53 -113 157h40q0 -2 30 -34t84 -75.5t102 -63.5v-23q-94 -33 -216 -170z"/>
<glyph glyph-name="arrowdown" horiz-adv-x="462" unicode="↓" d="M49 -13v38q83 -35 157 -111v870h52v-870q53 65 157 113v-40q-2 0 -34 -30t-75.5 -84t-63.5 -102h-23q-33 94 -170 216z"/>
<glyph glyph-name="arrowdblleft" horiz-adv-x="1074" unicode="⇐" d="M277 377h740v-49h-775q-25 -32 -62 -61q35 -26 64 -62h773v-49h-739q17 -29 37 -72h-40q-48 57 -107 105t-109 66v23q50 18 100.5 58t115.5 113h38q-17 -39 -36 -72z"/>
<glyph glyph-name="arrowdblup" horiz-adv-x="462" unicode="⇑" d="M344 526v-740h-49v775q-32 25 -61 62q-26 -35 -62 -64v-773h-49v739q-29 -17 -72 -37v40q57 48 105 107t66 109h23q18 -50 58 -100.5t113 -115.5v-38q-39 16 -72 36z"/>
<glyph glyph-name="arrowdblright" horiz-adv-x="1074" unicode="⇒" d="M776 153h-740v49h775q25 32 62 61q-35 26 -64 62h-773v49h739q-17 29 -37 72h40q48 -57 107 -105t109 -66v-23q-50 -18 -100.5 -58t-115.5 -113h-38q16 39 36 72z"/>
<glyph glyph-name="arrowdbldown" horiz-adv-x="462" unicode="⇓" d="M120 -14v740h49v-775q32 -25 61 -62q26 35 62 64v773h49v-739q29 17 72 37v-40q-57 -48 -105 -107t-66 -109h-23q-18 50 -58 100.5t-113 115.5v38q39 -16 72 -36z"/>
<glyph glyph-name="universal" horiz-adv-x="488" unicode="∀" d="M245 76l94 285h-190zM284 0h-79l-196 572h73l46 -147h232l47 147h73z"/>
<glyph glyph-name="partialdiff" horiz-adv-x="462" unicode="∂" d="M226 369q72 0 118 -55q3 15 3 40q0 32 -8 70t-22.5 75t-39.5 61t-56 24q-56 0 -67 -20q-20 -36 -44 -36q-14 0 -22 7.5t-8 20.5q0 25 40 42.5t96 17.5q92 0 151 -83.5t59 -205.5q0 -84 -21.5 -158t-73.5 -127t-125 -53q-74 0 -125.5 49.5t-51.5 127.5q0 89 60.5 146 t136.5 57zM248 331q-56 0 -97.5 -60t-41.5 -133q0 -42 29.5 -79t69.5 -37q29 0 53 24t39 63.5t24 81t14 87.5q-42 53 -90 53z"/>
<glyph glyph-name="existential" horiz-adv-x="400" unicode="∃" d="M366 572v-572h-331v65h262v207h-246v65h246v170h-256v65h325z"/>
<glyph glyph-name="emptyset" horiz-adv-x="642" unicode="∅" d="M223 56q47 -22 98 -22q101 0 172.5 75t71.5 177q0 58 -25.5 110.5t-69.5 88.5zM168 34q-65 40 -103.5 106.5t-38.5 145.5q0 122 86.5 208.5t208.5 86.5q73 0 140 -35l37 65l34 -17l-39 -68q57 -41 90 -104t33 -136q0 -122 -86 -208.5t-209 -86.5q-62 0 -120 25l-48 -83 l-33 18zM321 538q-100 0 -172 -75t-72 -177q0 -64 31 -120.5t83 -91.5l247 433q-54 31 -117 31z"/>
<glyph glyph-name="gradient" horiz-adv-x="584" unicode="∇" d="M327 0h-58l-253 601q-4 8 -4 11t4 4h12h533q16 0 16 -4q0 -3 -4 -11q-150 -367 -246 -601zM317 80l205 510h-418z"/>
<glyph glyph-name="element" horiz-adv-x="506" unicode="∈" d="M462 0h-150q-118 0 -200.5 84.5t-82.5 201.5t83 201.5t200 84.5h150v-57h-155q-84 0 -141 -58.5t-67 -142.5h354v-56h-354q11 -86 70.5 -143.5t137.5 -57.5h155v-57z"/>
<glyph glyph-name="notelement" horiz-adv-x="506" unicode="∉" d="M308 314l72 201h-73q-84 0 -141 -58.5t-67 -142.5h209zM222 77l66 181h-189q8 -60 41.5 -108.5t81.5 -72.5zM462 0h-150q-35 0 -73 10l-32 -90l-37 12l33 90q-78 33 -126 105.5t-48 158.5q0 117 83 201.5t200 84.5h89l27 76l37 -11l-23 -65h20v-57h-41l-72 -201h104v-56 h-124l-70 -195q24 -6 48 -6h155v-57z"/>
<glyph glyph-name="suchthat" horiz-adv-x="506" unicode="∋" d="M44 572h150q118 0 200.5 -84.5t82.5 -201.5t-83 -201.5t-200 -84.5h-150v57h155q84 0 141 58.5t67 142.5h-354v56h354q-11 86 -70.5 143.5t-137.5 57.5h-155v57z"/>
<glyph glyph-name="product" horiz-adv-x="696" unicode="∏" d="M498 -38v540q0 23 -7.5 33.5t-29.5 10.5h-226q-22 0 -29 -9t-7 -36v-539q0 -44 54 -44h27q8 0 8 -8v-18l-2 -2q-87 2 -126 2l-129 -2l-2 2v18q0 8 8 8h26q55 0 55 44v554q0 26 -12.5 35.5t-38.5 9.5h-30q-8 0 -8 7v19q3 0 61 -1t66 -1q62 -1 189 -1q119 0 190 1 q3 0 35.5 0.5t64.5 0.5l32 1v-18q0 -8 -8 -8h-29q-23 -1 -37.5 -12.5t-14.5 -32.5v-554q0 -23 12.5 -33.5t42.5 -10.5h26q8 0 8 -8v-18l-1 -2q-87 2 -126 2l-129 -2l-2 2v18q0 8 8 8h26q55 0 55 44z"/>
<glyph glyph-name="summation" horiz-adv-x="592" unicode="∑" d="M491 583l14 -139l-22 -3q-4 15 -13.5 35t-31.5 42.5t-48 22.5h-228l172 -272l-1 -1l-204 -272h280q24 0 45 17t32.5 41t17.5 39.5t7 21.5l22 -2l-28 -175h-481v22q20 0 36 19l202 269l-169 266q-35 46 -68 46v23h466z"/>
<glyph glyph-name="minus" horiz-adv-x="527" unicode="−" d="M461 257v-49h-395v49h395z"/>
<glyph glyph-name="asteriskmath" horiz-adv-x="341" unicode="∗" d="M155 234q-17 4 -42 4q-81 0 -81 37q0 12 8 21t25 9q19 0 48.5 -22t47.5 -29q-2 20 -12.5 49.5t-10.5 42.5q0 16 8.5 27.5t21.5 11.5q33 0 33 -35q0 -14 -9 -48.5t-10 -48.5q19 8 48 30t47 22t26 -10t8 -20q0 -37 -69 -37q-31 0 -55 -4q12 -13 35 -28.5t35.5 -28 t12.5 -30.5q0 -13 -9 -21t-20 -8q-17 0 -28.5 16t-23 45.5t-19.5 42.5q-7 -13 -19 -44t-23 -45.5t-28 -14.5q-12 0 -20.5 8t-8.5 20q0 19 13 32t36 27.5t35 28.5z"/>
<glyph glyph-name="radical" horiz-adv-x="565" unicode="√" d="M488 733l-180 -733l-39 -18l-139 241l-64 -30l-17 35l122 59l118 -202l167 682v5h110v-39h-78z"/>
<glyph glyph-name="proportional" horiz-adv-x="670" unicode="∝" d="M612 375q-16 8 -34 8q-35 0 -80.5 -36.5t-68.5 -72.5q20 -28 33 -44.5t38 -45.5t49 -44t44 -15q13 0 19 1v-44q-15 -3 -32 -3q-107 0 -199 135q-36 -51 -92.5 -93.5t-107.5 -42.5q-60 0 -102 41t-42 119q0 76 48 137t123 61q56 0 110 -39.5t88 -93.5q110 133 201 133h5 v-61zM358 241q-26 50 -73.5 101.5t-88.5 51.5q-46 0 -71 -31t-25 -80q0 -55 29 -101.5t79 -46.5q35 0 82 35.5t68 70.5z"/>
<glyph glyph-name="infinity" horiz-adv-x="785" unicode="∞" d="M749 277q0 -76 -47.5 -137t-121.5 -61q-107 0 -199 135q-36 -51 -92.5 -93.5t-107.5 -42.5q-60 0 -102 41t-42 119q0 76 48 137t123 61q56 0 110 -39.5t88 -93.5q110 133 201 133q67 0 104.5 -45t37.5 -114zM688 234q0 52 -30 100.5t-80 48.5q-35 0 -80.5 -36.5 t-68.5 -72.5q20 -28 33 -44.5t38 -45.5t49 -44t44 -15q46 0 70.5 30.5t24.5 78.5zM358 241q-26 50 -73.5 101.5t-88.5 51.5q-46 0 -71 -31t-25 -80q0 -55 29 -101.5t79 -46.5q35 0 82 35.5t68 70.5z"/>
<glyph glyph-name="logicaland" horiz-adv-x="481" unicode="∧" d="M242 386h-2l-172 -388h-53l200 444h52l199 -444h-53z"/>
<glyph glyph-name="logicalor" horiz-adv-x="481" unicode="∨" d="M239 46h2l172 388h53l-200 -444h-52l-199 444h53z"/>
<glyph glyph-name="intersection" horiz-adv-x="489" unicode="∩" d="M118 0h-51v212q0 51 8 89.5t27.5 71t56.5 49.5t91 17q52 0 86.5 -17t53 -49.5t25.5 -70.5t7 -90v-212h-51v212q0 57 -8.5 94.5t-36 63.5t-74.5 26q-77 0 -105.5 -48t-28.5 -136v-212z"/>
<glyph glyph-name="union" horiz-adv-x="489" unicode="∪" d="M371 429h51v-212q0 -51 -8 -89.5t-27.5 -71t-56.5 -49.5t-91 -17q-52 0 -86.5 17t-53 49.5t-25.5 70.5t-7 90v212h51v-212q0 -57 8.5 -94.5t36 -63.5t74.5 -26q77 0 105.5 48t28.5 136v212z"/>
<glyph glyph-name="similar" horiz-adv-x="527" unicode="∼" d="M56 209q10 51 47 89.5t81 38.5q22 0 74 -32q52 -33 73 -33q26 0 55 16.5t44 50.5l17 -6q-14 -49 -40 -78t-44.5 -35.5t-35.5 -6.5q-28 0 -75 33q-47 32 -74 32q-28 0 -60.5 -20t-48.5 -52z"/>
<glyph glyph-name="congruent" horiz-adv-x="527" unicode="≅" d="M461 194v-49h-395v49h395zM461 319v-49h-395v49h395zM69 364q10 51 47 89.5t81 38.5q22 0 74 -32q52 -33 73 -33q26 0 55 16.5t44 50.5l17 -6q-14 -49 -40 -78t-44.5 -35.5t-35.5 -6.5q-28 0 -75 33q-47 32 -74 32q-28 0 -60.5 -20t-48.5 -52z"/>
<glyph glyph-name="approxequal" horiz-adv-x="527" unicode="≈" d="M71 226l-13 3q10 51 47 89.5t81 38.5q22 0 74 -32q52 -33 73 -33q26 0 55 16.5t44 50.5l17 -6q-14 -49 -40 -78t-44.5 -35.5t-35.5 -6.5q-28 0 -75 33q-47 32 -74 32q-28 0 -60.5 -20t-48.5 -52zM54 83q10 51 47 89.5t81 38.5q22 0 74 -32q52 -33 73 -33q26 0 55 16.5 t44 50.5l17 -6q-14 -49 -40 -78t-44.5 -35.5t-35.5 -6.5q-28 0 -75 33q-47 32 -74 32q-28 0 -60.5 -20t-48.5 -52z"/>
<glyph glyph-name="notequal" horiz-adv-x="527" unicode="≠" d="M461 318v-49h-167l-25 -76h192v-49h-209l-66 -197l-38 12l62 185h-144v49h161l25 76h-186v49h203l84 249l38 -10l-80 -239h150z"/>
<glyph glyph-name="equivalence" horiz-adv-x="527" unicode="≡" d="M461 149v-44h-395v44h395zM461 256v-44h-395v44h395zM461 364v-44h-395v44h395z"/>
<glyph glyph-name="lessequal" horiz-adv-x="527" unicode="≤" d="M142 252l317 -116v-50l-390 142v48l390 141v-50zM68 11v47h390v-47h-390z"/>
<glyph glyph-name="greaterequal" horiz-adv-x="527" unicode="≥" d="M386 251l-317 116v50l390 -142v-48l-390 -141v50zM68 11v47h390v-47h-390z"/>
<glyph glyph-name="propersubset" horiz-adv-x="522" unicode="⊂" d="M483 85v-42h-212q-39 0 -70 4t-62.5 16t-53 31.5t-35 53t-13.5 78.5q0 42 14 73.5t35.5 50t54 29t62.5 14t68 3.5h212v-42h-212q-186 0 -186 -127q0 -81 49 -111.5t137 -30.5h212z"/>
<glyph glyph-name="propersuperset" horiz-adv-x="522" unicode="⊃" d="M39 354v42h212q39 0 70 -4t62.5 -16t53 -31.5t35 -53t13.5 -78.5q0 -42 -14 -73.5t-35.5 -50t-54 -29t-62.5 -14t-68 -3.5h-212v42h212q186 0 186 127q0 81 -49 111.5t-137 30.5h-212z"/>
<glyph glyph-name="circleplus" horiz-adv-x="564" unicode="⊕" d="M261 399q-65 -7 -109.5 -53.5t-50.5 -112.5h160v166zM261 30v164h-160q7 -65 51.5 -111t108.5 -53zM306 31q63 8 106.5 53.5t50.5 109.5h-157v-163zM306 398v-165h157q-6 64 -50 110.5t-107 54.5zM281 -10q-93 0 -159 66t-66 158t66.5 158.5t158.5 66.5q93 0 160 -66.5 t67 -158.5q0 -93 -67 -158.5t-160 -65.5z"/>
<glyph glyph-name="circlemultiply" horiz-adv-x="564" unicode="⊗" d="M168 69q50 -40 113 -40q66 0 114 39l-114 114zM136 327q-36 -49 -36 -113q0 -59 34 -108l112 111zM391 363q-48 37 -110 37t-110 -37l110 -111zM426 328l-111 -111l114 -113q35 49 35 110q0 63 -38 114zM281 -10q-93 0 -159 66t-66 158t66.5 158.5t158.5 66.5 q93 0 160 -66.5t67 -158.5q0 -93 -67 -158.5t-160 -65.5z"/>
<glyph glyph-name="perpendicular" horiz-adv-x="629" unicode="⊥" d="M289 578h51v-533h269v-45h-589v45h269v533z"/>
<glyph glyph-name="dotmath" horiz-adv-x="253" unicode="⋅" d="M69 251v4q13 38 54 54h4q41 -14 54 -54v-4q-14 -44 -54 -54h-4q-24 5 -35.5 17t-18.5 37z"/>
<glyph glyph-name="uni2329" horiz-adv-x="351" unicode="〈" d="M131 267l-3 -4l3 -4q51 -79 113 -194.5t97 -205.5q-5 -12 -22 -12q-46 96 -116.5 200.5t-133.5 177.5l-33 38l33 38q63 73 133.5 177.5t116.5 200.5q17 0 22 -12q-35 -90 -97 -205.5t-113 -194.5z"/>
<glyph glyph-name="uni232A" horiz-adv-x="351" unicode="〉" d="M220 258l3 4l-3 4q-51 79 -113 194.5t-97 205.5q5 12 22 12q46 -96 116.5 -200.5t133.5 -177.5l33 -38l-33 -38q-63 -73 -133.5 -177.5t-116.5 -200.5q-17 0 -22 12q35 90 97 205.5t113 194.5z"/>
<glyph glyph-name="lozenge" horiz-adv-x="667" unicode="◊" d="M66 208l259 346l258 -346l-258 -345zM125 208l200 -265l199 265l-199 266z"/>
<glyph glyph-name="uni2660" horiz-adv-x="722" unicode="♠" d="M426 182q-31 0 -31 -63q0 -90 49 -98v-21h-168v21q51 9 51 99q0 31 -9 46.5t-19 15.5q-13 0 -25.5 -15t-23 -33.5t-36 -33.5t-61.5 -15q-43 0 -79.5 32t-36.5 96t51 118q174 182 271 302q137 -170 274 -302q53 -52 53 -121q0 -57 -36 -91t-82 -34q-36 0 -61 15 t-35.5 33.5t-22 33.5t-23.5 15z"/>
<glyph glyph-name="uni2663" horiz-adv-x="777" unicode="♣" d="M429 124q0 -37 11.5 -67t35.5 -36v-21h-155v21q47 10 47 102q0 58 -17 58q-14 0 -35.5 -22.5t-56 -45.5t-79.5 -23q-56 0 -90.5 36.5t-34.5 95.5q0 32 10 62t41 56t80 26q37 0 88 -25t64 -25q18 0 18 17q0 12 -17 25.5t-38 26.5t-38 40t-17 62q0 47 38.5 83.5t115.5 36.5 q73 0 112.5 -35t39.5 -85q0 -35 -17.5 -62.5t-38 -40.5t-38 -26.5t-17.5 -23.5q0 -7 5.5 -12.5t13.5 -5.5q11 0 63.5 25.5t89.5 25.5q40 0 68 -16.5t40 -42t17 -46.5t5 -40q0 -59 -33.5 -95t-91.5 -36q-29 0 -53.5 9.5t-41 22.5t-29.5 26.5t-25 23t-22 9.5q-6 0 -9.5 -3.5 t-6 -17t-2.5 -37.5z"/>
<glyph glyph-name="uni2665" horiz-adv-x="725" unicode="♥" d="M540 596q59 0 103 -36t44 -113q0 -36 -13.5 -75t-31 -69.5t-50 -71t-53 -63t-57.5 -60.5l-121 -125l-112 121q-105 112 -143 169q-67 98 -67 175q0 78 45 113t100 35q42 0 74 -14.5t48.5 -35t27.5 -40.5t17 -34.5t9 -14.5q4 0 10 14.5t17 34.5t28 40.5t49.5 35t75.5 14.5 z"/>
<glyph glyph-name="uni2666" horiz-adv-x="645" unicode="♦" d="M326 620q148 -200 285 -318q-153 -150 -285 -319q-124 161 -292 319q157 141 292 318z"/>
</font>
</defs>
</svg>
