<?xml version="1.0" encoding="UTF-8" standalone="no"?>
<!-- Created with Inkscape (http://www.inkscape.org/) -->

<svg
   width="1920"
   height="1080"
   id="svg2"
   version="1.1"
   inkscape:version="1.3 (0e150ed6c4, 2023-07-21)"
   sodipodi:docname="clouds-dark.svg"
   xmlns:inkscape="http://www.inkscape.org/namespaces/inkscape"
   xmlns:sodipodi="http://sodipodi.sourceforge.net/DTD/sodipodi-0.dtd"
   xmlns:xlink="http://www.w3.org/1999/xlink"
   xmlns="http://www.w3.org/2000/svg"
   xmlns:svg="http://www.w3.org/2000/svg"
   xmlns:rdf="http://www.w3.org/1999/02/22-rdf-syntax-ns#"
   xmlns:cc="http://creativecommons.org/ns#"
   xmlns:dc="http://purl.org/dc/elements/1.1/">
  <defs
     id="defs4">
    <linearGradient
       id="linearGradient4">
      <stop
         style="stop-color:#1f2f4f;stop-opacity:1;"
         offset="0"
         id="stop3" />
      <stop
         style="stop-color:#2f3f5f;stop-opacity:1;"
         offset="1"
         id="stop4" />
    </linearGradient>
    <linearGradient
       inkscape:collect="always"
       xlink:href="#linearGradient4"
       id="linearGradient4111"
       x1="308"
       y1="1338"
       x2="308"
       y2="1031"
       gradientUnits="userSpaceOnUse" />
    <linearGradient
       inkscape:collect="always"
       xlink:href="#linearGradient4"
       id="linearGradient4113"
       x1="1567.0656"
       y1="738.36053"
       x2="1567.0656"
       y2="497.01218"
       gradientUnits="userSpaceOnUse" />
  </defs>
  <sodipodi:namedview
     id="base"
     pagecolor="#ffffff"
     bordercolor="#666666"
     borderopacity="1.0"
     inkscape:pageopacity="0.0"
     inkscape:pageshadow="2"
     inkscape:zoom="0.25"
     inkscape:cx="944"
     inkscape:cy="622"
     inkscape:document-units="px"
     inkscape:current-layer="layer1"
     showgrid="false"
     borderlayer="true"
     inkscape:snap-bbox="false"
     inkscape:snap-page="false"
     inkscape:window-width="1531"
     inkscape:window-height="721"
     inkscape:window-x="72"
     inkscape:window-y="0"
     inkscape:window-maximized="0"
     inkscape:bbox-paths="false"
     inkscape:snap-bbox-edge-midpoints="false"
     inkscape:snap-bbox-midpoints="false"
     inkscape:showpageshadow="2"
     inkscape:pagecheckerboard="0"
     inkscape:deskcolor="#d1d1d1" />
  <metadata
     id="metadata7">
    <rdf:RDF>
      <cc:Work
         rdf:about="">
        <dc:format>image/svg+xml</dc:format>
        <dc:type
           rdf:resource="http://purl.org/dc/dcmitype/StillImage" />
      </cc:Work>
    </rdf:RDF>
  </metadata>
  <g
     inkscape:label="Layer 1"
     inkscape:groupmode="layer"
     id="layer1"
     transform="translate(0,27.637817)">
    <path
       style="fill:url(#linearGradient4113);fill-opacity:1;fill-rule:nonzero;stroke:none"
       d="m 1635.6116,255.67007 c -51.8158,0.5065 -96.023,32.23188 -114.9391,77.12716 -0.1042,7.6e-4 -0.2083,0.002 -0.3125,0.003 -45.6138,0.44587 -85.1325,25.8785 -105.7002,63.16118 -18.7902,-16.08577 -43.2628,-25.70335 -69.9395,-25.44259 -58.5394,0.57222 -105.5311,48.49165 -104.9589,107.03103 0.02,2.0312 0.083,4.0588 0.2155,6.06069 -10.2968,-2.55602 -21.0933,-3.85651 -32.1944,-3.748 -70.6891,0.69098 -127.4337,58.55595 -126.7427,129.24502 0.6909,70.68904 58.5525,129.25294 129.245,129.25294 245.8526,0 480.9412,-0.083 714.0832,0 71.797,0.026 129.4248,-56.9606 128.7231,-128.75421 -0.6072,-62.11904 -44.7052,-113.60311 -103.0794,-125.90472 3.6735,-11.043 5.6206,-22.8602 5.5005,-35.14919 -0.5495,-56.21651 -43.9622,-101.98393 -98.8901,-106.56975 -17.6847,-37.86243 -56.2694,-63.9218 -100.7817,-63.48669 -13.2293,0.12932 -25.8829,2.59673 -37.5897,6.99275 -22.2688,-18.86493 -51.1648,-30.12633 -82.6391,-29.81867 z"
       id="path3763"
       inkscape:connector-curvature="0"
       sodipodi:nodetypes="ccscsscssssscscscsc" />
    <path
       style="fill:url(#linearGradient4111);fill-opacity:1;fill-rule:nonzero;stroke:none"
       d="m 46,724 c -89.470129,0 -162,72.52987 -162,162 0,1.10322 0.009,2.21453 0.0312,3.3125 C -122.52764,888.44846 -129.20518,888 -136,888 c -83.94728,0 -152,68.05272 -152,152 0,66.0421 42.12754,122.2473 100.96875,143.2188 C -177.42178,1275.8072 -99.130249,1338 -4,1338 c 249.70499,0 452.38346,0 648,0 76.28491,0 140.10199,-63.394 156.125,-134.8438 C 858.63406,1196.1755 904,1146.3886 904,1086 c 0,-65.1696 -52.8304,-118 -118,-118 -38.59782,0 -72.87741,18.53603 -94.40625,47.1875 -5.18822,-1.6137 -10.50649,-2.9463 -15.90625,-4.0313 C 671.15511,949.01702 619.29585,900 556,900 c -35.03952,0 -66.56132,15.01841 -88.5,38.96875 -23.96369,-26.58187 -57.8243,-44.06109 -95.78125,-46.625 C 371.89634,889.58454 372,886.80407 372,884 372,813.30755 314.69245,756 244,756 c -28.07941,0 -54.0529,9.04448 -75.15625,24.375 C 139.1346,745.85032 95.12066,724 46,724 z"
       transform="translate(0,-27.637817)"
       id="path3788"
       inkscape:connector-curvature="0"
       sodipodi:nodetypes="sscsscsscssccsccsscs" />
  </g>
</svg>
